<?xml version="1.0" encoding="UTF-8"?><svg id="Working_File" xmlns="http://www.w3.org/2000/svg" viewBox="0 0 177 639"><defs><style>.cls-1,.cls-2,.cls-3{fill:none;}.cls-4{letter-spacing:.01em;}.cls-5{letter-spacing:.01em;}.cls-6{letter-spacing:-.02em;}.cls-7{letter-spacing:0em;}.cls-8{letter-spacing:0em;}.cls-9{letter-spacing:0em;}.cls-10,.cls-11,.cls-12,.cls-13,.cls-14,.cls-15{isolation:isolate;}.cls-10,.cls-11,.cls-14{font-size:15px;}.cls-10,.cls-12{font-family:ULModerat-Bold, 'UL Moderat';font-weight:700;}.cls-10,.cls-14{fill:#fff;}.cls-16{fill:#efefef;}.cls-17{fill:#00a451;}.cls-18{fill:#122c49;}.cls-19{letter-spacing:-.02em;}.cls-20{letter-spacing:-.02em;}.cls-21{letter-spacing:-.01em;}.cls-22{letter-spacing:0em;}.cls-11{font-family:ULModerat-Medium, 'UL Moderat';font-weight:500;}.cls-23{letter-spacing:0em;}.cls-24{letter-spacing:0em;}.cls-25{letter-spacing:-.02em;}.cls-12{font-size:20px;}.cls-26{letter-spacing:-.04em;}.cls-27{letter-spacing:0em;}.cls-28{letter-spacing:0em;}.cls-29{letter-spacing:0em;}.cls-30{letter-spacing:-.02em;}.cls-31{letter-spacing:-.01em;}.cls-32{letter-spacing:0em;}.cls-33{letter-spacing:0em;}.cls-34{letter-spacing:0em;}.cls-35{letter-spacing:-.05em;}.cls-36{letter-spacing:-.05em;}.cls-37{letter-spacing:0em;}.cls-2{stroke:#000;stroke-linecap:round;}.cls-2,.cls-3{stroke-width:3px;}.cls-3{stroke:#122c49;}.cls-38{letter-spacing:0em;}.cls-39{letter-spacing:-.02em;}.cls-40{letter-spacing:-.02em;}.cls-14,.cls-15{font-family:ULModerat-Regular, 'UL Moderat';}.cls-15{font-size:12px;}.cls-41{letter-spacing:-.07em;}.cls-42{letter-spacing:0em;}.cls-43{letter-spacing:.01em;}.cls-44{letter-spacing:-.02em;}</style></defs><g id="Group_187"><g id="Ellipse_6"><circle class="cls-1" cx="89" cy="551" r="88"/><circle class="cls-3" cx="89" cy="551" r="86.5"/></g><circle id="Ellipse_48" class="cls-16" cx="89" cy="317" r="85"/><line id="Line_166" class="cls-2" x1="89" y1="437" x2="89" y2="449"/><line id="Line_172" class="cls-2" x1="89" y1="415" x2="89" y2="427"/><line id="Line_146" class="cls-2" x1="89" y1="188" x2="89" y2="200"/><line id="Line_147" class="cls-2" x1="89" y1="210" x2="89" y2="222"/><g id="Group_100"><g id="Group_34"><g id="Group_28"><g id="Car_horns" class="cls-13"><text class="cls-15" transform="translate(50 298)"><tspan class="cls-30" x="0" y="0">C</tspan><tspan class="cls-7" x="9.01" y="0">a</tspan><tspan class="cls-27" x="15.29" y="0">r hor</tspan><tspan class="cls-38" x="41.12" y="0">n</tspan><tspan class="cls-27" x="47.78" y="0">s</tspan></text></g><circle id="Ellipse_14" cx="44.5" cy="294.5" r="1.5"/></g><g id="Group_27"><g id="Sporting_Events" class="cls-13"><text class="cls-15" transform="translate(50 279)"><tspan class="cls-28" x="0" y="0">S</tspan><tspan class="cls-24" x="6.98" y="0">p</tspan><tspan class="cls-27" x="14.34" y="0">o</tspan><tspan class="cls-43" x="21.71" y="0">r</tspan><tspan class="cls-4" x="26.15" y="0">t</tspan><tspan x="30.46" y="0">i</tspan><tspan class="cls-40" x="33.26" y="0">n</tspan><tspan x="39.86" y="0">g </tspan><tspan class="cls-36" x="49.26" y="0">E</tspan><tspan class="cls-25" x="55.77" y="0">v</tspan><tspan class="cls-22" x="61.97" y="0">e</tspan><tspan class="cls-20" x="68.94" y="0">n</tspan><tspan x="75.5" y="0">ts</tspan></text></g><circle id="Ellipse_14-2" cx="44.5" cy="275.5" r="1.5"/></g></g></g><g id="Group_98"><circle id="Ellipse_18" class="cls-18" cx="89" cy="89" r="89"/><g id="Recommended_Duration:_Max_volume_for_15min_time_period" class="cls-13"><text class="cls-10" transform="translate(29 62)"><tspan class="cls-26" x="0" y="0">R</tspan><tspan class="cls-37" x="8.98" y="0">e</tspan><tspan class="cls-42" x="17.81" y="0">c</tspan><tspan x="26.48" y="0">ommended</tspan></text><text class="cls-10" transform="translate(29 83)"><tspan class="cls-23" x="0" y="0">D</tspan><tspan class="cls-37" x="10.8" y="0">u</tspan><tspan class="cls-31" x="19.5" y="0">r</tspan><tspan class="cls-21" x="25.15" y="0">a</tspan><tspan class="cls-29" x="32.98" y="0">t</tspan><tspan x="39.01" y="0">io</tspan><tspan class="cls-44" x="52.11" y="0">n</tspan><tspan x="60.7" y="0">: </tspan></text><text class="cls-14" transform="translate(97.4 83)"><tspan class="cls-19" x="0" y="0">M</tspan><tspan x="12.89" y="0">ax </tspan></text><text class="cls-14" transform="translate(29 104)"><tspan class="cls-19" x="0" y="0">v</tspan><tspan x="7.74" y="0">olume </tspan><tspan class="cls-6" x="53.98" y="0">f</tspan><tspan x="58.89" y="0">or 1</tspan><tspan class="cls-39" x="83.13" y="0">5</tspan><tspan x="91.56" y="0">min </tspan></text><text class="cls-14" transform="translate(29 125)"><tspan class="cls-5" x="0" y="0">t</tspan><tspan x="5.38" y="0">ime </tspan><tspan class="cls-34" x="34.09" y="0">p</tspan><tspan x="43.29" y="0">e</tspan><tspan class="cls-9" x="52" y="0">r</tspan><tspan x="57.37" y="0">i</tspan><tspan class="cls-34" x="60.88" y="0">o</tspan><tspan x="70.14" y="0">d</tspan></text></g></g><g id="Group_136"><g id="_dB_" class="cls-13"><text class="cls-12" transform="translate(71.31 569)"><tspan class="cls-41" x="0" y="0">(</tspan><tspan class="cls-32" x="5.24" y="0">d</tspan><tspan class="cls-35" x="17.4" y="0">B</tspan><tspan class="cls-8" x="28.82" y="0">)</tspan></text></g><g id="_100" class="cls-13"><text class="cls-12" transform="translate(72.33 545)"><tspan x="0" y="0">1</tspan><tspan class="cls-33" x="8.4" y="0">0</tspan><tspan x="20.96" y="0">0</tspan></text></g></g><g id="Group_173"><g id="EXAMPLE" class="cls-13"><text class="cls-11" transform="translate(55 328)"><tspan x="0" y="0">EXAMPLE</tspan></text></g></g></g><path d="m89,388.49c-7.97,0-15.56-3.84-20.3-10.27l1.45-1.07c4.4,5.97,11.44,9.53,18.85,9.53,12.9,0,23.4-10.5,23.4-23.4s-10.5-23.4-23.4-23.4-23.4,10.5-23.4,23.4c0,2.86.58,5.78,1.74,8.67l-1.67.67c-1.24-3.1-1.86-6.24-1.86-9.33,0-13.89,11.3-25.2,25.2-25.2s25.2,11.3,25.2,25.2-11.3,25.2-25.2,25.2Z"/><path d="m81.97,373.96c-.19,0-.37-.05-.54-.15-.33-.2-.53-.56-.53-.97v-19.12c0-.41.2-.77.53-.97.33-.2.74-.19,1.1,0l17.41,9.57c.37.2.59.56.59.95s-.22.75-.59.95l-17.41,9.57c-.18.1-.37.15-.56.15Zm.73-19.05v16.75l15.23-8.38-15.23-8.38Zm16.37,7.75s0,0,0,0h0Z"/><circle class="cls-17" cx="69.21" cy="377.69" r="3.6"/></svg>