<svg xmlns="http://www.w3.org/2000/svg" xmlns:xlink="http://www.w3.org/1999/xlink" width="178" height="639" viewBox="0 0 178 639">
    <defs>
        <clipPath id="clip-path">
            <rect id="Rectangle_33" data-name="Rectangle 33" width="53" height="54" fill="#fff"/>
        </clipPath>
    </defs>
    <g id="Group_187" data-name="Group 187" transform="translate(-837 -50)">
        <g id="Ellipse_6" data-name="Ellipse 6" transform="translate(838 513)" fill="none" stroke="#122c49" stroke-width="3">
            <circle cx="88" cy="88" r="88" stroke="none"/>
            <circle cx="88" cy="88" r="86.5" fill="none"/>
        </g>
        <circle id="Ellipse_48" data-name="Ellipse 48" cx="85" cy="85" r="85" transform="translate(841 282)" fill="#efefef"/>
        <line id="Line_166" data-name="Line 166" x2="12" transform="translate(926 487) rotate(90)" fill="none" stroke="#000" stroke-linecap="round" stroke-width="3"/>
        <line id="Line_172" data-name="Line 172" x2="12" transform="translate(926 465) rotate(90)" fill="none" stroke="#000" stroke-linecap="round" stroke-width="3"/>
        <line id="Line_146" data-name="Line 146" x2="12" transform="translate(926 238) rotate(90)" fill="none" stroke="#000" stroke-linecap="round" stroke-width="3"/>
        <line id="Line_147" data-name="Line 147" x2="12" transform="translate(926 260) rotate(90)" fill="none" stroke="#000" stroke-linecap="round" stroke-width="3"/>
        <g id="Group_100" data-name="Group 100" transform="translate(258 -226)">
            <g id="Group_34" data-name="Group 34" transform="translate(217 -2)">
                <g id="Group_28" data-name="Group 28" transform="translate(0 19)">
                    <text id="Car_horns" data-name="Car horns" transform="translate(412 564)" font-size="12" font-family="SegoeUI, Segoe UI"><tspan x="0" y="0">Car horns</tspan></text>
                    <circle id="Ellipse_14" data-name="Ellipse 14" cx="1.5" cy="1.5" r="1.5" transform="translate(405 559)"/>
                </g>
                <g id="Group_27" data-name="Group 27">
                    <text id="Sporting_Events" data-name="Sporting Events" transform="translate(412 564)" font-size="12" font-family="SegoeUI, Segoe UI"><tspan x="0" y="0">Sporting Events</tspan></text>
                    <circle id="Ellipse_14-2" data-name="Ellipse 14" cx="1.5" cy="1.5" r="1.5" transform="translate(405 559)"/>
                </g>
            </g>
        </g>
        <g id="Group_98" data-name="Group 98" transform="translate(264 -411)">
            <circle id="Ellipse_18" data-name="Ellipse 18" cx="89" cy="89" r="89" transform="translate(573 461)" fill="#122c49"/>
            <text id="Recommended_Duration:_Max_volume_for_15min_time_period" data-name="Recommended
Duration: Max volume for 15min time period" transform="translate(602 511)" fill="#fff" font-size="15" font-family="SegoeUI-Bold, Segoe UI" font-weight="700"><tspan x="0" y="16">Recommended</tspan><tspan x="0" y="37">Duration: </tspan><tspan y="37" font-family="SegoeUI, Segoe UI" font-weight="400">Max </tspan><tspan x="0" y="58" font-family="SegoeUI, Segoe UI" font-weight="400">volume for 15min </tspan><tspan x="0" y="79" font-family="SegoeUI, Segoe UI" font-weight="400">time period</tspan></text>
        </g>
        <g id="Group_136" data-name="Group 136" transform="translate(181 -197)">
            <text id="_dB_" data-name="(dB)" transform="translate(745 816)" fill="#123a28" font-size="20" font-family="SegoeUI-Bold, Segoe UI" font-weight="700"><tspan x="-19.985" y="0">(dB)</tspan></text>
            <text id="_100" data-name="100" transform="translate(745 792)" fill="#123a28" font-size="20" font-family="SegoeUI-Bold, Segoe UI" font-weight="700"><tspan x="-17.256" y="0">100</tspan></text>
        </g>
        <g id="Group_173" data-name="Group 173" transform="translate(-639)">
            <g id="Group_170" data-name="Group 170" transform="translate(1269)">
                <path id="Path_22" data-name="Path 22" d="M170,85A85,85,0,0,1,0,85Z" transform="translate(211 282)" fill="#00a451"/>
                <g id="Group_145" data-name="Group 145" transform="translate(322 445) rotate(180)">
                    <g id="Group_144" data-name="Group 144" clip-path="url(#clip-path)">
                        <path id="Path_19" data-name="Path 19" d="M24.6,0A24.708,24.708,0,0,1,44.409,10.02l-1.414,1.042a24.23,24.23,0,1,0,2.746,5.075l1.632-.651A24.554,24.554,0,1,1,24.6,0" transform="translate(1.55 1.914)" fill="#fff"/>
                        <path id="Path_20" data-name="Path 20" d="M18.114,0a1.027,1.027,0,0,1,.525.143,1.075,1.075,0,0,1,.516.942V19.751a1.052,1.052,0,0,1-1.59.94L.574,11.347a1.038,1.038,0,0,1,0-1.857L17.565.145A1.139,1.139,0,0,1,18.114,0M17.4,18.6V2.241L2.532,10.418ZM1.421,11.029h0Z" transform="translate(14.896 16.092)" fill="#fff"/>
                        <path id="Path_21" data-name="Path 21" d="M7.027,3.514A3.514,3.514,0,1,1,3.514,0,3.514,3.514,0,0,1,7.027,3.514" transform="translate(41.957 8.942)" fill="#fff"/>
                    </g>
                </g>
            </g>
            <text id="EXAMPLE" transform="translate(1531 385)" fill="#fff" font-size="15" font-family="SegoeUI, Segoe UI"><tspan x="0" y="0">EXAMPLE</tspan></text>
        </g>
    </g>
</svg>
