<?xml version="1.0" encoding="utf-8"?>
<!-- Generator: Adobe Illustrator 27.6.1, SVG Export Plug-In . SVG Version: 6.00 Build 0)  -->
<svg version="1.1" xmlns="http://www.w3.org/2000/svg" xmlns:xlink="http://www.w3.org/1999/xlink" x="0px" y="0px"
	 viewBox="0 0 177 639" style="enable-background:new 0 0 177 639;" xml:space="preserve">
<style type="text/css">
	.st0{fill:#00A451;}
	.st1{fill:none;}
	.st2{enable-background:new    ;}
	.st3{fill:#FFFFFF;}
	.st4{fill:#122C49;}
</style>
<g id="Layer_2">
	<circle class="st0" cx="89.3" cy="551" r="86.2"/>
</g>
<g id="Working_File">
	<g id="Group_187">
		<g id="Ellipse_6">
			<g>
				<circle class="st1" cx="89" cy="551" r="88"/>
			</g>
			<g>
				<path class="st0" d="M89,639c-48.5,0-88-39.5-88-88s39.5-88,88-88s88,39.5,88,88S137.5,639,89,639z M89,466
					c-46.9,0-85,38.1-85,85s38.1,85,85,85s85-38.1,85-85S135.9,466,89,466z"/>
			</g>
		</g>
		<g id="Ellipse_48">
			<circle class="st0" cx="89" cy="317" r="85"/>
		</g>
		<g id="Line_166">
			<path d="M89,450.5c-0.8,0-1.5-0.7-1.5-1.5v-12c0-0.8,0.7-1.5,1.5-1.5s1.5,0.7,1.5,1.5v12C90.5,449.8,89.8,450.5,89,450.5z"/>
		</g>
		<g id="Line_172">
			<path d="M89,428.5c-0.8,0-1.5-0.7-1.5-1.5v-12c0-0.8,0.7-1.5,1.5-1.5s1.5,0.7,1.5,1.5v12C90.5,427.8,89.8,428.5,89,428.5z"/>
		</g>
		<g id="Line_146">
			<path d="M89,201.5c-0.8,0-1.5-0.7-1.5-1.5v-12c0-0.8,0.7-1.5,1.5-1.5s1.5,0.7,1.5,1.5v12C90.5,200.8,89.8,201.5,89,201.5z"/>
		</g>
		<g id="Line_147">
			<path d="M89,223.5c-0.8,0-1.5-0.7-1.5-1.5v-12c0-0.8,0.7-1.5,1.5-1.5s1.5,0.7,1.5,1.5v12C90.5,222.8,89.8,223.5,89,223.5z"/>
		</g>
		<g id="Group_100">
			<g id="Group_34">
				<g id="Group_28">
					<g id="Car_horns">
						<g class="st2">
							<path class="st3" d="M50.8,293.8c0-2.5,1.7-4.3,4-4.3c1.9,0,3.3,1.2,3.6,2.7h-1c-0.3-1-1.2-1.8-2.6-1.8c-1.8,0-3,1.4-3,3.4
								s1.3,3.4,3,3.4c1.5,0,2.3-0.7,2.6-1.8h1c-0.3,1.6-1.7,2.7-3.6,2.7C52.6,298.1,50.8,296.3,50.8,293.8z"/>
						</g>
						<g class="st2">
							<path class="st3" d="M59.7,296.4c0-1.2,1-1.9,3.1-2.1h0.6v-0.2c0-0.8-0.5-1.3-1.3-1.3s-1.2,0.4-1.4,1h-1
								c0.1-1.1,1-1.9,2.3-1.9s2.2,0.8,2.2,2.2v2.8c0,0.4,0.2,0.5,0.5,0.5c0,0,0.1,0,0.2,0v0.7c-0.1,0-0.3,0.1-0.5,0.1
								c-0.5,0-1-0.3-1.1-0.9l0,0h-0.1c-0.4,0.6-1,1-1.9,1C60.4,298.1,59.7,297.5,59.7,296.4z M61.7,297.3c1.1,0,1.8-0.8,1.8-2V295
								H63c-1.5,0.1-2.2,0.6-2.2,1.3C60.7,297,61.1,297.3,61.7,297.3z"/>
						</g>
						<g class="st2">
							<path class="st3" d="M66.2,292H67l0.1,0.9h0.1c0.2-0.4,0.7-0.9,1.8-0.9c0.1,0,0.2,0,0.3,0v0.9c-0.2,0-0.2,0-0.3,0
								c-1,0-1.7,0.7-1.7,2.1v3h-0.9v-6H66.2z"/>
							<path class="st3" d="M76.1,292.8c-0.8,0-1.6,0.5-1.6,1.8v3.4h-0.9v-8.6h0.9v3.4h0.1c0.2-0.3,0.7-0.8,1.6-0.8
								c1.3,0,2.2,0.8,2.2,2.4v3.7h-0.9v-3.6C77.6,293.3,77,292.8,76.1,292.8z"/>
							<path class="st3" d="M80.1,295c0-1.8,1.3-3.1,3-3.1s3,1.3,3,3.1c0,1.8-1.3,3.1-3,3.1S80.1,296.8,80.1,295z M83.2,297.2
								c1.2,0,2.1-1,2.1-2.2s-0.9-2.2-2.1-2.2s-2.1,1-2.1,2.2C81.1,296.3,82,297.2,83.2,297.2z"/>
							<path class="st3" d="M87.8,292h0.8l0.1,0.9h0.1c0.2-0.4,0.7-0.9,1.8-0.9c0.1,0,0.2,0,0.3,0v0.9c-0.2,0-0.2,0-0.3,0
								c-1,0-1.7,0.7-1.7,2.1v3H88v-6H87.8z"/>
						</g>
						<g class="st2">
							<path class="st3" d="M94.6,292.8c-0.8,0-1.6,0.5-1.6,1.8v3.4h-0.9v-6h0.8l0.1,0.8l0,0c0.3-0.4,0.8-0.9,1.7-0.9
								c1.3,0,2.2,0.8,2.2,2.4v3.7H96v-3.6C96,293.3,95.4,292.8,94.6,292.8z"/>
						</g>
						<g class="st2">
							<path class="st3" d="M98.4,296.2h1c0.1,0.6,0.6,1.1,1.4,1.1c0.7,0,1.2-0.3,1.2-0.8s-0.3-0.7-0.9-0.9l-0.8-0.2
								c-1-0.3-1.6-0.8-1.6-1.7c0-1,0.9-1.7,2.1-1.7c1.1,0,2,0.7,2.1,1.7h-1c-0.1-0.5-0.5-0.9-1.2-0.9c-0.6,0-1.1,0.3-1.1,0.9
								c0,0.4,0.3,0.7,1,0.9l0.8,0.2c1.1,0.3,1.5,0.9,1.5,1.7c0,1.1-1,1.7-2.2,1.7C99.5,298.1,98.5,297.3,98.4,296.2z"/>
						</g>
					</g>
					<g id="Ellipse_14">
						<circle class="st3" cx="44.5" cy="294.5" r="1.5"/>
					</g>
				</g>
				<g id="Group_27">
					<g id="Sporting_Events">
						<g class="st2">
							<path class="st3" d="M50.7,276.6h1c0.1,1,0.8,1.6,2,1.6c0.8,0,1.7-0.5,1.7-1.4c0-0.8-0.5-1.2-1.7-1.6l-0.8-0.3
								c-1.3-0.4-1.9-1.1-1.9-2.2c0-1.3,1.2-2.2,2.5-2.2c1.5,0,2.7,1,2.7,2.2h-1c-0.1-0.7-0.8-1.3-1.7-1.3c-0.8,0-1.5,0.6-1.5,1.3
								c0,0.7,0.5,1.1,1.5,1.4l0.8,0.2c1.4,0.5,2.1,1.2,2.1,2.5c0,1.4-1.2,2.3-2.7,2.3C51.9,279.1,50.8,278.1,50.7,276.6z"/>
						</g>
						<g class="st2">
							<path class="st3" d="M57.9,273h0.8l0.1,1h0.1c0.4-0.7,1.2-1.1,2-1.1c1.6,0,2.8,1.3,2.8,3.1s-1.2,3.1-2.8,3.1
								c-0.8,0-1.5-0.4-1.9-0.9h-0.1v3.2H58L57.9,273L57.9,273z M60.7,278.2c1.1,0,1.9-0.9,1.9-2.2c0-1.3-0.8-2.2-1.9-2.2
								c-1.1,0-1.9,0.9-1.9,2.2C58.9,277.4,59.6,278.2,60.7,278.2z"/>
						</g>
						<g class="st2">
							<path class="st3" d="M65,276c0-1.8,1.3-3.1,3-3.1s3,1.3,3,3.1c0,1.8-1.3,3.1-3,3.1S65,277.8,65,276z M68,278.2
								c1.2,0,2.1-1,2.1-2.2s-0.9-2.2-2.1-2.2s-2.1,1-2.1,2.2C66,277.3,66.8,278.2,68,278.2z"/>
						</g>
						<g class="st2">
							<path class="st3" d="M72.6,273h0.8l0.1,0.9h0.1c0.2-0.4,0.7-0.9,1.8-0.9c0.1,0,0.2,0,0.3,0v0.9c-0.2,0-0.2,0-0.3,0
								c-1,0-1.7,0.7-1.7,2.1v3h-0.9v-6H72.6z"/>
						</g>
						<g class="st2">
							<path class="st3" d="M77.6,277.7v-3.8h-1.2V273h0.3c0.7,0,1-0.4,1-1.1v-0.7h0.8v1.8H80v0.8h-1.4v3.6c0,0.5,0.3,0.8,0.7,0.8
								c0.2,0,0.4,0,0.5-0.1v0.8c-0.2,0.1-0.4,0.1-0.7,0.1C78.3,279.1,77.6,278.6,77.6,277.7z"/>
						</g>
						<g class="st2">
							<path class="st3" d="M81.9,270.6c0.4,0,0.6,0.3,0.6,0.6s-0.3,0.6-0.6,0.6s-0.6-0.3-0.6-0.6S81.5,270.6,81.9,270.6z M81.4,273
								h0.9v6h-0.9V273z"/>
						</g>
						<g class="st2">
							<path class="st3" d="M86.7,273.8c-0.8,0-1.6,0.5-1.6,1.8v3.4h-0.9v-6H85l0.1,0.8h0.1c0.3-0.4,0.8-0.9,1.7-0.9
								c1.3,0,2.2,0.8,2.2,2.4v3.7h-0.9v-3.6C88.2,274.3,87.5,273.8,86.7,273.8z"/>
						</g>
						<g class="st2">
							<path class="st3" d="M90.5,279.8l1.1-1.1c-0.6-0.2-0.9-0.7-0.9-1.2c0-0.6,0.4-1,0.8-1.2c-0.3-0.3-0.5-0.8-0.5-1.3
								c0-1.1,1-2,2.3-2c0.4,0,0.8,0.1,1.1,0.3l0.9-1.2l0.7,0.6l-1,1c0.3,0.3,0.5,0.8,0.5,1.3c0,1.1-1,2-2.3,2
								c-0.4,0-0.8-0.1-1.2-0.3c-0.3,0.1-0.5,0.4-0.5,0.7c0,0.4,0.3,0.7,0.8,0.7h1.3c1.2,0,2,0.7,2,1.7c0,1.2-1,1.9-2.5,1.9
								C91.6,281.5,90.7,280.4,90.5,279.8z M93.3,280.7c0.8,0,1.5-0.3,1.5-1c0-0.6-0.5-0.9-1.2-0.9h-1.1l-1,1.1
								C91.8,280.2,92.4,280.7,93.3,280.7z M93.3,276c0.7,0,1.3-0.5,1.3-1.2s-0.6-1.2-1.3-1.2c-0.7,0-1.3,0.5-1.3,1.2
								C92,275.6,92.5,276,93.3,276z"/>
						</g>
						<g class="st2">
							<path class="st3" d="M100.4,270.6h5.2v0.9h-4.3v2.8h3.7v0.9h-3.7v2.9h4.3v0.9h-5.2V270.6z"/>
						</g>
						<g class="st2">
							<path class="st3" d="M106.1,273h1l1.8,5h0.1l1.8-5h1l-2.2,6h-1.2L106.1,273z"/>
						</g>
						<g class="st2">
							<path class="st3" d="M112.6,276c0-1.8,1.3-3.1,2.9-3.1s2.7,1.2,2.7,2.9c0,0.1,0,0.3,0,0.4h-4.6c0.1,1.2,0.9,2,2,2
								c0.7,0,1.4-0.4,1.6-0.9h1c-0.2,1.1-1.3,1.8-2.6,1.8C113.9,279.1,112.6,277.8,112.6,276z M117.3,275.5c-0.1-1-0.8-1.7-1.7-1.7
								c-0.9,0-1.7,0.7-1.9,1.7H117.3z"/>
						</g>
						<g class="st2">
							<path class="st3" d="M122.4,273.8c-0.8,0-1.6,0.5-1.6,1.8v3.4h-0.9v-6h0.8l0.1,0.8h0.1c0.3-0.4,0.8-0.9,1.7-0.9
								c1.3,0,2.2,0.8,2.2,2.4v3.7h-0.9v-3.6C123.8,274.3,123.2,273.8,122.4,273.8z"/>
						</g>
						<g class="st2">
							<path class="st3" d="M127,277.7v-3.8h-1.2V273h0.3c0.7,0,1-0.4,1-1.1v-0.7h0.8v1.8h1.4v0.8h-1.4v3.6c0,0.5,0.3,0.8,0.7,0.8
								c0.2,0,0.4,0,0.5-0.1v0.8c-0.2,0.1-0.4,0.1-0.7,0.1C127.6,279.1,127,278.6,127,277.7z"/>
							<path class="st3" d="M130.3,277.2h1c0.1,0.6,0.6,1.1,1.4,1.1c0.7,0,1.2-0.3,1.2-0.8s-0.3-0.7-0.9-0.9l-0.8-0.2
								c-1-0.3-1.6-0.8-1.6-1.7c0-1,0.9-1.7,2.1-1.7c1.1,0,2,0.7,2.1,1.7h-1c-0.1-0.5-0.5-0.9-1.2-0.9c-0.6,0-1.1,0.3-1.1,0.9
								c0,0.4,0.3,0.7,1,0.9l0.8,0.2c1.1,0.3,1.5,0.9,1.5,1.7c0,1.1-1,1.7-2.2,1.7C131.4,279.1,130.4,278.3,130.3,277.2z"/>
						</g>
					</g>
					<g id="Ellipse_14-2">
						<circle class="st3" cx="44.5" cy="275.5" r="1.5"/>
					</g>
				</g>
			</g>
		</g>
		<g id="Group_98">
			<g id="Ellipse_18">
				<circle class="st4" cx="89" cy="89" r="89"/>
			</g>
			<g id="Recommended_Duration:_Max_volume_for_15min_time_period">
				<g class="st2">
					<path class="st3" d="M30.1,51.5h4c2.1,0,3.6,1.4,3.6,3.2c0,1.4-0.8,2.4-1.9,2.8L38,62h-2.2l-2-4h-1.5v4h-2.1L30.1,51.5
						L30.1,51.5z M33.9,56.2c1,0,1.6-0.6,1.6-1.5s-0.6-1.5-1.6-1.5h-1.7v3H33.9z"/>
				</g>
				<g class="st2">
					<path class="st3" d="M38.6,58.2c0-2.3,1.7-4,3.9-4c2.1,0,3.7,1.5,3.7,3.7c0,0.2,0,0.4,0,0.7h-5.4c0.1,1.1,0.9,1.8,1.9,1.8
						c0.7,0,1.3-0.3,1.5-0.9h2.1c-0.3,1.6-1.8,2.6-3.5,2.6C40.4,62.2,38.6,60.6,38.6,58.2z M44.1,57.4c-0.1-0.9-0.8-1.5-1.5-1.5
						c-0.8,0-1.6,0.6-1.8,1.5H44.1z"/>
				</g>
				<g class="st2">
					<path class="st3" d="M47.5,58.2c0-2.3,1.6-4,3.9-4c2,0,3.4,1.2,3.6,2.9h-2.1c-0.1-0.6-0.7-1.1-1.5-1.1c-1.1,0-1.8,0.9-1.8,2.2
						s0.8,2.2,1.8,2.2c0.9,0,1.4-0.5,1.5-1.1H55c-0.2,1.7-1.6,2.9-3.6,2.9C49.1,62.2,47.5,60.5,47.5,58.2z"/>
				</g>
				<g class="st2">
					<path class="st3" d="M56.1,58.2c0-2.3,1.8-4,4-4s4,1.6,4,4s-1.8,4-4,4S56.1,60.6,56.1,58.2z M60.1,60.4c1.1,0,1.9-0.9,1.9-2.2
						S61.2,56,60.1,56c-1.1,0-1.9,0.9-1.9,2.2C58.2,59.5,59,60.4,60.1,60.4z"/>
					<path class="st3" d="M69,56.1c-0.7,0-1.3,0.5-1.3,1.6V62h-2v-7.5h1.7l0.2,1h0.1c0.3-0.7,1-1.2,2-1.2s1.8,0.5,2.1,1.3h0.1
						c0.4-0.9,1.2-1.3,2.2-1.3c1.5,0,2.6,1,2.6,3V62h-2v-4.5c0-1-0.5-1.5-1.2-1.5s-1.3,0.5-1.3,1.6V62h-2v-4.5
						C70.2,56.5,69.7,56.1,69,56.1z"/>
					<path class="st3" d="M81.8,56.1c-0.7,0-1.3,0.5-1.3,1.6V62h-2v-7.5h1.7l0.2,1h0.1c0.3-0.7,1-1.2,2-1.2s1.8,0.5,2.1,1.3h0.1
						c0.4-0.9,1.2-1.3,2.2-1.3c1.5,0,2.6,1,2.6,3V62h-2v-4.5c0-1-0.5-1.5-1.2-1.5S85,56.5,85,57.6V62h-2v-4.5
						C83,56.5,82.5,56.1,81.8,56.1z"/>
					<path class="st3" d="M91.1,58.2c0-2.3,1.7-4,3.9-4c2.1,0,3.7,1.5,3.7,3.7c0,0.2,0,0.4,0,0.7h-5.4c0.1,1.1,0.9,1.8,1.9,1.8
						c0.7,0,1.3-0.3,1.5-0.9h2.1c-0.3,1.6-1.8,2.6-3.5,2.6C92.8,62.2,91.1,60.6,91.1,58.2z M96.5,57.4c-0.1-0.9-0.8-1.5-1.5-1.5
						c-0.8,0-1.6,0.6-1.8,1.5H96.5z"/>
					<path class="st3" d="M103.7,56c-0.8,0-1.6,0.6-1.6,1.8V62h-2v-7.5h1.7l0.2,1h0.1c0.3-0.6,1-1.2,2.2-1.2c1.7,0,2.9,1.1,2.9,3.1
						V62h-2v-4.3C105.2,56.6,104.6,56,103.7,56z"/>
					<path class="st3" d="M114.8,62l-0.2-1.1h-0.1c-0.4,0.8-1.4,1.3-2.4,1.3c-1.9,0-3.4-1.6-3.4-4c0-2.3,1.5-4,3.4-4
						c1,0,1.8,0.5,2.2,1h0.1v-4h2V62H114.8z M112.7,60.4c1.1,0,1.8-0.8,1.8-2.2s-0.7-2.2-1.8-2.2s-1.8,0.9-1.8,2.2
						C110.8,59.6,111.6,60.4,112.7,60.4z"/>
					<path class="st3" d="M118,58.2c0-2.3,1.7-4,3.9-4c2.1,0,3.7,1.5,3.7,3.7c0,0.2,0,0.4,0,0.7h-5.4c0.1,1.1,0.9,1.8,1.9,1.8
						c0.7,0,1.3-0.3,1.5-0.9h2.1c-0.3,1.6-1.8,2.6-3.5,2.6C119.7,62.2,118,60.6,118,58.2z M123.4,57.4c-0.1-0.9-0.8-1.5-1.5-1.5
						c-0.8,0-1.6,0.6-1.8,1.5H123.4z"/>
					<path class="st3" d="M132.9,62l-0.2-1.1h-0.1c-0.4,0.8-1.3,1.3-2.4,1.3c-1.9,0-3.4-1.6-3.4-4c0-2.3,1.5-4,3.4-4
						c1,0,1.8,0.5,2.2,1h0.1v-4h2V62H132.9z M130.7,60.4c1.1,0,1.8-0.8,1.8-2.2s-0.7-2.2-1.8-2.2s-1.8,0.9-1.8,2.2
						C128.9,59.6,129.7,60.4,130.7,60.4z"/>
				</g>
				<g class="st2">
					<path class="st3" d="M30.1,72.5h3.5c3.4,0,5.4,2.1,5.4,5.2s-2,5.2-5.4,5.2h-3.5C30.1,82.9,30.1,72.5,30.1,72.5z M33.6,81.2
						c2.2,0,3.4-1.3,3.4-3.5s-1.2-3.4-3.4-3.4h-1.4v6.9H33.6z"/>
				</g>
				<g class="st2">
					<path class="st3" d="M40.7,80v-4.6h2v4.3c0,1.1,0.6,1.7,1.4,1.7s1.5-0.6,1.5-1.8v-4.2h2V83h-1.7l-0.2-1h-0.1
						c-0.3,0.5-1,1.2-2.1,1.2C41.9,83.2,40.7,82.1,40.7,80z"/>
				</g>
				<g class="st2">
					<path class="st3" d="M49.4,75.5h1.7l0.2,1.1h0.1c0.3-0.7,1-1.2,2.1-1.2c0.2,0,0.4,0,0.6,0v2c-0.2,0-0.4,0-0.5,0
						c-1.3,0-2.1,0.8-2.1,2.4V83h-2L49.4,75.5L49.4,75.5z"/>
				</g>
				<g class="st2">
					<path class="st3" d="M54.8,81c0-1.5,1.3-2.4,3.8-2.6l0.7-0.1v-0.2c0-0.7-0.5-1.2-1.1-1.2s-1.1,0.3-1.2,1h-2
						c0.1-1.5,1.4-2.6,3.3-2.6c1.9,0,3.1,1.2,3.1,3V81c0,0.4,0.1,0.5,0.6,0.5h0.2V83c-0.2,0.1-0.5,0.1-0.7,0.1
						c-0.7,0-1.4-0.3-1.7-1.2h-0.1c-0.5,0.7-1.3,1.2-2.4,1.2C55.7,83.2,54.8,82.3,54.8,81z M57.7,81.5c1,0,1.6-0.8,1.6-1.8v-0.1
						h-0.6c-1.3,0.1-1.9,0.5-1.9,1.2C56.8,81.3,57.2,81.5,57.7,81.5z"/>
				</g>
				<g class="st2">
					<path class="st3" d="M63.8,80.8v-3.6h-1.5v-1.7h0.2c0.9,0,1.4-0.6,1.5-1.6v-0.6h1.7v2.2h1.8v1.7h-1.8v3.3c0,0.6,0.4,1,0.9,1
						c0.2,0,0.4,0,0.6-0.1V83c-0.3,0.1-0.7,0.1-1,0.1C64.7,83.2,63.8,82.2,63.8,80.8z"/>
				</g>
				<g class="st2">
					<path class="st3" d="M69.9,72.1c0.7,0,1.2,0.5,1.2,1.2s-0.6,1.2-1.2,1.2s-1.2-0.5-1.2-1.2C68.7,72.6,69.2,72.1,69.9,72.1z
						 M68.9,75.5h2V83h-2V75.5z"/>
					<path class="st3" d="M72.5,79.2c0-2.3,1.8-4,4-4s4,1.6,4,4s-1.8,4-4,4S72.5,81.6,72.5,79.2z M76.5,81.4c1.1,0,1.9-0.9,1.9-2.2
						c0-1.3-0.8-2.2-1.9-2.2s-1.9,0.9-1.9,2.2C74.5,80.5,75.4,81.4,76.5,81.4z"/>
				</g>
				<g class="st2">
					<path class="st3" d="M85.6,77c-0.8,0-1.6,0.6-1.6,1.8V83h-2v-7.5h1.7l0.2,1H84c0.3-0.6,1-1.2,2.2-1.2c1.7,0,2.9,1.1,2.9,3.1V83
						h-2v-4.3C87,77.6,86.4,77,85.6,77z"/>
				</g>
				<g class="st2">
					<path class="st3" d="M91.6,75.4c0.7,0,1.2,0.5,1.2,1.2c0,0.6-0.5,1.2-1.2,1.2s-1.2-0.5-1.2-1.2S90.9,75.4,91.6,75.4z
						 M90.4,81.9c0-0.6,0.5-1.2,1.2-1.2s1.2,0.5,1.2,1.2c0,0.6-0.5,1.2-1.2,1.2S90.4,82.6,90.4,81.9z"/>
				</g>
				<g class="st2">
					<path class="st3" d="M98.9,72.5h1.5L104,80h0.1l3.6-7.5h1.5V83H108v-8.2h-0.1l-3.2,6.7h-1.2l-3.2-6.7h-0.1V83H99V72.5H98.9z"/>
				</g>
				<g class="st2">
					<path class="st3" d="M111.1,81c0-1.5,1.3-2.4,3.9-2.6l0.8-0.1V78c0-1-0.6-1.6-1.6-1.6c-0.9,0-1.6,0.5-1.7,1.3h-1.2
						c0.1-1.3,1.3-2.3,2.9-2.3c1.7,0,2.7,1,2.7,2.7v3.5c0,0.5,0.3,0.6,0.7,0.6c0.1,0,0.1,0,0.3,0V83c-0.2,0.1-0.4,0.1-0.6,0.1
						c-0.6,0-1.3-0.3-1.4-1.2l0,0h-0.1c-0.5,0.7-1.3,1.2-2.4,1.2C112.1,83.2,111.1,82.3,111.1,81z M113.6,82.1c1.3,0,2.2-1,2.2-2.5
						v-0.3l-0.7,0.1c-1.9,0.2-2.8,0.7-2.8,1.7C112.3,81.7,112.9,82.1,113.6,82.1z"/>
					<path class="st3" d="M121.1,79.1l-2.3-3.6h1.4l1.7,2.6h0.1l1.7-2.6h1.4l-2.3,3.6l2.5,3.9h-1.4l-1.9-2.9h-0.1L120,83h-1.4
						L121.1,79.1z"/>
				</g>
				<g class="st2">
					<path class="st3" d="M29.5,96.5h1.3l2.2,6.2l0,0l2.2-6.2h1.3l-2.8,7.5h-1.5L29.5,96.5z"/>
				</g>
				<g class="st2">
					<path class="st3" d="M37.6,100.3c0-2.2,1.6-3.9,3.8-3.9s3.8,1.7,3.8,3.9c0,2.2-1.6,3.9-3.8,3.9S37.6,102.5,37.6,100.3z
						 M41.3,103.1c1.5,0,2.6-1.2,2.6-2.8c0-1.6-1.1-2.8-2.6-2.8s-2.6,1.2-2.6,2.8C38.8,101.8,39.8,103.1,41.3,103.1z"/>
					<path class="st3" d="M47.1,93.2h1.2V104h-1.2V93.2z"/>
					<path class="st3" d="M50.6,101.1v-4.6h1.2v4.5c0,1.4,0.8,2,1.7,2c1,0,1.9-0.7,1.9-2.2v-4.3h1.2v7.5h-1l-0.1-1h-0.1
						c-0.3,0.5-1,1.1-2.1,1.1C51.8,104.2,50.6,103.1,50.6,101.1z"/>
					<path class="st3" d="M61.9,97.5c-0.9,0-1.8,0.7-1.8,2.2v4.3H59v-7.5h1l0.1,1h0.1c0.3-0.6,1-1.1,2-1.1s1.8,0.5,2.2,1.3h0.1
						c0.4-0.8,1.1-1.3,2.2-1.3c1.4,0,2.6,0.9,2.6,2.9v4.7H68v-4.5c0-1.4-0.7-2-1.6-2s-1.7,0.7-1.7,2.2v4.3h-1.2v-4.5
						C63.5,98,62.8,97.5,61.9,97.5z"/>
					<path class="st3" d="M71.2,100.3c0-2.2,1.6-3.9,3.7-3.9c2,0,3.4,1.5,3.4,3.6c0,0.2,0,0.3,0,0.6h-5.8c0.1,1.5,1.1,2.5,2.5,2.5
						c0.9,0,1.8-0.4,2-1.2h1.2c-0.3,1.4-1.6,2.3-3.2,2.3C72.8,104.2,71.2,102.5,71.2,100.3z M77,99.6c-0.1-1.3-1-2.1-2.1-2.1
						s-2.2,0.8-2.4,2.1H77z"/>
				</g>
				<g class="st2">
					<path class="st3" d="M84.9,97.6h-1.5v-1.1h1.5v-1.4c0-1.4,1-2.1,2-2.1c0.5,0,1,0.2,1.2,0.3l-0.4,0.9C87.5,94.1,87.2,94,87,94
						c-0.6,0-1,0.4-1,1v1.4h1.7v1.1H86v6.4h-1.2L84.9,97.6L84.9,97.6z"/>
				</g>
				<g class="st2">
					<path class="st3" d="M88.7,100.3c0-2.2,1.6-3.9,3.8-3.9c2.1,0,3.8,1.7,3.8,3.9c0,2.2-1.6,3.9-3.8,3.9
						C90.3,104.2,88.7,102.5,88.7,100.3z M92.5,103.1c1.5,0,2.6-1.2,2.6-2.8c0-1.6-1.1-2.8-2.6-2.8s-2.6,1.2-2.6,2.8
						C89.9,101.8,91,103.1,92.5,103.1z"/>
					<path class="st3" d="M98.3,96.5h1l0.1,1.1h0.1c0.3-0.5,0.9-1.2,2.2-1.2c0.2,0,0.3,0,0.4,0v1.2c-0.2,0-0.3,0-0.4,0
						c-1.3,0-2.2,0.8-2.2,2.6v3.7h-1.2V96.5z"/>
					<path class="st3" d="M109.5,97.1h-2.1v-0.9h0.5c1.3,0,1.7-0.6,1.7-1.7v-0.1h1v9.6h-1.2L109.5,97.1L109.5,97.1z"/>
				</g>
				<g class="st2">
					<path class="st3" d="M113.2,101.3h1.2c0.1,1,0.9,1.7,2.1,1.7s2.1-0.8,2.1-2c0-1.3-0.9-2.2-2.1-2.2c-0.8,0-1.6,0.4-2,1.1l-1-0.3
						l0.5-5.3h5.4v1.1H115l-0.3,3h0.1c0.4-0.4,1.1-0.7,1.9-0.7c1.9,0,3.1,1.4,3.1,3.2c0,1.9-1.4,3.2-3.3,3.2
						C114.5,104.2,113.2,102.8,113.2,101.3z"/>
				</g>
				<g class="st2">
					<path class="st3" d="M124.7,97.5c-0.9,0-1.8,0.7-1.8,2.2v4.3h-1.2v-7.5h1l0.1,1h0.1c0.3-0.6,1-1.1,2-1.1s1.8,0.5,2.2,1.3h0.1
						c0.4-0.8,1.1-1.3,2.2-1.3c1.4,0,2.6,0.9,2.6,2.9v4.7h-1.2v-4.5c0-1.4-0.7-2-1.7-2c-0.9,0-1.7,0.7-1.7,2.2v4.3h-1.2v-4.5
						C126.3,98,125.6,97.5,124.7,97.5z"/>
					<path class="st3" d="M134.9,93.5c0.5,0,0.8,0.3,0.8,0.8s-0.4,0.8-0.8,0.8c-0.4,0-0.8-0.3-0.8-0.8
						C134.1,93.9,134.5,93.5,134.9,93.5z M134.3,96.5h1.2v7.5h-1.2V96.5z"/>
					<path class="st3" d="M141,97.5c-1,0-2,0.7-2,2.2v4.3h-1.2v-7.5h1l0.1,1h0.1c0.3-0.5,1-1.1,2.1-1.1c1.6,0,2.8,1,2.8,3v4.6h-1.2
						v-4.5C142.8,98.1,142,97.5,141,97.5z"/>
				</g>
				<g class="st2">
					<path class="st3" d="M30.9,123.3v-4.7h-1.5v-1.1h0.3c0.9,0,1.2-0.4,1.2-1.3v-0.8h1v2.2h1.7v1.1H32v4.5c0,0.6,0.3,1,0.9,1
						c0.2,0,0.5,0,0.7-0.1v1c-0.2,0.1-0.5,0.2-0.9,0.2C31.7,125.2,30.9,124.5,30.9,123.3z"/>
				</g>
				<g class="st2">
					<path class="st3" d="M36.1,114.5c0.5,0,0.8,0.3,0.8,0.8s-0.4,0.8-0.8,0.8c-0.4,0-0.8-0.3-0.8-0.8
						C35.3,114.9,35.7,114.5,36.1,114.5z M35.5,117.5h1.2v7.5h-1.2V117.5z"/>
					<path class="st3" d="M42,118.5c-0.9,0-1.8,0.7-1.8,2.2v4.3H39v-7.5h1l0.1,1h0.1c0.3-0.6,1-1.1,2-1.1s1.8,0.5,2.2,1.3h0.1
						c0.4-0.8,1.1-1.3,2.2-1.3c1.4,0,2.6,0.9,2.6,2.9v4.7h-1.2v-4.5c0-1.4-0.7-2-1.6-2c-0.9,0-1.7,0.7-1.7,2.2v4.3h-1.2v-4.5
						C43.6,119,42.9,118.5,42,118.5z"/>
					<path class="st3" d="M51.3,121.3c0-2.2,1.6-3.9,3.7-3.9c2,0,3.4,1.5,3.4,3.6c0,0.2,0,0.3,0,0.6h-5.8c0.1,1.5,1.1,2.5,2.5,2.5
						c0.9,0,1.8-0.4,2-1.2h1.2c-0.3,1.4-1.6,2.3-3.2,2.3C52.9,125.2,51.3,123.5,51.3,121.3z M57.1,120.6c-0.1-1.3-1-2.1-2.1-2.1
						c-1.2,0-2.2,0.8-2.4,2.1H57.1z"/>
				</g>
				<g class="st2">
					<path class="st3" d="M64.3,117.5h0.9l0.1,1.2h0.1c0.5-0.9,1.5-1.4,2.5-1.4c2,0,3.5,1.7,3.5,3.9c0,2.2-1.5,3.9-3.5,3.9
						c-1,0-1.9-0.5-2.4-1.2h-0.1v4h-1.2L64.3,117.5L64.3,117.5z M67.8,124.1c1.4,0,2.4-1.1,2.4-2.8c0-1.7-1-2.8-2.4-2.8
						s-2.4,1.1-2.4,2.8S66.4,124.1,67.8,124.1z"/>
				</g>
				<g class="st2">
					<path class="st3" d="M73.1,121.3c0-2.2,1.6-3.9,3.7-3.9c2,0,3.4,1.5,3.4,3.6c0,0.2,0,0.3,0,0.6h-5.8c0.1,1.5,1.1,2.5,2.5,2.5
						c0.9,0,1.8-0.4,2-1.2h1.2c-0.3,1.4-1.6,2.3-3.2,2.3C74.7,125.2,73.1,123.5,73.1,121.3z M78.9,120.6c-0.1-1.3-1-2.1-2.1-2.1
						c-1.2,0-2.2,0.8-2.4,2.1H78.9z"/>
				</g>
				<g class="st2">
					<path class="st3" d="M82.2,117.5h1l0.1,1.1h0.1c0.3-0.5,0.9-1.2,2.2-1.2c0.2,0,0.3,0,0.4,0v1.2c-0.2,0-0.3,0-0.4,0
						c-1.3,0-2.2,0.8-2.2,2.6v3.7h-1.2V117.5z"/>
				</g>
				<g class="st2">
					<path class="st3" d="M88.1,114.5c0.5,0,0.8,0.3,0.8,0.8s-0.4,0.8-0.8,0.8s-0.8-0.3-0.8-0.8C87.3,114.9,87.7,114.5,88.1,114.5z
						 M87.5,117.5h1.2v7.5h-1.2V117.5z"/>
				</g>
				<g class="st2">
					<path class="st3" d="M90.7,121.3c0-2.2,1.6-3.9,3.8-3.9c2.1,0,3.8,1.7,3.8,3.9c0,2.2-1.6,3.9-3.8,3.9
						C92.3,125.2,90.7,123.5,90.7,121.3z M94.5,124.1c1.5,0,2.6-1.2,2.6-2.8c0-1.6-1.1-2.8-2.6-2.8s-2.6,1.2-2.6,2.8
						C91.9,122.8,93,124.1,94.5,124.1z"/>
				</g>
				<g class="st2">
					<path class="st3" d="M106.2,125l-0.1-1.2H106c-0.5,0.9-1.5,1.4-2.5,1.4c-2,0-3.5-1.7-3.5-3.9c0-2.2,1.5-3.9,3.5-3.9
						c1,0,1.9,0.5,2.4,1.2h0.1v-4.4h1.2V125H106.2z M103.6,124.1c1.4,0,2.4-1.1,2.4-2.8c0-1.7-1-2.8-2.4-2.8s-2.4,1.1-2.4,2.8
						C101.2,122.9,102.2,124.1,103.6,124.1z"/>
				</g>
			</g>
		</g>
		<g id="Group_136">
			<g id="_dB_">
				<g class="st2">
					<path class="st3" d="M74.7,562.8c0,3.4,1,6.4,2.6,8.7l-1.6,1c-1.8-2.1-3.3-5.5-3.3-9.7s1.5-7.6,3.3-9.7l1.6,1
						C75.7,556.4,74.7,559.4,74.7,562.8z"/>
				</g>
				<g class="st2">
					<path class="st3" d="M85.5,569l-0.2-1.5h-0.1c-0.6,1.1-1.8,1.7-3.2,1.7c-2.6,0-4.6-2.2-4.6-5.3s2-5.3,4.6-5.3
						c1.4,0,2.4,0.6,2.9,1.3H85v-5.4h2.7V569H85.5z M82.6,566.9c1.4,0,2.4-1.1,2.4-3c0-1.8-1-2.9-2.4-2.9s-2.4,1.1-2.4,2.9
						S81.2,566.9,82.6,566.9z"/>
				</g>
				<g class="st2">
					<path class="st3" d="M90.2,555h5.3c2.7,0,4.5,1.6,4.5,3.7c0,1.5-0.9,2.4-1.7,2.8v0.1c1,0.5,2.1,1.7,2.1,3.4
						c0,2.3-1.9,3.9-4.6,3.9h-5.5V555H90.2z M95.3,560.8c1.2,0,2-0.7,2-1.8s-0.8-1.8-2-1.8H93v3.5L95.3,560.8L95.3,560.8z
						 M95.4,566.8c1.2,0,2-0.8,2-1.9c0-1.1-0.8-1.9-2-1.9H93v3.8L95.4,566.8L95.4,566.8z"/>
				</g>
				<g class="st2">
					<path class="st3" d="M103.4,562.8c0-3.4-1-6.4-2.6-8.7l1.6-1c1.8,2.1,3.3,5.5,3.3,9.7s-1.5,7.6-3.3,9.7l-1.6-1
						C102.3,569.2,103.4,566.2,103.4,562.8z"/>
				</g>
			</g>
			<g id="_100">
				<g class="st2">
					<path class="st3" d="M76.6,536.8h-3.2v-2.1h0.8c2,0,2.6-0.9,2.6-2.4v-0.1h2.4V545h-2.7L76.6,536.8L76.6,536.8z"/>
				</g>
				<g class="st2">
					<path class="st3" d="M81.8,538.6c0-4.3,1.9-6.7,5.1-6.7c3.3,0,5.1,2.4,5.1,6.7c0,4.2-1.9,6.6-5.1,6.6
						C83.7,545.2,81.8,542.8,81.8,538.6z M86.9,543c1.6,0,2.4-1.5,2.4-4.4s-0.8-4.4-2.4-4.4s-2.4,1.5-2.4,4.4S85.4,543,86.9,543z"/>
				</g>
				<g class="st2">
					<path class="st3" d="M94.3,538.6c0-4.3,1.9-6.7,5.1-6.7c3.3,0,5.1,2.4,5.1,6.7c0,4.2-1.9,6.6-5.1,6.6
						C96.2,545.2,94.3,542.8,94.3,538.6z M99.5,543c1.6,0,2.4-1.5,2.4-4.4s-0.8-4.4-2.4-4.4s-2.4,1.5-2.4,4.4S97.9,543,99.5,543z"/>
				</g>
			</g>
		</g>
		<g id="Group_173">
			<g id="EXAMPLE">
				<g class="st2">
					<path class="st3" d="M56.4,317.5H63v1.3h-5.2v3.2h4.4v1.3h-4.4v3.3H63v1.3h-6.6V317.5z"/>
					<path class="st3" d="M67.8,322.6l-3.1-5.1h1.7l2.3,3.9h0.1l2.4-3.9h1.7l-3.1,5.1L73,328h-1.7l-2.5-4.2h-0.1l-2.5,4.2h-1.7
						L67.8,322.6z"/>
					<path class="st3" d="M77.8,317.5h2l3.7,10.5h-1.6l-0.9-2.7h-4.3l-0.9,2.7h-1.6L77.8,317.5z M80.5,323.9l-1.7-4.8h-0.1l-1.6,4.8
						H80.5z"/>
					<path class="st3" d="M85.4,317.5h1.8l3.4,7.2h0.1l3.4-7.2h1.8V328h-1.4v-7.7h-0.1l-3,6.2H90l-3-6.2h-0.1v7.7h-1.4v-10.5H85.4z"
						/>
					<path class="st3" d="M98.7,317.5h3.7c2.1,0,3.5,1.3,3.5,3.2s-1.4,3.2-3.5,3.2h-2.3v4.1h-1.5v-10.5H98.7z M102.4,322.6
						c1.2,0,2-0.7,2-1.9c0-1.1-0.8-1.9-2-1.9h-2.3v3.7L102.4,322.6L102.4,322.6z"/>
					<path class="st3" d="M108.1,317.5h1.5v9.2h5.1v1.3h-6.6V317.5z"/>
					<path class="st3" d="M116.9,317.5h6.6v1.3h-5.2v3.2h4.4v1.3h-4.4v3.3h5.2v1.3h-6.6V317.5z"/>
				</g>
			</g>
		</g>
	</g>
	<g>
		<path class="st3" d="M89,388.5c-8,0-15.6-3.8-20.3-10.3l1.4-1.1c4.4,6,11.4,9.5,18.8,9.5c12.9,0,23.4-10.5,23.4-23.4
			s-10.5-23.4-23.4-23.4s-23.4,10.5-23.4,23.4c0,2.9,0.6,5.8,1.7,8.7l-1.7,0.7c-1.2-3.1-1.9-6.2-1.9-9.3c0-13.9,11.3-25.2,25.2-25.2
			s25.2,11.3,25.2,25.2S102.9,388.5,89,388.5L89,388.5z"/>
	</g>
	<g>
		<path class="st3" d="M82,374c-0.2,0-0.4,0-0.5-0.1c-0.3-0.2-0.5-0.6-0.5-1v-19.1c0-0.4,0.2-0.8,0.5-1s0.7-0.2,1.1,0l17.4,9.6
			c0.4,0.2,0.6,0.6,0.6,1s-0.2,0.8-0.6,1L82.6,374C82.3,373.9,82.2,373.9,82,374L82,374z M82.7,354.9v16.8l15.2-8.4L82.7,354.9
			L82.7,354.9z M99.1,362.7L99.1,362.7L99.1,362.7z"/>
	</g>
	<g>
		<circle class="st3" cx="69.2" cy="377.7" r="3.6"/>
	</g>
</g>
</svg>
