<?xml version="1.0" encoding="UTF-8"?><svg id="Working_File" xmlns="http://www.w3.org/2000/svg" viewBox="0 0 195 675"><defs><style>.cls-1,.cls-2,.cls-3{fill:none;}.cls-4{letter-spacing:-.01em;}.cls-5{letter-spacing:.01em;}.cls-6{letter-spacing:-.04em;}.cls-7{letter-spacing:-.02em;}.cls-8{letter-spacing:-.02em;}.cls-9{letter-spacing:0em;}.cls-10{letter-spacing:0em;}.cls-11{letter-spacing:0em;}.cls-12,.cls-13,.cls-14,.cls-15,.cls-16,.cls-17{isolation:isolate;}.cls-12,.cls-13,.cls-16{font-size:15px;}.cls-12,.cls-14{font-family:ULModerat-Bold, 'UL Moderat';font-weight:700;}.cls-12,.cls-16{fill:#fff;}.cls-18{fill:#efefef;}.cls-19{fill:#00a451;}.cls-20{fill:#122c49;}.cls-21{letter-spacing:-.02em;}.cls-22{letter-spacing:-.02em;}.cls-23{letter-spacing:-.01em;}.cls-24{letter-spacing:0em;}.cls-13{font-family:ULModerat-Medium, 'UL Moderat';font-weight:500;}.cls-25{letter-spacing:0em;}.cls-26{letter-spacing:0em;}.cls-14{font-size:20px;}.cls-27{letter-spacing:-.04em;}.cls-28{letter-spacing:0em;}.cls-29{letter-spacing:0em;}.cls-30{letter-spacing:0em;}.cls-31{letter-spacing:-.03em;}.cls-32{letter-spacing:-.01em;}.cls-33{letter-spacing:0em;}.cls-34{letter-spacing:-.06em;}.cls-35{letter-spacing:0em;}.cls-36{letter-spacing:0em;}.cls-37{letter-spacing:-.05em;}.cls-38{letter-spacing:0em;}.cls-2{stroke:#000;stroke-linecap:round;}.cls-2,.cls-3{stroke-width:3px;}.cls-3{stroke:#122c49;}.cls-39{letter-spacing:-.02em;}.cls-40{letter-spacing:-.02em;}.cls-16,.cls-17{font-family:ULModerat-Regular, 'UL Moderat';}.cls-17{font-size:12px;}.cls-41{letter-spacing:-.07em;}.cls-42{letter-spacing:0em;}.cls-43{letter-spacing:0em;}.cls-44{letter-spacing:-.01em;}.cls-45{letter-spacing:0em;}.cls-46{letter-spacing:-.02em;}.cls-47{letter-spacing:-.02em;}</style></defs><line id="Line_118" class="cls-2" x1="98" y1="453" x2="98" y2="465"/><line id="Line_119" class="cls-2" x1="98" y1="249" x2="98" y2="261"/><line id="Line_134" class="cls-2" x1="98" y1="227" x2="98" y2="239"/><line id="Line_135" class="cls-2" x1="98" y1="205" x2="98" y2="217"/><line id="Line_120" class="cls-2" x1="98" y1="475" x2="98" y2="487"/><g id="Group_188"><g id="Ellipse_6"><circle class="cls-1" cx="97.5" cy="97.5" r="97.5"/><circle class="cls-3" cx="97.5" cy="97.5" r="96"/></g><circle id="Ellipse_53" class="cls-18" cx="98" cy="358" r="85"/><g id="Group_86"><g id="Group_35"><g id="Group_27"><g id="Maximum_Volume_for_personal_listening_device" class="cls-15"><text class="cls-17" transform="translate(52 382)"><tspan class="cls-22" x="0" y="0">M</tspan><tspan x="10.31" y="0">a</tspan><tspan class="cls-45" x="16.56" y="0">x</tspan><tspan class="cls-28" x="22.57" y="0">i</tspan><tspan class="cls-45" x="25.38" y="0">m</tspan><tspan class="cls-28" x="35.39" y="0">um </tspan><tspan class="cls-34" x="55.24" y="0">V</tspan><tspan x="62.17" y="0">olume </tspan></text><text class="cls-17" transform="translate(52 400)"><tspan class="cls-7" x="0" y="0">f</tspan><tspan x="3.92" y="0">or </tspan><tspan class="cls-26" x="18.7" y="0">p</tspan><tspan class="cls-28" x="26.05" y="0">e</tspan><tspan class="cls-47" x="33.02" y="0">r</tspan><tspan class="cls-35" x="37.1" y="0">s</tspan><tspan x="42.86" y="0">o</tspan><tspan class="cls-45" x="50.23" y="0">n</tspan><tspan class="cls-9" x="56.95" y="0">a</tspan><tspan class="cls-28" x="63.23" y="0">l </tspan></text><text class="cls-17" transform="translate(52 418)"><tspan x="0" y="0">l</tspan><tspan class="cls-42" x="2.81" y="0">is</tspan><tspan class="cls-4" x="11.34" y="0">t</tspan><tspan class="cls-24" x="15.38" y="0">eni</tspan><tspan class="cls-40" x="31.94" y="0">n</tspan><tspan x="38.54" y="0">g d</tspan><tspan class="cls-47" x="55.26" y="0">e</tspan><tspan class="cls-28" x="62.03" y="0">vi</tspan><tspan class="cls-42" x="71.24" y="0">c</tspan><tspan x="78.12" y="0">e</tspan></text></g><circle id="Ellipse_14" cx="46.5" cy="378.5" r="1.5"/></g></g></g><g id="Group_87"><circle id="Ellipse_18" class="cls-20" cx="98" cy="586" r="89"/><g id="Recommended_Duration:_Max_volume_for_5min_time_period" class="cls-15"><text class="cls-12" transform="translate(42 559)"><tspan class="cls-27" x="0" y="0">R</tspan><tspan class="cls-38" x="8.98" y="0">e</tspan><tspan class="cls-43" x="17.81" y="0">c</tspan><tspan x="26.48" y="0">ommended</tspan></text><text class="cls-12" transform="translate(42 580)"><tspan class="cls-25" x="0" y="0">D</tspan><tspan class="cls-38" x="10.8" y="0">u</tspan><tspan class="cls-32" x="19.5" y="0">r</tspan><tspan class="cls-23" x="25.15" y="0">a</tspan><tspan class="cls-29" x="32.98" y="0">t</tspan><tspan x="39.01" y="0">io</tspan><tspan class="cls-46" x="52.11" y="0">n</tspan><tspan x="60.7" y="0">: </tspan></text><text class="cls-16" transform="translate(110.4 580)"><tspan class="cls-21" x="0" y="0">M</tspan><tspan x="12.89" y="0">ax </tspan></text><text class="cls-16" transform="translate(42 601)"><tspan class="cls-21" x="0" y="0">v</tspan><tspan x="7.74" y="0">olume </tspan><tspan class="cls-8" x="53.98" y="0">f</tspan><tspan x="58.89" y="0">or </tspan><tspan class="cls-39" x="77.35" y="0">5</tspan><tspan x="85.78" y="0">min </tspan></text><text class="cls-16" transform="translate(42 622)"><tspan class="cls-5" x="0" y="0">t</tspan><tspan x="5.38" y="0">ime </tspan><tspan class="cls-36" x="34.09" y="0">p</tspan><tspan x="43.29" y="0">e</tspan><tspan class="cls-11" x="52" y="0">r</tspan><tspan x="57.37" y="0">i</tspan><tspan class="cls-36" x="60.88" y="0">o</tspan><tspan x="70.14" y="0">d</tspan></text></g></g><g id="Group_137"><g id="_dB_" class="cls-15"><text class="cls-14" transform="translate(80.31 116)"><tspan class="cls-41" x="0" y="0">(</tspan><tspan class="cls-33" x="5.24" y="0">d</tspan><tspan class="cls-37" x="17.4" y="0">B</tspan><tspan class="cls-10" x="28.82" y="0">)</tspan></text></g><g id="_105-110" class="cls-15"><text class="cls-14" transform="translate(63.82 92)"><tspan x="0" y="0">1</tspan><tspan class="cls-30" x="8.4" y="0">0</tspan><tspan class="cls-31" x="20.74" y="0">5</tspan><tspan class="cls-6" x="31.94" y="0">-</tspan><tspan class="cls-44" x="39.44" y="0">1</tspan><tspan x="47.58" y="0">10</tspan></text></g></g><g id="Group_178"><g id="Group_170"><path id="Path_22" class="cls-1" d="m183,358c0-46.94-38.06-85-85-85S13,311.06,13,358h170Z"/></g><g id="EXAMPLE" class="cls-15"><text class="cls-13" transform="translate(64 353)"><tspan x="0" y="0">EXAMPLE</tspan></text></g></g></g><path d="m98.43,335.2c-7.97,0-15.56-3.84-20.3-10.27l1.45-1.07c4.4,5.97,11.44,9.53,18.85,9.53,12.9,0,23.4-10.5,23.4-23.4s-10.5-23.4-23.4-23.4-23.4,10.5-23.4,23.4c0,2.86.58,5.78,1.74,8.67l-1.67.67c-1.24-3.1-1.86-6.24-1.86-9.33,0-13.89,11.3-25.2,25.2-25.2s25.2,11.3,25.2,25.2-11.3,25.2-25.2,25.2Z"/><path d="m91.4,320.67c-.19,0-.37-.05-.54-.15-.33-.2-.53-.56-.53-.97v-19.12c0-.41.2-.77.53-.97.33-.2.74-.19,1.1,0l17.41,9.57c.37.2.59.56.59.95s-.22.75-.59.95l-17.41,9.57c-.18.1-.37.15-.56.15Zm.73-19.05v16.75l15.23-8.38-15.23-8.38Zm16.37,7.75s0,0,0,0h0Z"/><circle class="cls-19" cx="78.63" cy="324.4" r="3.6"/></svg>