<?xml version="1.0" encoding="utf-8"?>
<!-- Generator: Adobe Illustrator 27.6.1, SVG Export Plug-In . SVG Version: 6.00 Build 0)  -->
<svg version="1.1" xmlns="http://www.w3.org/2000/svg" xmlns:xlink="http://www.w3.org/1999/xlink" x="0px" y="0px"
	 viewBox="0 0 195 675" style="enable-background:new 0 0 195 675;" xml:space="preserve">
<style type="text/css">
	.st0{fill:#00A451;}
	.st1{fill:none;}
	.st2{enable-background:new    ;}
	.st3{fill:#FFFFFF;}
	.st4{fill:#122C49;}
</style>
<g id="Layer_2">
	<circle class="st0" cx="98" cy="97.5" r="97"/>
</g>
<g id="Working_File">
	<g id="Line_118">
		<path d="M98,466.5c-0.8,0-1.5-0.7-1.5-1.5v-12c0-0.8,0.7-1.5,1.5-1.5s1.5,0.7,1.5,1.5v12C99.5,465.8,98.8,466.5,98,466.5z"/>
	</g>
	<g id="Line_119">
		<path d="M98,262.5c-0.8,0-1.5-0.7-1.5-1.5v-12c0-0.8,0.7-1.5,1.5-1.5s1.5,0.7,1.5,1.5v12C99.5,261.8,98.8,262.5,98,262.5z"/>
	</g>
	<g id="Line_134">
		<path d="M98,240.5c-0.8,0-1.5-0.7-1.5-1.5v-12c0-0.8,0.7-1.5,1.5-1.5s1.5,0.7,1.5,1.5v12C99.5,239.8,98.8,240.5,98,240.5z"/>
	</g>
	<g id="Line_135">
		<path d="M98,218.5c-0.8,0-1.5-0.7-1.5-1.5v-12c0-0.8,0.7-1.5,1.5-1.5s1.5,0.7,1.5,1.5v12C99.5,217.8,98.8,218.5,98,218.5z"/>
	</g>
	<g id="Line_120">
		<path d="M98,488.5c-0.8,0-1.5-0.7-1.5-1.5v-12c0-0.8,0.7-1.5,1.5-1.5s1.5,0.7,1.5,1.5v12C99.5,487.8,98.8,488.5,98,488.5z"/>
	</g>
	<g id="Group_188">
		<g id="Ellipse_6">
			<g>
				<circle class="st1" cx="97.5" cy="97.5" r="97.5"/>
			</g>
			<g>
				<path class="st0" d="M97.5,195C43.7,195,0,151.3,0,97.5S43.7,0,97.5,0S195,43.7,195,97.5S151.3,195,97.5,195z M97.5,3
					C45.4,3,3,45.4,3,97.5S45.4,192,97.5,192S192,149.6,192,97.5S149.6,3,97.5,3z"/>
			</g>
		</g>
		<g id="Ellipse_53">
			<circle class="st0" cx="98" cy="358" r="85"/>
		</g>
		<g id="Group_86">
			<g id="Group_35">
				<g id="Group_27">
					<g id="Maximum_Volume_for_personal_listening_device">
						<g class="st2">
							<path class="st3" d="M53.2,373.6h1.2l2.9,6h0.1l2.8-6h1.2v8.4h-0.9v-6.6h-0.1l-2.6,5.3h-1l-2.6-5.3h-0.1v6.6h-0.9
								C53.2,382,53.2,373.6,53.2,373.6z"/>
						</g>
						<g class="st2">
							<path class="st3" d="M63,380.4c0-1.2,1-1.9,3.1-2.1h0.6v-0.2c0-0.8-0.5-1.3-1.3-1.3s-1.2,0.4-1.4,1h-1c0.1-1.1,1-1.9,2.3-1.9
								s2.2,0.8,2.2,2.2v2.8c0,0.4,0.2,0.5,0.5,0.5c0,0,0.1,0,0.2,0v0.7c-0.1,0-0.3,0.1-0.5,0.1c-0.5,0-1-0.3-1.1-0.9l0,0h-0.1
								c-0.4,0.6-1,1-1.9,1C63.7,382.1,63,381.5,63,380.4z M65,381.3c1.1,0,1.8-0.8,1.8-2V379h-0.5c-1.5,0.1-2.2,0.6-2.2,1.3
								C64,381,64.4,381.3,65,381.3z"/>
						</g>
						<g class="st2">
							<path class="st3" d="M71,378.9l-1.9-2.9h1.1l1.3,2.1h0.1L73,376h1.1l-1.9,2.9l2,3.1h-1.1l-1.5-2.4h-0.1L70,382h-1.1L71,378.9
								z"/>
						</g>
						<g class="st2">
							<path class="st3" d="M76,373.6c0.4,0,0.6,0.3,0.6,0.6s-0.3,0.6-0.6,0.6s-0.6-0.3-0.6-0.6S75.6,373.6,76,373.6z M75.5,376h0.9
								v6h-0.9V376z"/>
						</g>
						<g class="st2">
							<path class="st3" d="M80.7,376.8c-0.7,0-1.4,0.5-1.4,1.8v3.4h-0.9v-6h0.8l0.1,0.8h0.1c0.2-0.5,0.8-0.9,1.6-0.9
								c0.8,0,1.5,0.4,1.8,1.1h0.1c0.3-0.6,0.9-1.1,1.8-1.1c1.1,0,2.1,0.7,2.1,2.3v3.8h-0.9v-3.6c0-1.2-0.6-1.6-1.3-1.6
								c-0.8,0-1.4,0.5-1.4,1.8v3.4h-0.9v-3.6C81.9,377.2,81.4,376.8,80.7,376.8z"/>
						</g>
						<g class="st2">
							<path class="st3" d="M88.3,379.7V376h0.9v3.6c0,1.2,0.6,1.6,1.4,1.6s1.5-0.5,1.5-1.8V376H93v6h-0.8l-0.1-0.8H92
								c-0.3,0.4-0.8,0.9-1.7,0.9C89.3,382.1,88.3,381.3,88.3,379.7z"/>
							<path class="st3" d="M97.3,376.8c-0.7,0-1.4,0.5-1.4,1.8v3.4H95v-6h0.8l0.1,0.8H96c0.2-0.5,0.8-0.9,1.6-0.9
								c0.8,0,1.5,0.4,1.8,1.1h0.1c0.3-0.6,0.9-1.1,1.8-1.1c1.1,0,2.1,0.7,2.1,2.3v3.8h-0.9v-3.6c0-1.2-0.6-1.6-1.3-1.6
								c-0.8,0-1.4,0.5-1.4,1.8v3.4h-0.9v-3.6C98.6,377.2,98.1,376.8,97.3,376.8z"/>
						</g>
						<g class="st2">
							<path class="st3" d="M107.7,373.6h1l2.3,7.2h0.1l2.3-7.2h1l-2.7,8.4h-1.3L107.7,373.6z"/>
						</g>
						<g class="st2">
							<path class="st3" d="M114.8,379c0-1.8,1.3-3.1,3-3.1s3,1.3,3,3.1c0,1.8-1.3,3.1-3,3.1C116.1,382.1,114.8,380.8,114.8,379z
								 M117.9,381.2c1.2,0,2.1-1,2.1-2.2s-0.9-2.2-2.1-2.2s-2.1,1-2.1,2.2C115.8,380.3,116.7,381.2,117.9,381.2z"/>
							<path class="st3" d="M122.5,373.4h0.9v8.6h-0.9V373.4z"/>
							<path class="st3" d="M125.3,379.7V376h0.9v3.6c0,1.2,0.6,1.6,1.4,1.6s1.5-0.5,1.5-1.8V376h0.9v6h-0.8l-0.1-0.8H129
								c-0.3,0.4-0.8,0.9-1.7,0.9C126.2,382.1,125.3,381.3,125.3,379.7z"/>
							<path class="st3" d="M134.3,376.8c-0.7,0-1.4,0.5-1.4,1.8v3.4H132v-6h0.8l0.1,0.8h0.1c0.2-0.5,0.8-0.9,1.6-0.9
								s1.5,0.4,1.8,1.1h0.1c0.3-0.6,0.9-1.1,1.8-1.1c1.1,0,2.1,0.7,2.1,2.3v3.8h-0.9v-3.6c0-1.2-0.6-1.6-1.3-1.6
								c-0.8,0-1.4,0.5-1.4,1.8v3.4h-0.9v-3.6C135.6,377.2,135,376.8,134.3,376.8z"/>
							<path class="st3" d="M141.7,379c0-1.8,1.3-3.1,2.9-3.1c1.6,0,2.7,1.2,2.7,2.9c0,0.1,0,0.3,0,0.4h-4.6c0.1,1.2,0.9,2,2,2
								c0.7,0,1.4-0.4,1.6-0.9h1c-0.2,1.1-1.3,1.8-2.6,1.8C143,382.1,141.7,380.8,141.7,379z M146.4,378.5c-0.1-1-0.8-1.7-1.7-1.7
								s-1.7,0.7-1.9,1.7H146.4z"/>
						</g>
						<g class="st2">
							<path class="st3" d="M53.5,394.9h-1.2V394h1.2v-1.1c0-1.1,0.8-1.7,1.6-1.7c0.4,0,0.8,0.1,1,0.3l-0.3,0.7
								c-0.2-0.1-0.4-0.1-0.6-0.1c-0.5,0-0.8,0.3-0.8,0.8v1.1h1.4v0.8h-1.4v5.1h-0.9V394.9z"/>
						</g>
						<g class="st2">
							<path class="st3" d="M56.6,397c0-1.8,1.3-3.1,3-3.1s3,1.3,3,3.1c0,1.8-1.3,3.1-3,3.1C57.9,400.1,56.6,398.8,56.6,397z
								 M59.6,399.2c1.2,0,2.1-1,2.1-2.2s-0.9-2.2-2.1-2.2c-1.2,0-2.1,1-2.1,2.2C57.6,398.3,58.4,399.2,59.6,399.2z"/>
							<path class="st3" d="M64.2,394H65l0.1,0.9h0.1c0.2-0.4,0.7-0.9,1.8-0.9c0.1,0,0.2,0,0.3,0v0.9c-0.2,0-0.2,0-0.3,0
								c-1,0-1.7,0.7-1.7,2.1v3h-0.9v-6H64.2z"/>
						</g>
						<g class="st2">
							<path class="st3" d="M71.6,394h0.8l0.1,1h0.1c0.4-0.7,1.2-1.1,2-1.1c1.6,0,2.8,1.3,2.8,3.1s-1.2,3.1-2.8,3.1
								c-0.8,0-1.5-0.4-1.9-0.9h-0.1v3.2h-0.9L71.6,394L71.6,394z M74.5,399.2c1.1,0,1.9-0.9,1.9-2.2c0-1.3-0.8-2.2-1.9-2.2
								s-1.9,0.9-1.9,2.2C72.6,398.4,73.3,399.2,74.5,399.2z"/>
						</g>
						<g class="st2">
							<path class="st3" d="M78.7,397c0-1.8,1.3-3.1,2.9-3.1s2.7,1.2,2.7,2.9c0,0.1,0,0.3,0,0.4h-4.6c0.1,1.2,0.9,2,2,2
								c0.7,0,1.4-0.4,1.6-0.9h1c-0.2,1.1-1.3,1.8-2.6,1.8C80,400.1,78.7,398.8,78.7,397z M83.4,396.5c-0.1-1-0.8-1.7-1.7-1.7
								c-0.9,0-1.7,0.7-1.9,1.7H83.4z"/>
						</g>
						<g class="st2">
							<path class="st3" d="M86,394h0.8l0.1,0.9H87c0.2-0.4,0.7-0.9,1.8-0.9c0.1,0,0.2,0,0.3,0v0.9c-0.2,0-0.2,0-0.3,0
								c-1,0-1.7,0.7-1.7,2.1v3H86V394z"/>
						</g>
						<g class="st2">
							<path class="st3" d="M89.8,398.2h1c0.1,0.6,0.6,1.1,1.4,1.1c0.7,0,1.2-0.3,1.2-0.8s-0.3-0.7-0.9-0.9l-0.8-0.2
								c-1-0.3-1.6-0.8-1.6-1.7c0-1,0.9-1.7,2.1-1.7c1.1,0,2,0.7,2.1,1.7h-1c-0.1-0.5-0.5-0.9-1.2-0.9c-0.6,0-1.1,0.3-1.1,0.9
								c0,0.4,0.3,0.7,1,0.9l0.8,0.2c1.1,0.3,1.5,0.9,1.5,1.7c0,1.1-1,1.7-2.2,1.7C90.8,400.1,89.8,399.3,89.8,398.2z"/>
						</g>
						<g class="st2">
							<path class="st3" d="M95.5,397c0-1.8,1.3-3.1,3-3.1s3,1.3,3,3.1c0,1.8-1.3,3.1-3,3.1S95.5,398.8,95.5,397z M98.5,399.2
								c1.2,0,2.1-1,2.1-2.2s-0.9-2.2-2.1-2.2s-2.1,1-2.1,2.2C96.5,398.3,97.3,399.2,98.5,399.2z"/>
						</g>
						<g class="st2">
							<path class="st3" d="M105.7,394.8c-0.8,0-1.6,0.5-1.6,1.8v3.4h-0.9v-6h0.8l0.1,0.8h0.1c0.3-0.4,0.8-0.9,1.7-0.9
								c1.3,0,2.2,0.8,2.2,2.4v3.7h-0.9v-3.6C107.1,395.3,106.5,394.8,105.7,394.8z"/>
						</g>
						<g class="st2">
							<path class="st3" d="M109.6,398.4c0-1.2,1-1.9,3.1-2.1h0.6v-0.2c0-0.8-0.5-1.3-1.3-1.3s-1.2,0.4-1.4,1h-1
								c0.1-1.1,1-1.9,2.3-1.9s2.2,0.8,2.2,2.2v2.8c0,0.4,0.2,0.5,0.5,0.5c0,0,0.1,0,0.2,0v0.7c-0.1,0-0.3,0.1-0.5,0.1
								c-0.5,0-1-0.3-1.1-0.9l0,0h-0.1c-0.4,0.6-1,1-1.9,1C110.4,400.1,109.6,399.5,109.6,398.4z M111.6,399.3c1.1,0,1.8-0.8,1.8-2
								V397h-0.5c-1.5,0.1-2.2,0.6-2.2,1.3C110.6,399,111,399.3,111.6,399.3z"/>
						</g>
						<g class="st2">
							<path class="st3" d="M116.2,391.4h0.9v8.6h-0.9V391.4z"/>
						</g>
						<g class="st2">
							<path class="st3" d="M52.9,409.4h0.9v8.6h-0.9V409.4z"/>
						</g>
						<g class="st2">
							<path class="st3" d="M56.2,409.6c0.4,0,0.6,0.3,0.6,0.6s-0.3,0.6-0.6,0.6s-0.6-0.3-0.6-0.6S55.9,409.6,56.2,409.6z M55.7,412
								h0.9v6h-0.9V412z"/>
							<path class="st3" d="M58.2,416.2h1c0.1,0.6,0.6,1.1,1.4,1.1c0.7,0,1.2-0.3,1.2-0.8s-0.3-0.7-0.9-0.9l-0.8-0.2
								c-1-0.3-1.6-0.8-1.6-1.7c0-1,0.9-1.7,2.1-1.7c1.1,0,2,0.7,2.1,1.7h-1c-0.1-0.5-0.5-0.9-1.2-0.9c-0.6,0-1.1,0.3-1.1,0.9
								c0,0.4,0.3,0.7,1,0.9l0.8,0.2c1.1,0.3,1.5,0.9,1.5,1.7c0,1.1-1,1.7-2.2,1.7C59.2,418.1,58.3,417.3,58.2,416.2z"/>
						</g>
						<g class="st2">
							<path class="st3" d="M64.8,416.7v-3.8h-1.2V412h0.3c0.7,0,1-0.4,1-1.1v-0.7h0.8v1.8h1.4v0.8h-1.4v3.6c0,0.5,0.3,0.8,0.7,0.8
								c0.2,0,0.4,0,0.5-0.1v0.8c-0.2,0.1-0.4,0.1-0.7,0.1C65.5,418.1,64.8,417.6,64.8,416.7z"/>
						</g>
						<g class="st2">
							<path class="st3" d="M68,415c0-1.8,1.3-3.1,2.9-3.1s2.7,1.2,2.7,2.9c0,0.1,0,0.3,0,0.4H69c0.1,1.2,0.9,2,2,2
								c0.7,0,1.4-0.4,1.6-0.9h1c-0.2,1.1-1.3,1.8-2.6,1.8C69.3,418.1,68,416.8,68,415z M72.7,414.5c-0.1-1-0.8-1.7-1.7-1.7
								c-0.9,0-1.7,0.7-1.9,1.7H72.7z"/>
							<path class="st3" d="M77.8,412.8c-0.8,0-1.6,0.5-1.6,1.8v3.4h-0.9v-6h0.8l0.1,0.8h0.1c0.3-0.4,0.8-0.9,1.7-0.9
								c1.3,0,2.2,0.8,2.2,2.4v3.7h-0.9v-3.6C79.2,413.3,78.6,412.8,77.8,412.8z"/>
							<path class="st3" d="M82.5,409.6c0.4,0,0.6,0.3,0.6,0.6s-0.3,0.6-0.6,0.6s-0.6-0.3-0.6-0.6S82.2,409.6,82.5,409.6z M82.1,412
								H83v6h-0.9V412z"/>
						</g>
						<g class="st2">
							<path class="st3" d="M87.4,412.8c-0.8,0-1.6,0.5-1.6,1.8v3.4h-0.9v-6h0.8l0.1,0.8h0.1c0.3-0.4,0.8-0.9,1.7-0.9
								c1.3,0,2.2,0.8,2.2,2.4v3.7h-0.9v-3.6C88.8,413.3,88.2,412.8,87.4,412.8z"/>
						</g>
						<g class="st2">
							<path class="st3" d="M91.2,418.8l1.1-1.1c-0.6-0.2-0.9-0.7-0.9-1.2c0-0.6,0.4-1,0.8-1.2c-0.3-0.3-0.5-0.8-0.5-1.3
								c0-1.1,1-2,2.3-2c0.4,0,0.8,0.1,1.1,0.3l0.9-1.2l0.7,0.6l-1,1c0.3,0.3,0.5,0.8,0.5,1.3c0,1.1-1,2-2.3,2
								c-0.4,0-0.8-0.1-1.2-0.3c-0.3,0.1-0.5,0.4-0.5,0.7c0,0.4,0.3,0.7,0.8,0.7h1.3c1.2,0,2,0.7,2,1.7c0,1.2-1,1.9-2.5,1.9
								C92.3,420.5,91.4,419.4,91.2,418.8z M94,419.7c0.8,0,1.5-0.3,1.5-1c0-0.6-0.5-0.9-1.2-0.9h-1.1l-1,1.1
								C92.5,419.2,93.1,419.7,94,419.7z M93.9,415c0.7,0,1.3-0.5,1.3-1.2s-0.6-1.2-1.3-1.2c-0.7,0-1.3,0.5-1.3,1.2
								C92.7,414.6,93.2,415,93.9,415z"/>
							<path class="st3" d="M105.6,418l-0.1-1h-0.1c-0.4,0.7-1.2,1.1-2,1.1c-1.6,0-2.8-1.3-2.8-3.1s1.2-3.1,2.8-3.1
								c0.8,0,1.5,0.4,1.9,0.9h0.1v-3.5h0.9v8.6h-0.7V418z M103.5,417.2c1.1,0,1.9-0.9,1.9-2.2c0-1.3-0.8-2.2-1.9-2.2
								s-1.9,0.9-1.9,2.2C101.6,416.3,102.4,417.2,103.5,417.2z"/>
						</g>
						<g class="st2">
							<path class="st3" d="M107.9,415c0-1.8,1.3-3.1,2.9-3.1s2.7,1.2,2.7,2.9c0,0.1,0,0.3,0,0.4h-4.6c0.1,1.2,0.9,2,2,2
								c0.7,0,1.4-0.4,1.6-0.9h1c-0.2,1.1-1.3,1.8-2.6,1.8C109.2,418.1,107.9,416.8,107.9,415z M112.6,414.5c-0.1-1-0.8-1.7-1.7-1.7
								c-0.9,0-1.7,0.7-1.9,1.7H112.6z"/>
						</g>
						<g class="st2">
							<path class="st3" d="M114.4,412h1l1.8,5h0.1l1.8-5h1l-2.2,6h-1.2L114.4,412z"/>
							<path class="st3" d="M121.8,409.6c0.4,0,0.6,0.3,0.6,0.6s-0.3,0.6-0.6,0.6c-0.4,0-0.6-0.3-0.6-0.6S121.5,409.6,121.8,409.6z
								 M121.4,412h0.9v6h-0.9V412z"/>
						</g>
						<g class="st2">
							<path class="st3" d="M123.9,415c0-1.8,1.2-3.1,3-3.1c1.4,0,2.5,0.8,2.7,2.1h-1c-0.2-0.7-0.8-1.2-1.7-1.2c-1.2,0-2,0.9-2,2.2
								c0,1.3,0.8,2.2,2,2.2c0.9,0,1.5-0.5,1.7-1.2h1c-0.2,1.2-1.3,2.1-2.7,2.1C125.1,418.1,123.9,416.8,123.9,415z"/>
						</g>
						<g class="st2">
							<path class="st3" d="M130.8,415c0-1.8,1.3-3.1,2.9-3.1c1.6,0,2.7,1.2,2.7,2.9c0,0.1,0,0.3,0,0.4h-4.6c0.1,1.2,0.9,2,2,2
								c0.7,0,1.4-0.4,1.6-0.9h1c-0.2,1.1-1.3,1.8-2.6,1.8C132,418.1,130.8,416.8,130.8,415z M135.4,414.5c-0.1-1-0.8-1.7-1.7-1.7
								s-1.7,0.7-1.9,1.7H135.4z"/>
						</g>
					</g>
					<g id="Ellipse_14">
						<circle class="st3" cx="46.5" cy="378.5" r="1.5"/>
					</g>
				</g>
			</g>
		</g>
		<g id="Group_87">
			<g id="Ellipse_18">
				<circle class="st4" cx="98" cy="586" r="89"/>
			</g>
			<g id="Recommended_Duration:_Max_volume_for_5min_time_period">
				<g class="st2">
					<path class="st3" d="M43.1,548.5h4c2.1,0,3.6,1.4,3.6,3.2c0,1.4-0.8,2.4-1.9,2.8L51,559h-2.2l-2-4h-1.5v4h-2.1v-10.5H43.1z
						 M46.9,553.2c1,0,1.6-0.6,1.6-1.5s-0.6-1.5-1.6-1.5h-1.7v3H46.9z"/>
				</g>
				<g class="st2">
					<path class="st3" d="M51.6,555.2c0-2.3,1.7-4,3.9-4c2.1,0,3.7,1.5,3.7,3.7c0,0.2,0,0.4,0,0.7h-5.4c0.1,1.1,0.9,1.8,1.9,1.8
						c0.7,0,1.3-0.3,1.5-0.9h2.1c-0.3,1.6-1.8,2.6-3.5,2.6C53.4,559.2,51.6,557.6,51.6,555.2z M57.1,554.4c-0.1-0.9-0.8-1.5-1.5-1.5
						c-0.8,0-1.6,0.6-1.8,1.5H57.1z"/>
				</g>
				<g class="st2">
					<path class="st3" d="M60.5,555.2c0-2.3,1.6-4,3.9-4c2,0,3.4,1.2,3.6,2.9h-2.1c-0.1-0.6-0.7-1.1-1.5-1.1c-1.1,0-1.8,0.9-1.8,2.2
						s0.8,2.2,1.8,2.2c0.9,0,1.4-0.5,1.5-1.1H68c-0.2,1.7-1.6,2.9-3.6,2.9C62.1,559.2,60.5,557.5,60.5,555.2z"/>
				</g>
				<g class="st2">
					<path class="st3" d="M69.1,555.2c0-2.3,1.8-4,4-4s4,1.6,4,4s-1.8,4-4,4S69.1,557.6,69.1,555.2z M73.1,557.4
						c1.1,0,1.9-0.9,1.9-2.2s-0.8-2.2-1.9-2.2s-1.9,0.9-1.9,2.2S72,557.4,73.1,557.4z"/>
					<path class="st3" d="M82,553.1c-0.7,0-1.3,0.5-1.3,1.6v4.3h-2v-7.5h1.7l0.2,1h0.1c0.3-0.7,1-1.2,2-1.2s1.8,0.5,2.1,1.3h0.1
						c0.4-0.9,1.2-1.3,2.2-1.3c1.5,0,2.6,1,2.6,3v4.8h-2v-4.5c0-1-0.5-1.5-1.2-1.5s-1.3,0.5-1.3,1.6v4.3h-2v-4.5
						C83.2,553.5,82.7,553.1,82,553.1z"/>
					<path class="st3" d="M94.8,553.1c-0.7,0-1.3,0.5-1.3,1.6v4.3h-2v-7.5h1.7l0.2,1h0.1c0.3-0.7,1-1.2,2-1.2s1.8,0.5,2.1,1.3h0.1
						c0.4-0.9,1.2-1.3,2.2-1.3c1.5,0,2.6,1,2.6,3v4.8h-2v-4.5c0-1-0.5-1.5-1.2-1.5s-1.3,0.5-1.3,1.6v4.3h-2v-4.5
						C96,553.5,95.5,553.1,94.8,553.1z"/>
					<path class="st3" d="M104.1,555.2c0-2.3,1.7-4,3.9-4c2.1,0,3.7,1.5,3.7,3.7c0,0.2,0,0.4,0,0.7h-5.4c0.1,1.1,0.9,1.8,1.9,1.8
						c0.7,0,1.3-0.3,1.5-0.9h2.1c-0.3,1.6-1.8,2.6-3.5,2.6C105.8,559.2,104.1,557.6,104.1,555.2z M109.5,554.4
						c-0.1-0.9-0.8-1.5-1.5-1.5c-0.8,0-1.6,0.6-1.8,1.5H109.5z"/>
					<path class="st3" d="M116.7,553c-0.8,0-1.6,0.6-1.6,1.8v4.2h-2v-7.5h1.7l0.2,1h0.1c0.3-0.6,1-1.2,2.2-1.2
						c1.7,0,2.9,1.1,2.9,3.1v4.6h-2v-4.3C118.2,553.6,117.6,553,116.7,553z"/>
					<path class="st3" d="M127.8,559l-0.2-1.1h-0.1c-0.4,0.8-1.4,1.3-2.4,1.3c-1.9,0-3.4-1.6-3.4-4c0-2.3,1.5-4,3.4-4
						c1,0,1.8,0.5,2.2,1h0.1v-4h2V559H127.8z M125.7,557.4c1.1,0,1.8-0.8,1.8-2.2s-0.7-2.2-1.8-2.2s-1.8,0.9-1.8,2.2
						C123.8,556.6,124.6,557.4,125.7,557.4z"/>
					<path class="st3" d="M131,555.2c0-2.3,1.7-4,3.9-4c2.1,0,3.7,1.5,3.7,3.7c0,0.2,0,0.4,0,0.7h-5.4c0.1,1.1,0.9,1.8,1.9,1.8
						c0.7,0,1.3-0.3,1.5-0.9h2.1c-0.3,1.6-1.8,2.6-3.5,2.6C132.7,559.2,131,557.6,131,555.2z M136.4,554.4c-0.1-0.9-0.8-1.5-1.5-1.5
						c-0.8,0-1.6,0.6-1.8,1.5H136.4z"/>
					<path class="st3" d="M145.9,559l-0.2-1.1h-0.1c-0.4,0.8-1.3,1.3-2.4,1.3c-1.9,0-3.4-1.6-3.4-4c0-2.3,1.5-4,3.4-4
						c1,0,1.8,0.5,2.2,1h0.1v-4h2V559H145.9z M143.7,557.4c1.1,0,1.8-0.8,1.8-2.2s-0.7-2.2-1.8-2.2s-1.8,0.9-1.8,2.2
						C141.9,556.6,142.7,557.4,143.7,557.4z"/>
				</g>
				<g class="st2">
					<path class="st3" d="M43.1,569.5h3.5c3.4,0,5.4,2.1,5.4,5.2s-2,5.2-5.4,5.2h-3.5V569.5z M46.6,578.2c2.2,0,3.4-1.3,3.4-3.5
						s-1.2-3.4-3.4-3.4h-1.4v6.9H46.6z"/>
				</g>
				<g class="st2">
					<path class="st3" d="M53.7,577v-4.6h2v4.3c0,1.1,0.6,1.7,1.4,1.7s1.5-0.6,1.5-1.8v-4.2h2v7.5h-1.7l-0.2-1h-0.1
						c-0.3,0.5-1,1.2-2.1,1.2C54.9,580.2,53.7,579.1,53.7,577z"/>
				</g>
				<g class="st2">
					<path class="st3" d="M62.4,572.5h1.7l0.2,1.1h0.1c0.3-0.7,1-1.2,2.1-1.2c0.2,0,0.4,0,0.6,0v2c-0.2,0-0.4,0-0.5,0
						c-1.3,0-2.1,0.8-2.1,2.4v3.3h-2L62.4,572.5L62.4,572.5z"/>
				</g>
				<g class="st2">
					<path class="st3" d="M67.8,578c0-1.5,1.3-2.4,3.8-2.6l0.7-0.1v-0.2c0-0.7-0.5-1.2-1.1-1.2s-1.1,0.3-1.2,1h-2
						c0.1-1.5,1.4-2.6,3.3-2.6s3.1,1.2,3.1,3v2.8c0,0.4,0.1,0.5,0.6,0.5h0.2v1.5c-0.2,0.1-0.5,0.1-0.7,0.1c-0.7,0-1.4-0.3-1.7-1.2
						h-0.1c-0.5,0.7-1.3,1.2-2.4,1.2C68.7,580.2,67.8,579.3,67.8,578z M70.7,578.5c1,0,1.6-0.8,1.6-1.8v-0.1h-0.6
						c-1.3,0.1-1.9,0.5-1.9,1.2C69.8,578.3,70.2,578.5,70.7,578.5z"/>
				</g>
				<g class="st2">
					<path class="st3" d="M76.8,577.8v-3.6h-1.5v-1.7h0.2c0.9,0,1.4-0.6,1.5-1.6v-0.6h1.7v2.2h1.8v1.7h-1.8v3.3c0,0.6,0.4,1,0.9,1
						c0.2,0,0.4,0,0.6-0.1v1.7c-0.3,0.1-0.7,0.1-1,0.1C77.7,580.2,76.8,579.2,76.8,577.8z"/>
				</g>
				<g class="st2">
					<path class="st3" d="M82.9,569.1c0.7,0,1.2,0.5,1.2,1.2s-0.6,1.2-1.2,1.2s-1.2-0.5-1.2-1.2C81.7,569.6,82.2,569.1,82.9,569.1z
						 M81.9,572.5h2v7.5h-2V572.5z"/>
					<path class="st3" d="M85.5,576.2c0-2.3,1.8-4,4-4s4,1.6,4,4s-1.8,4-4,4S85.5,578.6,85.5,576.2z M89.5,578.4
						c1.1,0,1.9-0.9,1.9-2.2s-0.8-2.2-1.9-2.2s-1.9,0.9-1.9,2.2C87.5,577.5,88.4,578.4,89.5,578.4z"/>
				</g>
				<g class="st2">
					<path class="st3" d="M98.6,574c-0.8,0-1.6,0.6-1.6,1.8v4.2h-2v-7.5h1.7l0.2,1H97c0.3-0.6,1-1.2,2.2-1.2c1.7,0,2.9,1.1,2.9,3.1
						v4.6h-2v-4.3C100,574.6,99.4,574,98.6,574z"/>
				</g>
				<g class="st2">
					<path class="st3" d="M104.6,572.4c0.7,0,1.2,0.5,1.2,1.2c0,0.6-0.5,1.2-1.2,1.2s-1.2-0.5-1.2-1.2S103.9,572.4,104.6,572.4z
						 M103.4,578.9c0-0.6,0.5-1.2,1.2-1.2s1.2,0.5,1.2,1.2c0,0.6-0.5,1.2-1.2,1.2C103.9,580.1,103.4,579.6,103.4,578.9z"/>
				</g>
				<g class="st2">
					<path class="st3" d="M111.9,569.5h1.5l3.6,7.5h0.1l3.6-7.5h1.5V580H121v-8.2h-0.1l-3.2,6.7h-1.2l-3.2-6.7h-0.1v8.2H112v-10.5
						H111.9z"/>
				</g>
				<g class="st2">
					<path class="st3" d="M124.1,578c0-1.5,1.3-2.4,3.9-2.6l0.8-0.1V575c0-1-0.6-1.6-1.6-1.6c-0.9,0-1.6,0.5-1.7,1.3h-1.2
						c0.1-1.3,1.3-2.3,2.9-2.3c1.7,0,2.7,1,2.7,2.7v3.5c0,0.5,0.3,0.6,0.7,0.6c0.1,0,0.1,0,0.3,0v0.9c-0.2,0.1-0.4,0.1-0.6,0.1
						c-0.6,0-1.3-0.3-1.4-1.2l0,0h-0.1c-0.5,0.7-1.3,1.2-2.4,1.2C125.1,580.2,124.1,579.3,124.1,578z M126.6,579.1
						c1.3,0,2.2-1,2.2-2.5v-0.3l-0.7,0.1c-1.9,0.2-2.8,0.7-2.8,1.7C125.3,578.7,125.9,579.1,126.6,579.1z"/>
					<path class="st3" d="M134.1,576.1l-2.3-3.6h1.4l1.7,2.6h0.1l1.7-2.6h1.4l-2.3,3.6l2.5,3.9h-1.4l-1.9-2.9h-0.1L133,580h-1.4
						L134.1,576.1z"/>
				</g>
				<g class="st2">
					<path class="st3" d="M42.5,593.5h1.3l2.2,6.2l0,0l2.2-6.2h1.3l-2.8,7.5h-1.5L42.5,593.5z"/>
				</g>
				<g class="st2">
					<path class="st3" d="M50.6,597.3c0-2.2,1.6-3.9,3.8-3.9s3.8,1.7,3.8,3.9s-1.6,3.9-3.8,3.9S50.6,599.5,50.6,597.3z M54.3,600.1
						c1.5,0,2.6-1.2,2.6-2.8s-1.1-2.8-2.6-2.8s-2.6,1.2-2.6,2.8C51.8,598.8,52.8,600.1,54.3,600.1z"/>
					<path class="st3" d="M60.1,590.2h1.2V601h-1.2V590.2z"/>
					<path class="st3" d="M63.6,598.1v-4.6h1.2v4.5c0,1.4,0.8,2,1.7,2c1,0,1.9-0.7,1.9-2.2v-4.3h1.2v7.5h-1l-0.1-1h-0.1
						c-0.3,0.5-1,1.1-2.1,1.1C64.8,601.2,63.6,600.1,63.6,598.1z"/>
					<path class="st3" d="M74.9,594.5c-0.9,0-1.8,0.7-1.8,2.2v4.3H72v-7.5h1l0.1,1h0.1c0.3-0.6,1-1.1,2-1.1s1.8,0.5,2.2,1.3h0.1
						c0.4-0.8,1.1-1.3,2.2-1.3c1.4,0,2.6,0.9,2.6,2.9v4.7H81v-4.5c0-1.4-0.7-2-1.6-2s-1.7,0.7-1.7,2.2v4.3h-1.2v-4.5
						C76.5,595,75.8,594.5,74.9,594.5z"/>
					<path class="st3" d="M84.2,597.3c0-2.2,1.6-3.9,3.7-3.9c2,0,3.4,1.5,3.4,3.6c0,0.2,0,0.3,0,0.6h-5.8c0.1,1.5,1.1,2.5,2.5,2.5
						c0.9,0,1.8-0.4,2-1.2h1.2c-0.3,1.4-1.6,2.3-3.2,2.3C85.8,601.2,84.2,599.5,84.2,597.3z M90,596.6c-0.1-1.3-1-2.1-2.1-2.1
						s-2.2,0.8-2.4,2.1H90z"/>
				</g>
				<g class="st2">
					<path class="st3" d="M97.9,594.6h-1.5v-1.1h1.5v-1.4c0-1.4,1-2.1,2-2.1c0.5,0,1,0.2,1.2,0.3l-0.4,0.9c-0.2-0.1-0.5-0.2-0.7-0.2
						c-0.6,0-1,0.4-1,1v1.4h1.7v1.1H99v6.4h-1.2L97.9,594.6L97.9,594.6z"/>
				</g>
				<g class="st2">
					<path class="st3" d="M101.7,597.3c0-2.2,1.6-3.9,3.8-3.9c2.1,0,3.8,1.7,3.8,3.9s-1.6,3.9-3.8,3.9
						C103.3,601.2,101.7,599.5,101.7,597.3z M105.5,600.1c1.5,0,2.6-1.2,2.6-2.8s-1.1-2.8-2.6-2.8s-2.6,1.2-2.6,2.8
						C102.9,598.8,104,600.1,105.5,600.1z"/>
					<path class="st3" d="M111.3,593.5h1l0.1,1.1h0.1c0.3-0.5,0.9-1.2,2.2-1.2c0.2,0,0.3,0,0.4,0v1.2c-0.2,0-0.3,0-0.4,0
						c-1.3,0-2.2,0.8-2.2,2.6v3.7h-1.2V593.5z"/>
				</g>
				<g class="st2">
					<path class="st3" d="M120.4,598.3h1.2c0.1,1,0.9,1.7,2.1,1.7s2.1-0.8,2.1-2c0-1.3-0.9-2.2-2.1-2.2c-0.8,0-1.6,0.4-2,1.1l-1-0.3
						l0.5-5.3h5.4v1.1h-4.4l-0.3,3h0.1c0.4-0.4,1.1-0.7,1.9-0.7c1.9,0,3.1,1.4,3.1,3.2c0,1.9-1.4,3.2-3.3,3.2
						C121.7,601.2,120.5,599.8,120.4,598.3z"/>
				</g>
				<g class="st2">
					<path class="st3" d="M131.9,594.5c-0.9,0-1.8,0.7-1.8,2.2v4.3H129v-7.5h1l0.1,1h0.1c0.3-0.6,1-1.1,2-1.1s1.8,0.5,2.2,1.3h0.1
						c0.4-0.8,1.1-1.3,2.2-1.3c1.4,0,2.6,0.9,2.6,2.9v4.7H138v-4.5c0-1.4-0.7-2-1.6-2c-0.9,0-1.7,0.7-1.7,2.2v4.3h-1.2v-4.5
						C133.5,595,132.8,594.5,131.9,594.5z"/>
					<path class="st3" d="M142.1,590.5c0.5,0,0.8,0.3,0.8,0.8s-0.4,0.8-0.8,0.8s-0.8-0.3-0.8-0.8
						C141.3,590.9,141.7,590.5,142.1,590.5z M141.5,593.5h1.2v7.5h-1.2V593.5z"/>
					<path class="st3" d="M148.2,594.5c-1,0-2,0.7-2,2.2v4.3H145v-7.5h1l0.1,1h0.1c0.3-0.5,1-1.1,2.1-1.1c1.6,0,2.8,1,2.8,3v4.6H150
						v-4.5C150,595.1,149.2,594.5,148.2,594.5z"/>
				</g>
				<g class="st2">
					<path class="st3" d="M43.9,620.3v-4.7h-1.5v-1.1h0.3c0.9,0,1.2-0.4,1.2-1.3v-0.8h1v2.2h1.7v1.1H45v4.5c0,0.6,0.3,1,0.9,1
						c0.2,0,0.5,0,0.7-0.1v1c-0.2,0.1-0.5,0.2-0.9,0.2C44.7,622.2,43.9,621.5,43.9,620.3z"/>
				</g>
				<g class="st2">
					<path class="st3" d="M49.1,611.5c0.5,0,0.8,0.3,0.8,0.8s-0.4,0.8-0.8,0.8c-0.4,0-0.8-0.3-0.8-0.8
						C48.3,611.9,48.7,611.5,49.1,611.5z M48.5,614.5h1.2v7.5h-1.2V614.5z"/>
					<path class="st3" d="M55,615.5c-0.9,0-1.8,0.7-1.8,2.2v4.3H52v-7.5h1l0.1,1h0.1c0.3-0.6,1-1.1,2-1.1s1.8,0.5,2.2,1.3h0.1
						c0.4-0.8,1.1-1.3,2.2-1.3c1.4,0,2.6,0.9,2.6,2.9v4.7h-1.2v-4.5c0-1.4-0.7-2-1.6-2c-0.9,0-1.7,0.7-1.7,2.2v4.3h-1.2v-4.5
						C56.6,616,55.9,615.5,55,615.5z"/>
					<path class="st3" d="M64.3,618.3c0-2.2,1.6-3.9,3.7-3.9c2,0,3.4,1.5,3.4,3.6c0,0.2,0,0.3,0,0.6h-5.8c0.1,1.5,1.1,2.5,2.5,2.5
						c0.9,0,1.8-0.4,2-1.2h1.2c-0.3,1.4-1.6,2.3-3.2,2.3C65.9,622.2,64.3,620.5,64.3,618.3z M70.1,617.6c-0.1-1.3-1-2.1-2.1-2.1
						c-1.2,0-2.2,0.8-2.4,2.1H70.1z"/>
				</g>
				<g class="st2">
					<path class="st3" d="M77.3,614.5h0.9l0.1,1.2h0.1c0.5-0.9,1.5-1.4,2.5-1.4c2,0,3.5,1.7,3.5,3.9s-1.5,3.9-3.5,3.9
						c-1,0-1.9-0.5-2.4-1.2h-0.1v4h-1.2L77.3,614.5L77.3,614.5z M80.8,621.1c1.4,0,2.4-1.1,2.4-2.8s-1-2.8-2.4-2.8s-2.4,1.1-2.4,2.8
						S79.4,621.1,80.8,621.1z"/>
				</g>
				<g class="st2">
					<path class="st3" d="M86.1,618.3c0-2.2,1.6-3.9,3.7-3.9c2,0,3.4,1.5,3.4,3.6c0,0.2,0,0.3,0,0.6h-5.8c0.1,1.5,1.1,2.5,2.5,2.5
						c0.9,0,1.8-0.4,2-1.2h1.2c-0.3,1.4-1.6,2.3-3.2,2.3C87.7,622.2,86.1,620.5,86.1,618.3z M91.9,617.6c-0.1-1.3-1-2.1-2.1-2.1
						c-1.2,0-2.2,0.8-2.4,2.1H91.9z"/>
				</g>
				<g class="st2">
					<path class="st3" d="M95.2,614.5h1l0.1,1.1h0.1c0.3-0.5,0.9-1.2,2.2-1.2c0.2,0,0.3,0,0.4,0v1.2c-0.2,0-0.3,0-0.4,0
						c-1.3,0-2.2,0.8-2.2,2.6v3.7h-1.2V614.5z"/>
				</g>
				<g class="st2">
					<path class="st3" d="M101.1,611.5c0.5,0,0.8,0.3,0.8,0.8s-0.4,0.8-0.8,0.8s-0.8-0.3-0.8-0.8
						C100.3,611.9,100.7,611.5,101.1,611.5z M100.5,614.5h1.2v7.5h-1.2V614.5z"/>
				</g>
				<g class="st2">
					<path class="st3" d="M103.7,618.3c0-2.2,1.6-3.9,3.8-3.9c2.1,0,3.8,1.7,3.8,3.9s-1.6,3.9-3.8,3.9
						C105.3,622.2,103.7,620.5,103.7,618.3z M107.5,621.1c1.5,0,2.6-1.2,2.6-2.8s-1.1-2.8-2.6-2.8s-2.6,1.2-2.6,2.8
						C104.9,619.8,106,621.1,107.5,621.1z"/>
				</g>
				<g class="st2">
					<path class="st3" d="M119.2,622l-0.1-1.2H119c-0.5,0.9-1.5,1.4-2.5,1.4c-2,0-3.5-1.7-3.5-3.9s1.5-3.9,3.5-3.9
						c1,0,1.9,0.5,2.4,1.2h0.1v-4.4h1.2V622H119.2z M116.6,621.1c1.4,0,2.4-1.1,2.4-2.8s-1-2.8-2.4-2.8s-2.4,1.1-2.4,2.8
						C114.2,619.9,115.2,621.1,116.6,621.1z"/>
				</g>
			</g>
		</g>
		<g id="Group_137">
			<g id="_dB_">
				<g class="st2">
					<path class="st3" d="M83.7,109.8c0,3.4,1,6.4,2.6,8.7l-1.6,1c-1.8-2.1-3.3-5.5-3.3-9.7s1.5-7.6,3.3-9.7l1.6,1
						C84.7,103.4,83.7,106.4,83.7,109.8z"/>
				</g>
				<g class="st2">
					<path class="st3" d="M94.5,116l-0.2-1.5h-0.1c-0.6,1.1-1.8,1.7-3.2,1.7c-2.6,0-4.6-2.2-4.6-5.3c0-3.1,2-5.3,4.6-5.3
						c1.4,0,2.4,0.6,2.9,1.3H94v-5.4h2.7V116H94.5z M91.6,113.9c1.4,0,2.4-1.1,2.4-3c0-1.8-1-2.9-2.4-2.9s-2.4,1.1-2.4,2.9
						S90.2,113.9,91.6,113.9z"/>
				</g>
				<g class="st2">
					<path class="st3" d="M99.2,102h5.3c2.7,0,4.5,1.6,4.5,3.7c0,1.5-0.9,2.4-1.7,2.8v0.1c1,0.5,2.1,1.7,2.1,3.4
						c0,2.3-1.9,3.9-4.6,3.9h-5.5V102H99.2z M104.3,107.8c1.2,0,2-0.7,2-1.8s-0.8-1.8-2-1.8H102v3.5h2.3V107.8z M104.4,113.8
						c1.2,0,2-0.8,2-1.9s-0.8-1.9-2-1.9H102v3.8H104.4z"/>
				</g>
				<g class="st2">
					<path class="st3" d="M112.4,109.8c0-3.4-1-6.4-2.6-8.7l1.6-1c1.8,2.1,3.3,5.5,3.3,9.7s-1.5,7.6-3.3,9.7l-1.6-1
						C111.3,116.2,112.4,113.2,112.4,109.8z"/>
				</g>
			</g>
			<g id="_105-110">
				<g class="st2">
					<path class="st3" d="M68,83.8h-3.2v-2.1h0.8c2,0,2.6-0.9,2.6-2.4v-0.1h2.4V92H68V83.8z"/>
				</g>
				<g class="st2">
					<path class="st3" d="M73.3,85.6c0-4.3,1.9-6.7,5.1-6.7c3.3,0,5.1,2.4,5.1,6.7c0,4.2-1.9,6.6-5.1,6.6
						C75.1,92.2,73.3,89.8,73.3,85.6z M78.4,90c1.6,0,2.4-1.5,2.4-4.4s-0.8-4.4-2.4-4.4S76,82.7,76,85.6S76.8,90,78.4,90z"/>
				</g>
				<g class="st2">
					<path class="st3" d="M85.6,88.3h2.7c0.1,0.9,0.9,1.7,2.1,1.7s2.1-0.8,2.1-2.1c0-1.3-0.9-2.2-2.2-2.2c-0.8,0-1.7,0.4-2.1,1.2
						l-2.4-0.6l0.7-7.1h8v2.3h-5.8l-0.3,2.8h0.1c0.6-0.5,1.4-0.7,2.3-0.7c2.6,0,4.3,1.9,4.3,4.2c0,2.6-2,4.4-4.9,4.4
						C87.5,92.2,85.7,90.4,85.6,88.3z"/>
				</g>
				<g class="st2">
					<path class="st3" d="M96.5,84.6h6.8v2.3h-6.8V84.6z"/>
				</g>
				<g class="st2">
					<path class="st3" d="M107.5,83.8h-3.2v-2.1h0.8c2,0,2.6-0.9,2.6-2.4v-0.1h2.4V92h-2.7L107.5,83.8L107.5,83.8z"/>
				</g>
				<g class="st2">
					<path class="st3" d="M115.6,83.8h-3.2v-2.1h0.8c2,0,2.6-0.9,2.6-2.4v-0.1h2.4V92h-2.7L115.6,83.8L115.6,83.8z"/>
					<path class="st3" d="M120.9,85.6c0-4.3,1.9-6.7,5.1-6.7c3.3,0,5.1,2.4,5.1,6.7c0,4.2-1.9,6.6-5.1,6.6
						C122.7,92.2,120.9,89.8,120.9,85.6z M126,90c1.6,0,2.4-1.5,2.4-4.4s-0.8-4.4-2.4-4.4s-2.4,1.5-2.4,4.4
						C123.6,88.5,124.4,90,126,90z"/>
				</g>
			</g>
		</g>
		<g id="Group_178">
			<g id="Group_170">
				<g id="Path_22">
					<path class="st1" d="M183,358c0-46.9-38.1-85-85-85s-85,38.1-85,85H183z"/>
				</g>
			</g>
			<g id="EXAMPLE">
				<g class="st2">
					<path class="st3" d="M65.4,342.5H72v1.3h-5.2v3.2h4.4v1.3h-4.4v3.3H72v1.3h-6.6V342.5z"/>
					<path class="st3" d="M76.8,347.6l-3.1-5.1h1.7l2.3,3.9h0.1l2.4-3.9h1.7l-3.1,5.1L82,353h-1.7l-2.5-4.2h-0.1l-2.5,4.2h-1.7
						L76.8,347.6z"/>
					<path class="st3" d="M86.8,342.5h2l3.7,10.5h-1.6l-0.9-2.7h-4.3l-0.9,2.7h-1.6L86.8,342.5z M89.5,348.9l-1.7-4.8h-0.1l-1.6,4.8
						H89.5z"/>
					<path class="st3" d="M94.4,342.5h1.8l3.4,7.2h0.1l3.4-7.2h1.8V353h-1.4v-7.7h-0.1l-3,6.2H99l-3-6.2h-0.1v7.7h-1.4v-10.5H94.4z"
						/>
					<path class="st3" d="M107.7,342.5h3.7c2.1,0,3.5,1.3,3.5,3.2s-1.4,3.2-3.5,3.2h-2.3v4.1h-1.5v-10.5H107.7z M111.4,347.6
						c1.2,0,2-0.7,2-1.9c0-1.1-0.8-1.9-2-1.9h-2.3v3.7L111.4,347.6L111.4,347.6z"/>
					<path class="st3" d="M117.1,342.5h1.5v9.2h5.1v1.3h-6.6V342.5z"/>
					<path class="st3" d="M125.9,342.5h6.6v1.3h-5.2v3.2h4.4v1.3h-4.4v3.3h5.2v1.3h-6.6V342.5z"/>
				</g>
			</g>
		</g>
	</g>
	<g>
		<path class="st3" d="M98.4,335.2c-8,0-15.6-3.8-20.3-10.3l1.4-1.1c4.4,6,11.4,9.5,18.8,9.5c12.9,0,23.4-10.5,23.4-23.4
			s-10.5-23.4-23.4-23.4S75,297.1,75,310c0,2.9,0.6,5.8,1.7,8.7l-1.7,0.7c-1.2-3.1-1.9-6.2-1.9-9.3c0-13.9,11.3-25.2,25.2-25.2
			s25.2,11.3,25.2,25.2S112.3,335.2,98.4,335.2L98.4,335.2z"/>
	</g>
	<g>
		<path class="st3" d="M91.4,320.7c-0.2,0-0.4,0-0.5-0.1c-0.3-0.2-0.5-0.6-0.5-1v-19.1c0-0.4,0.2-0.8,0.5-1s0.7-0.2,1.1,0l17.4,9.6
			c0.4,0.2,0.6,0.6,0.6,1s-0.2,0.8-0.6,1L92,320.5C91.8,320.6,91.6,320.7,91.4,320.7L91.4,320.7z M92.1,301.6v16.8l15.2-8.4
			L92.1,301.6L92.1,301.6z M108.5,309.4L108.5,309.4L108.5,309.4z"/>
	</g>
	<g>
		<circle class="st3" cx="78.6" cy="324.4" r="3.6"/>
	</g>
</g>
</svg>
