<?xml version="1.0" encoding="utf-8"?>
<!-- Generator: Adobe Illustrator 27.6.1, SVG Export Plug-In . SVG Version: 6.00 Build 0)  -->
<svg version="1.1" xmlns="http://www.w3.org/2000/svg" xmlns:xlink="http://www.w3.org/1999/xlink" x="0px" y="0px"
	 viewBox="0 0 215 658" style="enable-background:new 0 0 215 658;" xml:space="preserve">
<style type="text/css">
	.st0{fill:#00A451;}
	.st1{fill:none;}
	.st2{enable-background:new    ;}
	.st3{fill:#FFFFFF;}
	.st4{fill:#122C49;}
</style>
<g id="Layer_2">
	<circle class="st0" cx="107.8" cy="551.2" r="106.8"/>
</g>
<g id="Working_File">
	<g id="Group_189">
		<g id="Ellipse_6">
			<g>
				<circle class="st1" cx="107.5" cy="550.5" r="107.5"/>
			</g>
			<g>
				<path class="st0" d="M107.5,658C48.2,658,0,609.8,0,550.5S48.2,443,107.5,443S215,491.2,215,550.5S166.8,658,107.5,658z
					 M107.5,446C49.9,446,3,492.9,3,550.5S49.9,655,107.5,655S212,608.1,212,550.5S165.1,446,107.5,446z"/>
			</g>
		</g>
		<g id="Ellipse_49">
			<circle class="st0" cx="108" cy="317" r="85"/>
		</g>
		<g id="Line_150">
			<path d="M108,201.5c-0.8,0-1.5-0.7-1.5-1.5v-12c0-0.8,0.7-1.5,1.5-1.5s1.5,0.7,1.5,1.5v12C109.5,200.8,108.8,201.5,108,201.5z"/>
		</g>
		<g id="Line_153">
			<path d="M108,438.5c-0.8,0-1.5-0.7-1.5-1.5v-9c0-0.8,0.7-1.5,1.5-1.5s1.5,0.7,1.5,1.5v9C109.5,437.8,108.8,438.5,108,438.5z"/>
		</g>
		<g id="Line_174">
			<path d="M108,419.5c-0.8,0-1.5-0.7-1.5-1.5v-9c0-0.8,0.7-1.5,1.5-1.5s1.5,0.7,1.5,1.5v9C109.5,418.8,108.8,419.5,108,419.5z"/>
		</g>
		<g id="Line_151">
			<path d="M108,223.5c-0.8,0-1.5-0.7-1.5-1.5v-12c0-0.8,0.7-1.5,1.5-1.5s1.5,0.7,1.5,1.5v12C109.5,222.8,108.8,223.5,108,223.5z"/>
		</g>
		<g id="Group_103">
			<g id="Group_31">
				<g id="Group_27">
					<g id="Shouting_or_barking_in_the_ear">
						<g class="st2">
							<path class="st3" d="M57.7,277.6h1c0.1,1,0.8,1.6,2,1.6c0.8,0,1.7-0.5,1.7-1.4c0-0.8-0.5-1.2-1.7-1.6l-0.8-0.3
								c-1.3-0.4-1.9-1.1-1.9-2.2c0-1.3,1.2-2.2,2.5-2.2c1.5,0,2.7,1,2.7,2.2h-1c-0.1-0.7-0.8-1.3-1.7-1.3c-0.8,0-1.5,0.6-1.5,1.3
								c0,0.7,0.5,1.1,1.5,1.4l0.8,0.2c1.4,0.5,2.1,1.2,2.1,2.5c0,1.4-1.2,2.3-2.7,2.3C58.9,280.1,57.8,279.1,57.7,277.6z"/>
							<path class="st3" d="M67.5,274.8c-0.8,0-1.6,0.5-1.6,1.8v3.4H65v-8.6h0.9v3.4H66c0.2-0.3,0.7-0.8,1.6-0.8
								c1.3,0,2.2,0.8,2.2,2.4v3.7h-0.9v-3.6C68.9,275.3,68.3,274.8,67.5,274.8z"/>
						</g>
						<g class="st2">
							<path class="st3" d="M71.5,277c0-1.8,1.3-3.1,3-3.1s3,1.3,3,3.1c0,1.8-1.3,3.1-3,3.1S71.5,278.8,71.5,277z M74.5,279.2
								c1.2,0,2.1-1,2.1-2.2s-0.9-2.2-2.1-2.2s-2.1,1-2.1,2.2C72.4,278.3,73.3,279.2,74.5,279.2z"/>
						</g>
						<g class="st2">
							<path class="st3" d="M79.1,277.7V274H80v3.6c0,1.2,0.6,1.6,1.4,1.6s1.5-0.5,1.5-1.8V274h0.9v6H83l-0.1-0.8h-0.1
								c-0.3,0.4-0.8,0.9-1.7,0.9C80,280.1,79.1,279.3,79.1,277.7z"/>
						</g>
						<g class="st2">
							<path class="st3" d="M86.3,278.7v-3.8h-1.2V274h0.3c0.7,0,1-0.4,1-1.1v-0.7h0.8v1.8h1.4v0.8h-1.4v3.6c0,0.5,0.3,0.8,0.7,0.8
								c0.2,0,0.4,0,0.5-0.1v0.8c-0.2,0.1-0.4,0.1-0.7,0.1C86.9,280.1,86.3,279.6,86.3,278.7z"/>
						</g>
						<g class="st2">
							<path class="st3" d="M90.5,271.6c0.4,0,0.6,0.3,0.6,0.6s-0.3,0.6-0.6,0.6s-0.6-0.3-0.6-0.6S90.1,271.6,90.5,271.6z M90,274h1
								v6h-1V274z"/>
						</g>
						<g class="st2">
							<path class="st3" d="M95.4,274.8c-0.8,0-1.6,0.5-1.6,1.8v3.4h-0.9v-6h0.8l0.1,0.8h0.1c0.3-0.4,0.8-0.9,1.7-0.9
								c1.3,0,2.2,0.8,2.2,2.4v3.7h-0.9v-3.6C96.8,275.3,96.2,274.8,95.4,274.8z"/>
						</g>
						<g class="st2">
							<path class="st3" d="M99.2,280.8l1.1-1.1c-0.6-0.2-0.9-0.7-0.9-1.2c0-0.6,0.4-1,0.8-1.2c-0.3-0.3-0.5-0.8-0.5-1.3
								c0-1.1,1-2,2.3-2c0.4,0,0.8,0.1,1.1,0.3l0.9-1.2l0.7,0.6l-1,1c0.3,0.3,0.5,0.8,0.5,1.3c0,1.1-1,2-2.3,2
								c-0.4,0-0.8-0.1-1.2-0.3c-0.3,0.1-0.5,0.4-0.5,0.7c0,0.4,0.3,0.7,0.8,0.7h1.3c1.2,0,2,0.7,2,1.7c0,1.2-1,1.9-2.5,1.9
								C100.3,282.5,99.4,281.4,99.2,280.8z M102,281.7c0.8,0,1.5-0.3,1.5-1c0-0.6-0.5-0.9-1.2-0.9h-1.1l-1,1.1
								C100.5,281.2,101.1,281.7,102,281.7z M101.9,277c0.7,0,1.3-0.5,1.3-1.2s-0.6-1.2-1.3-1.2c-0.7,0-1.3,0.5-1.3,1.2
								C100.6,276.6,101.2,277,101.9,277z"/>
							<path class="st3" d="M108.6,277c0-1.8,1.3-3.1,3-3.1s3,1.3,3,3.1c0,1.8-1.3,3.1-3,3.1S108.6,278.8,108.6,277z M111.6,279.2
								c1.2,0,2.1-1,2.1-2.2s-0.9-2.2-2.1-2.2s-2.1,1-2.1,2.2C109.5,278.3,110.4,279.2,111.6,279.2z"/>
							<path class="st3" d="M116.2,274h0.8l0.1,0.9h0.1c0.2-0.4,0.7-0.9,1.8-0.9c0.1,0,0.2,0,0.3,0v0.9c-0.2,0-0.2,0-0.3,0
								c-1,0-1.7,0.7-1.7,2.1v3h-0.9v-6H116.2z"/>
							<path class="st3" d="M123.6,271.4h0.9v3.5h0.1c0.4-0.6,1.1-0.9,1.9-0.9c1.6,0,2.8,1.3,2.8,3.1s-1.2,3.1-2.8,3.1
								c-0.8,0-1.6-0.4-2-1.1h-0.1l-0.1,1h-0.8L123.6,271.4L123.6,271.4z M126.4,279.2c1.1,0,1.9-0.9,1.9-2.2c0-1.3-0.8-2.2-1.9-2.2
								s-1.9,0.9-1.9,2.2C124.5,278.4,125.3,279.2,126.4,279.2z"/>
						</g>
						<g class="st2">
							<path class="st3" d="M130.7,278.4c0-1.2,1-1.9,3.1-2.1h0.6v-0.2c0-0.8-0.5-1.3-1.3-1.3s-1.2,0.4-1.4,1h-1
								c0.1-1.1,1-1.9,2.3-1.9s2.2,0.8,2.2,2.2v2.8c0,0.4,0.2,0.5,0.5,0.5c0,0,0.1,0,0.2,0v0.7c-0.1,0-0.3,0.1-0.5,0.1
								c-0.5,0-1-0.3-1.1-0.9l0,0h-0.1c-0.4,0.6-1,1-1.9,1C131.4,280.1,130.7,279.5,130.7,278.4z M132.6,279.3c1.1,0,1.8-0.8,1.8-2
								V277h-0.5c-1.5,0.1-2.2,0.6-2.2,1.3C131.6,279,132.1,279.3,132.6,279.3z"/>
						</g>
						<g class="st2">
							<path class="st3" d="M137.2,274h0.8l0.1,0.9h0.1c0.2-0.4,0.7-0.9,1.8-0.9c0.1,0,0.2,0,0.3,0v0.9c-0.2,0-0.2,0-0.3,0
								c-1,0-1.7,0.7-1.7,2.1v3h-0.9v-6H137.2z"/>
						</g>
						<g class="st2">
							<path class="st3" d="M141.5,271.4h0.9v5.2h0.1l2.6-2.6h1.3l-2.4,2.3l2.4,3.6h-1.1l-2-3l-0.9,0.9v2.1h-0.9L141.5,271.4
								L141.5,271.4z"/>
						</g>
						<g class="st2">
							<path class="st3" d="M148.1,271.6c0.4,0,0.6,0.3,0.6,0.6s-0.3,0.6-0.6,0.6c-0.4,0-0.6-0.3-0.6-0.6S147.8,271.6,148.1,271.6z
								 M147.7,274h0.9v6h-0.9V274z"/>
						</g>
						<g class="st2">
							<path class="st3" d="M153,274.8c-0.8,0-1.6,0.5-1.6,1.8v3.4h-0.9v-6h0.8l0.1,0.8h0.1c0.3-0.4,0.8-0.9,1.7-0.9
								c1.3,0,2.2,0.8,2.2,2.4v3.7h-0.9v-3.6C154.4,275.3,153.8,274.8,153,274.8z"/>
						</g>
						<g class="st2">
							<path class="st3" d="M156.8,280.8l1.1-1.1c-0.6-0.2-0.9-0.7-0.9-1.2c0-0.6,0.4-1,0.8-1.2c-0.3-0.3-0.5-0.8-0.5-1.3
								c0-1.1,1-2,2.3-2c0.4,0,0.8,0.1,1.1,0.3l0.9-1.2l0.7,0.6l-1,1c0.3,0.3,0.5,0.8,0.5,1.3c0,1.1-1,2-2.3,2
								c-0.4,0-0.8-0.1-1.2-0.3c-0.3,0.1-0.5,0.4-0.5,0.7c0,0.4,0.3,0.7,0.8,0.7h1.3c1.2,0,2,0.7,2,1.7c0,1.2-1,1.9-2.5,1.9
								C157.9,282.5,157,281.4,156.8,280.8z M159.6,281.7c0.8,0,1.5-0.3,1.5-1c0-0.6-0.5-0.9-1.2-0.9h-1.1l-1,1.1
								C158.1,281.2,158.7,281.7,159.6,281.7z M159.5,277c0.7,0,1.3-0.5,1.3-1.2s-0.6-1.2-1.3-1.2s-1.3,0.5-1.3,1.2
								C158.2,276.6,158.8,277,159.5,277z"/>
						</g>
						<g class="st2">
							<path class="st3" d="M58.4,289.6c0.4,0,0.6,0.3,0.6,0.6s-0.3,0.6-0.6,0.6s-0.6-0.3-0.6-0.6S58,289.6,58.4,289.6z M57.9,292
								h0.9v6h-0.9V292z"/>
							<path class="st3" d="M63.2,292.8c-0.8,0-1.6,0.5-1.6,1.8v3.4h-0.9v-6h0.8l0.1,0.8h0.1c0.3-0.4,0.8-0.9,1.7-0.9
								c1.3,0,2.2,0.8,2.2,2.4v3.7h-0.9v-3.6C64.7,293.3,64.1,292.8,63.2,292.8z"/>
						</g>
						<g class="st2">
							<path class="st3" d="M71.2,296.7v-3.8H70V292h0.3c0.7,0,1-0.4,1-1.1v-0.7h0.8v1.8h1.4v0.8h-1.4v3.6c0,0.5,0.3,0.8,0.7,0.8
								c0.2,0,0.4,0,0.5-0.1v0.8c-0.2,0.1-0.4,0.1-0.7,0.1C71.8,298.1,71.2,297.6,71.2,296.7z"/>
						</g>
						<g class="st2">
							<path class="st3" d="M77.5,292.8c-0.8,0-1.6,0.5-1.6,1.8v3.4H75v-8.6h0.9v3.4H76c0.2-0.3,0.7-0.8,1.6-0.8
								c1.3,0,2.2,0.8,2.2,2.4v3.7h-0.9v-3.6C78.9,293.3,78.3,292.8,77.5,292.8z"/>
							<path class="st3" d="M81.5,295c0-1.8,1.3-3.1,2.9-3.1s2.7,1.2,2.7,2.9c0,0.1,0,0.3,0,0.4h-4.6c0.1,1.2,0.9,2,2,2
								c0.7,0,1.4-0.4,1.6-0.9h1c-0.2,1.1-1.3,1.8-2.6,1.8C82.7,298.1,81.5,296.8,81.5,295z M86.1,294.5c-0.1-1-0.8-1.7-1.7-1.7
								c-0.9,0-1.7,0.7-1.9,1.7H86.1z"/>
						</g>
						<g class="st2">
							<path class="st3" d="M91.5,295c0-1.8,1.3-3.1,2.9-3.1s2.7,1.2,2.7,2.9c0,0.1,0,0.3,0,0.4h-4.6c0.1,1.2,0.9,2,2,2
								c0.7,0,1.4-0.4,1.6-0.9h1c-0.2,1.1-1.3,1.8-2.6,1.8C92.8,298.1,91.5,296.8,91.5,295z M96.2,294.5c-0.1-1-0.8-1.7-1.7-1.7
								c-0.9,0-1.7,0.7-1.9,1.7H96.2z"/>
						</g>
						<g class="st2">
							<path class="st3" d="M98.4,296.4c0-1.2,1-1.9,3.1-2.1h0.6v-0.2c0-0.8-0.5-1.3-1.3-1.3s-1.2,0.4-1.4,1h-1
								c0.1-1.1,1-1.9,2.3-1.9s2.2,0.8,2.2,2.2v2.8c0,0.4,0.2,0.5,0.5,0.5c0,0,0.1,0,0.2,0v0.7c-0.1,0-0.3,0.1-0.5,0.1
								c-0.5,0-1-0.3-1.1-0.9l0,0h-0.1c-0.4,0.6-1,1-1.9,1C99.2,298.1,98.4,297.5,98.4,296.4z M100.4,297.3c1.1,0,1.8-0.8,1.8-2V295
								h-0.5c-1.5,0.1-2.2,0.6-2.2,1.3C99.4,297,99.8,297.3,100.4,297.3z"/>
						</g>
						<g class="st2">
							<path class="st3" d="M105,292h0.8l0.1,0.9h0.1c0.2-0.4,0.7-0.9,1.8-0.9c0.1,0,0.2,0,0.3,0v0.9c-0.2,0-0.2,0-0.3,0
								c-1,0-1.7,0.7-1.7,2.1v3H105V292z"/>
						</g>
					</g>
					<g id="Ellipse_14">
						<circle class="st3" cx="51.5" cy="276.5" r="1.5"/>
					</g>
				</g>
			</g>
		</g>
		<g id="Group_101">
			<g id="Ellipse_18">
				<circle class="st4" cx="108" cy="89" r="89"/>
			</g>
			<g id="Recommended_Duration:_Max_volume_for_2min_time_period">
				<g class="st2">
					<path class="st3" d="M52.1,51.5h4c2.1,0,3.6,1.4,3.6,3.2c0,1.4-0.8,2.4-1.9,2.8L60,62h-2.2l-2-4h-1.5v4h-2.1V51.5H52.1z
						 M55.9,56.2c1,0,1.6-0.6,1.6-1.5s-0.6-1.5-1.6-1.5h-1.7v3H55.9z"/>
				</g>
				<g class="st2">
					<path class="st3" d="M60.6,58.2c0-2.3,1.7-4,3.9-4c2.1,0,3.7,1.5,3.7,3.7c0,0.2,0,0.4,0,0.7h-5.4c0.1,1.1,0.9,1.8,1.9,1.8
						c0.7,0,1.3-0.3,1.5-0.9h2.1c-0.3,1.6-1.8,2.6-3.5,2.6C62.4,62.2,60.6,60.6,60.6,58.2z M66.1,57.4c-0.1-0.9-0.8-1.5-1.5-1.5
						c-0.8,0-1.6,0.6-1.8,1.5H66.1z"/>
				</g>
				<g class="st2">
					<path class="st3" d="M69.5,58.2c0-2.3,1.6-4,3.9-4c2,0,3.4,1.2,3.6,2.9h-2.1c-0.1-0.6-0.7-1.1-1.5-1.1c-1.1,0-1.8,0.9-1.8,2.2
						s0.8,2.2,1.8,2.2c0.9,0,1.4-0.5,1.5-1.1H77c-0.2,1.7-1.6,2.9-3.6,2.9C71.1,62.2,69.5,60.5,69.5,58.2z"/>
				</g>
				<g class="st2">
					<path class="st3" d="M78.1,58.2c0-2.3,1.8-4,4-4s4,1.6,4,4s-1.8,4-4,4S78.1,60.6,78.1,58.2z M82.1,60.4c1.1,0,1.9-0.9,1.9-2.2
						S83.2,56,82.1,56s-1.9,0.9-1.9,2.2S81,60.4,82.1,60.4z"/>
					<path class="st3" d="M91,56.1c-0.7,0-1.3,0.5-1.3,1.6V62h-2v-7.5h1.7l0.2,1h0.1c0.3-0.7,1-1.2,2-1.2s1.8,0.5,2.1,1.3h0.1
						c0.4-0.9,1.2-1.3,2.2-1.3c1.5,0,2.6,1,2.6,3V62h-2v-4.5c0-1-0.5-1.5-1.2-1.5s-1.3,0.5-1.3,1.6V62h-2v-4.5
						C92.2,56.5,91.7,56.1,91,56.1z"/>
					<path class="st3" d="M103.8,56.1c-0.7,0-1.3,0.5-1.3,1.6V62h-2v-7.5h1.7l0.2,1h0.1c0.3-0.7,1-1.2,2-1.2s1.8,0.5,2.1,1.3h0.1
						c0.4-0.9,1.2-1.3,2.2-1.3c1.5,0,2.6,1,2.6,3V62h-2v-4.5c0-1-0.5-1.5-1.2-1.5s-1.3,0.5-1.3,1.6V62h-2v-4.5
						C105,56.5,104.5,56.1,103.8,56.1z"/>
					<path class="st3" d="M113.1,58.2c0-2.3,1.7-4,3.9-4c2.1,0,3.7,1.5,3.7,3.7c0,0.2,0,0.4,0,0.7h-5.4c0.1,1.1,0.9,1.8,1.9,1.8
						c0.7,0,1.3-0.3,1.5-0.9h2.1c-0.3,1.6-1.8,2.6-3.5,2.6C114.8,62.2,113.1,60.6,113.1,58.2z M118.5,57.4c-0.1-0.9-0.8-1.5-1.5-1.5
						c-0.8,0-1.6,0.6-1.8,1.5H118.5z"/>
					<path class="st3" d="M125.7,56c-0.8,0-1.6,0.6-1.6,1.8V62h-2v-7.5h1.7l0.2,1h0.1c0.3-0.6,1-1.2,2.2-1.2c1.7,0,2.9,1.1,2.9,3.1
						V62h-2v-4.3C127.2,56.6,126.6,56,125.7,56z"/>
					<path class="st3" d="M136.8,62l-0.2-1.1h-0.1c-0.4,0.8-1.4,1.3-2.4,1.3c-1.9,0-3.4-1.6-3.4-4c0-2.3,1.5-4,3.4-4
						c1,0,1.8,0.5,2.2,1h0.1v-4h2V62H136.8z M134.7,60.4c1.1,0,1.8-0.8,1.8-2.2s-0.7-2.2-1.8-2.2s-1.8,0.9-1.8,2.2
						C132.8,59.6,133.6,60.4,134.7,60.4z"/>
					<path class="st3" d="M140,58.2c0-2.3,1.7-4,3.9-4c2.1,0,3.7,1.5,3.7,3.7c0,0.2,0,0.4,0,0.7h-5.4c0.1,1.1,0.9,1.8,1.9,1.8
						c0.7,0,1.3-0.3,1.5-0.9h2.1c-0.3,1.6-1.8,2.6-3.5,2.6C141.7,62.2,140,60.6,140,58.2z M145.4,57.4c-0.1-0.9-0.8-1.5-1.5-1.5
						c-0.8,0-1.6,0.6-1.8,1.5H145.4z"/>
					<path class="st3" d="M154.9,62l-0.2-1.1h-0.1c-0.4,0.8-1.3,1.3-2.4,1.3c-1.9,0-3.4-1.6-3.4-4c0-2.3,1.5-4,3.4-4
						c1,0,1.8,0.5,2.2,1h0.1v-4h2V62H154.9z M152.7,60.4c1.1,0,1.8-0.8,1.8-2.2s-0.7-2.2-1.8-2.2s-1.8,0.9-1.8,2.2
						C150.9,59.6,151.7,60.4,152.7,60.4z"/>
				</g>
				<g class="st2">
					<path class="st3" d="M52.1,72.5h3.5c3.4,0,5.4,2.1,5.4,5.2s-2,5.2-5.4,5.2h-3.5V72.5z M55.6,81.2c2.2,0,3.4-1.3,3.4-3.5
						s-1.2-3.4-3.4-3.4h-1.4v6.9H55.6z"/>
				</g>
				<g class="st2">
					<path class="st3" d="M62.7,80v-4.6h2v4.3c0,1.1,0.6,1.7,1.4,1.7s1.5-0.6,1.5-1.8v-4.2h2V83h-1.7l-0.2-1h-0.1
						c-0.3,0.5-1,1.2-2.1,1.2C63.9,83.2,62.7,82.1,62.7,80z"/>
				</g>
				<g class="st2">
					<path class="st3" d="M71.4,75.5h1.7l0.2,1.1h0.1c0.3-0.7,1-1.2,2.1-1.2c0.2,0,0.4,0,0.6,0v2c-0.2,0-0.4,0-0.5,0
						c-1.3,0-2.1,0.8-2.1,2.4V83h-2L71.4,75.5L71.4,75.5z"/>
				</g>
				<g class="st2">
					<path class="st3" d="M76.8,81c0-1.5,1.3-2.4,3.8-2.6l0.7-0.1v-0.2c0-0.7-0.5-1.2-1.1-1.2s-1.1,0.3-1.2,1h-2
						c0.1-1.5,1.4-2.6,3.3-2.6s3.1,1.2,3.1,3V81c0,0.4,0.1,0.5,0.6,0.5h0.2V83c-0.2,0.1-0.5,0.1-0.7,0.1c-0.7,0-1.4-0.3-1.7-1.2
						h-0.1c-0.5,0.7-1.3,1.2-2.4,1.2C77.7,83.2,76.8,82.3,76.8,81z M79.7,81.5c1,0,1.6-0.8,1.6-1.8v-0.1h-0.6
						c-1.3,0.1-1.9,0.5-1.9,1.2C78.8,81.3,79.2,81.5,79.7,81.5z"/>
				</g>
				<g class="st2">
					<path class="st3" d="M85.8,80.8v-3.6h-1.5v-1.7h0.2c0.9,0,1.4-0.6,1.5-1.6v-0.6h1.7v2.2h1.8v1.7h-1.8v3.3c0,0.6,0.4,1,0.9,1
						c0.2,0,0.4,0,0.6-0.1V83c-0.3,0.1-0.7,0.1-1,0.1C86.7,83.2,85.8,82.2,85.8,80.8z"/>
				</g>
				<g class="st2">
					<path class="st3" d="M91.9,72.1c0.7,0,1.2,0.5,1.2,1.2s-0.6,1.2-1.2,1.2s-1.2-0.5-1.2-1.2C90.7,72.6,91.2,72.1,91.9,72.1z
						 M90.9,75.5h2V83h-2V75.5z"/>
					<path class="st3" d="M94.5,79.2c0-2.3,1.8-4,4-4s4,1.6,4,4s-1.8,4-4,4S94.5,81.6,94.5,79.2z M98.5,81.4c1.1,0,1.9-0.9,1.9-2.2
						c0-1.3-0.8-2.2-1.9-2.2s-1.9,0.9-1.9,2.2C96.5,80.5,97.4,81.4,98.5,81.4z"/>
				</g>
				<g class="st2">
					<path class="st3" d="M107.6,77c-0.8,0-1.6,0.6-1.6,1.8V83h-2v-7.5h1.7l0.2,1h0.1c0.3-0.6,1-1.2,2.2-1.2c1.7,0,2.9,1.1,2.9,3.1
						V83h-2v-4.3C109,77.6,108.4,77,107.6,77z"/>
				</g>
				<g class="st2">
					<path class="st3" d="M113.6,75.4c0.7,0,1.2,0.5,1.2,1.2c0,0.6-0.5,1.2-1.2,1.2s-1.2-0.5-1.2-1.2S112.9,75.4,113.6,75.4z
						 M112.4,81.9c0-0.6,0.5-1.2,1.2-1.2s1.2,0.5,1.2,1.2c0,0.6-0.5,1.2-1.2,1.2S112.4,82.6,112.4,81.9z"/>
				</g>
				<g class="st2">
					<path class="st3" d="M120.9,72.5h1.5L126,80h0.1l3.6-7.5h1.5V83H130v-8.2h-0.1l-3.2,6.7h-1.2l-3.2-6.7h-0.1V83H121V72.5H120.9z
						"/>
				</g>
				<g class="st2">
					<path class="st3" d="M133.1,81c0-1.5,1.3-2.4,3.9-2.6l0.8-0.1V78c0-1-0.6-1.6-1.6-1.6c-0.9,0-1.6,0.5-1.7,1.3h-1.2
						c0.1-1.3,1.3-2.3,2.9-2.3c1.7,0,2.7,1,2.7,2.7v3.5c0,0.5,0.3,0.6,0.7,0.6c0.1,0,0.1,0,0.3,0V83c-0.2,0.1-0.4,0.1-0.6,0.1
						c-0.6,0-1.3-0.3-1.4-1.2l0,0h-0.1c-0.5,0.7-1.3,1.2-2.4,1.2C134.1,83.2,133.1,82.3,133.1,81z M135.6,82.1c1.3,0,2.2-1,2.2-2.5
						v-0.3l-0.7,0.1c-1.9,0.2-2.8,0.7-2.8,1.7C134.3,81.7,134.9,82.1,135.6,82.1z"/>
					<path class="st3" d="M143.1,79.1l-2.3-3.6h1.4l1.7,2.6h0.1l1.7-2.6h1.4l-2.3,3.6l2.5,3.9h-1.4l-1.9-2.9h-0.1L142,83h-1.4
						L143.1,79.1z"/>
				</g>
				<g class="st2">
					<path class="st3" d="M51.5,96.5h1.3l2.2,6.2l0,0l2.2-6.2h1.3l-2.8,7.5h-1.5L51.5,96.5z"/>
				</g>
				<g class="st2">
					<path class="st3" d="M59.6,100.3c0-2.2,1.6-3.9,3.8-3.9s3.8,1.7,3.8,3.9c0,2.2-1.6,3.9-3.8,3.9S59.6,102.5,59.6,100.3z
						 M63.3,103.1c1.5,0,2.6-1.2,2.6-2.8c0-1.6-1.1-2.8-2.6-2.8s-2.6,1.2-2.6,2.8C60.8,101.8,61.8,103.1,63.3,103.1z"/>
					<path class="st3" d="M69.1,93.2h1.2V104h-1.2V93.2z"/>
					<path class="st3" d="M72.6,101.1v-4.6h1.2v4.5c0,1.4,0.8,2,1.7,2c1,0,1.9-0.7,1.9-2.2v-4.3h1.2v7.5h-1l-0.1-1h-0.1
						c-0.3,0.5-1,1.1-2.1,1.1C73.8,104.2,72.6,103.1,72.6,101.1z"/>
					<path class="st3" d="M83.9,97.5c-0.9,0-1.8,0.7-1.8,2.2v4.3H81v-7.5h1l0.1,1h0.1c0.3-0.6,1-1.1,2-1.1s1.8,0.5,2.2,1.3h0.1
						c0.4-0.8,1.1-1.3,2.2-1.3c1.4,0,2.6,0.9,2.6,2.9v4.7H90v-4.5c0-1.4-0.7-2-1.6-2s-1.7,0.7-1.7,2.2v4.3h-1.2v-4.5
						C85.5,98,84.8,97.5,83.9,97.5z"/>
					<path class="st3" d="M93.2,100.3c0-2.2,1.6-3.9,3.7-3.9c2,0,3.4,1.5,3.4,3.6c0,0.2,0,0.3,0,0.6h-5.8c0.1,1.5,1.1,2.5,2.5,2.5
						c0.9,0,1.8-0.4,2-1.2h1.2c-0.3,1.4-1.6,2.3-3.2,2.3C94.8,104.2,93.2,102.5,93.2,100.3z M99,99.6c-0.1-1.3-1-2.1-2.1-2.1
						s-2.2,0.8-2.4,2.1H99z"/>
				</g>
				<g class="st2">
					<path class="st3" d="M106.9,97.6h-1.5v-1.1h1.5v-1.4c0-1.4,1-2.1,2-2.1c0.5,0,1,0.2,1.2,0.3l-0.4,0.9c-0.2-0.1-0.5-0.2-0.7-0.2
						c-0.6,0-1,0.4-1,1v1.4h1.7v1.1H108v6.4h-1.2L106.9,97.6L106.9,97.6z"/>
				</g>
				<g class="st2">
					<path class="st3" d="M110.7,100.3c0-2.2,1.6-3.9,3.8-3.9c2.1,0,3.8,1.7,3.8,3.9c0,2.2-1.6,3.9-3.8,3.9
						C112.3,104.2,110.7,102.5,110.7,100.3z M114.5,103.1c1.5,0,2.6-1.2,2.6-2.8c0-1.6-1.1-2.8-2.6-2.8s-2.6,1.2-2.6,2.8
						C111.9,101.8,113,103.1,114.5,103.1z"/>
					<path class="st3" d="M120.3,96.5h1l0.1,1.1h0.1c0.3-0.5,0.9-1.2,2.2-1.2c0.2,0,0.3,0,0.4,0v1.2c-0.2,0-0.3,0-0.4,0
						c-1.3,0-2.2,0.8-2.2,2.6v3.7h-1.2V96.5z"/>
				</g>
				<g class="st2">
					<path class="st3" d="M131.5,99.8l1.5-1c0.9-0.6,1.5-1.1,1.5-1.9c0-1-0.8-1.6-1.8-1.6c-1.2,0-1.9,0.7-2,1.7h-1.2
						c0-1.6,1.3-2.8,3.2-2.8c1.8,0,3,1.1,3,2.7c0,1.3-0.9,2.1-1.7,2.6l-1.7,1.1c-0.9,0.6-1.5,1.4-1.6,2.2h5v1.1h-6.3v-0.5
						C129.4,102,130.2,100.6,131.5,99.8z"/>
				</g>
				<g class="st2">
					<path class="st3" d="M140.5,97.5c-0.9,0-1.8,0.7-1.8,2.2v4.3h-1.2v-7.5h1l0.1,1h0.1c0.3-0.6,1-1.1,2-1.1s1.8,0.5,2.2,1.3h0.1
						c0.4-0.8,1.1-1.3,2.2-1.3c1.4,0,2.6,0.9,2.6,2.9v4.7h-1.2v-4.5c0-1.4-0.7-2-1.6-2c-0.9,0-1.7,0.7-1.7,2.2v4.3h-1.2v-4.5
						C142.1,98,141.5,97.5,140.5,97.5z"/>
					<path class="st3" d="M150.8,93.5c0.5,0,0.8,0.3,0.8,0.8s-0.4,0.8-0.8,0.8s-0.8-0.3-0.8-0.8C150,93.9,150.3,93.5,150.8,93.5z
						 M150.2,96.5h1.2v7.5h-1.2V96.5z"/>
					<path class="st3" d="M156.8,97.5c-1,0-2,0.7-2,2.2v4.3h-1.2v-7.5h1l0.1,1h0.1c0.3-0.5,1-1.1,2.1-1.1c1.6,0,2.8,1,2.8,3v4.6
						h-1.2v-4.5C158.7,98.1,157.9,97.5,156.8,97.5z"/>
				</g>
				<g class="st2">
					<path class="st3" d="M52.9,123.3v-4.7h-1.5v-1.1h0.3c0.9,0,1.2-0.4,1.2-1.3v-0.8h1v2.2h1.7v1.1H54v4.5c0,0.6,0.3,1,0.9,1
						c0.2,0,0.5,0,0.7-0.1v1c-0.2,0.1-0.5,0.2-0.9,0.2C53.7,125.2,52.9,124.5,52.9,123.3z"/>
				</g>
				<g class="st2">
					<path class="st3" d="M58.1,114.5c0.5,0,0.8,0.3,0.8,0.8s-0.4,0.8-0.8,0.8c-0.4,0-0.8-0.3-0.8-0.8
						C57.3,114.9,57.7,114.5,58.1,114.5z M57.5,117.5h1.2v7.5h-1.2V117.5z"/>
					<path class="st3" d="M64,118.5c-0.9,0-1.8,0.7-1.8,2.2v4.3H61v-7.5h1l0.1,1h0.1c0.3-0.6,1-1.1,2-1.1s1.8,0.5,2.2,1.3h0.1
						c0.4-0.8,1.1-1.3,2.2-1.3c1.4,0,2.6,0.9,2.6,2.9v4.7h-1.2v-4.5c0-1.4-0.7-2-1.6-2s-1.7,0.7-1.7,2.2v4.3h-1.2v-4.5
						C65.6,119,64.9,118.5,64,118.5z"/>
					<path class="st3" d="M73.3,121.3c0-2.2,1.6-3.9,3.7-3.9c2,0,3.4,1.5,3.4,3.6c0,0.2,0,0.3,0,0.6h-5.8c0.1,1.5,1.1,2.5,2.5,2.5
						c0.9,0,1.8-0.4,2-1.2h1.2c-0.3,1.4-1.6,2.3-3.2,2.3C74.9,125.2,73.3,123.5,73.3,121.3z M79.1,120.6c-0.1-1.3-1-2.1-2.1-2.1
						c-1.2,0-2.2,0.8-2.4,2.1H79.1z"/>
				</g>
				<g class="st2">
					<path class="st3" d="M86.3,117.5h0.9l0.1,1.2h0.1c0.5-0.9,1.5-1.4,2.5-1.4c2,0,3.5,1.7,3.5,3.9c0,2.2-1.5,3.9-3.5,3.9
						c-1,0-1.9-0.5-2.4-1.2h-0.1v4h-1.2L86.3,117.5L86.3,117.5z M89.8,124.1c1.4,0,2.4-1.1,2.4-2.8c0-1.7-1-2.8-2.4-2.8
						s-2.4,1.1-2.4,2.8S88.4,124.1,89.8,124.1z"/>
				</g>
				<g class="st2">
					<path class="st3" d="M95.1,121.3c0-2.2,1.6-3.9,3.7-3.9c2,0,3.4,1.5,3.4,3.6c0,0.2,0,0.3,0,0.6h-5.8c0.1,1.5,1.1,2.5,2.5,2.5
						c0.9,0,1.8-0.4,2-1.2h1.2c-0.3,1.4-1.6,2.3-3.2,2.3C96.7,125.2,95.1,123.5,95.1,121.3z M100.9,120.6c-0.1-1.3-1-2.1-2.1-2.1
						c-1.2,0-2.2,0.8-2.4,2.1H100.9z"/>
				</g>
				<g class="st2">
					<path class="st3" d="M104.2,117.5h1l0.1,1.1h0.1c0.3-0.5,0.9-1.2,2.2-1.2c0.2,0,0.3,0,0.4,0v1.2c-0.2,0-0.3,0-0.4,0
						c-1.3,0-2.2,0.8-2.2,2.6v3.7h-1.2V117.5z"/>
				</g>
				<g class="st2">
					<path class="st3" d="M110.1,114.5c0.5,0,0.8,0.3,0.8,0.8s-0.4,0.8-0.8,0.8s-0.8-0.3-0.8-0.8
						C109.3,114.9,109.7,114.5,110.1,114.5z M109.5,117.5h1.2v7.5h-1.2V117.5z"/>
				</g>
				<g class="st2">
					<path class="st3" d="M112.7,121.3c0-2.2,1.6-3.9,3.8-3.9c2.1,0,3.8,1.7,3.8,3.9c0,2.2-1.6,3.9-3.8,3.9
						C114.3,125.2,112.7,123.5,112.7,121.3z M116.5,124.1c1.5,0,2.6-1.2,2.6-2.8c0-1.6-1.1-2.8-2.6-2.8s-2.6,1.2-2.6,2.8
						C113.9,122.8,115,124.1,116.5,124.1z"/>
				</g>
				<g class="st2">
					<path class="st3" d="M128.2,125l-0.1-1.2H128c-0.5,0.9-1.5,1.4-2.5,1.4c-2,0-3.5-1.7-3.5-3.9c0-2.2,1.5-3.9,3.5-3.9
						c1,0,1.9,0.5,2.4,1.2h0.1v-4.4h1.2V125H128.2z M125.6,124.1c1.4,0,2.4-1.1,2.4-2.8c0-1.7-1-2.8-2.4-2.8s-2.4,1.1-2.4,2.8
						C123.2,122.9,124.2,124.1,125.6,124.1z"/>
				</g>
			</g>
		</g>
		<g id="Group_138">
			<g id="_dB_">
				<g class="st2">
					<path class="st3" d="M74.7,562.8c0,3.4,1,6.4,2.6,8.7l-1.6,1c-1.8-2.1-3.3-5.5-3.3-9.7s1.5-7.6,3.3-9.7l1.6,1
						C75.7,556.4,74.7,559.4,74.7,562.8z"/>
				</g>
				<g class="st2">
					<path class="st3" d="M85.5,569l-0.2-1.5h-0.1c-0.6,1.1-1.8,1.7-3.2,1.7c-2.6,0-4.6-2.2-4.6-5.3s2-5.3,4.6-5.3
						c1.4,0,2.4,0.6,2.9,1.3H85v-5.4h2.7V569H85.5z M82.6,566.9c1.4,0,2.4-1.1,2.4-3c0-1.8-1-2.9-2.4-2.9s-2.4,1.1-2.4,2.9
						S81.2,566.9,82.6,566.9z"/>
				</g>
				<g class="st2">
					<path class="st3" d="M90.2,555h5.3c2.7,0,4.5,1.6,4.5,3.7c0,1.5-0.9,2.4-1.7,2.8v0.1c1,0.5,2.1,1.7,2.1,3.4
						c0,2.3-1.9,3.9-4.6,3.9h-5.5V555H90.2z M95.3,560.8c1.2,0,2-0.7,2-1.8s-0.8-1.8-2-1.8H93v3.5L95.3,560.8L95.3,560.8z
						 M95.4,566.8c1.2,0,2-0.8,2-1.9c0-1.1-0.8-1.9-2-1.9H93v3.8L95.4,566.8L95.4,566.8z"/>
				</g>
				<g class="st2">
					<path class="st3" d="M103.4,562.8c0-3.4-1-6.4-2.6-8.7l1.6-1c1.8,2.1,3.3,5.5,3.3,9.7s-1.5,7.6-3.3,9.7l-1.6-1
						C102.3,569.2,103.4,566.2,103.4,562.8z"/>
				</g>
			</g>
			<g id="_110-115">
				<g class="st2">
					<path class="st3" d="M61,536.8h-3.2v-2.1h0.8c2,0,2.6-0.9,2.6-2.4v-0.1h2.4V545H61V536.8z"/>
				</g>
				<g class="st2">
					<path class="st3" d="M69.1,536.8H66v-2.1h0.8c2,0,2.6-0.9,2.6-2.4v-0.1h2.4V545h-2.7C69.1,545,69.1,536.8,69.1,536.8z"/>
				</g>
				<g class="st2">
					<path class="st3" d="M74.4,538.6c0-4.3,1.9-6.7,5.1-6.7c3.3,0,5.1,2.4,5.1,6.7c0,4.2-1.9,6.6-5.1,6.6
						C76.2,545.2,74.4,542.8,74.4,538.6z M79.5,543c1.6,0,2.4-1.5,2.4-4.4s-0.8-4.4-2.4-4.4s-2.4,1.5-2.4,4.4S77.9,543,79.5,543z"/>
				</g>
				<g class="st2">
					<path class="st3" d="M86.2,537.6H93v2.3h-6.8V537.6z"/>
				</g>
				<g class="st2">
					<path class="st3" d="M97.2,536.8H94v-2.1h0.8c2,0,2.6-0.9,2.6-2.4v-0.1h2.4V545h-2.7L97.2,536.8L97.2,536.8z"/>
				</g>
				<g class="st2">
					<path class="st3" d="M105.3,536.8h-3.2v-2.1h0.8c2,0,2.6-0.9,2.6-2.4v-0.1h2.4V545h-2.7L105.3,536.8L105.3,536.8z"/>
				</g>
				<g class="st2">
					<path class="st3" d="M110.5,541.3h2.7c0.1,0.9,0.9,1.7,2.1,1.7s2.1-0.8,2.1-2.1s-0.9-2.2-2.2-2.2c-0.8,0-1.7,0.4-2.1,1.2
						l-2.4-0.6l0.7-7.1h8v2.3h-5.8l-0.3,2.8h0.1c0.6-0.5,1.4-0.7,2.3-0.7c2.6,0,4.3,1.9,4.3,4.2c0,2.6-2,4.4-4.9,4.4
						C112.4,545.2,110.6,543.4,110.5,541.3z"/>
				</g>
			</g>
		</g>
	</g>
	<g id="Group_194">
		<g id="EXAMPLE">
			<g class="st2">
				<path class="st3" d="M75.4,317.5H82v1.3h-5.2v3.2h4.4v1.3h-4.4v3.3H82v1.3h-6.6V317.5z"/>
				<path class="st3" d="M86.8,322.6l-3.1-5.1h1.7l2.3,3.9h0.1l2.4-3.9h1.7l-3.1,5.1L92,328h-1.7l-2.5-4.2h-0.1l-2.5,4.2h-1.7
					L86.8,322.6z"/>
				<path class="st3" d="M96.8,317.5h2l3.7,10.5h-1.6l-0.9-2.7h-4.3l-0.9,2.7h-1.6L96.8,317.5z M99.5,323.9l-1.7-4.8h-0.1l-1.6,4.8
					H99.5z"/>
				<path class="st3" d="M104.4,317.5h1.8l3.4,7.2h0.1l3.4-7.2h1.8V328h-1.4v-7.7h-0.1l-3,6.2H109l-3-6.2h-0.1v7.7h-1.4v-10.5H104.4
					z"/>
				<path class="st3" d="M117.7,317.5h3.7c2.1,0,3.5,1.3,3.5,3.2s-1.4,3.2-3.5,3.2h-2.3v4.1h-1.5v-10.5H117.7z M121.4,322.6
					c1.2,0,2-0.7,2-1.9c0-1.1-0.8-1.9-2-1.9h-2.3v3.7L121.4,322.6L121.4,322.6z"/>
				<path class="st3" d="M127.1,317.5h1.5v9.2h5.1v1.3h-6.6L127.1,317.5L127.1,317.5z"/>
				<path class="st3" d="M135.9,317.5h6.6v1.3h-5.2v3.2h4.4v1.3h-4.4v3.3h5.2v1.3h-6.6V317.5z"/>
			</g>
		</g>
	</g>
	<g>
		<path class="st3" d="M108,386.5c-8,0-15.6-3.8-20.3-10.3l1.4-1.1c4.4,6,11.4,9.5,18.8,9.5c12.9,0,23.4-10.5,23.4-23.4
			s-10.5-23.4-23.4-23.4s-23.4,10.5-23.4,23.4c0,2.9,0.6,5.8,1.7,8.7l-1.7,0.7c-1.2-3.1-1.9-6.2-1.9-9.3c0-13.9,11.3-25.2,25.2-25.2
			s25.2,11.3,25.2,25.2S121.9,386.5,108,386.5L108,386.5z"/>
	</g>
	<g>
		<path class="st3" d="M101,372c-0.2,0-0.4,0-0.5-0.1c-0.3-0.2-0.5-0.6-0.5-1v-19.1c0-0.4,0.2-0.8,0.5-1s0.7-0.2,1.1,0l17.4,9.6
			c0.4,0.2,0.6,0.6,0.6,1s-0.2,0.8-0.6,1l-17.4,9.6C101.3,371.9,101.2,371.9,101,372L101,372z M101.7,352.9v16.8l15.2-8.4
			L101.7,352.9L101.7,352.9z M118.1,360.7L118.1,360.7L118.1,360.7z"/>
	</g>
	<g>
		<circle class="st3" cx="88.2" cy="375.7" r="3.6"/>
	</g>
</g>
</svg>
