<?xml version="1.0" encoding="utf-8"?>
<!-- Generator: Adobe Illustrator 27.5.0, SVG Export Plug-In . SVG Version: 6.00 Build 0)  -->
<svg version="1.1" id="Working_File" xmlns="http://www.w3.org/2000/svg" xmlns:xlink="http://www.w3.org/1999/xlink" x="0px"
	 y="0px" viewBox="0 0 234.9 695" style="enable-background:new 0 0 234.9 695;" xml:space="preserve">
<style type="text/css">
	.st0{fill:none;}
	.st1{fill:#122C49;}
	.st2{fill:#00A451;}
	.st3{enable-background:new    ;}
	.st4{fill:#FFFFFF;}
</style>
<g id="Group_190">
	<g id="Ellipse_6">
		<g>
			<circle class="st0" cx="117.5" cy="117.5" r="117.5"/>
		</g>
		<g>
			<path class="st1" d="M117.5,235C52.7,235,0,182.3,0,117.5S52.7,0,117.5,0C182.3,0,235,52.7,235,117.5S182.3,235,117.5,235z
				 M117.5,3C54.4,3,3,54.4,3,117.5S54.4,232,117.5,232S232,180.6,232,117.5S180.6,3,117.5,3z"/>
		</g>
	</g>
	<g id="Ellipse_54">
		<circle class="st2" cx="118" cy="378" r="85"/>
	</g>
	<g id="Line_123">
		<path d="M118,486.5c-0.8,0-1.5-0.7-1.5-1.5v-12c0-0.8,0.7-1.5,1.5-1.5c0.8,0,1.5,0.7,1.5,1.5v12
			C119.5,485.8,118.8,486.5,118,486.5z"/>
	</g>
	<g id="Line_124">
		<path d="M118,282.5c-0.8,0-1.5-0.7-1.5-1.5v-12c0-0.8,0.7-1.5,1.5-1.5c0.8,0,1.5,0.7,1.5,1.5v12
			C119.5,281.8,118.8,282.5,118,282.5z"/>
	</g>
	<g id="Line_133">
		<path d="M118,260.5c-0.8,0-1.5-0.7-1.5-1.5v-12c0-0.8,0.7-1.5,1.5-1.5c0.8,0,1.5,0.7,1.5,1.5v12
			C119.5,259.8,118.8,260.5,118,260.5z"/>
	</g>
	<g id="Line_125">
		<path d="M118,508.5c-0.8,0-1.5-0.7-1.5-1.5v-12c0-0.8,0.7-1.5,1.5-1.5c0.8,0,1.5,0.7,1.5,1.5v12
			C119.5,507.8,118.8,508.5,118,508.5z"/>
	</g>
	<g id="Group_89">
		<g id="Group_31">
			<g id="Group_27">
				<g id="Standing_near_sirens_or_Jackhammer">
					<g class="st3">
						<path class="st4" d="M65.7,407.6h1c0.1,1,0.8,1.6,2,1.6c0.8,0,1.7-0.5,1.7-1.4c0-0.8-0.5-1.2-1.7-1.6l-0.8-0.3
							c-1.3-0.4-1.9-1.1-1.9-2.2c0-1.3,1.2-2.2,2.5-2.2c1.5,0,2.7,1,2.7,2.2h-1c-0.1-0.7-0.8-1.3-1.7-1.3c-0.8,0-1.5,0.6-1.5,1.3
							c0,0.7,0.5,1.1,1.5,1.4l0.8,0.2c1.4,0.5,2.1,1.2,2.1,2.5c0,1.4-1.2,2.3-2.7,2.3C66.9,410.1,65.8,409.1,65.7,407.6z"/>
					</g>
					<g class="st3">
						<path class="st4" d="M73.4,408.7v-3.8h-1.2V404h0.3c0.7,0,1-0.4,1-1.1l0-0.7h0.8v1.8h1.4v0.8h-1.4v3.6c0,0.5,0.3,0.8,0.7,0.8
							c0.2,0,0.4,0,0.5-0.1v0.8c-0.2,0.1-0.4,0.1-0.7,0.1C74,410.1,73.4,409.6,73.4,408.7z"/>
					</g>
					<g class="st3">
						<path class="st4" d="M76.8,408.4c0-1.2,1-1.9,3.1-2.1l0.6,0v-0.2c0-0.8-0.5-1.3-1.3-1.3c-0.8,0-1.2,0.4-1.4,1h-1
							c0.1-1.1,1-1.9,2.3-1.9c1.3,0,2.2,0.8,2.2,2.2v2.8c0,0.4,0.2,0.5,0.5,0.5c0,0,0.1,0,0.2,0v0.7c-0.1,0-0.3,0.1-0.5,0.1
							c-0.5,0-1-0.3-1.1-0.9v0h-0.1c-0.4,0.6-1,1-1.9,1C77.5,410.1,76.8,409.5,76.8,408.4z M78.7,409.3c1.1,0,1.8-0.8,1.8-2V407
							l-0.5,0c-1.5,0.1-2.2,0.6-2.2,1.3C77.7,409,78.1,409.3,78.7,409.3z"/>
					</g>
					<g class="st3">
						<path class="st4" d="M85.8,404.8c-0.8,0-1.6,0.5-1.6,1.8v3.4h-0.9v-6h0.8l0.1,0.8h0.1c0.3-0.4,0.8-0.9,1.7-0.9
							c1.3,0,2.2,0.8,2.2,2.4v3.7h-0.9v-3.6C87.2,405.3,86.6,404.8,85.8,404.8z"/>
						<path class="st4" d="M94.8,410l-0.1-1h-0.1c-0.4,0.7-1.2,1.1-2,1.1c-1.6,0-2.8-1.3-2.8-3.1s1.2-3.1,2.8-3.1
							c0.8,0,1.5,0.4,1.9,0.9h0.1v-3.5h0.9v8.6H94.8z M92.7,409.2c1.1,0,1.9-0.9,1.9-2.2c0-1.3-0.8-2.2-1.9-2.2
							c-1.1,0-1.9,0.9-1.9,2.2C90.8,408.3,91.6,409.2,92.7,409.2z"/>
						<path class="st4" d="M97.9,401.6c0.4,0,0.6,0.3,0.6,0.6s-0.3,0.6-0.6,0.6s-0.6-0.3-0.6-0.6S97.5,401.6,97.9,401.6z M97.4,404
							h0.9v6h-0.9V404z"/>
					</g>
					<g class="st3">
						<path class="st4" d="M102.7,404.8c-0.8,0-1.6,0.5-1.6,1.8v3.4h-0.9v-6h0.8l0.1,0.8h0.1c0.3-0.4,0.8-0.9,1.7-0.9
							c1.3,0,2.2,0.8,2.2,2.4v3.7h-0.9v-3.6C104.2,405.3,103.5,404.8,102.7,404.8z"/>
					</g>
					<g class="st3">
						<path class="st4" d="M106.5,410.8l1.1-1.1c-0.6-0.2-0.9-0.7-0.9-1.2c0-0.6,0.4-1,0.8-1.2c-0.3-0.3-0.5-0.8-0.5-1.3
							c0-1.1,1-2,2.3-2c0.4,0,0.8,0.1,1.1,0.3l0.9-1.2l0.7,0.6l-1,1c0.3,0.3,0.5,0.8,0.5,1.3c0,1.1-1,2-2.3,2
							c-0.4,0-0.8-0.1-1.2-0.3c-0.3,0.1-0.5,0.4-0.5,0.7c0,0.4,0.3,0.7,0.8,0.7h1.3c1.2,0,2,0.7,2,1.7c0,1.2-1,1.9-2.5,1.9
							C107.6,412.5,106.7,411.4,106.5,410.8z M109.3,411.7c0.8,0,1.5-0.3,1.5-1c0-0.6-0.5-0.9-1.2-0.9h-1.1l-1,1.1
							C107.8,411.2,108.4,411.7,109.3,411.7z M109.3,407c0.7,0,1.3-0.5,1.3-1.2c0-0.7-0.6-1.2-1.3-1.2c-0.7,0-1.3,0.5-1.3,1.2
							C108,406.6,108.5,407,109.3,407z"/>
						<path class="st4" d="M118.7,404.8c-0.8,0-1.6,0.5-1.6,1.8v3.4h-0.9v-6h0.8l0.1,0.8h0.1c0.3-0.4,0.8-0.9,1.7-0.9
							c1.3,0,2.2,0.8,2.2,2.4v3.7h-0.9v-3.6C120.1,405.3,119.5,404.8,118.7,404.8z"/>
					</g>
					<g class="st3">
						<path class="st4" d="M122.7,407c0-1.8,1.3-3.1,2.9-3.1c1.6,0,2.7,1.2,2.7,2.9c0,0.1,0,0.3,0,0.4h-4.6c0.1,1.2,0.9,2,2,2
							c0.7,0,1.4-0.4,1.6-0.9h1c-0.2,1.1-1.3,1.8-2.6,1.8C124,410.1,122.7,408.8,122.7,407z M127.4,406.5c-0.1-1-0.8-1.7-1.7-1.7
							s-1.7,0.7-1.9,1.7H127.4z"/>
					</g>
					<g class="st3">
						<path class="st4" d="M129.6,408.4c0-1.2,1-1.9,3.1-2.1l0.6,0v-0.2c0-0.8-0.5-1.3-1.3-1.3c-0.8,0-1.2,0.4-1.4,1h-1
							c0.1-1.1,1-1.9,2.3-1.9c1.3,0,2.2,0.8,2.2,2.2v2.8c0,0.4,0.2,0.5,0.5,0.5c0,0,0.1,0,0.2,0v0.7c-0.1,0-0.3,0.1-0.5,0.1
							c-0.5,0-1-0.3-1.1-0.9v0h-0.1c-0.4,0.6-1,1-1.9,1C130.3,410.1,129.6,409.5,129.6,408.4z M131.6,409.3c1.1,0,1.8-0.8,1.8-2V407
							l-0.5,0c-1.5,0.1-2.2,0.6-2.2,1.3C130.6,409,131,409.3,131.6,409.3z"/>
					</g>
					<g class="st3">
						<path class="st4" d="M136.1,404h0.8l0.1,0.9h0.1c0.2-0.4,0.7-0.9,1.8-0.9c0.1,0,0.2,0,0.3,0v0.9c-0.2,0-0.2,0-0.3,0
							c-1,0-1.7,0.7-1.7,2.1v3h-0.9V404z"/>
						<path class="st4" d="M143.3,408.2h1c0.1,0.6,0.6,1.1,1.4,1.1c0.7,0,1.2-0.3,1.2-0.8c0-0.5-0.3-0.7-0.9-0.9l-0.8-0.2
							c-1-0.3-1.6-0.8-1.6-1.7c0-1,0.9-1.7,2.1-1.7c1.1,0,2,0.7,2.1,1.7h-1c-0.1-0.5-0.5-0.9-1.2-0.9c-0.6,0-1.1,0.3-1.1,0.9
							c0,0.4,0.3,0.7,1,0.9l0.8,0.2c1.1,0.3,1.5,0.9,1.5,1.7c0,1.1-1,1.7-2.2,1.7C144.3,410.1,143.3,409.3,143.3,408.2z"/>
						<path class="st4" d="M149.8,401.6c0.4,0,0.6,0.3,0.6,0.6s-0.3,0.6-0.6,0.6c-0.4,0-0.6-0.3-0.6-0.6S149.5,401.6,149.8,401.6z
							 M149.4,404h0.9v6h-0.9V404z"/>
					</g>
					<g class="st3">
						<path class="st4" d="M152.2,404h0.8l0.1,0.9h0.1c0.2-0.4,0.7-0.9,1.8-0.9c0.1,0,0.2,0,0.3,0v0.9c-0.2,0-0.2,0-0.3,0
							c-1,0-1.7,0.7-1.7,2.1v3h-0.9V404z"/>
					</g>
					<g class="st3">
						<path class="st4" d="M156,407c0-1.8,1.3-3.1,2.9-3.1c1.6,0,2.7,1.2,2.7,2.9c0,0.1,0,0.3,0,0.4H157c0.1,1.2,0.9,2,2,2
							c0.7,0,1.4-0.4,1.6-0.9h1c-0.2,1.1-1.3,1.8-2.6,1.8C157.2,410.1,156,408.8,156,407z M160.6,406.5c-0.1-1-0.8-1.7-1.7-1.7
							c-0.9,0-1.7,0.7-1.9,1.7H160.6z"/>
					</g>
					<g class="st3">
						<path class="st4" d="M165.7,404.8c-0.8,0-1.6,0.5-1.6,1.8v3.4h-0.9v-6h0.8l0.1,0.8h0.1c0.3-0.4,0.8-0.9,1.7-0.9
							c1.3,0,2.2,0.8,2.2,2.4v3.7h-0.9v-3.6C167.2,405.3,166.5,404.8,165.7,404.8z"/>
					</g>
					<g class="st3">
						<path class="st4" d="M169.6,408.2h1c0.1,0.6,0.6,1.1,1.4,1.1c0.7,0,1.2-0.3,1.2-0.8c0-0.5-0.3-0.7-0.9-0.9l-0.8-0.2
							c-1-0.3-1.6-0.8-1.6-1.7c0-1,0.9-1.7,2.1-1.7c1.1,0,2,0.7,2.1,1.7h-1c-0.1-0.5-0.5-0.9-1.2-0.9c-0.6,0-1.1,0.3-1.1,0.9
							c0,0.4,0.3,0.7,1,0.9l0.8,0.2c1.1,0.3,1.5,0.9,1.5,1.7c0,1.1-1,1.7-2.2,1.7C170.6,410.1,169.6,409.3,169.6,408.2z"/>
					</g>
					<g class="st3">
						<path class="st4" d="M65.7,425c0-1.8,1.3-3.1,3-3.1c1.7,0,3,1.3,3,3.1c0,1.8-1.3,3.1-3,3.1C67,428.1,65.7,426.8,65.7,425z
							 M68.7,427.2c1.2,0,2.1-1,2.1-2.2c0-1.2-0.9-2.2-2.1-2.2c-1.2,0-2.1,1-2.1,2.2C66.6,426.3,67.5,427.2,68.7,427.2z"/>
						<path class="st4" d="M73.3,422h0.8l0.1,0.9h0.1c0.2-0.4,0.7-0.9,1.8-0.9c0.1,0,0.2,0,0.3,0v0.9c-0.2,0-0.2,0-0.3,0
							c-1,0-1.7,0.7-1.7,2.1v3h-0.9V422z"/>
					</g>
					<g class="st3">
						<path class="st4" d="M80.4,425.7h1v0c0,1,0.5,1.5,1.4,1.5c0.9,0,1.4-0.6,1.4-1.5v-6.1h1v6.1c0,1.5-0.9,2.4-2.4,2.4
							C81.3,428.1,80.3,427.1,80.4,425.7z"/>
					</g>
					<g class="st3">
						<path class="st4" d="M86.7,426.4c0-1.2,1-1.9,3.1-2.1l0.6,0v-0.2c0-0.8-0.5-1.3-1.3-1.3c-0.8,0-1.2,0.4-1.4,1h-1
							c0.1-1.1,1-1.9,2.3-1.9c1.3,0,2.2,0.8,2.2,2.2v2.8c0,0.4,0.2,0.5,0.5,0.5c0,0,0.1,0,0.2,0v0.7c-0.1,0-0.3,0.1-0.5,0.1
							c-0.5,0-1-0.3-1.1-0.9v0h-0.1c-0.4,0.6-1,1-1.9,1C87.5,428.1,86.7,427.5,86.7,426.4z M88.7,427.3c1.1,0,1.8-0.8,1.8-2V425
							l-0.5,0c-1.5,0.1-2.2,0.6-2.2,1.3C87.7,427,88.1,427.3,88.7,427.3z"/>
					</g>
					<g class="st3">
						<path class="st4" d="M93,425c0-1.8,1.2-3.1,3-3.1c1.4,0,2.5,0.8,2.7,2.1h-1c-0.2-0.7-0.8-1.2-1.7-1.2c-1.2,0-2,0.9-2,2.2
							c0,1.3,0.8,2.2,2,2.2c0.9,0,1.5-0.5,1.7-1.2h1c-0.2,1.2-1.3,2.1-2.7,2.1C94.2,428.1,93,426.8,93,425z"/>
					</g>
					<g class="st3">
						<path class="st4" d="M100.1,419.4h0.9v5.2h0.1l2.6-2.6h1.3l-2.4,2.3l2.4,3.6h-1.1l-2-3l-0.9,0.9v2.1h-0.9V419.4z"/>
						<path class="st4" d="M108.8,422.8c-0.8,0-1.6,0.5-1.6,1.8v3.4h-0.9v-8.6h0.9v3.4h0.1c0.2-0.3,0.7-0.8,1.6-0.8
							c1.3,0,2.2,0.8,2.2,2.4v3.7h-0.9v-3.6C110.2,423.3,109.6,422.8,108.8,422.8z"/>
					</g>
					<g class="st3">
						<path class="st4" d="M112.7,426.4c0-1.2,1-1.9,3.1-2.1l0.6,0v-0.2c0-0.8-0.5-1.3-1.3-1.3c-0.8,0-1.2,0.4-1.4,1h-1
							c0.1-1.1,1-1.9,2.3-1.9c1.3,0,2.2,0.8,2.2,2.2v2.8c0,0.4,0.2,0.5,0.5,0.5c0,0,0.1,0,0.2,0v0.7c-0.1,0-0.3,0.1-0.5,0.1
							c-0.5,0-1-0.3-1.1-0.9v0h-0.1c-0.4,0.6-1,1-1.9,1C113.5,428.1,112.7,427.5,112.7,426.4z M114.7,427.3c1.1,0,1.8-0.8,1.8-2V425
							l-0.5,0c-1.5,0.1-2.2,0.6-2.2,1.3C113.7,427,114.1,427.3,114.7,427.3z"/>
					</g>
					<g class="st3">
						<path class="st4" d="M121.6,422.8c-0.7,0-1.4,0.5-1.4,1.8v3.4h-0.9v-6h0.8l0.1,0.8h0.1c0.2-0.5,0.8-0.9,1.6-0.9
							c0.8,0,1.5,0.4,1.8,1.1h0.1c0.3-0.6,0.9-1.1,1.8-1.1c1.1,0,2.1,0.7,2.1,2.3v3.8h-0.9v-3.6c0-1.2-0.6-1.6-1.3-1.6
							c-0.8,0-1.4,0.5-1.4,1.8v3.4h-0.9v-3.6C122.9,423.2,122.3,422.8,121.6,422.8z"/>
						<path class="st4" d="M131.7,422.8c-0.7,0-1.4,0.5-1.4,1.8v3.4h-0.9v-6h0.8l0.1,0.8h0.1c0.2-0.5,0.8-0.9,1.6-0.9
							c0.8,0,1.5,0.4,1.8,1.1h0.1c0.3-0.6,0.9-1.1,1.8-1.1c1.1,0,2.1,0.7,2.1,2.3v3.8h-0.9v-3.6c0-1.2-0.6-1.6-1.3-1.6
							c-0.8,0-1.4,0.5-1.4,1.8v3.4H133v-3.6C133,423.2,132.4,422.8,131.7,422.8z"/>
						<path class="st4" d="M139.1,425c0-1.8,1.3-3.1,2.9-3.1c1.6,0,2.7,1.2,2.7,2.9c0,0.1,0,0.3,0,0.4h-4.6c0.1,1.2,0.9,2,2,2
							c0.7,0,1.4-0.4,1.6-0.9h1c-0.2,1.1-1.3,1.8-2.6,1.8C140.4,428.1,139.1,426.8,139.1,425z M143.8,424.5c-0.1-1-0.8-1.7-1.7-1.7
							c-0.9,0-1.7,0.7-1.9,1.7H143.8z"/>
						<path class="st4" d="M146.4,422h0.8l0.1,0.9h0.1c0.2-0.4,0.7-0.9,1.8-0.9c0.1,0,0.2,0,0.3,0v0.9c-0.2,0-0.2,0-0.3,0
							c-1,0-1.7,0.7-1.7,2.1v3h-0.9V422z"/>
					</g>
				</g>
				<g id="Ellipse_14">
					<circle class="st4" cx="59.5" cy="406.5" r="1.5"/>
				</g>
			</g>
		</g>
	</g>
	<g id="Group_90">
		<g id="Ellipse_18">
			<circle class="st1" cx="118" cy="606" r="89"/>
		</g>
		<g id="Recommended_Duration:_Not_safe_for_any_without_proper_PPE">
			<g class="st3">
				<path class="st4" d="M55.1,568.5h4c2.1,0,3.6,1.4,3.6,3.2c0,1.4-0.8,2.4-1.9,2.8L63,579h-2.2l-2-4h-1.5v4h-2.1V568.5z
					 M58.9,573.2c1,0,1.6-0.6,1.6-1.5c0-0.9-0.6-1.5-1.6-1.5h-1.7v3H58.9z"/>
			</g>
			<g class="st3">
				<path class="st4" d="M63.6,575.2c0-2.3,1.7-4,3.9-4c2.1,0,3.7,1.5,3.7,3.7c0,0.2,0,0.4,0,0.7h-5.4c0.1,1.1,0.9,1.8,1.9,1.8
					c0.7,0,1.3-0.3,1.5-0.9h2.1c-0.3,1.6-1.8,2.6-3.5,2.6C65.4,579.2,63.6,577.6,63.6,575.2z M69.1,574.4c-0.1-0.9-0.8-1.5-1.5-1.5
					c-0.8,0-1.6,0.6-1.8,1.5H69.1z"/>
			</g>
			<g class="st3">
				<path class="st4" d="M72.5,575.2c0-2.3,1.6-4,3.9-4c2,0,3.4,1.2,3.6,2.9h-2.1c-0.1-0.6-0.7-1.1-1.5-1.1c-1.1,0-1.8,0.9-1.8,2.2
					c0,1.3,0.8,2.2,1.8,2.2c0.9,0,1.4-0.5,1.5-1.1H80c-0.2,1.7-1.6,2.9-3.6,2.9C74.1,579.2,72.5,577.5,72.5,575.2z"/>
			</g>
			<g class="st3">
				<path class="st4" d="M81.1,575.2c0-2.3,1.8-4,4-4s4,1.6,4,4c0,2.4-1.8,4-4,4S81.1,577.6,81.1,575.2z M85.1,577.4
					c1.1,0,1.9-0.9,1.9-2.2c0-1.3-0.8-2.2-1.9-2.2c-1.1,0-1.9,0.9-1.9,2.2C83.2,576.5,84,577.4,85.1,577.4z"/>
				<path class="st4" d="M94,573.1c-0.7,0-1.3,0.5-1.3,1.6v4.3h-2v-7.5h1.7l0.2,1h0.1c0.3-0.7,1-1.2,2-1.2c1,0,1.8,0.5,2.1,1.3h0.1
					c0.4-0.9,1.2-1.3,2.2-1.3c1.5,0,2.6,1,2.6,3v4.8h-2v-4.5c0-1-0.5-1.5-1.2-1.5c-0.7,0-1.3,0.5-1.3,1.6v4.3h-2v-4.5
					C95.2,573.5,94.7,573.1,94,573.1z"/>
				<path class="st4" d="M106.8,573.1c-0.7,0-1.3,0.5-1.3,1.6v4.3h-2v-7.5h1.7l0.2,1h0.1c0.3-0.7,1-1.2,2-1.2c1,0,1.8,0.5,2.1,1.3
					h0.1c0.4-0.9,1.2-1.3,2.2-1.3c1.5,0,2.6,1,2.6,3v4.8h-2v-4.5c0-1-0.5-1.5-1.2-1.5c-0.7,0-1.3,0.5-1.3,1.6v4.3h-2v-4.5
					C108,573.5,107.5,573.1,106.8,573.1z"/>
				<path class="st4" d="M116.1,575.2c0-2.3,1.7-4,3.9-4c2.1,0,3.7,1.5,3.7,3.7c0,0.2,0,0.4,0,0.7h-5.4c0.1,1.1,0.9,1.8,1.9,1.8
					c0.7,0,1.3-0.3,1.5-0.9h2.1c-0.3,1.6-1.8,2.6-3.5,2.6C117.8,579.2,116.1,577.6,116.1,575.2z M121.5,574.4
					c-0.1-0.9-0.8-1.5-1.5-1.5c-0.8,0-1.6,0.6-1.8,1.5H121.5z"/>
				<path class="st4" d="M128.7,573c-0.8,0-1.6,0.6-1.6,1.8v4.2h-2v-7.5h1.7l0.2,1h0.1c0.3-0.6,1-1.2,2.2-1.2c1.7,0,2.9,1.1,2.9,3.1
					v4.6h-2v-4.3C130.2,573.6,129.6,573,128.7,573z"/>
				<path class="st4" d="M139.8,579l-0.2-1.1h-0.1c-0.4,0.8-1.4,1.3-2.4,1.3c-1.9,0-3.4-1.6-3.4-4c0-2.3,1.5-4,3.4-4
					c1,0,1.8,0.5,2.2,1h0.1v-4h2V579H139.8z M137.7,577.4c1.1,0,1.8-0.8,1.8-2.2c0-1.4-0.7-2.2-1.8-2.2s-1.8,0.9-1.8,2.2
					C135.8,576.6,136.6,577.4,137.7,577.4z"/>
				<path class="st4" d="M143,575.2c0-2.3,1.7-4,3.9-4c2.1,0,3.7,1.5,3.7,3.7c0,0.2,0,0.4,0,0.7h-5.4c0.1,1.1,0.9,1.8,1.9,1.8
					c0.7,0,1.3-0.3,1.5-0.9h2.1c-0.3,1.6-1.8,2.6-3.5,2.6C144.7,579.2,143,577.6,143,575.2z M148.4,574.4c-0.1-0.9-0.8-1.5-1.5-1.5
					c-0.8,0-1.6,0.6-1.8,1.5H148.4z"/>
				<path class="st4" d="M157.9,579l-0.2-1.1h-0.1c-0.4,0.8-1.3,1.3-2.4,1.3c-1.9,0-3.4-1.6-3.4-4c0-2.3,1.5-4,3.4-4
					c1,0,1.8,0.5,2.2,1h0.1v-4h2V579H157.9z M155.7,577.4c1.1,0,1.8-0.8,1.8-2.2c0-1.4-0.7-2.2-1.8-2.2c-1.1,0-1.8,0.9-1.8,2.2
					C153.9,576.6,154.7,577.4,155.7,577.4z"/>
			</g>
			<g class="st3">
				<path class="st4" d="M55.1,589.5h3.5c3.4,0,5.4,2.1,5.4,5.2s-2,5.2-5.4,5.2h-3.5V589.5z M58.6,598.2c2.2,0,3.4-1.3,3.4-3.5
					s-1.2-3.4-3.4-3.4h-1.4v6.9H58.6z"/>
			</g>
			<g class="st3">
				<path class="st4" d="M65.7,597v-4.6h2v4.3c0,1.1,0.6,1.7,1.4,1.7s1.5-0.6,1.5-1.8v-4.2h2v7.5h-1.7l-0.2-1h-0.1
					c-0.3,0.5-1,1.2-2.1,1.2C66.9,600.2,65.7,599.1,65.7,597z"/>
			</g>
			<g class="st3">
				<path class="st4" d="M74.4,592.5h1.7l0.2,1.1h0.1c0.3-0.7,1-1.2,2.1-1.2c0.2,0,0.4,0,0.6,0v2c-0.2,0-0.4,0-0.5,0
					c-1.3,0-2.1,0.8-2.1,2.4v3.3h-2V592.5z"/>
			</g>
			<g class="st3">
				<path class="st4" d="M79.8,598c0-1.5,1.3-2.4,3.8-2.6l0.7-0.1v-0.2c0-0.7-0.5-1.2-1.1-1.2c-0.6,0-1.1,0.3-1.2,1h-2
					c0.1-1.5,1.4-2.6,3.3-2.6c1.9,0,3.1,1.2,3.1,3v2.8c0,0.4,0.1,0.5,0.6,0.5l0.2,0v1.5c-0.2,0.1-0.5,0.1-0.7,0.1
					c-0.7,0-1.4-0.3-1.7-1.2h-0.1c-0.5,0.7-1.3,1.2-2.4,1.2C80.7,600.2,79.8,599.3,79.8,598z M82.7,598.5c1,0,1.6-0.8,1.6-1.8v-0.1
					l-0.6,0c-1.3,0.1-1.9,0.5-1.9,1.2C81.8,598.3,82.2,598.5,82.7,598.5z"/>
			</g>
			<g class="st3">
				<path class="st4" d="M88.8,597.8v-3.6h-1.5v-1.7h0.2c0.9,0,1.4-0.6,1.5-1.6l0-0.6h1.7v2.2h1.8v1.7h-1.8v3.3c0,0.6,0.4,1,0.9,1
					c0.2,0,0.4,0,0.6-0.1v1.7c-0.3,0.1-0.7,0.1-1,0.1C89.7,600.2,88.8,599.2,88.8,597.8z"/>
			</g>
			<g class="st3">
				<path class="st4" d="M94.9,589.1c0.7,0,1.2,0.5,1.2,1.2c0,0.7-0.6,1.2-1.2,1.2s-1.2-0.5-1.2-1.2
					C93.7,589.6,94.2,589.1,94.9,589.1z M93.9,592.5h2v7.5h-2V592.5z"/>
				<path class="st4" d="M97.5,596.2c0-2.3,1.8-4,4-4s4,1.6,4,4c0,2.4-1.8,4-4,4S97.5,598.6,97.5,596.2z M101.5,598.4
					c1.1,0,1.9-0.9,1.9-2.2c0-1.3-0.8-2.2-1.9-2.2c-1.1,0-1.9,0.9-1.9,2.2C99.5,597.5,100.4,598.4,101.5,598.4z"/>
			</g>
			<g class="st3">
				<path class="st4" d="M110.6,594c-0.8,0-1.6,0.6-1.6,1.8v4.2h-2v-7.5h1.7l0.2,1h0.1c0.3-0.6,1-1.2,2.2-1.2c1.7,0,2.9,1.1,2.9,3.1
					v4.6h-2v-4.3C112,594.6,111.4,594,110.6,594z"/>
			</g>
			<g class="st3">
				<path class="st4" d="M116.6,592.4c0.7,0,1.2,0.5,1.2,1.2c0,0.6-0.5,1.2-1.2,1.2c-0.7,0-1.2-0.5-1.2-1.2
					C115.4,592.9,115.9,592.4,116.6,592.4z M115.4,598.9c0-0.6,0.5-1.2,1.2-1.2c0.7,0,1.2,0.5,1.2,1.2c0,0.6-0.5,1.2-1.2,1.2
					C115.9,600.1,115.4,599.6,115.4,598.9z"/>
			</g>
			<g class="st3">
				<path class="st4" d="M123.9,589.5h1.3l5.7,8.4h0.1v-8.4h1.2V600h-1.3l-5.7-8.4h-0.1v8.4h-1.2V589.5z"/>
				<path class="st4" d="M133.9,596.3c0-2.2,1.6-3.9,3.8-3.9s3.8,1.7,3.8,3.9c0,2.2-1.6,3.9-3.8,3.9S133.9,598.5,133.9,596.3z
					 M137.7,599.1c1.5,0,2.6-1.2,2.6-2.8c0-1.6-1.1-2.8-2.6-2.8s-2.6,1.2-2.6,2.8C135.1,597.8,136.2,599.1,137.7,599.1z"/>
			</g>
			<g class="st3">
				<path class="st4" d="M144.2,598.3v-4.7h-1.5v-1.1h0.3c0.9,0,1.2-0.4,1.2-1.3l0-0.8h1v2.2h1.7v1.1h-1.7v4.5c0,0.6,0.3,1,0.9,1
					c0.2,0,0.5,0,0.7-0.1v1c-0.2,0.1-0.5,0.2-0.9,0.2C145,600.2,144.2,599.5,144.2,598.3z"/>
				<path class="st4" d="M152.3,597.7h1.2c0.1,0.8,0.8,1.4,1.7,1.4c0.9,0,1.5-0.4,1.5-1c0-0.6-0.3-0.9-1.2-1.2l-1-0.3
					c-1.3-0.4-2-1-2-2.1c0-1.2,1.1-2.1,2.6-2.1c1.4,0,2.5,0.9,2.6,2.1h-1.2c-0.1-0.6-0.6-1.1-1.5-1.1c-0.8,0-1.3,0.4-1.3,1.1
					c0,0.5,0.3,0.8,1.2,1.1l1,0.3c1.3,0.4,1.9,1.1,1.9,2.1c0,1.4-1.2,2.2-2.7,2.2C153.6,600.2,152.3,599.2,152.3,597.7z"/>
			</g>
			<g class="st3">
				<path class="st4" d="M159.6,598c0-1.5,1.3-2.4,3.9-2.6l0.8-0.1v-0.3c0-1-0.6-1.6-1.6-1.6c-0.9,0-1.6,0.5-1.7,1.3h-1.2
					c0.1-1.3,1.3-2.3,2.9-2.3c1.7,0,2.7,1,2.7,2.7v3.5c0,0.5,0.3,0.6,0.7,0.6c0.1,0,0.1,0,0.3,0v0.9c-0.2,0.1-0.4,0.1-0.6,0.1
					c-0.6,0-1.3-0.3-1.4-1.2v0h-0.1c-0.5,0.7-1.3,1.2-2.4,1.2C160.6,600.2,159.6,599.3,159.6,598z M162.1,599.1c1.3,0,2.2-1,2.2-2.5
					v-0.3l-0.7,0.1c-1.9,0.2-2.8,0.7-2.8,1.7C160.8,598.7,161.3,599.1,162.1,599.1z"/>
			</g>
			<g class="st3">
				<path class="st4" d="M168.3,593.6h-1.5v-1.1h1.5v-1.4c0-1.4,1-2.1,2-2.1c0.5,0,1,0.2,1.2,0.3l-0.4,0.9c-0.2-0.1-0.5-0.2-0.7-0.2
					c-0.6,0-1,0.4-1,1v1.4h1.7v1.1h-1.7v6.4h-1.2V593.6z"/>
			</g>
			<g class="st3">
				<path class="st4" d="M172.1,596.3c0-2.2,1.6-3.9,3.7-3.9c2,0,3.4,1.5,3.4,3.6c0,0.2,0,0.3,0,0.6h-5.8c0.1,1.5,1.1,2.5,2.5,2.5
					c0.9,0,1.8-0.4,2-1.2h1.2c-0.3,1.4-1.6,2.3-3.2,2.3C173.7,600.2,172.1,598.5,172.1,596.3z M177.9,595.6c-0.1-1.3-1-2.1-2.1-2.1
					s-2.2,0.8-2.4,2.1H177.9z"/>
			</g>
			<g class="st3">
				<path class="st4" d="M55.9,614.6h-1.5v-1.1h1.5v-1.4c0-1.4,1-2.1,2-2.1c0.5,0,1,0.2,1.2,0.3l-0.4,0.9c-0.2-0.1-0.5-0.2-0.7-0.2
					c-0.6,0-1,0.4-1,1v1.4h1.7v1.1H57v6.4h-1.2V614.6z"/>
			</g>
			<g class="st3">
				<path class="st4" d="M59.7,617.3c0-2.2,1.6-3.9,3.8-3.9c2.1,0,3.8,1.7,3.8,3.9c0,2.2-1.6,3.9-3.8,3.9
					C61.4,621.2,59.7,619.5,59.7,617.3z M63.5,620.1c1.5,0,2.6-1.2,2.6-2.8c0-1.6-1.1-2.8-2.6-2.8s-2.6,1.2-2.6,2.8
					C60.9,618.8,62,620.1,63.5,620.1z"/>
				<path class="st4" d="M69.3,613.5h1l0.1,1.1h0.1c0.3-0.5,0.9-1.2,2.2-1.2c0.2,0,0.3,0,0.4,0v1.2c-0.2,0-0.3,0-0.4,0
					c-1.3,0-2.2,0.8-2.2,2.6v3.7h-1.2V613.5z"/>
			</g>
			<g class="st3">
				<path class="st4" d="M78.2,619c0-1.5,1.3-2.4,3.9-2.6l0.8-0.1v-0.3c0-1-0.6-1.6-1.6-1.6c-0.9,0-1.6,0.5-1.7,1.3h-1.2
					c0.1-1.3,1.3-2.3,2.9-2.3c1.7,0,2.7,1,2.7,2.7v3.5c0,0.5,0.3,0.6,0.7,0.6c0.1,0,0.1,0,0.3,0v0.9c-0.2,0.1-0.4,0.1-0.6,0.1
					c-0.6,0-1.3-0.3-1.4-1.2v0h-0.1c-0.5,0.7-1.3,1.2-2.4,1.2C79.2,621.2,78.2,620.3,78.2,619z M80.7,620.1c1.3,0,2.2-1,2.2-2.5
					v-0.3l-0.7,0.1c-1.9,0.2-2.8,0.7-2.8,1.7C79.4,619.7,80,620.1,80.7,620.1z"/>
			</g>
			<g class="st3">
				<path class="st4" d="M89.5,614.5c-1,0-2,0.7-2,2.2v4.3h-1.2v-7.5h1l0.1,1h0.1c0.3-0.5,1-1.1,2.1-1.1c1.6,0,2.8,1,2.8,3v4.6h-1.2
					v-4.5C91.3,615.1,90.5,614.5,89.5,614.5z"/>
			</g>
			<g class="st3">
				<path class="st4" d="M95.2,623.1c0.5,0,1.1-0.3,1.4-1L97,621l-3.2-7.4h1.3l2.4,5.9h0.1l2.1-5.9h1.3l-3.2,8.7
					c-0.5,1.4-1.5,1.9-2.4,1.9c-0.3,0-0.7-0.1-0.9-0.1v-1C94.6,623,94.9,623.1,95.2,623.1z"/>
				<path class="st4" d="M105.7,613.5h1.1l1.6,5.9h0.1l1.6-5h1.2l1.6,5h0.1l1.6-5.9h1.1l-2.1,7.5h-1.2l-1.6-5.1h-0.1L109,621h-1.2
					L105.7,613.5z"/>
				<path class="st4" d="M117.9,610.5c0.5,0,0.8,0.3,0.8,0.8c0,0.5-0.4,0.8-0.8,0.8c-0.4,0-0.8-0.3-0.8-0.8
					C117.1,610.9,117.5,610.5,117.9,610.5z M117.3,613.5h1.2v7.5h-1.2V613.5z"/>
			</g>
			<g class="st3">
				<path class="st4" d="M121.5,619.3v-4.7h-1.5v-1.1h0.3c0.9,0,1.2-0.4,1.2-1.3l0-0.8h1v2.2h1.7v1.1h-1.7v4.5c0,0.6,0.3,1,0.9,1
					c0.2,0,0.5,0,0.7-0.1v1c-0.2,0.1-0.5,0.2-0.9,0.2C122.3,621.2,121.5,620.5,121.5,619.3z"/>
			</g>
			<g class="st3">
				<path class="st4" d="M129.4,614.5c-1,0-2,0.7-2,2.2v4.3h-1.2v-10.8h1.2v4.2h0.1c0.2-0.3,0.9-1,2.1-1c1.6,0,2.8,1,2.8,3v4.6h-1.2
					v-4.5C131.2,615.1,130.4,614.5,129.4,614.5z"/>
			</g>
			<g class="st3">
				<path class="st4" d="M134.4,617.3c0-2.2,1.6-3.9,3.8-3.9s3.8,1.7,3.8,3.9c0,2.2-1.6,3.9-3.8,3.9S134.4,619.5,134.4,617.3z
					 M138.1,620.1c1.5,0,2.6-1.2,2.6-2.8c0-1.6-1.1-2.8-2.6-2.8s-2.6,1.2-2.6,2.8C135.6,618.8,136.6,620.1,138.1,620.1z"/>
			</g>
			<g class="st3">
				<path class="st4" d="M143.8,618.1v-4.6h1.2v4.5c0,1.4,0.8,2,1.7,2c1,0,1.9-0.7,1.9-2.2v-4.3h1.2v7.5h-1l-0.1-1h-0.1
					c-0.3,0.5-1,1.1-2.1,1.1C145,621.2,143.8,620.1,143.8,618.1z"/>
				<path class="st4" d="M152.9,619.3v-4.7h-1.5v-1.1h0.3c0.9,0,1.2-0.4,1.2-1.3l0-0.8h1v2.2h1.7v1.1H154v4.5c0,0.6,0.3,1,0.9,1
					c0.2,0,0.5,0,0.7-0.1v1c-0.2,0.1-0.5,0.2-0.9,0.2C153.7,621.2,152.9,620.5,152.9,619.3z"/>
			</g>
			<g class="st3">
				<path class="st4" d="M55.2,634.5h0.9l0.1,1.2h0.1c0.5-0.9,1.5-1.4,2.5-1.4c2,0,3.5,1.7,3.5,3.9c0,2.2-1.5,3.9-3.5,3.9
					c-1,0-1.9-0.5-2.4-1.2h-0.1v4h-1.2V634.5z M58.7,641.1c1.4,0,2.4-1.1,2.4-2.8c0-1.7-1-2.8-2.4-2.8c-1.4,0-2.4,1.1-2.4,2.8
					C56.3,640,57.3,641.1,58.7,641.1z"/>
			</g>
			<g class="st3">
				<path class="st4" d="M64.3,634.5h1l0.1,1.1h0.1c0.3-0.5,0.9-1.2,2.2-1.2c0.2,0,0.3,0,0.4,0v1.2c-0.2,0-0.3,0-0.4,0
					c-1.3,0-2.2,0.8-2.2,2.6v3.7h-1.2V634.5z"/>
			</g>
			<g class="st3">
				<path class="st4" d="M69.1,638.3c0-2.2,1.6-3.9,3.8-3.9c2.1,0,3.8,1.7,3.8,3.9c0,2.2-1.6,3.9-3.8,3.9
					C70.7,642.2,69.1,640.5,69.1,638.3z M72.8,641.1c1.5,0,2.6-1.2,2.6-2.8c0-1.6-1.1-2.8-2.6-2.8s-2.6,1.2-2.6,2.8
					C70.3,639.8,71.3,641.1,72.8,641.1z"/>
			</g>
			<g class="st3">
				<path class="st4" d="M78.6,634.5h0.9l0.1,1.2h0.1c0.5-0.9,1.5-1.4,2.5-1.4c2,0,3.5,1.7,3.5,3.9c0,2.2-1.5,3.9-3.5,3.9
					c-1,0-1.9-0.5-2.4-1.2h-0.1v4h-1.2V634.5z M82.1,641.1c1.4,0,2.4-1.1,2.4-2.8c0-1.7-1-2.8-2.4-2.8c-1.4,0-2.4,1.1-2.4,2.8
					C79.8,640,80.7,641.1,82.1,641.1z"/>
			</g>
			<g class="st3">
				<path class="st4" d="M87.5,638.3c0-2.2,1.6-3.9,3.7-3.9c2,0,3.4,1.5,3.4,3.6c0,0.2,0,0.3,0,0.6h-5.8c0.1,1.5,1.1,2.5,2.5,2.5
					c0.9,0,1.8-0.4,2-1.2h1.2c-0.3,1.4-1.6,2.3-3.2,2.3C89,642.2,87.5,640.5,87.5,638.3z M93.3,637.6c-0.1-1.3-1-2.1-2.1-2.1
					c-1.2,0-2.2,0.8-2.4,2.1H93.3z"/>
				<path class="st4" d="M96.5,634.5h1l0.1,1.1h0.1c0.3-0.5,0.9-1.2,2.2-1.2c0.2,0,0.3,0,0.4,0v1.2c-0.2,0-0.3,0-0.4,0
					c-1.3,0-2.2,0.8-2.2,2.6v3.7h-1.2V634.5z"/>
				<path class="st4" d="M106.1,631.5h3.6c2,0,3.4,1.2,3.4,3.1c0,1.9-1.4,3.1-3.4,3.1h-2.4v4.2h-1.2V631.5z M109.7,636.6
					c1.3,0,2.2-0.8,2.2-2c0-1.2-0.9-2-2.2-2h-2.4v4H109.7z"/>
				<path class="st4" d="M115.4,631.5h3.6c2,0,3.4,1.2,3.4,3.1c0,1.9-1.4,3.1-3.4,3.1h-2.4v4.2h-1.2V631.5z M119.1,636.6
					c1.3,0,2.2-0.8,2.2-2c0-1.2-0.9-2-2.2-2h-2.4v4H119.1z"/>
				<path class="st4" d="M124.8,631.5h6.5v1.1H126v3.5h4.6v1.1H126v3.7h5.3v1.1h-6.5V631.5z"/>
			</g>
		</g>
	</g>
	<g id="Group_139">
		<g id="_dB_">
			<g class="st3">
				<path d="M85.7,129.8c0,3.4,1,6.4,2.6,8.7l-1.6,1c-1.8-2.1-3.3-5.5-3.3-9.7c0-4.2,1.5-7.6,3.3-9.7l1.6,1
					C86.7,123.4,85.7,126.4,85.7,129.8z"/>
			</g>
			<g class="st3">
				<path d="M96.5,136l-0.2-1.5h-0.1c-0.6,1.1-1.8,1.7-3.2,1.7c-2.6,0-4.6-2.2-4.6-5.3c0-3.1,2-5.3,4.6-5.3c1.4,0,2.4,0.6,2.9,1.3
					H96v-5.4h2.7V136H96.5z M93.6,133.9c1.4,0,2.4-1.1,2.4-3c0-1.8-1-2.9-2.4-2.9c-1.4,0-2.4,1.1-2.4,2.9S92.2,133.9,93.6,133.9z"/>
			</g>
			<g class="st3">
				<path d="M101.2,122h5.3c2.7,0,4.5,1.6,4.5,3.7c0,1.5-0.9,2.4-1.7,2.8v0.1c1,0.5,2.1,1.7,2.1,3.4c0,2.3-1.9,3.9-4.6,3.9h-5.5V122
					z M106.3,127.8c1.2,0,2-0.7,2-1.8s-0.8-1.8-2-1.8H104v3.5H106.3z M106.4,133.8c1.2,0,2-0.8,2-1.9c0-1.1-0.8-1.9-2-1.9H104v3.8
					H106.4z"/>
			</g>
			<g class="st3">
				<path d="M114.4,129.8c0-3.4-1-6.4-2.6-8.7l1.6-1c1.8,2.1,3.3,5.5,3.3,9.7s-1.5,7.6-3.3,9.7l-1.6-1
					C113.3,136.2,114.4,133.2,114.4,129.8z"/>
			</g>
		</g>
		<g id="_120">
			<g class="st3">
				<path d="M88.1,103.8H85v-2.1h0.8c2,0,2.6-0.9,2.6-2.4v-0.1h2.4V112h-2.7V103.8z"/>
			</g>
			<g class="st3">
				<path d="M96.4,106l1.9-1.2c1-0.6,1.7-1.2,1.7-2.1c0-0.9-0.7-1.5-1.8-1.5c-1.2,0-2,0.7-2,1.8h-2.7c0-2.3,1.8-4,4.7-4
					c2.6,0,4.4,1.5,4.4,3.7c0,1.7-1.2,2.8-2.3,3.5l-2.1,1.4c-0.9,0.6-1.5,1.3-1.7,2.1h6.2v2.3h-9.3v-0.9
					C93.4,109.1,94.6,107.1,96.4,106z"/>
			</g>
			<g class="st3">
				<path d="M104.8,105.6c0-4.3,1.9-6.7,5.1-6.7c3.3,0,5.1,2.4,5.1,6.7c0,4.2-1.9,6.6-5.1,6.6C106.7,112.2,104.8,109.8,104.8,105.6z
					 M109.9,110c1.6,0,2.4-1.5,2.4-4.4c0-2.9-0.8-4.4-2.4-4.4c-1.6,0-2.4,1.5-2.4,4.4C107.5,108.5,108.4,110,109.9,110z"/>
			</g>
		</g>
	</g>
	<g id="Group_179">
		<g id="Group_170">
			<g id="Path_22">
				<path class="st0" d="M203,378c0-46.9-38.1-85-85-85s-85,38.1-85,85H203z"/>
			</g>
		</g>
		<g id="EXAMPLE">
			<g class="st3">
				<path class="st4" d="M85.4,370.5h6.6v1.3h-5.2v3.2h4.4v1.3h-4.4v3.3h5.2v1.3h-6.6V370.5z"/>
				<path class="st4" d="M96.8,375.6l-3.1-5.1h1.7l2.3,3.9h0.1l2.4-3.9h1.7l-3.1,5.1l3.3,5.4h-1.7l-2.5-4.2h-0.1l-2.5,4.2h-1.7
					L96.8,375.6z"/>
				<path class="st4" d="M106.8,370.5h2l3.7,10.5h-1.6l-0.9-2.7h-4.3l-0.9,2.7h-1.6L106.8,370.5z M109.5,376.9l-1.7-4.8h-0.1
					l-1.6,4.8H109.5z"/>
				<path class="st4" d="M114.4,370.5h1.8l3.4,7.2h0.1l3.4-7.2h1.8V381h-1.4v-7.7h-0.1l-3,6.2h-1.4l-3-6.2h-0.1v7.7h-1.4V370.5z"/>
				<path class="st4" d="M127.7,370.5h3.7c2.1,0,3.5,1.3,3.5,3.2s-1.4,3.2-3.5,3.2h-2.3v4.1h-1.5V370.5z M131.4,375.6
					c1.2,0,2-0.7,2-1.9c0-1.1-0.8-1.9-2-1.9h-2.3v3.7H131.4z"/>
				<path class="st4" d="M137.1,370.5h1.5v9.2h5.1v1.3h-6.6V370.5z"/>
				<path class="st4" d="M145.9,370.5h6.6v1.3h-5.2v3.2h4.4v1.3h-4.4v3.3h5.2v1.3h-6.6V370.5z"/>
			</g>
		</g>
	</g>
</g>
<g>
	<path class="st4" d="M118,364.2c-8,0-15.6-3.8-20.3-10.3l1.4-1.1c4.4,6,11.4,9.5,18.8,9.5c12.9,0,23.4-10.5,23.4-23.4
		s-10.5-23.4-23.4-23.4S94.6,326.1,94.6,339c0,2.9,0.6,5.8,1.7,8.7l-1.7,0.7c-1.2-3.1-1.9-6.2-1.9-9.3c0-13.9,11.3-25.2,25.2-25.2
		s25.2,11.3,25.2,25.2S131.9,364.2,118,364.2L118,364.2z"/>
</g>
<g>
	<path class="st4" d="M111,349.7c-0.2,0-0.4,0-0.5-0.1c-0.3-0.2-0.5-0.6-0.5-1v-19.1c0-0.4,0.2-0.8,0.5-1s0.7-0.2,1.1,0l17.4,9.6
		c0.4,0.2,0.6,0.6,0.6,1s-0.2,0.8-0.6,1l-17.4,9.6C111.3,349.6,111.2,349.7,111,349.7L111,349.7z M111.7,330.6v16.8l15.2-8.4
		L111.7,330.6L111.7,330.6z M128.1,338.4L128.1,338.4L128.1,338.4z"/>
</g>
<g>
	<circle class="st4" cx="98.2" cy="353.4" r="3.6"/>
</g>
</svg>
