<?xml version="1.0" encoding="UTF-8"?><svg id="Working_File" xmlns="http://www.w3.org/2000/svg" viewBox="0 0 234.86 695"><defs><style>.cls-1,.cls-2,.cls-3{fill:none;}.cls-4{letter-spacing:-.01em;}.cls-5{letter-spacing:.01em;}.cls-6{font-size:12px;}.cls-6,.cls-7,.cls-8,.cls-9,.cls-10{fill:#fff;}.cls-6,.cls-7,.cls-9,.cls-11,.cls-12,.cls-10{isolation:isolate;}.cls-6,.cls-10{font-family:ULModerat-Regular, 'UL Moderat';}.cls-13{letter-spacing:-.02em;}.cls-14{letter-spacing:0em;}.cls-15{letter-spacing:0em;}.cls-16{letter-spacing:0em;}.cls-17{letter-spacing:0em;}.cls-7,.cls-9,.cls-10{font-size:15px;}.cls-7,.cls-11{font-family:ULModerat-Bold, 'UL Moderat';font-weight:700;}.cls-18{fill:#00a451;}.cls-19{fill:#122c49;}.cls-20{letter-spacing:-.01em;}.cls-21{letter-spacing:-.02em;}.cls-9{font-family:ULModerat-Medium, 'UL Moderat';font-weight:500;}.cls-22{letter-spacing:-.02em;}.cls-23{letter-spacing:-.01em;}.cls-24{letter-spacing:0em;}.cls-25{letter-spacing:0em;}.cls-26{letter-spacing:-.02em;}.cls-11{font-size:20px;}.cls-27{letter-spacing:-.04em;}.cls-28{letter-spacing:0em;}.cls-29{letter-spacing:0em;}.cls-30{letter-spacing:0em;}.cls-31{letter-spacing:-.01em;}.cls-32{letter-spacing:0em;}.cls-33{letter-spacing:0em;}.cls-34{letter-spacing:0em;}.cls-35{letter-spacing:0em;}.cls-36{letter-spacing:-.05em;}.cls-37{letter-spacing:-.02em;}.cls-38{letter-spacing:0em;}.cls-2{stroke:#000;stroke-linecap:round;}.cls-2,.cls-3{stroke-width:3px;}.cls-3{stroke:#122c49;}.cls-39{letter-spacing:-.02em;}.cls-40{letter-spacing:-.07em;}.cls-41{letter-spacing:0em;}.cls-42{letter-spacing:0em;}.cls-43{letter-spacing:-.02em;}</style></defs><g id="Group_190"><g id="Ellipse_6"><circle class="cls-1" cx="117.5" cy="117.5" r="117.5"/><circle class="cls-3" cx="117.5" cy="117.5" r="116"/></g><circle id="Ellipse_54" class="cls-18" cx="118" cy="378" r="85"/><line id="Line_123" class="cls-2" x1="118" y1="473" x2="118" y2="485"/><line id="Line_124" class="cls-2" x1="118" y1="269" x2="118" y2="281"/><line id="Line_133" class="cls-2" x1="118" y1="247" x2="118" y2="259"/><line id="Line_125" class="cls-2" x1="118" y1="495" x2="118" y2="507"/><g id="Group_89"><g id="Group_31"><g id="Group_27"><g id="Standing_near_sirens_or_Jackhammer" class="cls-12"><text class="cls-6" transform="translate(65 410)"><tspan class="cls-4" x="0" y="0">S</tspan><tspan class="cls-28" x="6.91" y="0">t</tspan><tspan class="cls-15" x="11.08" y="0">a</tspan><tspan class="cls-24" x="17.35" y="0">ndi</tspan><tspan class="cls-20" x="34.26" y="0">n</tspan><tspan x="40.86" y="0">g n</tspan><tspan class="cls-34" x="57.04" y="0">e</tspan><tspan class="cls-15" x="63.91" y="0">a</tspan><tspan class="cls-28" x="70.19" y="0">r si</tspan><tspan class="cls-21" x="86.24" y="0">r</tspan><tspan class="cls-24" x="90.31" y="0">e</tspan><tspan class="cls-4" x="97.28" y="0">n</tspan><tspan x="103.94" y="0">s </tspan></text><text class="cls-6" transform="translate(65 428)"><tspan x="0" y="0">or </tspan><tspan class="cls-22" x="14.77" y="0">J</tspan><tspan x="21.07" y="0">a</tspan><tspan class="cls-14" x="27.32" y="0">c</tspan><tspan class="cls-41" x="34.19" y="0">kh</tspan><tspan class="cls-15" x="47.06" y="0">a</tspan><tspan x="53.34" y="0">mmer</tspan></text></g><circle id="Ellipse_14" class="cls-8" cx="59.5" cy="406.5" r="1.5"/></g></g></g><g id="Group_90"><circle id="Ellipse_18" class="cls-19" cx="118" cy="606" r="89"/><g id="Recommended_Duration:_Not_safe_for_any_without_proper_PPE" class="cls-12"><text class="cls-7" transform="translate(54 579)"><tspan class="cls-27" x="0" y="0">R</tspan><tspan class="cls-38" x="8.98" y="0">e</tspan><tspan class="cls-42" x="17.81" y="0">c</tspan><tspan x="26.48" y="0">ommended</tspan></text><text class="cls-7" transform="translate(54 600)"><tspan class="cls-25" x="0" y="0">D</tspan><tspan class="cls-38" x="10.8" y="0">u</tspan><tspan class="cls-31" x="19.5" y="0">r</tspan><tspan class="cls-23" x="25.15" y="0">a</tspan><tspan class="cls-29" x="32.98" y="0">t</tspan><tspan x="39.01" y="0">io</tspan><tspan class="cls-43" x="52.11" y="0">n</tspan><tspan x="60.7" y="0">: </tspan></text><text class="cls-10" transform="translate(122.4 600)"><tspan class="cls-39" x="0" y="0">No</tspan><tspan class="cls-38" x="19.95" y="0">t s</tspan><tspan class="cls-23" x="36.36" y="0">a</tspan><tspan class="cls-13" x="43.99" y="0">f</tspan><tspan x="48.9" y="0">e </tspan></text><text class="cls-10" transform="translate(54 621)"><tspan class="cls-13" x="0" y="0">f</tspan><tspan x="4.9" y="0">or </tspan><tspan class="cls-17" x="23.37" y="0">a</tspan><tspan class="cls-37" x="31.21" y="0">n</tspan><tspan x="39.36" y="0">y wi</tspan><tspan class="cls-5" x="65.67" y="0">t</tspan><tspan class="cls-38" x="71.05" y="0">h</tspan><tspan class="cls-32" x="79.53" y="0">o</tspan><tspan x="88.68" y="0">ut </tspan></text><text class="cls-10" transform="translate(54 642)"><tspan x="0" y="0">p</tspan><tspan class="cls-26" x="9.15" y="0">r</tspan><tspan x="14.23" y="0">o</tspan><tspan class="cls-35" x="23.44" y="0">p</tspan><tspan x="32.64" y="0">er PPE</tspan></text></g></g><g id="Group_139"><g id="_dB_" class="cls-12"><text class="cls-11" transform="translate(82.31 136)"><tspan class="cls-40" x="0" y="0">(</tspan><tspan class="cls-33" x="5.24" y="0">d</tspan><tspan class="cls-36" x="17.4" y="0">B</tspan><tspan class="cls-16" x="28.82" y="0">)</tspan></text></g><g id="_120" class="cls-12"><text class="cls-11" transform="translate(83.89 112)"><tspan x="0" y="0">1</tspan><tspan class="cls-30" x="8.4" y="0">2</tspan><tspan x="19.84" y="0">0</tspan></text></g></g><g id="Group_179"><g id="Group_170"><path id="Path_22" class="cls-1" d="m203,378c0-46.94-38.06-85-85-85s-85,38.06-85,85h170Z"/></g><g id="EXAMPLE" class="cls-12"><text class="cls-9" transform="translate(84 381)"><tspan x="0" y="0">EXAMPLE</tspan></text></g></g></g><path class="cls-8" d="m118,364.2c-7.97,0-15.56-3.84-20.3-10.27l1.45-1.07c4.4,5.97,11.44,9.53,18.85,9.53,12.9,0,23.4-10.5,23.4-23.4s-10.5-23.4-23.4-23.4-23.4,10.5-23.4,23.4c0,2.86.58,5.78,1.74,8.67l-1.67.67c-1.24-3.1-1.86-6.24-1.86-9.33,0-13.89,11.3-25.2,25.2-25.2s25.2,11.3,25.2,25.2-11.3,25.2-25.2,25.2Z"/><path class="cls-8" d="m110.97,349.67c-.19,0-.37-.05-.54-.15-.33-.2-.53-.56-.53-.97v-19.12c0-.41.2-.77.53-.97.33-.2.74-.19,1.1,0l17.41,9.57c.37.2.59.56.59.95s-.22.75-.59.95l-17.41,9.57c-.18.1-.37.15-.56.15Zm.73-19.05v16.75l15.23-8.38-15.23-8.38Zm16.37,7.75s0,0,0,0h0Z"/><circle class="cls-8" cx="98.2" cy="353.4" r="3.6"/></svg>