<svg xmlns="http://www.w3.org/2000/svg" xmlns:xlink="http://www.w3.org/1999/xlink" width="235" height="695" viewBox="0 0 235 695">
    <defs>
        <clipPath id="clip-path">
            <rect id="Rectangle_33" data-name="Rectangle 33" width="53" height="54" transform="translate(0 0)" fill="#fff"/>
        </clipPath>
    </defs>
    <g id="Group_190" data-name="Group 190" transform="translate(-1305 -483)">
        <g id="Ellipse_6" data-name="Ellipse 6" transform="translate(1305 483)" fill="none" stroke="#122c49" stroke-width="3">
            <circle cx="117.5" cy="117.5" r="117.5" stroke="none"/>
            <circle cx="117.5" cy="117.5" r="116" fill="none"/>
        </g>
        <circle id="Ellipse_54" data-name="Ellipse 54" cx="85" cy="85" r="85" transform="translate(1338 776)" fill="#efefef"/>
        <line id="Line_123" data-name="Line 123" x2="12" transform="translate(1423 956) rotate(90)" fill="none" stroke="#000" stroke-linecap="round" stroke-width="3"/>
        <line id="Line_124" data-name="Line 124" x2="12" transform="translate(1423 752) rotate(90)" fill="none" stroke="#000" stroke-linecap="round" stroke-width="3"/>
        <line id="Line_133" data-name="Line 133" x2="12" transform="translate(1423 730) rotate(90)" fill="none" stroke="#000" stroke-linecap="round" stroke-width="3"/>
        <line id="Line_125" data-name="Line 125" x2="12" transform="translate(1423 978) rotate(90)" fill="none" stroke="#000" stroke-linecap="round" stroke-width="3"/>
        <g id="Group_89" data-name="Group 89" transform="translate(743 328)">
            <g id="Group_31" data-name="Group 31" transform="translate(215 -11)">
                <g id="Group_27" data-name="Group 27">
                    <text id="Standing_near_sirens_or_Jackhammer" data-name="Standing near sirens
or Jackhammer" transform="translate(412 564)" font-size="12" font-family="SegoeUI, Segoe UI"><tspan x="0" y="0">Standing near sirens </tspan><tspan x="0" y="18">or Jackhammer</tspan></text>
                    <circle id="Ellipse_14" data-name="Ellipse 14" cx="1.5" cy="1.5" r="1.5" transform="translate(405 559)"/>
                </g>
            </g>
        </g>
        <g id="Group_90" data-name="Group 90" transform="translate(761 539)">
            <circle id="Ellipse_18" data-name="Ellipse 18" cx="89" cy="89" r="89" transform="translate(573 461)" fill="#122c49"/>
            <text id="Recommended_Duration:_Not_safe_for_any_without_proper_PPE" data-name="Recommended
Duration: Not safe for any without proper PPE" transform="translate(598 511)" fill="#fff" font-size="15" font-family="SegoeUI-Bold, Segoe UI" font-weight="700"><tspan x="0" y="16">Recommended</tspan><tspan x="0" y="37">Duration: </tspan><tspan y="37" font-family="SegoeUI, Segoe UI" font-weight="400">Not safe </tspan><tspan x="0" y="58" font-family="SegoeUI, Segoe UI" font-weight="400">for any without </tspan><tspan x="0" y="79" font-family="SegoeUI, Segoe UI" font-weight="400">proper PPE</tspan></text>
        </g>
        <g id="Group_139" data-name="Group 139" transform="translate(148 -197)">
            <text id="_dB_" data-name="(dB)" transform="translate(1257 816)" fill="#123a28" font-size="20" font-family="SegoeUI-Bold, Segoe UI" font-weight="700"><tspan x="-19.985" y="0">(dB)</tspan></text>
            <text id="_120" data-name="120" transform="translate(1257 792)" fill="#123a28" font-size="20" font-family="SegoeUI-Bold, Segoe UI" font-weight="700"><tspan x="-17.256" y="0">120</tspan></text>
        </g>
        <g id="Group_179" data-name="Group 179" transform="translate(1338 776)">
            <g id="Group_170" data-name="Group 170">
                <path id="Path_22" data-name="Path 22" d="M170,170A85,85,0,0,0,0,170Z" transform="translate(0 -85)" fill="#00a451"/>
                <g id="Group_145" data-name="Group 145" transform="translate(111 61) rotate(180)">
                    <g id="Group_144" data-name="Group 144" transform="translate(0 0)" clip-path="url(#clip-path)">
                        <path id="Path_19" data-name="Path 19" d="M24.6,0A24.708,24.708,0,0,1,44.409,10.02l-1.414,1.042a24.23,24.23,0,1,0,2.746,5.075l1.632-.651A24.554,24.554,0,1,1,24.6,0" transform="translate(1.55 1.914)" fill="#fff"/>
                        <path id="Path_20" data-name="Path 20" d="M18.114,0a1.027,1.027,0,0,1,.525.143,1.075,1.075,0,0,1,.516.942V19.751a1.052,1.052,0,0,1-1.59.94L.574,11.347a1.038,1.038,0,0,1,0-1.857L17.565.145A1.139,1.139,0,0,1,18.114,0M17.4,18.6V2.241L2.532,10.418ZM1.421,11.029h0Z" transform="translate(14.896 16.092)" fill="#fff"/>
                        <path id="Path_21" data-name="Path 21" d="M7.027,3.514A3.514,3.514,0,1,1,3.514,0,3.514,3.514,0,0,1,7.027,3.514" transform="translate(41.957 8.942)" fill="#fff"/>
                    </g>
                </g>
            </g>
            <text id="EXAMPLE" transform="translate(51 76)" fill="#fff" font-size="15" font-family="SegoeUI, Segoe UI"><tspan x="0" y="0">EXAMPLE</tspan></text>
        </g>
    </g>
</svg>
