<?xml version="1.0" encoding="UTF-8"?><svg id="Working_File" xmlns="http://www.w3.org/2000/svg" viewBox="0 0 254 678"><defs><style>.cls-1,.cls-2,.cls-3{fill:none;}.cls-4{letter-spacing:-.01em;}.cls-5{letter-spacing:.01em;}.cls-6{letter-spacing:-.02em;}.cls-7{font-size:12px;}.cls-7,.cls-8,.cls-9,.cls-10,.cls-11{fill:#fff;}.cls-7,.cls-8,.cls-10,.cls-12,.cls-13,.cls-11{isolation:isolate;}.cls-7,.cls-11{font-family:ULModerat-Regular, 'UL Moderat';}.cls-14{letter-spacing:-.02em;}.cls-15{letter-spacing:0em;}.cls-16{letter-spacing:0em;}.cls-17{letter-spacing:0em;}.cls-18{letter-spacing:0em;}.cls-8,.cls-10,.cls-11{font-size:15px;}.cls-8,.cls-12{font-family:ULModerat-Bold, 'UL Moderat';font-weight:700;}.cls-19{fill:#00a451;}.cls-20{fill:#122c49;}.cls-21{letter-spacing:-.01em;}.cls-22{letter-spacing:-.02em;}.cls-10{font-family:ULModerat-Medium, 'UL Moderat';font-weight:500;}.cls-23{letter-spacing:-.01em;}.cls-24{letter-spacing:0em;}.cls-25{letter-spacing:0em;}.cls-26{letter-spacing:-.02em;}.cls-12{font-size:20px;}.cls-27{letter-spacing:-.04em;}.cls-28{letter-spacing:-.03em;}.cls-29{letter-spacing:0em;}.cls-30{letter-spacing:0em;}.cls-31{letter-spacing:-.01em;}.cls-32{letter-spacing:0em;}.cls-33{letter-spacing:0em;}.cls-34{letter-spacing:0em;}.cls-35{letter-spacing:0em;}.cls-36{letter-spacing:-.05em;}.cls-37{letter-spacing:-.01em;}.cls-38{letter-spacing:-.02em;}.cls-39{letter-spacing:0em;}.cls-2{stroke:#000;stroke-linecap:round;}.cls-2,.cls-3{stroke-width:3px;}.cls-3{stroke:#122c49;}.cls-40{letter-spacing:-.02em;}.cls-41{letter-spacing:-.02em;}.cls-42{letter-spacing:-.07em;}.cls-43{letter-spacing:0em;}.cls-44{letter-spacing:-.03em;}.cls-45{letter-spacing:-.02em;}</style></defs><line id="Line_175" class="cls-2" x1="127" y1="409" x2="127" y2="417"/><line id="Line_154" class="cls-2" x1="127" y1="188" x2="127" y2="200"/><line id="Line_155" class="cls-2" x1="127" y1="210" x2="127" y2="222"/><g id="Group_191"><g id="Ellipse_6"><circle class="cls-1" cx="127" cy="551" r="127"/><circle class="cls-3" cx="127" cy="551" r="125.5"/></g><circle id="Ellipse_50" class="cls-19" cx="127" cy="317" r="85"/><g id="Group_106"><g id="Group_115"><g id="Group_28"><g id="Gunshot_at_close_range" class="cls-13"><text class="cls-7" transform="translate(68 298)"><tspan class="cls-28" x="0" y="0">G</tspan><tspan class="cls-24" x="9.36" y="0">u</tspan><tspan class="cls-4" x="16.02" y="0">n</tspan><tspan x="22.68" y="0">sh</tspan><tspan class="cls-41" x="35.3" y="0">o</tspan><tspan x="42.49" y="0">t </tspan><tspan class="cls-31" x="49.78" y="0">a</tspan><tspan x="55.86" y="0">t </tspan><tspan class="cls-25" x="63.14" y="0">c</tspan><tspan x="70.01" y="0">l</tspan><tspan class="cls-34" x="72.81" y="0">os</tspan><tspan x="85.86" y="0">e </tspan><tspan class="cls-6" x="95.95" y="0">r</tspan><tspan class="cls-15" x="99.96" y="0">a</tspan><tspan class="cls-21" x="106.23" y="0">n</tspan><tspan class="cls-17" x="112.83" y="0">g</tspan><tspan class="cls-24" x="119.12" y="0">e</tspan></text></g><circle id="Ellipse_14" class="cls-9" cx="62.5" cy="294.5" r="1.5"/></g><g id="Group_27"><g id="Jet_take_off" class="cls-13"><text class="cls-7" transform="translate(68 280)"><tspan class="cls-22" x="0" y="0">J</tspan><tspan class="cls-37" x="6.35" y="0">e</tspan><tspan x="13.19" y="0">t t</tspan><tspan class="cls-15" x="24.64" y="0">a</tspan><tspan class="cls-44" x="30.91" y="0">k</tspan><tspan x="36.74" y="0">e </tspan><tspan class="cls-41" x="46.84" y="0">o</tspan><tspan x="54.02" y="0">ff</tspan></text></g><circle id="Ellipse_14-2" class="cls-9" cx="62.5" cy="276.5" r="1.5"/></g></g></g><g id="Group_104"><circle id="Ellipse_18" class="cls-20" cx="127" cy="89" r="89"/><g id="Recommended_Duration:_Not_safe_for_any_without_proper_PPE" class="cls-13"><text class="cls-8" transform="translate(64 62)"><tspan class="cls-27" x="0" y="0">R</tspan><tspan class="cls-39" x="8.98" y="0">e</tspan><tspan class="cls-43" x="17.81" y="0">c</tspan><tspan x="26.48" y="0">ommended</tspan></text><text class="cls-8" transform="translate(64 83)"><tspan class="cls-25" x="0" y="0">D</tspan><tspan class="cls-39" x="10.8" y="0">u</tspan><tspan class="cls-31" x="19.5" y="0">r</tspan><tspan class="cls-23" x="25.15" y="0">a</tspan><tspan class="cls-29" x="32.98" y="0">t</tspan><tspan x="39.01" y="0">io</tspan><tspan class="cls-45" x="52.11" y="0">n</tspan><tspan x="60.7" y="0">: </tspan></text><text class="cls-11" transform="translate(132.4 83)"><tspan class="cls-40" x="0" y="0">No</tspan><tspan class="cls-39" x="19.95" y="0">t s</tspan><tspan class="cls-23" x="36.36" y="0">a</tspan><tspan class="cls-14" x="43.99" y="0">f</tspan><tspan x="48.9" y="0">e </tspan></text><text class="cls-11" transform="translate(64 104)"><tspan class="cls-14" x="0" y="0">f</tspan><tspan x="4.9" y="0">or </tspan><tspan class="cls-18" x="23.37" y="0">a</tspan><tspan class="cls-38" x="31.21" y="0">n</tspan><tspan x="39.36" y="0">y wi</tspan><tspan class="cls-5" x="65.67" y="0">t</tspan><tspan class="cls-39" x="71.05" y="0">h</tspan><tspan class="cls-32" x="79.53" y="0">o</tspan><tspan x="88.68" y="0">ut </tspan></text><text class="cls-11" transform="translate(64 125)"><tspan x="0" y="0">p</tspan><tspan class="cls-26" x="9.15" y="0">r</tspan><tspan x="14.23" y="0">o</tspan><tspan class="cls-35" x="23.44" y="0">p</tspan><tspan x="32.64" y="0">er PPE</tspan></text></g></g><g id="Group_140"><g id="_dB_" class="cls-13"><text class="cls-12" transform="translate(109.31 569)"><tspan class="cls-42" x="0" y="0">(</tspan><tspan class="cls-33" x="5.24" y="0">d</tspan><tspan class="cls-36" x="17.4" y="0">B</tspan><tspan class="cls-16" x="28.82" y="0">)</tspan></text></g><g id="_130" class="cls-13"><text class="cls-12" transform="translate(110.67 545)"><tspan class="cls-30" x="0" y="0">1</tspan><tspan x="8.36" y="0">30</tspan></text></g></g><g id="Group_171"><g id="EXAMPLE" class="cls-13"><text class="cls-10" transform="translate(93 329)"><tspan x="0" y="0">EXAMPLE</tspan></text></g></g></g><path class="cls-9" d="m127.34,387.34c-7.97,0-15.56-3.84-20.3-10.27l1.45-1.07c4.4,5.97,11.44,9.53,18.85,9.53,12.9,0,23.4-10.5,23.4-23.4s-10.5-23.4-23.4-23.4-23.4,10.5-23.4,23.4c0,2.86.58,5.78,1.74,8.67l-1.67.67c-1.24-3.1-1.86-6.24-1.86-9.33,0-13.89,11.3-25.2,25.2-25.2s25.2,11.3,25.2,25.2-11.3,25.2-25.2,25.2h0Z"/><path class="cls-9" d="m120.31,372.81c-.19,0-.37-.05-.54-.15-.33-.2-.53-.56-.53-.97v-19.12c0-.41.2-.77.53-.97s.74-.19,1.1,0l17.41,9.57c.37.2.59.56.59.95s-.22.75-.59.95l-17.41,9.57c-.18.1-.37.15-.56.15v.02Zm.73-19.05v16.75l15.23-8.38-15.23-8.38h0Zm16.37,7.75h0Z"/><circle class="cls-9" cx="107.54" cy="376.54" r="3.6"/></svg>