<?xml version="1.0" encoding="utf-8"?>
<!-- Generator: Adobe Illustrator 27.6.1, SVG Export Plug-In . SVG Version: 6.00 Build 0)  -->
<svg version="1.1" xmlns="http://www.w3.org/2000/svg" xmlns:xlink="http://www.w3.org/1999/xlink" x="0px" y="0px"
	 viewBox="0 0 254 678" style="enable-background:new 0 0 254 678;" xml:space="preserve">
<style type="text/css">
	.st0{fill:#00A451;}
	.st1{fill:none;}
	.st2{enable-background:new    ;}
	.st3{fill:#FFFFFF;}
	.st4{fill:#123A28;}
</style>
<g id="Layer_2">
	<circle class="st0" cx="127" cy="551" r="124"/>
</g>
<g id="Working_File">
	<g id="Line_175">
		<path d="M127,418.5c-0.8,0-1.5-0.7-1.5-1.5v-8c0-0.8,0.7-1.5,1.5-1.5s1.5,0.7,1.5,1.5v8C128.5,417.8,127.8,418.5,127,418.5z"/>
	</g>
	<g id="Line_154">
		<path d="M127,201.5c-0.8,0-1.5-0.7-1.5-1.5v-12c0-0.8,0.7-1.5,1.5-1.5s1.5,0.7,1.5,1.5v12C128.5,200.8,127.8,201.5,127,201.5z"/>
	</g>
	<g id="Line_155">
		<path d="M127,223.5c-0.8,0-1.5-0.7-1.5-1.5v-12c0-0.8,0.7-1.5,1.5-1.5s1.5,0.7,1.5,1.5v12C128.5,222.8,127.8,223.5,127,223.5z"/>
	</g>
	<g id="Group_191">
		<g id="Ellipse_6">
			<g>
				<circle class="st1" cx="127" cy="551" r="127"/>
			</g>
			<g>
				<path class="st0" d="M127,678C57,678,0,621,0,551s57-127,127-127s127,57,127,127S197,678,127,678z M127,427
					C58.6,427,3,482.6,3,551s55.6,124,124,124s124-55.6,124-124S195.4,427,127,427z"/>
			</g>
		</g>
		<g id="Ellipse_50">
			<circle class="st0" cx="127" cy="317" r="85"/>
		</g>
		<g id="Group_106">
			<g id="Group_115">
				<g id="Group_28">
					<g id="Gunshot_at_close_range">
						<g class="st2">
							<path class="st3" d="M68.8,293.8c0-2.6,1.7-4.3,4.1-4.3c1.9,0,3.3,1.1,3.5,2.7h-1c-0.2-1-1.2-1.8-2.5-1.8
								c-1.9,0-3.2,1.4-3.2,3.4c0,2.1,1.2,3.4,3,3.4c1.6,0,2.7-1,2.7-2.6H73v-0.9h3.3v4.3h-0.8l-0.1-1.5h-0.1
								c-0.5,1-1.6,1.6-2.9,1.6C70.5,298.1,68.8,296.4,68.8,293.8z"/>
						</g>
						<g class="st2">
							<path class="st3" d="M78.3,295.7V292h0.9v3.6c0,1.2,0.6,1.6,1.4,1.6s1.5-0.5,1.5-1.8V292H83v6h-0.8l-0.1-0.8H82
								c-0.3,0.4-0.8,0.9-1.7,0.9C79.2,298.1,78.3,297.3,78.3,295.7z"/>
						</g>
						<g class="st2">
							<path class="st3" d="M87.5,292.8c-0.8,0-1.6,0.5-1.6,1.8v3.4H85v-6h0.8l0.1,0.8H86c0.3-0.4,0.8-0.9,1.7-0.9
								c1.3,0,2.2,0.8,2.2,2.4v3.7H89v-3.6C88.9,293.3,88.3,292.8,87.5,292.8z"/>
						</g>
						<g class="st2">
							<path class="st3" d="M91.3,296.2h1c0.1,0.6,0.6,1.1,1.4,1.1c0.7,0,1.2-0.3,1.2-0.8s-0.3-0.7-0.9-0.9l-0.8-0.2
								c-1-0.3-1.6-0.8-1.6-1.7c0-1,0.9-1.7,2.1-1.7c1.1,0,2,0.7,2.1,1.7h-1c-0.1-0.5-0.5-0.9-1.2-0.9c-0.6,0-1.1,0.3-1.1,0.9
								c0,0.4,0.3,0.7,1,0.9l0.8,0.2c1.1,0.3,1.5,0.9,1.5,1.7c0,1.1-1,1.7-2.2,1.7C92.4,298.1,91.4,297.3,91.3,296.2z"/>
							<path class="st3" d="M100,292.8c-0.8,0-1.6,0.5-1.6,1.8v3.4h-0.9v-8.6h0.9v3.4h0.1c0.2-0.3,0.7-0.8,1.6-0.8
								c1.3,0,2.2,0.8,2.2,2.4v3.7h-0.9v-3.6C101.4,293.3,100.8,292.8,100,292.8z"/>
						</g>
						<g class="st2">
							<path class="st3" d="M104,295c0-1.8,1.3-3.1,3-3.1s3,1.3,3,3.1c0,1.8-1.3,3.1-3,3.1S104,296.8,104,295z M107,297.2
								c1.2,0,2.1-1,2.1-2.2s-0.9-2.2-2.1-2.2s-2.1,1-2.1,2.2C104.9,296.3,105.8,297.2,107,297.2z"/>
						</g>
						<g class="st2">
							<path class="st3" d="M112,296.7v-3.8h-1.2V292h0.3c0.7,0,1-0.4,1-1.1v-0.7h0.8v1.8h1.4v0.8h-1.4v3.6c0,0.5,0.3,0.8,0.7,0.8
								c0.2,0,0.4,0,0.5-0.1v0.8c-0.2,0.1-0.4,0.1-0.7,0.1C112.6,298.1,112,297.6,112,296.7z"/>
						</g>
						<g class="st2">
							<path class="st3" d="M118.5,296.4c0-1.2,1-1.9,3.1-2.1h0.6v-0.2c0-0.8-0.5-1.3-1.3-1.3s-1.2,0.4-1.4,1h-1
								c0.1-1.1,1-1.9,2.3-1.9s2.2,0.8,2.2,2.2v2.8c0,0.4,0.2,0.5,0.5,0.5c0,0,0.1,0,0.2,0v0.7c-0.1,0-0.3,0.1-0.5,0.1
								c-0.5,0-1-0.3-1.1-0.9l0,0H122c-0.4,0.6-1,1-1.9,1C119.2,298.1,118.5,297.5,118.5,296.4z M120.4,297.3c1.1,0,1.8-0.8,1.8-2
								V295h-0.5c-1.5,0.1-2.2,0.6-2.2,1.3C119.4,297,119.8,297.3,120.4,297.3z"/>
						</g>
						<g class="st2">
							<path class="st3" d="M125.4,296.7v-3.8h-1.2V292h0.3c0.7,0,1-0.4,1-1.1v-0.7h0.8v1.8h1.4v0.8h-1.4v3.6c0,0.5,0.3,0.8,0.7,0.8
								c0.2,0,0.4,0,0.5-0.1v0.8c-0.2,0.1-0.4,0.1-0.7,0.1C126,298.1,125.4,297.6,125.4,296.7z"/>
						</g>
						<g class="st2">
							<path class="st3" d="M131.8,295c0-1.8,1.2-3.1,3-3.1c1.4,0,2.5,0.8,2.7,2.1h-1c-0.2-0.7-0.8-1.2-1.7-1.2c-1.2,0-2,0.9-2,2.2
								c0,1.3,0.8,2.2,2,2.2c0.9,0,1.5-0.5,1.7-1.2h1c-0.2,1.2-1.3,2.1-2.7,2.1C133,298.1,131.8,296.8,131.8,295z"/>
						</g>
						<g class="st2">
							<path class="st3" d="M138.9,289.4h0.9v8.6h-0.9V289.4z"/>
						</g>
						<g class="st2">
							<path class="st3" d="M141.5,295c0-1.8,1.3-3.1,3-3.1s3,1.3,3,3.1c0,1.8-1.3,3.1-3,3.1S141.5,296.8,141.5,295z M144.5,297.2
								c1.2,0,2.1-1,2.1-2.2s-0.9-2.2-2.1-2.2c-1.2,0-2.1,1-2.1,2.2C142.4,296.3,143.3,297.2,144.5,297.2z"/>
							<path class="st3" d="M148.8,296.2h1c0.1,0.6,0.6,1.1,1.4,1.1c0.7,0,1.2-0.3,1.2-0.8s-0.3-0.7-0.9-0.9l-0.8-0.2
								c-1-0.3-1.6-0.8-1.6-1.7c0-1,0.9-1.7,2.1-1.7c1.1,0,2,0.7,2.1,1.7h-1c-0.1-0.5-0.5-0.9-1.2-0.9c-0.6,0-1.1,0.3-1.1,0.9
								c0,0.4,0.3,0.7,1,0.9l0.8,0.2c1.1,0.3,1.5,0.9,1.5,1.7c0,1.1-1,1.7-2.2,1.7C149.8,298.1,148.8,297.3,148.8,296.2z"/>
						</g>
						<g class="st2">
							<path class="st3" d="M154.5,295c0-1.8,1.3-3.1,2.9-3.1c1.6,0,2.7,1.2,2.7,2.9c0,0.1,0,0.3,0,0.4h-4.6c0.1,1.2,0.9,2,2,2
								c0.7,0,1.4-0.4,1.6-0.9h1c-0.2,1.1-1.3,1.8-2.6,1.8C155.8,298.1,154.5,296.8,154.5,295z M159.2,294.5c-0.1-1-0.8-1.7-1.7-1.7
								s-1.7,0.7-1.9,1.7H159.2z"/>
						</g>
						<g class="st2">
							<path class="st3" d="M164.9,292h0.8l0.1,0.9h0.1c0.2-0.4,0.7-0.9,1.8-0.9c0.1,0,0.2,0,0.3,0v0.9c-0.2,0-0.2,0-0.3,0
								c-1,0-1.7,0.7-1.7,2.1v3h-0.9v-6H164.9z"/>
						</g>
						<g class="st2">
							<path class="st3" d="M168.6,296.4c0-1.2,1-1.9,3.1-2.1h0.6v-0.2c0-0.8-0.5-1.3-1.3-1.3s-1.2,0.4-1.4,1h-1
								c0.1-1.1,1-1.9,2.3-1.9s2.2,0.8,2.2,2.2v2.8c0,0.4,0.2,0.5,0.5,0.5c0,0,0.1,0,0.2,0v0.7c-0.1,0-0.3,0.1-0.5,0.1
								c-0.5,0-1-0.3-1.1-0.9l0,0h-0.1c-0.4,0.6-1,1-1.9,1C169.4,298.1,168.6,297.5,168.6,296.4z M170.6,297.3c1.1,0,1.8-0.8,1.8-2
								V295h-0.5c-1.5,0.1-2.2,0.6-2.2,1.3C169.6,297,170,297.3,170.6,297.3z"/>
						</g>
						<g class="st2">
							<path class="st3" d="M177.7,292.8c-0.8,0-1.6,0.5-1.6,1.8v3.4h-0.9v-6h0.8l0.1,0.8h0.1c0.3-0.4,0.8-0.9,1.7-0.9
								c1.3,0,2.2,0.8,2.2,2.4v3.7h-0.9v-3.6C179.1,293.3,178.5,292.8,177.7,292.8z"/>
						</g>
						<g class="st2">
							<path class="st3" d="M181.5,298.8l1.1-1.1c-0.6-0.2-0.9-0.7-0.9-1.2c0-0.6,0.4-1,0.8-1.2c-0.3-0.3-0.5-0.8-0.5-1.3
								c0-1.1,1-2,2.3-2c0.4,0,0.8,0.1,1.1,0.3l0.9-1.2l0.7,0.6l-1,1c0.3,0.3,0.5,0.8,0.5,1.3c0,1.1-1,2-2.3,2
								c-0.4,0-0.8-0.1-1.2-0.3c-0.3,0.1-0.5,0.4-0.5,0.7c0,0.4,0.3,0.7,0.8,0.7h1.3c1.2,0,2,0.7,2,1.7c0,1.2-1,1.9-2.5,1.9
								C182.6,300.5,181.7,299.4,181.5,298.8z M184.3,299.7c0.8,0,1.5-0.3,1.5-1c0-0.6-0.5-0.9-1.2-0.9h-1.1l-1,1.1
								C182.8,299.2,183.4,299.7,184.3,299.7z M184.2,295c0.7,0,1.3-0.5,1.3-1.2s-0.6-1.2-1.3-1.2s-1.3,0.5-1.3,1.2
								C182.9,294.6,183.5,295,184.2,295z"/>
						</g>
						<g class="st2">
							<path class="st3" d="M187.8,295c0-1.8,1.3-3.1,2.9-3.1c1.6,0,2.7,1.2,2.7,2.9c0,0.1,0,0.3,0,0.4h-4.6c0.1,1.2,0.9,2,2,2
								c0.7,0,1.4-0.4,1.6-0.9h1c-0.2,1.1-1.3,1.8-2.6,1.8C189,298.1,187.8,296.8,187.8,295z M192.4,294.5c-0.1-1-0.8-1.7-1.7-1.7
								s-1.7,0.7-1.9,1.7H192.4z"/>
						</g>
					</g>
					<g id="Ellipse_14">
						<circle class="st3" cx="62.5" cy="294.5" r="1.5"/>
					</g>
				</g>
				<g id="Group_27">
					<g id="Jet_take_off">
						<g class="st2">
							<path class="st3" d="M68.6,277.7h1l0,0c0,1,0.5,1.5,1.4,1.5s1.4-0.6,1.4-1.5v-6.1h1v6.1c0,1.5-0.9,2.4-2.4,2.4
								S68.6,279.1,68.6,277.7z"/>
						</g>
						<g class="st2">
							<path class="st3" d="M75,277c0-1.8,1.3-3.1,2.9-3.1s2.7,1.2,2.7,2.9c0,0.1,0,0.3,0,0.4H76c0.1,1.2,0.9,2,2,2
								c0.7,0,1.4-0.4,1.6-0.9h1c-0.2,1.1-1.3,1.8-2.6,1.8C76.3,280.1,75,278.8,75,277z M79.7,276.5c-0.1-1-0.8-1.7-1.7-1.7
								c-0.9,0-1.7,0.7-1.9,1.7H79.7z"/>
						</g>
						<g class="st2">
							<path class="st3" d="M82.7,278.7v-3.8h-1.2V274h0.3c0.7,0,1-0.4,1-1.1v-0.7h0.8v1.8H85v0.8h-1.4v3.6c0,0.5,0.3,0.8,0.7,0.8
								c0.2,0,0.4,0,0.5-0.1v0.8c-0.2,0.1-0.4,0.1-0.7,0.1C83.3,280.1,82.7,279.6,82.7,278.7z"/>
							<path class="st3" d="M90,278.7v-3.8h-1.2V274h0.3c0.7,0,1-0.4,1-1.1v-0.7h0.8v1.8h1.4v0.8h-1.4v3.6c0,0.5,0.3,0.8,0.7,0.8
								c0.2,0,0.4,0,0.5-0.1v0.8c-0.2,0.1-0.4,0.1-0.7,0.1C90.6,280.1,90,279.6,90,278.7z"/>
						</g>
						<g class="st2">
							<path class="st3" d="M93.3,278.4c0-1.2,1-1.9,3.1-2.1H97v-0.2c0-0.8-0.5-1.3-1.3-1.3s-1.2,0.4-1.4,1h-1
								c0.1-1.1,1-1.9,2.3-1.9s2.2,0.8,2.2,2.2v2.8c0,0.4,0.2,0.5,0.5,0.5c0,0,0.1,0,0.2,0v0.7c-0.1,0-0.3,0.1-0.5,0.1
								c-0.5,0-1-0.3-1.1-0.9l0,0h-0.1c-0.4,0.6-1,1-1.9,1C94.1,280.1,93.3,279.5,93.3,278.4z M95.3,279.3c1.1,0,1.8-0.8,1.8-2V277
								h-0.5c-1.5,0.1-2.2,0.6-2.2,1.3C94.3,279,94.7,279.3,95.3,279.3z"/>
						</g>
						<g class="st2">
							<path class="st3" d="M99.8,271.4h0.9v5.2h0.1l2.6-2.6h1.3l-2.4,2.3l2.4,3.6h-1.1l-2-3l-0.9,0.9v2.1h-0.9V271.4z"/>
						</g>
						<g class="st2">
							<path class="st3" d="M105.4,277c0-1.8,1.3-3.1,2.9-3.1s2.7,1.2,2.7,2.9c0,0.1,0,0.3,0,0.4h-4.6c0.1,1.2,0.9,2,2,2
								c0.7,0,1.4-0.4,1.6-0.9h1c-0.2,1.1-1.3,1.8-2.6,1.8C106.7,280.1,105.4,278.8,105.4,277z M110.1,276.5c-0.1-1-0.8-1.7-1.7-1.7
								s-1.7,0.7-1.9,1.7H110.1z"/>
						</g>
						<g class="st2">
							<path class="st3" d="M115.5,277c0-1.8,1.3-3.1,3-3.1s3,1.3,3,3.1c0,1.8-1.3,3.1-3,3.1S115.5,278.8,115.5,277z M118.5,279.2
								c1.2,0,2.1-1,2.1-2.2s-0.9-2.2-2.1-2.2s-2.1,1-2.1,2.2C116.5,278.3,117.3,279.2,118.5,279.2z"/>
						</g>
						<g class="st2">
							<path class="st3" d="M123.5,274.9h-1.2V274h1.2v-1.1c0-1.1,0.8-1.7,1.6-1.7c0.4,0,0.8,0.1,1,0.3l-0.3,0.7
								c-0.2-0.1-0.4-0.1-0.6-0.1c-0.5,0-0.8,0.3-0.8,0.8v1.1h2.1v-1.1c0-1.1,0.8-1.7,1.6-1.7c0.4,0,0.8,0.1,1,0.3l-0.3,0.7
								c-0.2-0.1-0.4-0.1-0.6-0.1c-0.5,0-0.8,0.3-0.8,0.8v1.1h1.4v0.8h-1.4v5.1h-0.9v-5.1h-2.1v5.1h-0.9L123.5,274.9L123.5,274.9z"
								/>
						</g>
					</g>
					<g id="Ellipse_14-2">
						<circle class="st3" cx="62.5" cy="276.5" r="1.5"/>
					</g>
				</g>
			</g>
		</g>
		<g id="Group_104">
			<g id="Ellipse_18">
				<circle class="st4" cx="127" cy="89" r="89"/>
			</g>
			<g id="Recommended_Duration:_Not_safe_for_any_without_proper_PPE">
				<g class="st2">
					<path class="st3" d="M65.1,51.5h4c2.1,0,3.6,1.4,3.6,3.2c0,1.4-0.8,2.4-1.9,2.8L73,62h-2.2l-2-4h-1.5v4h-2.1V51.5H65.1z
						 M68.9,56.2c1,0,1.6-0.6,1.6-1.5s-0.6-1.5-1.6-1.5h-1.7v3H68.9z"/>
				</g>
				<g class="st2">
					<path class="st3" d="M73.6,58.2c0-2.3,1.7-4,3.9-4c2.1,0,3.7,1.5,3.7,3.7c0,0.2,0,0.4,0,0.7h-5.4c0.1,1.1,0.9,1.8,1.9,1.8
						c0.7,0,1.3-0.3,1.5-0.9h2.1c-0.3,1.6-1.8,2.6-3.5,2.6C75.4,62.2,73.6,60.6,73.6,58.2z M79.1,57.4c-0.1-0.9-0.8-1.5-1.5-1.5
						c-0.8,0-1.6,0.6-1.8,1.5H79.1z"/>
				</g>
				<g class="st2">
					<path class="st3" d="M82.5,58.2c0-2.3,1.6-4,3.9-4c2,0,3.4,1.2,3.6,2.9h-2.1c-0.1-0.6-0.7-1.1-1.5-1.1c-1.1,0-1.8,0.9-1.8,2.2
						s0.8,2.2,1.8,2.2c0.9,0,1.4-0.5,1.5-1.1H90c-0.2,1.7-1.6,2.9-3.6,2.9C84.1,62.2,82.5,60.5,82.5,58.2z"/>
				</g>
				<g class="st2">
					<path class="st3" d="M91.1,58.2c0-2.3,1.8-4,4-4s4,1.6,4,4s-1.8,4-4,4S91.1,60.6,91.1,58.2z M95.1,60.4c1.1,0,1.9-0.9,1.9-2.2
						S96.2,56,95.1,56s-1.9,0.9-1.9,2.2S94,60.4,95.1,60.4z"/>
					<path class="st3" d="M104,56.1c-0.7,0-1.3,0.5-1.3,1.6V62h-2v-7.5h1.7l0.2,1h0.1c0.3-0.7,1-1.2,2-1.2s1.8,0.5,2.1,1.3h0.1
						c0.4-0.9,1.2-1.3,2.2-1.3c1.5,0,2.6,1,2.6,3V62h-2v-4.5c0-1-0.5-1.5-1.2-1.5s-1.3,0.5-1.3,1.6V62h-2v-4.5
						C105.2,56.5,104.7,56.1,104,56.1z"/>
					<path class="st3" d="M116.8,56.1c-0.7,0-1.3,0.5-1.3,1.6V62h-2v-7.5h1.7l0.2,1h0.1c0.3-0.7,1-1.2,2-1.2s1.8,0.5,2.1,1.3h0.1
						c0.4-0.9,1.2-1.3,2.2-1.3c1.5,0,2.6,1,2.6,3V62h-2v-4.5c0-1-0.5-1.5-1.2-1.5s-1.3,0.5-1.3,1.6V62h-2v-4.5
						C118,56.5,117.5,56.1,116.8,56.1z"/>
					<path class="st3" d="M126.1,58.2c0-2.3,1.7-4,3.9-4c2.1,0,3.7,1.5,3.7,3.7c0,0.2,0,0.4,0,0.7h-5.4c0.1,1.1,0.9,1.8,1.9,1.8
						c0.7,0,1.3-0.3,1.5-0.9h2.1c-0.3,1.6-1.8,2.6-3.5,2.6C127.8,62.2,126.1,60.6,126.1,58.2z M131.5,57.4c-0.1-0.9-0.8-1.5-1.5-1.5
						c-0.8,0-1.6,0.6-1.8,1.5H131.5z"/>
					<path class="st3" d="M138.7,56c-0.8,0-1.6,0.6-1.6,1.8V62h-2v-7.5h1.7l0.2,1h0.1c0.3-0.6,1-1.2,2.2-1.2c1.7,0,2.9,1.1,2.9,3.1
						V62h-2v-4.3C140.2,56.6,139.6,56,138.7,56z"/>
					<path class="st3" d="M149.8,62l-0.2-1.1h-0.1c-0.4,0.8-1.4,1.3-2.4,1.3c-1.9,0-3.4-1.6-3.4-4c0-2.3,1.5-4,3.4-4
						c1,0,1.8,0.5,2.2,1h0.1v-4h2V62H149.8z M147.7,60.4c1.1,0,1.8-0.8,1.8-2.2s-0.7-2.2-1.8-2.2s-1.8,0.9-1.8,2.2
						C145.8,59.6,146.6,60.4,147.7,60.4z"/>
					<path class="st3" d="M153,58.2c0-2.3,1.7-4,3.9-4c2.1,0,3.7,1.5,3.7,3.7c0,0.2,0,0.4,0,0.7h-5.4c0.1,1.1,0.9,1.8,1.9,1.8
						c0.7,0,1.3-0.3,1.5-0.9h2.1c-0.3,1.6-1.8,2.6-3.5,2.6C154.7,62.2,153,60.6,153,58.2z M158.4,57.4c-0.1-0.9-0.8-1.5-1.5-1.5
						c-0.8,0-1.6,0.6-1.8,1.5H158.4z"/>
					<path class="st3" d="M167.9,62l-0.2-1.1h-0.1c-0.4,0.8-1.3,1.3-2.4,1.3c-1.9,0-3.4-1.6-3.4-4c0-2.3,1.5-4,3.4-4
						c1,0,1.8,0.5,2.2,1h0.1v-4h2V62H167.9z M165.7,60.4c1.1,0,1.8-0.8,1.8-2.2s-0.7-2.2-1.8-2.2s-1.8,0.9-1.8,2.2
						C163.9,59.6,164.7,60.4,165.7,60.4z"/>
				</g>
				<g class="st2">
					<path class="st3" d="M65.1,72.5h3.5c3.4,0,5.4,2.1,5.4,5.2s-2,5.2-5.4,5.2h-3.5V72.5z M68.6,81.2c2.2,0,3.4-1.3,3.4-3.5
						s-1.2-3.4-3.4-3.4h-1.4v6.9H68.6z"/>
				</g>
				<g class="st2">
					<path class="st3" d="M75.7,80v-4.6h2v4.3c0,1.1,0.6,1.7,1.4,1.7s1.5-0.6,1.5-1.8v-4.2h2V83h-1.7l-0.2-1h-0.1
						c-0.3,0.5-1,1.2-2.1,1.2C76.9,83.2,75.7,82.1,75.7,80z"/>
				</g>
				<g class="st2">
					<path class="st3" d="M84.4,75.5h1.7l0.2,1.1h0.1c0.3-0.7,1-1.2,2.1-1.2c0.2,0,0.4,0,0.6,0v2c-0.2,0-0.4,0-0.5,0
						c-1.3,0-2.1,0.8-2.1,2.4V83h-2L84.4,75.5L84.4,75.5z"/>
				</g>
				<g class="st2">
					<path class="st3" d="M89.8,81c0-1.5,1.3-2.4,3.8-2.6l0.7-0.1v-0.2c0-0.7-0.5-1.2-1.1-1.2s-1.1,0.3-1.2,1h-2
						c0.1-1.5,1.4-2.6,3.3-2.6s3.1,1.2,3.1,3V81c0,0.4,0.1,0.5,0.6,0.5h0.2V83c-0.2,0.1-0.5,0.1-0.7,0.1c-0.7,0-1.4-0.3-1.7-1.2
						h-0.1c-0.5,0.7-1.3,1.2-2.4,1.2C90.7,83.2,89.8,82.3,89.8,81z M92.7,81.5c1,0,1.6-0.8,1.6-1.8v-0.1h-0.6
						c-1.3,0.1-1.9,0.5-1.9,1.2C91.8,81.3,92.2,81.5,92.7,81.5z"/>
				</g>
				<g class="st2">
					<path class="st3" d="M98.8,80.8v-3.6h-1.5v-1.7h0.2c0.9,0,1.4-0.6,1.5-1.6v-0.6h1.7v2.2h1.8v1.7h-1.8v3.3c0,0.6,0.4,1,0.9,1
						c0.2,0,0.4,0,0.6-0.1V83c-0.3,0.1-0.7,0.1-1,0.1C99.7,83.2,98.8,82.2,98.8,80.8z"/>
				</g>
				<g class="st2">
					<path class="st3" d="M104.9,72.1c0.7,0,1.2,0.5,1.2,1.2s-0.6,1.2-1.2,1.2s-1.2-0.5-1.2-1.2C103.7,72.6,104.2,72.1,104.9,72.1z
						 M103.9,75.5h2V83h-2V75.5z"/>
					<path class="st3" d="M107.5,79.2c0-2.3,1.8-4,4-4s4,1.6,4,4s-1.8,4-4,4S107.5,81.6,107.5,79.2z M111.5,81.4
						c1.1,0,1.9-0.9,1.9-2.2c0-1.3-0.8-2.2-1.9-2.2s-1.9,0.9-1.9,2.2C109.5,80.5,110.4,81.4,111.5,81.4z"/>
				</g>
				<g class="st2">
					<path class="st3" d="M120.6,77c-0.8,0-1.6,0.6-1.6,1.8V83h-2v-7.5h1.7l0.2,1h0.1c0.3-0.6,1-1.2,2.2-1.2c1.7,0,2.9,1.1,2.9,3.1
						V83h-2v-4.3C122,77.6,121.4,77,120.6,77z"/>
				</g>
				<g class="st2">
					<path class="st3" d="M126.6,75.4c0.7,0,1.2,0.5,1.2,1.2c0,0.6-0.5,1.2-1.2,1.2s-1.2-0.5-1.2-1.2S125.9,75.4,126.6,75.4z
						 M125.4,81.9c0-0.6,0.5-1.2,1.2-1.2s1.2,0.5,1.2,1.2c0,0.6-0.5,1.2-1.2,1.2S125.4,82.6,125.4,81.9z"/>
				</g>
				<g class="st2">
					<path class="st3" d="M133.9,72.5h1.3l5.7,8.4h0.1v-8.4h1.2V83h-1.3l-5.7-8.4h-0.1V83h-1.2V72.5z"/>
					<path class="st3" d="M143.9,79.3c0-2.2,1.6-3.9,3.8-3.9s3.8,1.7,3.8,3.9c0,2.2-1.6,3.9-3.8,3.9S143.9,81.5,143.9,79.3z
						 M147.7,82.1c1.5,0,2.6-1.2,2.6-2.8c0-1.6-1.1-2.8-2.6-2.8s-2.6,1.2-2.6,2.8C145.1,80.8,146.2,82.1,147.7,82.1z"/>
				</g>
				<g class="st2">
					<path class="st3" d="M154.2,81.3v-4.7h-1.5v-1.1h0.3c0.9,0,1.2-0.4,1.2-1.3v-0.8h1v2.2h1.7v1.1h-1.7v4.5c0,0.6,0.3,1,0.9,1
						c0.2,0,0.5,0,0.7-0.1v1c-0.2,0.1-0.5,0.2-0.9,0.2C155,83.2,154.2,82.5,154.2,81.3z"/>
					<path class="st3" d="M162.3,80.7h1.2c0.1,0.8,0.8,1.4,1.7,1.4s1.5-0.4,1.5-1s-0.3-0.9-1.2-1.2l-1-0.3c-1.3-0.4-2-1-2-2.1
						c0-1.2,1.1-2.1,2.6-2.1c1.4,0,2.5,0.9,2.6,2.1h-1.2c-0.1-0.6-0.6-1.1-1.5-1.1c-0.8,0-1.3,0.4-1.3,1.1c0,0.5,0.3,0.8,1.2,1.1
						l1,0.3c1.3,0.4,1.9,1.1,1.9,2.1c0,1.4-1.2,2.2-2.7,2.2S162.3,82.2,162.3,80.7z"/>
				</g>
				<g class="st2">
					<path class="st3" d="M169.6,81c0-1.5,1.3-2.4,3.9-2.6l0.8-0.1V78c0-1-0.6-1.6-1.6-1.6c-0.9,0-1.6,0.5-1.7,1.3h-1.2
						c0.1-1.3,1.3-2.3,2.9-2.3c1.7,0,2.7,1,2.7,2.7v3.5c0,0.5,0.3,0.6,0.7,0.6c0.1,0,0.1,0,0.3,0V83c-0.2,0.1-0.4,0.1-0.6,0.1
						c-0.6,0-1.3-0.3-1.4-1.2l0,0h-0.1c-0.5,0.7-1.3,1.2-2.4,1.2C170.6,83.2,169.6,82.3,169.6,81z M172.1,82.1c1.3,0,2.2-1,2.2-2.5
						v-0.3l-0.7,0.1c-1.9,0.2-2.8,0.7-2.8,1.7C170.8,81.7,171.3,82.1,172.1,82.1z"/>
				</g>
				<g class="st2">
					<path class="st3" d="M178.3,76.6h-1.5v-1.1h1.5v-1.4c0-1.4,1-2.1,2-2.1c0.5,0,1,0.2,1.2,0.3l-0.4,0.9c-0.2-0.1-0.5-0.2-0.7-0.2
						c-0.6,0-1,0.4-1,1v1.4h1.7v1.1h-1.7V83h-1.2L178.3,76.6L178.3,76.6z"/>
				</g>
				<g class="st2">
					<path class="st3" d="M182.1,79.3c0-2.2,1.6-3.9,3.7-3.9c2,0,3.4,1.5,3.4,3.6c0,0.2,0,0.3,0,0.6h-5.8c0.1,1.5,1.1,2.5,2.5,2.5
						c0.9,0,1.8-0.4,2-1.2h1.2c-0.3,1.4-1.6,2.3-3.2,2.3C183.7,83.2,182.1,81.5,182.1,79.3z M187.9,78.6c-0.1-1.3-1-2.1-2.1-2.1
						s-2.2,0.8-2.4,2.1H187.9z"/>
				</g>
				<g class="st2">
					<path class="st3" d="M65.9,97.6h-1.5v-1.1h1.5v-1.4c0-1.4,1-2.1,2-2.1c0.5,0,1,0.2,1.2,0.3l-0.4,0.9C68.5,94.1,68.2,94,68,94
						c-0.6,0-1,0.4-1,1v1.4h1.7v1.1H67v6.4h-1.2L65.9,97.6L65.9,97.6z"/>
				</g>
				<g class="st2">
					<path class="st3" d="M69.7,100.3c0-2.2,1.6-3.9,3.8-3.9c2.1,0,3.8,1.7,3.8,3.9c0,2.2-1.6,3.9-3.8,3.9
						C71.4,104.2,69.7,102.5,69.7,100.3z M73.5,103.1c1.5,0,2.6-1.2,2.6-2.8c0-1.6-1.1-2.8-2.6-2.8s-2.6,1.2-2.6,2.8
						C70.9,101.8,72,103.1,73.5,103.1z"/>
					<path class="st3" d="M79.3,96.5h1l0.1,1.1h0.1c0.3-0.5,0.9-1.2,2.2-1.2c0.2,0,0.3,0,0.4,0v1.2c-0.2,0-0.3,0-0.4,0
						c-1.3,0-2.2,0.8-2.2,2.6v3.7h-1.2V96.5z"/>
				</g>
				<g class="st2">
					<path class="st3" d="M88.2,102c0-1.5,1.3-2.4,3.9-2.6l0.8-0.1V99c0-1-0.6-1.6-1.6-1.6c-0.9,0-1.6,0.5-1.7,1.3h-1.2
						c0.1-1.3,1.3-2.3,2.9-2.3c1.7,0,2.7,1,2.7,2.7v3.5c0,0.5,0.3,0.6,0.7,0.6c0.1,0,0.1,0,0.3,0v0.9c-0.2,0.1-0.4,0.1-0.6,0.1
						c-0.6,0-1.3-0.3-1.4-1.2l0,0h-0.1c-0.5,0.7-1.3,1.2-2.4,1.2C89.2,104.2,88.2,103.3,88.2,102z M90.7,103.1c1.3,0,2.2-1,2.2-2.5
						v-0.3l-0.7,0.1c-1.9,0.2-2.8,0.7-2.8,1.7C89.4,102.7,90,103.1,90.7,103.1z"/>
				</g>
				<g class="st2">
					<path class="st3" d="M99.5,97.5c-1,0-2,0.7-2,2.2v4.3h-1.2v-7.5h1l0.1,1h0.1c0.3-0.5,1-1.1,2.1-1.1c1.6,0,2.8,1,2.8,3v4.6h-1.2
						v-4.5C101.3,98.1,100.5,97.5,99.5,97.5z"/>
				</g>
				<g class="st2">
					<path class="st3" d="M105.2,106.1c0.5,0,1.1-0.3,1.4-1l0.4-1.1l-3.2-7.4h1.3l2.4,5.9h0.1l2.1-5.9h1.3l-3.2,8.7
						c-0.5,1.4-1.5,1.9-2.4,1.9c-0.3,0-0.7-0.1-0.9-0.1v-1C104.6,106,104.9,106.1,105.2,106.1z"/>
					<path class="st3" d="M115.7,96.5h1.1l1.6,5.9h0.1l1.6-5h1.2l1.6,5h0.1l1.6-5.9h1.1l-2.1,7.5h-1.2l-1.6-5.1h-0.1L119,104h-1.2
						L115.7,96.5z"/>
					<path class="st3" d="M127.9,93.5c0.5,0,0.8,0.3,0.8,0.8s-0.4,0.8-0.8,0.8c-0.4,0-0.8-0.3-0.8-0.8
						C127.1,93.9,127.5,93.5,127.9,93.5z M127.3,96.5h1.2v7.5h-1.2V96.5z"/>
				</g>
				<g class="st2">
					<path class="st3" d="M131.5,102.3v-4.7H130v-1.1h0.3c0.9,0,1.2-0.4,1.2-1.3v-0.8h1v2.2h1.7v1.1h-1.7v4.5c0,0.6,0.3,1,0.9,1
						c0.2,0,0.5,0,0.7-0.1v1c-0.2,0.1-0.5,0.2-0.9,0.2C132.3,104.2,131.5,103.5,131.5,102.3z"/>
				</g>
				<g class="st2">
					<path class="st3" d="M139.4,97.5c-1,0-2,0.7-2,2.2v4.3h-1.2V93.2h1.2v4.2h0.1c0.2-0.3,0.9-1,2.1-1c1.6,0,2.8,1,2.8,3v4.6h-1.2
						v-4.5C141.2,98.1,140.4,97.5,139.4,97.5z"/>
				</g>
				<g class="st2">
					<path class="st3" d="M144.4,100.3c0-2.2,1.6-3.9,3.8-3.9s3.8,1.7,3.8,3.9c0,2.2-1.6,3.9-3.8,3.9S144.4,102.5,144.4,100.3z
						 M148.1,103.1c1.5,0,2.6-1.2,2.6-2.8c0-1.6-1.1-2.8-2.6-2.8s-2.6,1.2-2.6,2.8C145.6,101.8,146.6,103.1,148.1,103.1z"/>
				</g>
				<g class="st2">
					<path class="st3" d="M153.8,101.1v-4.6h1.2v4.5c0,1.4,0.8,2,1.7,2c1,0,1.9-0.7,1.9-2.2v-4.3h1.2v7.5h-1l-0.1-1h-0.1
						c-0.3,0.5-1,1.1-2.1,1.1C155,104.2,153.8,103.1,153.8,101.1z"/>
					<path class="st3" d="M162.9,102.3v-4.7h-1.5v-1.1h0.3c0.9,0,1.2-0.4,1.2-1.3v-0.8h1v2.2h1.7v1.1H164v4.5c0,0.6,0.3,1,0.9,1
						c0.2,0,0.5,0,0.7-0.1v1c-0.2,0.1-0.5,0.2-0.9,0.2C163.7,104.2,162.9,103.5,162.9,102.3z"/>
				</g>
				<g class="st2">
					<path class="st3" d="M65.2,117.5h0.9l0.1,1.2h0.1c0.5-0.9,1.5-1.4,2.5-1.4c2,0,3.5,1.7,3.5,3.9c0,2.2-1.5,3.9-3.5,3.9
						c-1,0-1.9-0.5-2.4-1.2h-0.1v4h-1.2L65.2,117.5L65.2,117.5z M68.7,124.1c1.4,0,2.4-1.1,2.4-2.8c0-1.7-1-2.8-2.4-2.8
						s-2.4,1.1-2.4,2.8C66.3,123,67.3,124.1,68.7,124.1z"/>
				</g>
				<g class="st2">
					<path class="st3" d="M74.3,117.5h1l0.1,1.1h0.1c0.3-0.5,0.9-1.2,2.2-1.2c0.2,0,0.3,0,0.4,0v1.2c-0.2,0-0.3,0-0.4,0
						c-1.3,0-2.2,0.8-2.2,2.6v3.7h-1.2V117.5z"/>
				</g>
				<g class="st2">
					<path class="st3" d="M79.1,121.3c0-2.2,1.6-3.9,3.8-3.9c2.1,0,3.8,1.7,3.8,3.9c0,2.2-1.6,3.9-3.8,3.9
						C80.7,125.2,79.1,123.5,79.1,121.3z M82.8,124.1c1.5,0,2.6-1.2,2.6-2.8c0-1.6-1.1-2.8-2.6-2.8s-2.6,1.2-2.6,2.8
						C80.3,122.8,81.3,124.1,82.8,124.1z"/>
				</g>
				<g class="st2">
					<path class="st3" d="M88.6,117.5h0.9l0.1,1.2h0.1c0.5-0.9,1.5-1.4,2.5-1.4c2,0,3.5,1.7,3.5,3.9c0,2.2-1.5,3.9-3.5,3.9
						c-1,0-1.9-0.5-2.4-1.2h-0.1v4h-1.2L88.6,117.5L88.6,117.5z M92.1,124.1c1.4,0,2.4-1.1,2.4-2.8c0-1.7-1-2.8-2.4-2.8
						s-2.4,1.1-2.4,2.8C89.8,123,90.7,124.1,92.1,124.1z"/>
				</g>
				<g class="st2">
					<path class="st3" d="M97.5,121.3c0-2.2,1.6-3.9,3.7-3.9c2,0,3.4,1.5,3.4,3.6c0,0.2,0,0.3,0,0.6h-5.8c0.1,1.5,1.1,2.5,2.5,2.5
						c0.9,0,1.8-0.4,2-1.2h1.2c-0.3,1.4-1.6,2.3-3.2,2.3C99,125.2,97.5,123.5,97.5,121.3z M103.3,120.6c-0.1-1.3-1-2.1-2.1-2.1
						c-1.2,0-2.2,0.8-2.4,2.1H103.3z"/>
					<path class="st3" d="M106.5,117.5h1l0.1,1.1h0.1c0.3-0.5,0.9-1.2,2.2-1.2c0.2,0,0.3,0,0.4,0v1.2c-0.2,0-0.3,0-0.4,0
						c-1.3,0-2.2,0.8-2.2,2.6v3.7h-1.2V117.5z"/>
					<path class="st3" d="M116.1,114.5h3.6c2,0,3.4,1.2,3.4,3.1s-1.4,3.1-3.4,3.1h-2.4v4.2h-1.2V114.5z M119.7,119.6
						c1.3,0,2.2-0.8,2.2-2s-0.9-2-2.2-2h-2.4v4H119.7z"/>
					<path class="st3" d="M125.4,114.5h3.6c2,0,3.4,1.2,3.4,3.1s-1.4,3.1-3.4,3.1h-2.4v4.2h-1.2V114.5z M129.1,119.6
						c1.3,0,2.2-0.8,2.2-2s-0.9-2-2.2-2h-2.4v4H129.1z"/>
					<path class="st3" d="M134.8,114.5h6.5v1.1H136v3.5h4.6v1.1H136v3.7h5.3v1.1h-6.5V114.5z"/>
				</g>
			</g>
		</g>
		<g id="Group_140">
			<g id="_dB_">
				<g class="st2">
					<path class="st3" d="M112.7,562.8c0,3.4,1,6.4,2.6,8.7l-1.6,1c-1.8-2.1-3.3-5.5-3.3-9.7s1.5-7.6,3.3-9.7l1.6,1
						C113.7,556.4,112.7,559.4,112.7,562.8z"/>
				</g>
				<g class="st2">
					<path class="st3" d="M123.5,569l-0.2-1.5h-0.1c-0.6,1.1-1.8,1.7-3.2,1.7c-2.6,0-4.6-2.2-4.6-5.3s2-5.3,4.6-5.3
						c1.4,0,2.4,0.6,2.9,1.3h0.1v-5.4h2.7V569H123.5z M120.6,566.9c1.4,0,2.4-1.1,2.4-3c0-1.8-1-2.9-2.4-2.9s-2.4,1.1-2.4,2.9
						S119.2,566.9,120.6,566.9z"/>
				</g>
				<g class="st2">
					<path class="st3" d="M128.2,555h5.3c2.7,0,4.5,1.6,4.5,3.7c0,1.5-0.9,2.4-1.7,2.8v0.1c1,0.5,2.1,1.7,2.1,3.4
						c0,2.3-1.9,3.9-4.6,3.9h-5.5V555H128.2z M133.3,560.8c1.2,0,2-0.7,2-1.8s-0.8-1.8-2-1.8H131v3.5L133.3,560.8L133.3,560.8z
						 M133.4,566.8c1.2,0,2-0.8,2-1.9c0-1.1-0.8-1.9-2-1.9H131v3.8L133.4,566.8L133.4,566.8z"/>
				</g>
				<g class="st2">
					<path class="st3" d="M141.4,562.8c0-3.4-1-6.4-2.6-8.7l1.6-1c1.8,2.1,3.3,5.5,3.3,9.7s-1.5,7.6-3.3,9.7l-1.6-1
						C140.3,569.2,141.4,566.2,141.4,562.8z"/>
				</g>
			</g>
			<g id="_130">
				<g class="st2">
					<path class="st3" d="M114.9,536.8h-3.2v-2.1h0.8c2,0,2.6-0.9,2.6-2.4v-0.1h2.4V545h-2.7L114.9,536.8L114.9,536.8z"/>
				</g>
				<g class="st2">
					<path class="st3" d="M120.1,541.1h2.6c0.1,1.2,1,1.9,2.3,1.9s2.1-0.7,2.1-1.8s-0.8-1.7-2.2-1.7h-1.2v-2.1h1.1
						c1.2,0,2-0.6,2-1.6s-0.9-1.6-1.9-1.6s-1.9,0.6-2.1,1.5h-2.6c0.1-2.3,2.1-3.8,4.7-3.8c2.7,0,4.6,1.5,4.6,3.6
						c0,1.2-0.7,2.1-1.9,2.7v0.1c1.4,0.4,2.2,1.6,2.2,3c0,2.1-2,3.9-4.9,3.9C122.1,545.2,120.2,543.5,120.1,541.1z"/>
					<path class="st3" d="M132,538.6c0-4.3,1.9-6.7,5.1-6.7c3.3,0,5.1,2.4,5.1,6.7c0,4.2-1.9,6.6-5.1,6.6
						C133.9,545.2,132,542.8,132,538.6z M137.1,543c1.6,0,2.4-1.5,2.4-4.4s-0.8-4.4-2.4-4.4c-1.6,0-2.4,1.5-2.4,4.4
						C134.8,541.5,135.6,543,137.1,543z"/>
				</g>
			</g>
		</g>
		<g id="Group_171">
			<g id="EXAMPLE">
				<g class="st2">
					<path class="st3" d="M94.4,318.5h6.6v1.3h-5.2v3.2h4.4v1.3h-4.4v3.3h5.2v1.3h-6.6V318.5z"/>
					<path class="st3" d="M105.8,323.6l-3.1-5.1h1.7l2.3,3.9h0.1l2.4-3.9h1.7l-3.1,5.1l3.3,5.4h-1.7l-2.5-4.2h-0.1l-2.5,4.2h-1.7
						L105.8,323.6z"/>
					<path class="st3" d="M115.8,318.5h2l3.7,10.5h-1.6l-0.9-2.7h-4.3l-0.9,2.7h-1.6L115.8,318.5z M118.5,324.9l-1.7-4.8h-0.1
						l-1.6,4.8H118.5z"/>
					<path class="st3" d="M123.4,318.5h1.8l3.4,7.2h0.1l3.4-7.2h1.8V329h-1.4v-7.7h-0.1l-3,6.2H128l-3-6.2h-0.1v7.7h-1.4v-10.5
						H123.4z"/>
					<path class="st3" d="M136.7,318.5h3.7c2.1,0,3.5,1.3,3.5,3.2s-1.4,3.2-3.5,3.2h-2.3v4.1h-1.5v-10.5H136.7z M140.4,323.6
						c1.2,0,2-0.7,2-1.9c0-1.1-0.8-1.9-2-1.9h-2.3v3.7L140.4,323.6L140.4,323.6z"/>
					<path class="st3" d="M146.1,318.5h1.5v9.2h5.1v1.3h-6.6V318.5z"/>
					<path class="st3" d="M154.9,318.5h6.6v1.3h-5.2v3.2h4.4v1.3h-4.4v3.3h5.2v1.3h-6.6V318.5z"/>
				</g>
			</g>
		</g>
	</g>
	<g>
		<path class="st3" d="M127.3,387.3c-8,0-15.6-3.8-20.3-10.3l1.4-1.1c4.4,6,11.4,9.5,18.8,9.5c12.9,0,23.4-10.5,23.4-23.4
			s-10.5-23.4-23.4-23.4s-23.4,10.5-23.4,23.4c0,2.9,0.6,5.8,1.7,8.7l-1.7,0.7c-1.2-3.1-1.9-6.2-1.9-9.3c0-13.9,11.3-25.2,25.2-25.2
			s25.2,11.3,25.2,25.2S141.2,387.3,127.3,387.3L127.3,387.3L127.3,387.3z"/>
	</g>
	<g>
		<path class="st3" d="M120.3,372.8c-0.2,0-0.4,0-0.5-0.1c-0.3-0.2-0.5-0.6-0.5-1v-19.1c0-0.4,0.2-0.8,0.5-1s0.7-0.2,1.1,0l17.4,9.6
			c0.4,0.2,0.6,0.6,0.6,1s-0.2,0.8-0.6,1l-17.4,9.6C120.7,372.7,120.5,372.8,120.3,372.8L120.3,372.8L120.3,372.8z M121,353.8v16.8
			l15.2-8.4L121,353.8L121,353.8L121,353.8z M137.4,361.5L137.4,361.5z"/>
	</g>
	<g>
		<circle class="st3" cx="107.5" cy="376.5" r="3.6"/>
	</g>
</g>
</svg>
