<?xml version="1.0" encoding="utf-8"?>
<!-- Generator: Adobe Illustrator 27.5.0, SVG Export Plug-In . SVG Version: 6.00 Build 0)  -->
<svg version="1.1" id="Working_File" xmlns="http://www.w3.org/2000/svg" xmlns:xlink="http://www.w3.org/1999/xlink" x="0px"
	 y="0px" viewBox="0 0 273 714" style="enable-background:new 0 0 273 714;" xml:space="preserve">
<style type="text/css">
	.st0{fill:none;}
	.st1{fill:#122C49;}
	.st2{fill:#00A451;}
	.st3{enable-background:new    ;}
	.st4{fill:#FFFFFF;}
</style>
<g id="Line_128">
	<path d="M137,505.5c-0.8,0-1.5-0.7-1.5-1.5v-12c0-0.8,0.7-1.5,1.5-1.5c0.8,0,1.5,0.7,1.5,1.5v12C138.5,504.8,137.8,505.5,137,505.5
		z"/>
</g>
<g id="Line_129">
	<path d="M137,298.5c-0.8,0-1.5-0.7-1.5-1.5v-12c0-0.8,0.7-1.5,1.5-1.5c0.8,0,1.5,0.7,1.5,1.5v12C138.5,297.8,137.8,298.5,137,298.5
		z"/>
</g>
<g id="Line_130">
	<path d="M137,527.5c-0.8,0-1.5-0.7-1.5-1.5v-12c0-0.8,0.7-1.5,1.5-1.5c0.8,0,1.5,0.7,1.5,1.5v12C138.5,526.8,137.8,527.5,137,527.5
		z"/>
</g>
<g id="Group_192">
	<g id="Ellipse_6">
		<g>
			<circle class="st0" cx="136.5" cy="136.5" r="136.5"/>
		</g>
		<g>
			<path class="st1" d="M136.5,273C61.2,273,0,211.8,0,136.5S61.2,0,136.5,0C211.8,0,273,61.2,273,136.5S211.8,273,136.5,273z
				 M136.5,3C62.9,3,3,62.9,3,136.5S62.9,270,136.5,270S270,210.1,270,136.5S210.1,3,136.5,3z"/>
		</g>
	</g>
	<g id="Ellipse_55">
		<circle class="st2" cx="137" cy="397" r="85"/>
	</g>
	<g id="Group_92">
		<g id="Group_31">
			<g id="Group_116">
				<g id="Group_28">
					<g id="Fireworks">
						<g class="st3">
							<path class="st4" d="M106.2,444.6h4.9v0.9h-4v2.9h3.5v0.9h-3.5v3.7h-1V444.6z"/>
						</g>
						<g class="st3">
							<path class="st4" d="M113,444.6c0.4,0,0.6,0.3,0.6,0.6s-0.3,0.6-0.6,0.6s-0.6-0.3-0.6-0.6S112.6,444.6,113,444.6z M112.5,447
								h0.9v6h-0.9V447z"/>
						</g>
						<g class="st3">
							<path class="st4" d="M115.3,447h0.8l0.1,0.9h0.1c0.2-0.4,0.7-0.9,1.8-0.9c0.1,0,0.2,0,0.3,0v0.9c-0.2,0-0.2,0-0.3,0
								c-1,0-1.7,0.7-1.7,2.1v3h-0.9V447z"/>
						</g>
						<g class="st3">
							<path class="st4" d="M119.1,450c0-1.8,1.3-3.1,2.9-3.1c1.6,0,2.7,1.2,2.7,2.9c0,0.1,0,0.3,0,0.4h-4.6c0.1,1.2,0.9,2,2,2
								c0.7,0,1.4-0.4,1.6-0.9h1c-0.2,1.1-1.3,1.8-2.6,1.8C120.4,453.1,119.1,451.8,119.1,450z M123.8,449.5c-0.1-1-0.8-1.7-1.7-1.7
								c-0.9,0-1.7,0.7-1.9,1.7H123.8z"/>
						</g>
						<g class="st3">
							<path class="st4" d="M125.7,447h0.9l1.2,4.7h0.1l1.3-4h1l1.2,4h0.1l1.3-4.7h0.9l-1.6,6h-1l-1.3-4.1h-0.1l-1.3,4.1h-1
								L125.7,447z"/>
						</g>
						<g class="st3">
							<path class="st4" d="M134.6,450c0-1.8,1.3-3.1,3-3.1s3,1.3,3,3.1c0,1.8-1.3,3.1-3,3.1S134.6,451.8,134.6,450z M137.6,452.2
								c1.2,0,2.1-1,2.1-2.2c0-1.2-0.9-2.2-2.1-2.2s-2.1,1-2.1,2.2C135.5,451.3,136.4,452.2,137.6,452.2z"/>
						</g>
						<g class="st3">
							<path class="st4" d="M142.2,447h0.8l0.1,0.9h0.1c0.2-0.4,0.7-0.9,1.8-0.9c0.1,0,0.2,0,0.3,0v0.9c-0.2,0-0.2,0-0.3,0
								c-1,0-1.7,0.7-1.7,2.1v3h-0.9V447z"/>
						</g>
						<g class="st3">
							<path class="st4" d="M146.5,444.4h0.9v5.2h0.1l2.6-2.6h1.3l-2.4,2.3l2.4,3.6h-1.1l-2-3l-0.9,0.9v2.1h-0.9V444.4z"/>
						</g>
						<g class="st3">
							<path class="st4" d="M152.2,451.2h1c0.1,0.6,0.6,1.1,1.4,1.1c0.7,0,1.2-0.3,1.2-0.8c0-0.5-0.3-0.7-0.9-0.9l-0.8-0.2
								c-1-0.3-1.6-0.8-1.6-1.7c0-1,0.9-1.7,2.1-1.7c1.1,0,2,0.7,2.1,1.7h-1c-0.1-0.5-0.5-0.9-1.2-0.9c-0.6,0-1.1,0.3-1.1,0.9
								c0,0.4,0.3,0.7,1,0.9l0.8,0.2c1.1,0.3,1.5,0.9,1.5,1.7c0,1.1-1,1.7-2.2,1.7C153.3,453.1,152.3,452.3,152.2,451.2z"/>
						</g>
					</g>
					<g id="Ellipse_14">
						<circle class="st4" cx="99.5" cy="449.5" r="1.5"/>
					</g>
				</g>
				<g id="Group_27">
					<g id="Firecrackers">
						<g class="st3">
							<path class="st4" d="M106.2,426.6h4.9v0.9h-4v2.9h3.5v0.9h-3.5v3.7h-1V426.6z"/>
						</g>
						<g class="st3">
							<path class="st4" d="M113,426.6c0.4,0,0.6,0.3,0.6,0.6s-0.3,0.6-0.6,0.6s-0.6-0.3-0.6-0.6S112.6,426.6,113,426.6z M112.5,429
								h0.9v6h-0.9V429z"/>
						</g>
						<g class="st3">
							<path class="st4" d="M115.3,429h0.8l0.1,0.9h0.1c0.2-0.4,0.7-0.9,1.8-0.9c0.1,0,0.2,0,0.3,0v0.9c-0.2,0-0.2,0-0.3,0
								c-1,0-1.7,0.7-1.7,2.1v3h-0.9V429z"/>
						</g>
						<g class="st3">
							<path class="st4" d="M119.1,432c0-1.8,1.3-3.1,2.9-3.1c1.6,0,2.7,1.2,2.7,2.9c0,0.1,0,0.3,0,0.4h-4.6c0.1,1.2,0.9,2,2,2
								c0.7,0,1.4-0.4,1.6-0.9h1c-0.2,1.1-1.3,1.8-2.6,1.8C120.4,435.1,119.1,433.8,119.1,432z M123.8,431.5c-0.1-1-0.8-1.7-1.7-1.7
								c-0.9,0-1.7,0.7-1.9,1.7H123.8z"/>
						</g>
						<g class="st3">
							<path class="st4" d="M126.1,432c0-1.8,1.2-3.1,3-3.1c1.4,0,2.5,0.8,2.7,2.1h-1c-0.2-0.7-0.8-1.2-1.7-1.2c-1.2,0-2,0.9-2,2.2
								c0,1.3,0.8,2.2,2,2.2c0.9,0,1.5-0.5,1.7-1.2h1c-0.2,1.2-1.3,2.1-2.7,2.1C127.4,435.1,126.1,433.8,126.1,432z"/>
						</g>
						<g class="st3">
							<path class="st4" d="M133.2,429h0.8l0.1,0.9h0.1c0.2-0.4,0.7-0.9,1.8-0.9c0.1,0,0.2,0,0.3,0v0.9c-0.2,0-0.2,0-0.3,0
								c-1,0-1.7,0.7-1.7,2.1v3h-0.9V429z"/>
						</g>
						<g class="st3">
							<path class="st4" d="M137,433.4c0-1.2,1-1.9,3.1-2.1l0.6,0v-0.2c0-0.8-0.5-1.3-1.3-1.3c-0.8,0-1.2,0.4-1.4,1h-1
								c0.1-1.1,1-1.9,2.3-1.9c1.3,0,2.2,0.8,2.2,2.2v2.8c0,0.4,0.2,0.5,0.5,0.5c0,0,0.1,0,0.2,0v0.7c-0.1,0-0.3,0.1-0.5,0.1
								c-0.5,0-1-0.3-1.1-0.9v0h-0.1c-0.4,0.6-1,1-1.9,1C137.8,435.1,137,434.5,137,433.4z M139,434.3c1.1,0,1.8-0.8,1.8-2V432
								l-0.5,0c-1.5,0.1-2.2,0.6-2.2,1.3C138,434,138.4,434.3,139,434.3z"/>
						</g>
						<g class="st3">
							<path class="st4" d="M143.2,432c0-1.8,1.2-3.1,3-3.1c1.4,0,2.5,0.8,2.7,2.1h-1c-0.2-0.7-0.8-1.2-1.7-1.2c-1.2,0-2,0.9-2,2.2
								c0,1.3,0.8,2.2,2,2.2c0.9,0,1.5-0.5,1.7-1.2h1c-0.2,1.2-1.3,2.1-2.7,2.1C144.5,435.1,143.2,433.8,143.2,432z"/>
						</g>
						<g class="st3">
							<path class="st4" d="M150.4,426.4h0.9v5.2h0.1l2.6-2.6h1.3l-2.4,2.3l2.4,3.6h-1.1l-2-3l-0.9,0.9v2.1h-0.9V426.4z"/>
						</g>
						<g class="st3">
							<path class="st4" d="M155.9,432c0-1.8,1.3-3.1,2.9-3.1c1.6,0,2.7,1.2,2.7,2.9c0,0.1,0,0.3,0,0.4h-4.6c0.1,1.2,0.9,2,2,2
								c0.7,0,1.4-0.4,1.6-0.9h1c-0.2,1.1-1.3,1.8-2.6,1.8C157.2,435.1,155.9,433.8,155.9,432z M160.6,431.5c-0.1-1-0.8-1.7-1.7-1.7
								c-0.9,0-1.7,0.7-1.9,1.7H160.6z"/>
						</g>
						<g class="st3">
							<path class="st4" d="M163.2,429h0.8l0.1,0.9h0.1c0.2-0.4,0.7-0.9,1.8-0.9c0.1,0,0.2,0,0.3,0v0.9c-0.2,0-0.2,0-0.3,0
								c-1,0-1.7,0.7-1.7,2.1v3h-0.9V429z"/>
						</g>
						<g class="st3">
							<path class="st4" d="M167,433.2h1c0.1,0.6,0.6,1.1,1.4,1.1c0.7,0,1.2-0.3,1.2-0.8c0-0.5-0.3-0.7-0.9-0.9l-0.8-0.2
								c-1-0.3-1.6-0.8-1.6-1.7c0-1,0.9-1.7,2.1-1.7c1.1,0,2,0.7,2.1,1.7h-1c-0.1-0.5-0.5-0.9-1.2-0.9c-0.6,0-1.1,0.3-1.1,0.9
								c0,0.4,0.3,0.7,1,0.9l0.8,0.2c1.1,0.3,1.5,0.9,1.5,1.7c0,1.1-1,1.7-2.2,1.7C168,435.1,167,434.3,167,433.2z"/>
						</g>
					</g>
					<g id="Ellipse_14-2">
						<circle class="st4" cx="99.5" cy="431.5" r="1.5"/>
					</g>
				</g>
			</g>
		</g>
	</g>
	<g id="Group_93">
		<g id="Ellipse_18">
			<circle class="st1" cx="137" cy="625" r="89"/>
		</g>
		<g id="Recommended_Duration:_Not_safe_for_any_without_proper_PPE">
			<g class="st3">
				<path class="st4" d="M75.1,587.5h4c2.1,0,3.6,1.4,3.6,3.2c0,1.4-0.8,2.4-1.9,2.8L83,598h-2.2l-2-4h-1.5v4h-2.1V587.5z
					 M78.9,592.2c1,0,1.6-0.6,1.6-1.5c0-0.9-0.6-1.5-1.6-1.5h-1.7v3H78.9z"/>
			</g>
			<g class="st3">
				<path class="st4" d="M83.6,594.2c0-2.3,1.7-4,3.9-4c2.1,0,3.7,1.5,3.7,3.7c0,0.2,0,0.4,0,0.7h-5.4c0.1,1.1,0.9,1.8,1.9,1.8
					c0.7,0,1.3-0.3,1.5-0.9h2.1c-0.3,1.6-1.8,2.6-3.5,2.6C85.4,598.2,83.6,596.6,83.6,594.2z M89.1,593.4c-0.1-0.9-0.8-1.5-1.5-1.5
					c-0.8,0-1.6,0.6-1.8,1.5H89.1z"/>
			</g>
			<g class="st3">
				<path class="st4" d="M92.5,594.2c0-2.3,1.6-4,3.9-4c2,0,3.4,1.2,3.6,2.9h-2.1c-0.1-0.6-0.7-1.1-1.5-1.1c-1.1,0-1.8,0.9-1.8,2.2
					c0,1.3,0.8,2.2,1.8,2.2c0.9,0,1.4-0.5,1.5-1.1h2.1c-0.2,1.7-1.6,2.9-3.6,2.9C94.1,598.2,92.5,596.5,92.5,594.2z"/>
			</g>
			<g class="st3">
				<path class="st4" d="M101.1,594.2c0-2.3,1.8-4,4-4s4,1.6,4,4c0,2.4-1.8,4-4,4S101.1,596.6,101.1,594.2z M105.1,596.4
					c1.1,0,1.9-0.9,1.9-2.2c0-1.3-0.8-2.2-1.9-2.2c-1.1,0-1.9,0.9-1.9,2.2C103.2,595.5,104,596.4,105.1,596.4z"/>
				<path class="st4" d="M114,592.1c-0.7,0-1.3,0.5-1.3,1.6v4.3h-2v-7.5h1.7l0.2,1h0.1c0.3-0.7,1-1.2,2-1.2c1,0,1.8,0.5,2.1,1.3h0.1
					c0.4-0.9,1.2-1.3,2.2-1.3c1.5,0,2.6,1,2.6,3v4.8h-2v-4.5c0-1-0.5-1.5-1.2-1.5c-0.7,0-1.3,0.5-1.3,1.6v4.3h-2v-4.5
					C115.2,592.5,114.7,592.1,114,592.1z"/>
				<path class="st4" d="M126.8,592.1c-0.7,0-1.3,0.5-1.3,1.6v4.3h-2v-7.5h1.7l0.2,1h0.1c0.3-0.7,1-1.2,2-1.2c1,0,1.8,0.5,2.1,1.3
					h0.1c0.4-0.9,1.2-1.3,2.2-1.3c1.5,0,2.6,1,2.6,3v4.8h-2v-4.5c0-1-0.5-1.5-1.2-1.5c-0.7,0-1.3,0.5-1.3,1.6v4.3h-2v-4.5
					C128,592.5,127.5,592.1,126.8,592.1z"/>
				<path class="st4" d="M136.1,594.2c0-2.3,1.7-4,3.9-4c2.1,0,3.7,1.5,3.7,3.7c0,0.2,0,0.4,0,0.7h-5.4c0.1,1.1,0.9,1.8,1.9,1.8
					c0.7,0,1.3-0.3,1.5-0.9h2.1c-0.3,1.6-1.8,2.6-3.5,2.6C137.8,598.2,136.1,596.6,136.1,594.2z M141.5,593.4
					c-0.1-0.9-0.8-1.5-1.5-1.5c-0.8,0-1.6,0.6-1.8,1.5H141.5z"/>
				<path class="st4" d="M148.7,592c-0.8,0-1.6,0.6-1.6,1.8v4.2h-2v-7.5h1.7l0.2,1h0.1c0.3-0.6,1-1.2,2.2-1.2c1.7,0,2.9,1.1,2.9,3.1
					v4.6h-2v-4.3C150.2,592.6,149.6,592,148.7,592z"/>
				<path class="st4" d="M159.8,598l-0.2-1.1h-0.1c-0.4,0.8-1.4,1.3-2.4,1.3c-1.9,0-3.4-1.6-3.4-4c0-2.3,1.5-4,3.4-4
					c1,0,1.8,0.5,2.2,1h0.1v-4h2V598H159.8z M157.7,596.4c1.1,0,1.8-0.8,1.8-2.2c0-1.4-0.7-2.2-1.8-2.2s-1.8,0.9-1.8,2.2
					C155.8,595.6,156.6,596.4,157.7,596.4z"/>
				<path class="st4" d="M163,594.2c0-2.3,1.7-4,3.9-4c2.1,0,3.7,1.5,3.7,3.7c0,0.2,0,0.4,0,0.7h-5.4c0.1,1.1,0.9,1.8,1.9,1.8
					c0.7,0,1.3-0.3,1.5-0.9h2.1c-0.3,1.6-1.8,2.6-3.5,2.6C164.7,598.2,163,596.6,163,594.2z M168.4,593.4c-0.1-0.9-0.8-1.5-1.5-1.5
					c-0.8,0-1.6,0.6-1.8,1.5H168.4z"/>
				<path class="st4" d="M177.9,598l-0.2-1.1h-0.1c-0.4,0.8-1.3,1.3-2.4,1.3c-1.9,0-3.4-1.6-3.4-4c0-2.3,1.5-4,3.4-4
					c1,0,1.8,0.5,2.2,1h0.1v-4h2V598H177.9z M175.7,596.4c1.1,0,1.8-0.8,1.8-2.2c0-1.4-0.7-2.2-1.8-2.2c-1.1,0-1.8,0.9-1.8,2.2
					C173.9,595.6,174.7,596.4,175.7,596.4z"/>
			</g>
			<g class="st3">
				<path class="st4" d="M75.1,608.5h3.5c3.4,0,5.4,2.1,5.4,5.2s-2,5.2-5.4,5.2h-3.5V608.5z M78.6,617.2c2.2,0,3.4-1.3,3.4-3.5
					s-1.2-3.4-3.4-3.4h-1.4v6.9H78.6z"/>
			</g>
			<g class="st3">
				<path class="st4" d="M85.7,616v-4.6h2v4.3c0,1.1,0.6,1.7,1.4,1.7s1.5-0.6,1.5-1.8v-4.2h2v7.5h-1.7l-0.2-1h-0.1
					c-0.3,0.5-1,1.2-2.1,1.2C86.9,619.2,85.7,618.1,85.7,616z"/>
			</g>
			<g class="st3">
				<path class="st4" d="M94.4,611.5h1.7l0.2,1.1h0.1c0.3-0.7,1-1.2,2.1-1.2c0.2,0,0.4,0,0.6,0v2c-0.2,0-0.4,0-0.5,0
					c-1.3,0-2.1,0.8-2.1,2.4v3.3h-2V611.5z"/>
			</g>
			<g class="st3">
				<path class="st4" d="M99.8,617c0-1.5,1.3-2.4,3.8-2.6l0.7-0.1v-0.2c0-0.7-0.5-1.2-1.1-1.2c-0.6,0-1.1,0.3-1.2,1h-2
					c0.1-1.5,1.4-2.6,3.3-2.6c1.9,0,3.1,1.2,3.1,3v2.8c0,0.4,0.1,0.5,0.6,0.5l0.2,0v1.5c-0.2,0.1-0.5,0.1-0.7,0.1
					c-0.7,0-1.4-0.3-1.7-1.2h-0.1c-0.5,0.7-1.3,1.2-2.4,1.2C100.7,619.2,99.8,618.3,99.8,617z M102.7,617.5c1,0,1.6-0.8,1.6-1.8
					v-0.1l-0.6,0c-1.3,0.1-1.9,0.5-1.9,1.2C101.8,617.3,102.2,617.5,102.7,617.5z"/>
			</g>
			<g class="st3">
				<path class="st4" d="M108.8,616.8v-3.6h-1.5v-1.7h0.2c0.9,0,1.4-0.6,1.5-1.6l0-0.6h1.7v2.2h1.8v1.7h-1.8v3.3c0,0.6,0.4,1,0.9,1
					c0.2,0,0.4,0,0.6-0.1v1.7c-0.3,0.1-0.7,0.1-1,0.1C109.7,619.2,108.8,618.2,108.8,616.8z"/>
			</g>
			<g class="st3">
				<path class="st4" d="M114.9,608.1c0.7,0,1.2,0.5,1.2,1.2c0,0.7-0.6,1.2-1.2,1.2s-1.2-0.5-1.2-1.2
					C113.7,608.6,114.2,608.1,114.9,608.1z M113.9,611.5h2v7.5h-2V611.5z"/>
				<path class="st4" d="M117.5,615.2c0-2.3,1.8-4,4-4s4,1.6,4,4c0,2.4-1.8,4-4,4S117.5,617.6,117.5,615.2z M121.5,617.4
					c1.1,0,1.9-0.9,1.9-2.2c0-1.3-0.8-2.2-1.9-2.2c-1.1,0-1.9,0.9-1.9,2.2C119.5,616.5,120.4,617.4,121.5,617.4z"/>
			</g>
			<g class="st3">
				<path class="st4" d="M130.6,613c-0.8,0-1.6,0.6-1.6,1.8v4.2h-2v-7.5h1.7l0.2,1h0.1c0.3-0.6,1-1.2,2.2-1.2c1.7,0,2.9,1.1,2.9,3.1
					v4.6h-2v-4.3C132,613.6,131.4,613,130.6,613z"/>
			</g>
			<g class="st3">
				<path class="st4" d="M136.6,611.4c0.7,0,1.2,0.5,1.2,1.2c0,0.6-0.5,1.2-1.2,1.2c-0.7,0-1.2-0.5-1.2-1.2
					C135.4,611.9,135.9,611.4,136.6,611.4z M135.4,617.9c0-0.6,0.5-1.2,1.2-1.2c0.7,0,1.2,0.5,1.2,1.2c0,0.6-0.5,1.2-1.2,1.2
					C135.9,619.1,135.4,618.6,135.4,617.9z"/>
			</g>
			<g class="st3">
				<path class="st4" d="M143.9,608.5h1.3l5.7,8.4h0.1v-8.4h1.2V619h-1.3l-5.7-8.4h-0.1v8.4h-1.2V608.5z"/>
				<path class="st4" d="M153.9,615.3c0-2.2,1.6-3.9,3.8-3.9s3.8,1.7,3.8,3.9c0,2.2-1.6,3.9-3.8,3.9S153.9,617.5,153.9,615.3z
					 M157.7,618.1c1.5,0,2.6-1.2,2.6-2.8c0-1.6-1.1-2.8-2.6-2.8s-2.6,1.2-2.6,2.8C155.1,616.8,156.2,618.1,157.7,618.1z"/>
			</g>
			<g class="st3">
				<path class="st4" d="M164.2,617.3v-4.7h-1.5v-1.1h0.3c0.9,0,1.2-0.4,1.2-1.3l0-0.8h1v2.2h1.7v1.1h-1.7v4.5c0,0.6,0.3,1,0.9,1
					c0.2,0,0.5,0,0.7-0.1v1c-0.2,0.1-0.5,0.2-0.9,0.2C165,619.2,164.2,618.5,164.2,617.3z"/>
				<path class="st4" d="M172.3,616.7h1.2c0.1,0.8,0.8,1.4,1.7,1.4c0.9,0,1.5-0.4,1.5-1c0-0.6-0.3-0.9-1.2-1.2l-1-0.3
					c-1.3-0.4-2-1-2-2.1c0-1.2,1.1-2.1,2.6-2.1c1.4,0,2.5,0.9,2.6,2.1h-1.2c-0.1-0.6-0.6-1.1-1.5-1.1c-0.8,0-1.3,0.4-1.3,1.1
					c0,0.5,0.3,0.8,1.2,1.1l1,0.3c1.3,0.4,1.9,1.1,1.9,2.1c0,1.4-1.2,2.2-2.7,2.2C173.6,619.2,172.3,618.2,172.3,616.7z"/>
			</g>
			<g class="st3">
				<path class="st4" d="M179.6,617c0-1.5,1.3-2.4,3.9-2.6l0.8-0.1v-0.3c0-1-0.6-1.6-1.6-1.6c-0.9,0-1.6,0.5-1.7,1.3h-1.2
					c0.1-1.3,1.3-2.3,2.9-2.3c1.7,0,2.7,1,2.7,2.7v3.5c0,0.5,0.3,0.6,0.7,0.6c0.1,0,0.1,0,0.3,0v0.9c-0.2,0.1-0.4,0.1-0.6,0.1
					c-0.6,0-1.3-0.3-1.4-1.2v0h-0.1c-0.5,0.7-1.3,1.2-2.4,1.2C180.6,619.2,179.6,618.3,179.6,617z M182.1,618.1c1.3,0,2.2-1,2.2-2.5
					v-0.3l-0.7,0.1c-1.9,0.2-2.8,0.7-2.8,1.7C180.8,617.7,181.3,618.1,182.1,618.1z"/>
			</g>
			<g class="st3">
				<path class="st4" d="M188.3,612.6h-1.5v-1.1h1.5v-1.4c0-1.4,1-2.1,2-2.1c0.5,0,1,0.2,1.2,0.3l-0.4,0.9c-0.2-0.1-0.5-0.2-0.7-0.2
					c-0.6,0-1,0.4-1,1v1.4h1.7v1.1h-1.7v6.4h-1.2V612.6z"/>
			</g>
			<g class="st3">
				<path class="st4" d="M192.1,615.3c0-2.2,1.6-3.9,3.7-3.9c2,0,3.4,1.5,3.4,3.6c0,0.2,0,0.3,0,0.6h-5.8c0.1,1.5,1.1,2.5,2.5,2.5
					c0.9,0,1.8-0.4,2-1.2h1.2c-0.3,1.4-1.6,2.3-3.2,2.3C193.7,619.2,192.1,617.5,192.1,615.3z M197.9,614.6c-0.1-1.3-1-2.1-2.1-2.1
					s-2.2,0.8-2.4,2.1H197.9z"/>
			</g>
			<g class="st3">
				<path class="st4" d="M75.9,633.6h-1.5v-1.1h1.5v-1.4c0-1.4,1-2.1,2-2.1c0.5,0,1,0.2,1.2,0.3l-0.4,0.9c-0.2-0.1-0.5-0.2-0.7-0.2
					c-0.6,0-1,0.4-1,1v1.4h1.7v1.1H77v6.4h-1.2V633.6z"/>
			</g>
			<g class="st3">
				<path class="st4" d="M79.7,636.3c0-2.2,1.6-3.9,3.8-3.9c2.1,0,3.8,1.7,3.8,3.9c0,2.2-1.6,3.9-3.8,3.9
					C81.4,640.2,79.7,638.5,79.7,636.3z M83.5,639.1c1.5,0,2.6-1.2,2.6-2.8c0-1.6-1.1-2.8-2.6-2.8s-2.6,1.2-2.6,2.8
					C80.9,637.8,82,639.1,83.5,639.1z"/>
				<path class="st4" d="M89.3,632.5h1l0.1,1.1h0.1c0.3-0.5,0.9-1.2,2.2-1.2c0.2,0,0.3,0,0.4,0v1.2c-0.2,0-0.3,0-0.4,0
					c-1.3,0-2.2,0.8-2.2,2.6v3.7h-1.2V632.5z"/>
			</g>
			<g class="st3">
				<path class="st4" d="M98.2,638c0-1.5,1.3-2.4,3.9-2.6l0.8-0.1v-0.3c0-1-0.6-1.6-1.6-1.6c-0.9,0-1.6,0.5-1.7,1.3h-1.2
					c0.1-1.3,1.3-2.3,2.9-2.3c1.7,0,2.7,1,2.7,2.7v3.5c0,0.5,0.3,0.6,0.7,0.6c0.1,0,0.1,0,0.3,0v0.9c-0.2,0.1-0.4,0.1-0.6,0.1
					c-0.6,0-1.3-0.3-1.4-1.2v0h-0.1c-0.5,0.7-1.3,1.2-2.4,1.2C99.2,640.2,98.2,639.3,98.2,638z M100.7,639.1c1.3,0,2.2-1,2.2-2.5
					v-0.3l-0.7,0.1c-1.9,0.2-2.8,0.7-2.8,1.7C99.4,638.7,100,639.1,100.7,639.1z"/>
			</g>
			<g class="st3">
				<path class="st4" d="M109.5,633.5c-1,0-2,0.7-2,2.2v4.3h-1.2v-7.5h1l0.1,1h0.1c0.3-0.5,1-1.1,2.1-1.1c1.6,0,2.8,1,2.8,3v4.6
					h-1.2v-4.5C111.3,634.1,110.5,633.5,109.5,633.5z"/>
			</g>
			<g class="st3">
				<path class="st4" d="M115.2,642.1c0.5,0,1.1-0.3,1.4-1l0.4-1.1l-3.2-7.4h1.3l2.4,5.9h0.1l2.1-5.9h1.3l-3.2,8.7
					c-0.5,1.4-1.5,1.9-2.4,1.9c-0.3,0-0.7-0.1-0.9-0.1v-1C114.6,642,114.9,642.1,115.2,642.1z"/>
				<path class="st4" d="M125.7,632.5h1.1l1.6,5.9h0.1l1.6-5h1.2l1.6,5h0.1l1.6-5.9h1.1l-2.1,7.5h-1.2l-1.6-5.1h-0.1L129,640h-1.2
					L125.7,632.5z"/>
				<path class="st4" d="M137.9,629.5c0.5,0,0.8,0.3,0.8,0.8c0,0.5-0.4,0.8-0.8,0.8s-0.8-0.3-0.8-0.8
					C137.1,629.9,137.5,629.5,137.9,629.5z M137.3,632.5h1.2v7.5h-1.2V632.5z"/>
			</g>
			<g class="st3">
				<path class="st4" d="M141.5,638.3v-4.7h-1.5v-1.1h0.3c0.9,0,1.2-0.4,1.2-1.3l0-0.8h1v2.2h1.7v1.1h-1.7v4.5c0,0.6,0.3,1,0.9,1
					c0.2,0,0.5,0,0.7-0.1v1c-0.2,0.1-0.5,0.2-0.9,0.2C142.3,640.2,141.5,639.5,141.5,638.3z"/>
			</g>
			<g class="st3">
				<path class="st4" d="M149.4,633.5c-1,0-2,0.7-2,2.2v4.3h-1.2v-10.8h1.2v4.2h0.1c0.2-0.3,0.9-1,2.1-1c1.6,0,2.8,1,2.8,3v4.6h-1.2
					v-4.5C151.2,634.1,150.4,633.5,149.4,633.5z"/>
			</g>
			<g class="st3">
				<path class="st4" d="M154.4,636.3c0-2.2,1.6-3.9,3.8-3.9s3.8,1.7,3.8,3.9c0,2.2-1.6,3.9-3.8,3.9S154.4,638.5,154.4,636.3z
					 M158.1,639.1c1.5,0,2.6-1.2,2.6-2.8c0-1.6-1.1-2.8-2.6-2.8s-2.6,1.2-2.6,2.8C155.6,637.8,156.6,639.1,158.1,639.1z"/>
			</g>
			<g class="st3">
				<path class="st4" d="M163.8,637.1v-4.6h1.2v4.5c0,1.4,0.8,2,1.7,2c1,0,1.9-0.7,1.9-2.2v-4.3h1.2v7.5h-1l-0.1-1h-0.1
					c-0.3,0.5-1,1.1-2.1,1.1C165,640.2,163.8,639.1,163.8,637.1z"/>
				<path class="st4" d="M172.9,638.3v-4.7h-1.5v-1.1h0.3c0.9,0,1.2-0.4,1.2-1.3l0-0.8h1v2.2h1.7v1.1H174v4.5c0,0.6,0.3,1,0.9,1
					c0.2,0,0.5,0,0.7-0.1v1c-0.2,0.1-0.5,0.2-0.9,0.2C173.7,640.2,172.9,639.5,172.9,638.3z"/>
			</g>
			<g class="st3">
				<path class="st4" d="M75.2,653.5h0.9l0.1,1.2h0.1c0.5-0.9,1.5-1.4,2.5-1.4c2,0,3.5,1.7,3.5,3.9c0,2.2-1.5,3.9-3.5,3.9
					c-1,0-1.9-0.5-2.4-1.2h-0.1v4h-1.2V653.5z M78.7,660.1c1.4,0,2.4-1.1,2.4-2.8c0-1.7-1-2.8-2.4-2.8c-1.4,0-2.4,1.1-2.4,2.8
					C76.3,659,77.3,660.1,78.7,660.1z"/>
			</g>
			<g class="st3">
				<path class="st4" d="M84.3,653.5h1l0.1,1.1h0.1c0.3-0.5,0.9-1.2,2.2-1.2c0.2,0,0.3,0,0.4,0v1.2c-0.2,0-0.3,0-0.4,0
					c-1.3,0-2.2,0.8-2.2,2.6v3.7h-1.2V653.5z"/>
			</g>
			<g class="st3">
				<path class="st4" d="M89.1,657.3c0-2.2,1.6-3.9,3.8-3.9c2.1,0,3.8,1.7,3.8,3.9c0,2.2-1.6,3.9-3.8,3.9
					C90.7,661.2,89.1,659.5,89.1,657.3z M92.8,660.1c1.5,0,2.6-1.2,2.6-2.8c0-1.6-1.1-2.8-2.6-2.8s-2.6,1.2-2.6,2.8
					C90.3,658.8,91.3,660.1,92.8,660.1z"/>
			</g>
			<g class="st3">
				<path class="st4" d="M98.6,653.5h0.9l0.1,1.2h0.1c0.5-0.9,1.5-1.4,2.5-1.4c2,0,3.5,1.7,3.5,3.9c0,2.2-1.5,3.9-3.5,3.9
					c-1,0-1.9-0.5-2.4-1.2h-0.1v4h-1.2V653.5z M102.1,660.1c1.4,0,2.4-1.1,2.4-2.8c0-1.7-1-2.8-2.4-2.8c-1.4,0-2.4,1.1-2.4,2.8
					C99.8,659,100.7,660.1,102.1,660.1z"/>
			</g>
			<g class="st3">
				<path class="st4" d="M107.5,657.3c0-2.2,1.6-3.9,3.7-3.9c2,0,3.4,1.5,3.4,3.6c0,0.2,0,0.3,0,0.6h-5.8c0.1,1.5,1.1,2.5,2.5,2.5
					c0.9,0,1.8-0.4,2-1.2h1.2c-0.3,1.4-1.6,2.3-3.2,2.3C109,661.2,107.5,659.5,107.5,657.3z M113.3,656.6c-0.1-1.3-1-2.1-2.1-2.1
					c-1.2,0-2.2,0.8-2.4,2.1H113.3z"/>
				<path class="st4" d="M116.5,653.5h1l0.1,1.1h0.1c0.3-0.5,0.9-1.2,2.2-1.2c0.2,0,0.3,0,0.4,0v1.2c-0.2,0-0.3,0-0.4,0
					c-1.3,0-2.2,0.8-2.2,2.6v3.7h-1.2V653.5z"/>
				<path class="st4" d="M126.1,650.5h3.6c2,0,3.4,1.2,3.4,3.1c0,1.9-1.4,3.1-3.4,3.1h-2.4v4.2h-1.2V650.5z M129.7,655.6
					c1.3,0,2.2-0.8,2.2-2c0-1.2-0.9-2-2.2-2h-2.4v4H129.7z"/>
				<path class="st4" d="M135.4,650.5h3.6c2,0,3.4,1.2,3.4,3.1c0,1.9-1.4,3.1-3.4,3.1h-2.4v4.2h-1.2V650.5z M139.1,655.6
					c1.3,0,2.2-0.8,2.2-2c0-1.2-0.9-2-2.2-2h-2.4v4H139.1z"/>
				<path class="st4" d="M144.8,650.5h6.5v1.1H146v3.5h4.6v1.1H146v3.7h5.3v1.1h-6.5V650.5z"/>
			</g>
		</g>
	</g>
	<g id="Group_141">
		<g id="_dB_">
			<g class="st3">
				<path d="M151.7,148.8c0,3.4,1,6.4,2.6,8.7l-1.6,1c-1.8-2.1-3.3-5.5-3.3-9.7c0-4.2,1.5-7.6,3.3-9.7l1.6,1
					C152.7,142.4,151.7,145.4,151.7,148.8z"/>
			</g>
			<g class="st3">
				<path d="M162.5,155l-0.2-1.5h-0.1c-0.6,1.1-1.8,1.7-3.2,1.7c-2.6,0-4.6-2.2-4.6-5.3c0-3.1,2-5.3,4.6-5.3c1.4,0,2.4,0.6,2.9,1.3
					h0.1v-5.4h2.7V155H162.5z M159.6,152.9c1.4,0,2.4-1.1,2.4-3c0-1.8-1-2.9-2.4-2.9s-2.4,1.1-2.4,2.9S158.2,152.9,159.6,152.9z"/>
			</g>
			<g class="st3">
				<path d="M167.2,141h5.3c2.7,0,4.5,1.6,4.5,3.7c0,1.5-0.9,2.4-1.7,2.8v0.1c1,0.5,2.1,1.7,2.1,3.4c0,2.3-1.9,3.9-4.6,3.9h-5.5V141
					z M172.3,146.8c1.2,0,2-0.7,2-1.8s-0.8-1.8-2-1.8H170v3.5H172.3z M172.4,152.8c1.2,0,2-0.8,2-1.9c0-1.1-0.8-1.9-2-1.9H170v3.8
					H172.4z"/>
			</g>
			<g class="st3">
				<path d="M180.4,148.8c0-3.4-1-6.4-2.6-8.7l1.6-1c1.8,2.1,3.3,5.5,3.3,9.7s-1.5,7.6-3.3,9.7l-1.6-1
					C179.3,155.2,180.4,152.2,180.4,148.8z"/>
			</g>
		</g>
		<g id="_140-150">
			<g class="st3">
				<path d="M133.7,122.8h-3.2v-2.1h0.8c2,0,2.6-0.9,2.6-2.4v-0.1h2.4V131h-2.7V122.8z"/>
				<path d="M144.7,128.3h-6.1v-1.5l5.7-8.5h2.9v7.9h2.3v2.2h-2.3v2.7h-2.6V128.3z M144.7,126.1V122h-0.1l-2.9,4.1H144.7z"/>
			</g>
			<g class="st3">
				<path d="M151.4,124.6c0-4.3,1.9-6.7,5.1-6.7c3.3,0,5.1,2.4,5.1,6.7c0,4.2-1.9,6.6-5.1,6.6C153.3,131.2,151.4,128.8,151.4,124.6z
					 M156.6,129c1.6,0,2.4-1.5,2.4-4.4c0-2.9-0.8-4.4-2.4-4.4c-1.6,0-2.4,1.5-2.4,4.4C154.2,127.5,155,129,156.6,129z"/>
			</g>
			<g class="st3">
				<path d="M163.3,123.6h6.8v2.3h-6.8V123.6z"/>
			</g>
			<g class="st3">
				<path d="M174.2,122.8h-3.2v-2.1h0.8c2,0,2.6-0.9,2.6-2.4v-0.1h2.4V131h-2.7V122.8z"/>
			</g>
			<g class="st3">
				<path d="M179.4,127.3h2.7c0.1,0.9,0.9,1.7,2.1,1.7c1.2,0,2.1-0.8,2.1-2.1c0-1.3-0.9-2.2-2.2-2.2c-0.8,0-1.7,0.4-2.1,1.2
					l-2.4-0.6l0.7-7.1h8v2.3h-5.8l-0.3,2.8h0.1c0.6-0.5,1.4-0.7,2.3-0.7c2.6,0,4.3,1.9,4.3,4.2c0,2.6-2,4.4-4.9,4.4
					C181.4,131.2,179.5,129.4,179.4,127.3z"/>
				<path d="M191.2,124.6c0-4.3,1.9-6.7,5.1-6.7c3.3,0,5.1,2.4,5.1,6.7c0,4.2-1.9,6.6-5.1,6.6C193.1,131.2,191.2,128.8,191.2,124.6z
					 M196.3,129c1.6,0,2.4-1.5,2.4-4.4c0-2.9-0.8-4.4-2.4-4.4c-1.6,0-2.4,1.5-2.4,4.4C193.9,127.5,194.8,129,196.3,129z"/>
			</g>
		</g>
	</g>
	<g id="Group_180">
		<g id="Group_170">
			<g id="Path_22">
				<path class="st0" d="M222,397c0-46.9-38.1-85-85-85s-85,38.1-85,85H222z"/>
			</g>
		</g>
		<g id="EXAMPLE">
			<g class="st3">
				<path class="st4" d="M104.4,395.5h6.6v1.3h-5.2v3.2h4.4v1.3h-4.4v3.3h5.2v1.3h-6.6V395.5z"/>
				<path class="st4" d="M115.8,400.6l-3.1-5.1h1.7l2.3,3.9h0.1l2.4-3.9h1.7l-3.1,5.1l3.3,5.4h-1.7l-2.5-4.2h-0.1l-2.5,4.2h-1.7
					L115.8,400.6z"/>
				<path class="st4" d="M125.8,395.5h2l3.7,10.5h-1.6l-0.9-2.7h-4.3l-0.9,2.7h-1.6L125.8,395.5z M128.5,401.9l-1.7-4.8h-0.1
					l-1.6,4.8H128.5z"/>
				<path class="st4" d="M133.4,395.5h1.8l3.4,7.2h0.1l3.4-7.2h1.8V406h-1.4v-7.7h-0.1l-3,6.2h-1.4l-3-6.2h-0.1v7.7h-1.4V395.5z"/>
				<path class="st4" d="M146.7,395.5h3.7c2.1,0,3.5,1.3,3.5,3.2s-1.4,3.2-3.5,3.2h-2.3v4.1h-1.5V395.5z M150.4,400.6
					c1.2,0,2-0.7,2-1.9c0-1.1-0.8-1.9-2-1.9h-2.3v3.7H150.4z"/>
				<path class="st4" d="M156.1,395.5h1.5v9.2h5.1v1.3h-6.6V395.5z"/>
				<path class="st4" d="M164.9,395.5h6.6v1.3h-5.2v3.2h4.4v1.3h-4.4v3.3h5.2v1.3h-6.6V395.5z"/>
			</g>
		</g>
	</g>
</g>
<g>
	<path class="st4" d="M138.2,386.5c-8,0-15.6-3.8-20.3-10.3l1.4-1.1c4.4,6,11.4,9.5,18.9,9.5c12.9,0,23.4-10.5,23.4-23.4
		s-10.5-23.4-23.4-23.4s-23.4,10.5-23.4,23.4c0,2.9,0.6,5.8,1.7,8.7l-1.7,0.7c-1.2-3.1-1.9-6.2-1.9-9.3c0-13.9,11.3-25.2,25.2-25.2
		s25.2,11.3,25.2,25.2S152.2,386.5,138.2,386.5L138.2,386.5L138.2,386.5z"/>
</g>
<g>
	<path class="st4" d="M131.2,372c-0.2,0-0.4,0-0.5-0.1c-0.3-0.2-0.5-0.6-0.5-1v-19.1c0-0.4,0.2-0.8,0.5-1s0.7-0.2,1.1,0l17.4,9.6
		c0.4,0.2,0.6,0.6,0.6,1s-0.2,0.8-0.6,1l-17.4,9.6C131.6,371.9,131.4,371.9,131.2,372L131.2,372L131.2,372z M131.9,352.9v16.8
		l15.2-8.4L131.9,352.9L131.9,352.9L131.9,352.9z M148.3,360.7L148.3,360.7z"/>
</g>
<g>
	<circle class="st4" cx="118.4" cy="375.7" r="3.6"/>
</g>
</svg>
