<?xml version="1.0" encoding="UTF-8"?><svg id="Working_File" xmlns="http://www.w3.org/2000/svg" viewBox="0 0 273 714"><defs><style>.cls-1,.cls-2,.cls-3{fill:none;}.cls-4{letter-spacing:.01em;}.cls-5{letter-spacing:-.04em;}.cls-6{font-size:12px;}.cls-6,.cls-7,.cls-8,.cls-9,.cls-10{fill:#fff;}.cls-6,.cls-7,.cls-9,.cls-11,.cls-12,.cls-10{isolation:isolate;}.cls-6,.cls-10{font-family:ULModerat-Regular, 'UL Moderat';}.cls-13{letter-spacing:-.02em;}.cls-14{letter-spacing:0em;}.cls-15{letter-spacing:0em;}.cls-16{letter-spacing:0em;}.cls-7,.cls-9,.cls-10{font-size:15px;}.cls-7,.cls-11{font-family:ULModerat-Bold, 'UL Moderat';font-weight:700;}.cls-17{fill:#00a451;}.cls-18{fill:#122c49;}.cls-19{letter-spacing:0em;}.cls-20{letter-spacing:-.02em;}.cls-9{font-family:ULModerat-Medium, 'UL Moderat';font-weight:500;}.cls-21{letter-spacing:-.02em;}.cls-22{letter-spacing:-.01em;}.cls-23{letter-spacing:-.01em;}.cls-24{letter-spacing:0em;}.cls-25{letter-spacing:0em;}.cls-26{letter-spacing:-.01em;}.cls-27{letter-spacing:-.02em;}.cls-11{font-size:20px;}.cls-28{letter-spacing:-.04em;}.cls-29{letter-spacing:0em;}.cls-30{letter-spacing:0em;}.cls-31{letter-spacing:0em;}.cls-32{letter-spacing:0em;}.cls-33{letter-spacing:-.01em;}.cls-34{letter-spacing:0em;}.cls-35{letter-spacing:0em;}.cls-36{letter-spacing:0em;}.cls-37{letter-spacing:-.05em;}.cls-38{letter-spacing:-.02em;}.cls-39{letter-spacing:0em;}.cls-2{stroke:#000;stroke-linecap:round;}.cls-2,.cls-3{stroke-width:3px;}.cls-3{stroke:#122c49;}.cls-40{letter-spacing:-.02em;}.cls-41{letter-spacing:-.02em;}.cls-42{letter-spacing:-.07em;}.cls-43{letter-spacing:0em;}.cls-44{letter-spacing:-.03em;}.cls-45{letter-spacing:-.02em;}.cls-46{letter-spacing:-.02em;}</style></defs><line id="Line_128" class="cls-2" x1="137" y1="492" x2="137" y2="504"/><line id="Line_129" class="cls-2" x1="137" y1="285" x2="137" y2="297"/><line id="Line_130" class="cls-2" x1="137" y1="514" x2="137" y2="526"/><g id="Group_192"><g id="Ellipse_6"><circle class="cls-1" cx="136.5" cy="136.5" r="136.5"/><circle class="cls-3" cx="136.5" cy="136.5" r="135"/></g><circle id="Ellipse_55" class="cls-17" cx="137" cy="397" r="85"/><g id="Group_92"><g id="Group_31"><g id="Group_116"><g id="Group_28"><g id="Fireworks" class="cls-12"><text class="cls-6" transform="translate(105 453)"><tspan class="cls-41" x="0" y="0">F</tspan><tspan x="6.58" y="0">i</tspan><tspan class="cls-20" x="9.38" y="0">r</tspan><tspan class="cls-19" x="13.45" y="0">e</tspan><tspan class="cls-26" x="20.32" y="0">w</tspan><tspan class="cls-29" x="28.91" y="0">o</tspan><tspan class="cls-15" x="36.28" y="0">r</tspan><tspan class="cls-46" x="40.57" y="0">k</tspan><tspan class="cls-24" x="46.58" y="0">s</tspan></text></g><circle id="Ellipse_14" class="cls-8" cx="99.5" cy="449.5" r="1.5"/></g><g id="Group_27"><g id="Firecrackers" class="cls-12"><text class="cls-6" transform="translate(105 435)"><tspan class="cls-41" x="0" y="0">F</tspan><tspan x="6.58" y="0">i</tspan><tspan class="cls-20" x="9.38" y="0">r</tspan><tspan class="cls-30" x="13.45" y="0">e</tspan><tspan class="cls-25" x="20.45" y="0">c</tspan><tspan class="cls-21" x="27.31" y="0">r</tspan><tspan x="31.32" y="0">a</tspan><tspan class="cls-25" x="37.57" y="0">c</tspan><tspan class="cls-44" x="44.44" y="0">k</tspan><tspan class="cls-29" x="50.27" y="0">e</tspan><tspan class="cls-46" x="57.24" y="0">r</tspan><tspan x="61.32" y="0">s</tspan></text></g><circle id="Ellipse_14-2" class="cls-8" cx="99.5" cy="431.5" r="1.5"/></g></g></g></g><g id="Group_93"><circle id="Ellipse_18" class="cls-18" cx="137" cy="625" r="89"/><g id="Recommended_Duration:_Not_safe_for_any_without_proper_PPE" class="cls-12"><text class="cls-7" transform="translate(74 598)"><tspan class="cls-28" x="0" y="0">R</tspan><tspan class="cls-39" x="8.98" y="0">e</tspan><tspan class="cls-43" x="17.81" y="0">c</tspan><tspan x="26.48" y="0">ommended</tspan></text><text class="cls-7" transform="translate(74 619)"><tspan class="cls-25" x="0" y="0">D</tspan><tspan class="cls-39" x="10.8" y="0">u</tspan><tspan class="cls-33" x="19.5" y="0">r</tspan><tspan class="cls-22" x="25.15" y="0">a</tspan><tspan class="cls-31" x="32.98" y="0">t</tspan><tspan x="39.01" y="0">io</tspan><tspan class="cls-45" x="52.11" y="0">n</tspan><tspan x="60.7" y="0">: </tspan></text><text class="cls-10" transform="translate(142.4 619)"><tspan class="cls-40" x="0" y="0">No</tspan><tspan class="cls-39" x="19.95" y="0">t s</tspan><tspan class="cls-22" x="36.36" y="0">a</tspan><tspan class="cls-13" x="43.99" y="0">f</tspan><tspan x="48.9" y="0">e </tspan></text><text class="cls-10" transform="translate(74 640)"><tspan class="cls-13" x="0" y="0">f</tspan><tspan x="4.9" y="0">or </tspan><tspan class="cls-16" x="23.37" y="0">a</tspan><tspan class="cls-38" x="31.21" y="0">n</tspan><tspan x="39.36" y="0">y wi</tspan><tspan class="cls-4" x="65.67" y="0">t</tspan><tspan class="cls-39" x="71.05" y="0">h</tspan><tspan class="cls-34" x="79.53" y="0">o</tspan><tspan x="88.68" y="0">ut </tspan></text><text class="cls-10" transform="translate(74 661)"><tspan x="0" y="0">p</tspan><tspan class="cls-27" x="9.15" y="0">r</tspan><tspan x="14.23" y="0">o</tspan><tspan class="cls-36" x="23.44" y="0">p</tspan><tspan x="32.64" y="0">er PPE</tspan></text></g></g><g id="Group_141"><g id="_dB_" class="cls-12"><text class="cls-11" transform="translate(148.31 155)"><tspan class="cls-42" x="0" y="0">(</tspan><tspan class="cls-35" x="5.24" y="0">d</tspan><tspan class="cls-37" x="17.4" y="0">B</tspan><tspan class="cls-14" x="28.82" y="0">)</tspan></text></g><g id="_140-150" class="cls-12"><text class="cls-11" transform="translate(129.48 131)"><tspan x="0" y="0">14</tspan><tspan class="cls-23" x="20.9" y="0">0</tspan><tspan class="cls-5" x="33.04" y="0">-</tspan><tspan class="cls-32" x="40.54" y="0">1</tspan><tspan x="48.9" y="0">50</tspan></text></g></g><g id="Group_180"><g id="Group_170"><path id="Path_22" class="cls-1" d="m222,397c0-46.94-38.06-85-85-85s-85,38.06-85,85h170Z"/></g><g id="EXAMPLE" class="cls-12"><text class="cls-9" transform="translate(103 406)"><tspan x="0" y="0">EXAMPLE</tspan></text></g></g></g><path class="cls-8" d="m138.25,386.49c-7.97,0-15.56-3.84-20.3-10.27l1.45-1.07c4.4,5.97,11.44,9.53,18.85,9.53,12.9,0,23.4-10.5,23.4-23.4s-10.5-23.4-23.4-23.4-23.4,10.5-23.4,23.4c0,2.86.58,5.78,1.74,8.67l-1.67.67c-1.24-3.1-1.86-6.24-1.86-9.33,0-13.89,11.3-25.2,25.2-25.2s25.2,11.3,25.2,25.2-11.3,25.2-25.2,25.2h0Z"/><path class="cls-8" d="m131.22,371.96c-.19,0-.37-.05-.54-.15-.33-.2-.53-.56-.53-.97v-19.12c0-.41.2-.77.53-.97s.74-.19,1.1,0l17.41,9.57c.37.2.59.56.59.95s-.22.75-.59.95l-17.41,9.57c-.18.1-.37.15-.56.15v.02Zm.73-19.05v16.75l15.23-8.38-15.23-8.38h0Zm16.37,7.75h0Z"/><circle class="cls-8" cx="118.45" cy="375.69" r="3.6"/></svg>