<svg xmlns="http://www.w3.org/2000/svg" xmlns:xlink="http://www.w3.org/1999/xlink" width="178" height="599.491" viewBox="0 0 178 599.491">
    <defs>
        <clipPath id="clip-path">
            <rect id="Rectangle_33" data-name="Rectangle 33" width="53" height="54" fill="#fff"/>
        </clipPath>
        <clipPath id="clip-path-2">
            <rect id="Rectangle_33-2" data-name="Rectangle 33" width="53" height="54" fill="none"/>
        </clipPath>
    </defs>
    <line id="Line_161" data-name="Line 161" x2="12" transform="translate(89 434) rotate(90)" fill="none" stroke="#000" stroke-linecap="round" stroke-width="3"/>
    <line id="Line_173" data-name="Line 173" x2="12" transform="translate(89 412) rotate(90)" fill="none" stroke="#000" stroke-linecap="round" stroke-width="3"/>
    <line id="Line_157" data-name="Line 157" x2="12" transform="translate(89 188) rotate(90)" fill="none" stroke="#000" stroke-linecap="round" stroke-width="3"/>
    <line id="Line_162" data-name="Line 162" x2="12" transform="translate(89 456) rotate(90)" fill="none" stroke="#000" stroke-linecap="round" stroke-width="3"/>
    <line id="Line_163" data-name="Line 163" x2="12" transform="translate(89 478) rotate(90)" fill="none" stroke="#000" stroke-linecap="round" stroke-width="3"/>
    <line id="Line_158" data-name="Line 158" x2="12" transform="translate(89 210) rotate(90)" fill="none" stroke="#000" stroke-linecap="round" stroke-width="3"/>
    <g id="Group_132" data-name="Group 132" transform="translate(-207 -247)">
        <text id="_0-75" data-name="0-75" transform="translate(296 792)" fill="#123a28" font-size="20" font-family="SegoeUI-Bold, Segoe UI" font-weight="700"><tspan x="-21.299" y="0">0-75</tspan></text>
        <text id="_dB_" data-name="(dB)" transform="translate(296 816)" fill="#123a28" font-size="20" font-family="SegoeUI-Bold, Segoe UI" font-weight="700"><tspan x="-19.985" y="0">(dB)</tspan></text>
    </g>
    <g id="Component_1_1" data-name="Component 1 – 1">
        <g id="Path_7" data-name="Path 7" transform="translate(39.801 502)" fill="none">
            <path d="M48.746,0A48.746,48.746,0,1,1,0,48.746,48.746,48.746,0,0,1,48.746,0Z" stroke="none"/>
            <path d="M 48.74552536010742 3 C 42.568603515625 3 36.57803344726562 4.209091186523438 30.94023132324219 6.593681335449219 C 25.49324798583984 8.897552490234375 20.6007080078125 12.19640350341797 16.3985595703125 16.3985595703125 C 12.19640350341797 20.6007080078125 8.897552490234375 25.49324798583984 6.593681335449219 30.94023132324219 C 4.209091186523438 36.57803344726562 3 42.568603515625 3 48.74552536010742 C 3 54.92244720458984 4.209091186523438 60.91301727294922 6.593681335449219 66.55083465576172 C 8.897552490234375 71.99781799316406 12.19640350341797 76.89034271240234 16.3985595703125 81.09249877929688 C 20.6007080078125 85.29464721679688 25.49324798583984 88.59349060058594 30.94023132324219 90.89736938476562 C 36.57803344726562 93.28195953369141 42.568603515625 94.49105072021484 48.74552536010742 94.49105072021484 C 54.92244720458984 94.49105072021484 60.91301727294922 93.28195953369141 66.55083465576172 90.89736938476562 C 71.99781799316406 88.59349060058594 76.89034271240234 85.29464721679688 81.09249877929688 81.09249877929688 C 85.29464721679688 76.89034271240234 88.59349060058594 71.99781799316406 90.89736938476562 66.55083465576172 C 93.28195953369141 60.91301727294922 94.49105072021484 54.92244720458984 94.49105072021484 48.74552536010742 C 94.49105072021484 42.568603515625 93.28195953369141 36.57803344726562 90.89736938476562 30.94023132324219 C 88.59349060058594 25.49324798583984 85.29464721679688 20.6007080078125 81.09249877929688 16.3985595703125 C 76.89034271240234 12.19640350341797 71.99781799316406 8.897552490234375 66.55083465576172 6.593681335449219 C 60.91301727294922 4.209091186523438 54.92244720458984 3 48.74552536010742 3 M 48.74552536010742 0 C 75.66693878173828 0 97.49105072021484 21.82412719726562 97.49105072021484 48.74552536010742 C 97.49105072021484 75.66693878173828 75.66693878173828 97.49105072021484 48.74552536010742 97.49105072021484 C 21.82412719726562 97.49105072021484 0 75.66693878173828 0 48.74552536010742 C 0 21.82412719726562 21.82412719726562 0 48.74552536010742 0 Z" stroke="none" fill="#122c49"/>
        </g>
        <circle id="Ellipse_46" data-name="Ellipse 46" cx="85" cy="85" r="85" transform="translate(4 232)" fill="#efefef"/>
        <g id="Group_181" data-name="Group 181" transform="translate(-584 -295)">
            <g id="Group_34" data-name="Group 34" transform="translate(217 -2)">
                <g id="Group_182" data-name="Group 182" transform="translate(0 38)">
                    <text id="Air_Conditioner" data-name="Air Conditioner" transform="translate(412 564)" font-size="12" font-family="SegoeUI, Segoe UI"><tspan x="0" y="0">Air Conditioner</tspan></text>
                    <circle id="Ellipse_14" data-name="Ellipse 14" cx="1.5" cy="1.5" r="1.5" transform="translate(405 559)"/>
                </g>
                <g id="Group_28" data-name="Group 28" transform="translate(0 19)">
                    <text id="Washing_Machine" data-name="Washing Machine" transform="translate(412 564)" font-size="12" font-family="SegoeUI, Segoe UI"><tspan x="0" y="0">Washing Machine</tspan></text>
                    <circle id="Ellipse_14-2" data-name="Ellipse 14" cx="1.5" cy="1.5" r="1.5" transform="translate(405 559)"/>
                </g>
                <g id="Group_27" data-name="Group 27">
                    <text id="Normal_breathing" data-name="Normal breathing" transform="translate(412 564)" font-size="12" font-family="SegoeUI, Segoe UI"><tspan x="0" y="0">Normal breathing</tspan></text>
                    <circle id="Ellipse_14-3" data-name="Ellipse 14" cx="1.5" cy="1.5" r="1.5" transform="translate(405 559)"/>
                </g>
            </g>
        </g>
        <g id="Group_107" data-name="Group 107" transform="translate(-573 -461)">
            <circle id="Ellipse_18" data-name="Ellipse 18" cx="89" cy="89" r="89" transform="translate(573 461)" fill="#122c49"/>
            <text id="Recommended_Duration:_Safe_for_any_time_period" data-name="Recommended
Duration: Safe for any time period" transform="translate(600 522)" fill="#fff" font-size="15" font-family="SegoeUI-Bold, Segoe UI" font-weight="700"><tspan x="0" y="16">Recommended</tspan><tspan x="0" y="37">Duration: </tspan><tspan y="37" font-family="SegoeUI, Segoe UI" font-weight="400">Safe for </tspan><tspan x="0" y="58" font-family="SegoeUI, Segoe UI" font-weight="400">any time period</tspan></text>
        </g>
    </g>
    <g id="Group_194" data-name="Group 194" transform="translate(-1476 -50)">
        <g id="Group_170" data-name="Group 170" transform="translate(1269)">
            <path id="Path_22" data-name="Path 22" d="M170,85A85,85,0,0,1,0,85Z" transform="translate(211 282)" fill="#efefef"/>
            <g id="Group_145" data-name="Group 145" transform="translate(322 445) rotate(180)">
                <g id="Group_144" data-name="Group 144" clip-path="url(#clip-path)">
                    <path id="Path_19" data-name="Path 19" d="M24.6,0A24.708,24.708,0,0,1,44.409,10.02l-1.414,1.042a24.23,24.23,0,1,0,2.746,5.075l1.632-.651A24.554,24.554,0,1,1,24.6,0" transform="translate(1.55 1.914)" fill="#fff"/>
                    <path id="Path_20" data-name="Path 20" d="M18.114,0a1.027,1.027,0,0,1,.525.143,1.075,1.075,0,0,1,.516.942V19.751a1.052,1.052,0,0,1-1.59.94L.574,11.347a1.038,1.038,0,0,1,0-1.857L17.565.145A1.139,1.139,0,0,1,18.114,0M17.4,18.6V2.241L2.532,10.418ZM1.421,11.029h0Z" transform="translate(14.896 16.092)" fill="#fff"/>
                    <path id="Path_21" data-name="Path 21" d="M7.027,3.514A3.514,3.514,0,1,1,3.514,0,3.514,3.514,0,0,1,7.027,3.514" transform="translate(41.957 8.942)" fill="#fff"/>
                </g>
            </g>
            <g id="Group_161" data-name="Group 161" transform="translate(322 445) rotate(180)">
                <g id="Group_144-2" data-name="Group 144" clip-path="url(#clip-path-2)">
                    <path id="Path_19-2" data-name="Path 19" d="M24.6,0A24.708,24.708,0,0,1,44.409,10.02l-1.414,1.042a24.23,24.23,0,1,0,2.746,5.075l1.632-.651A24.554,24.554,0,1,1,24.6,0" transform="translate(1.55 1.914)" fill="#1a1818"/>
                    <path id="Path_20-2" data-name="Path 20" d="M18.114,0a1.027,1.027,0,0,1,.525.143,1.075,1.075,0,0,1,.516.942V19.751a1.052,1.052,0,0,1-1.59.94L.574,11.347a1.038,1.038,0,0,1,0-1.857L17.565.145A1.139,1.139,0,0,1,18.114,0M17.4,18.6V2.241L2.532,10.418ZM1.421,11.029h0Z" transform="translate(14.896 16.092)" fill="#1a1818"/>
                    <path id="Path_21-2" data-name="Path 21" d="M7.027,3.514A3.514,3.514,0,1,1,3.514,0,3.514,3.514,0,0,1,7.027,3.514" transform="translate(41.957 8.942)" fill="#2da340"/>
                </g>
            </g>
        </g>
        <text id="EXAMPLE" transform="translate(1531 385)" font-size="15" font-family="SegoeUI, Segoe UI"><tspan x="0" y="0">EXAMPLE</tspan></text>
    </g>
</svg>
