<?xml version="1.0" encoding="UTF-8"?><svg xmlns="http://www.w3.org/2000/svg" viewBox="0 0 178 599.49"><defs><style>.cls-1{fill:none;}.cls-2{fill:#fff;}.cls-3{fill:#00a451;}.cls-4{fill:#102c49;}</style></defs><g id="Layer_2"><circle class="cls-3" cx="88.55" cy="550.74" r="46.93"/></g><g id="Working_File"><g id="Group_198"><g id="Line_161"><path d="m89,447.5c-.83,0-1.5-.67-1.5-1.5v-12c0-.83.67-1.5,1.5-1.5s1.5.67,1.5,1.5v12c0,.83-.67,1.5-1.5,1.5Z"/></g><g id="Line_173"><path d="m89,425.5c-.83,0-1.5-.67-1.5-1.5v-12c0-.83.67-1.5,1.5-1.5s1.5.67,1.5,1.5v12c0,.83-.67,1.5-1.5,1.5Z"/></g><g id="Line_157"><path d="m89,201.5c-.83,0-1.5-.67-1.5-1.5v-12c0-.83.67-1.5,1.5-1.5s1.5.67,1.5,1.5v12c0,.83-.67,1.5-1.5,1.5Z"/></g><g id="Line_162"><path d="m89,469.5c-.83,0-1.5-.67-1.5-1.5v-12c0-.83.67-1.5,1.5-1.5s1.5.67,1.5,1.5v12c0,.83-.67,1.5-1.5,1.5Z"/></g><g id="Line_163"><path d="m89,491.5c-.83,0-1.5-.67-1.5-1.5v-12c0-.83.67-1.5,1.5-1.5s1.5.67,1.5,1.5v12c0,.83-.67,1.5-1.5,1.5Z"/></g><g id="Line_158"><path d="m89,223.5c-.83,0-1.5-.67-1.5-1.5v-12c0-.83.67-1.5,1.5-1.5s1.5.67,1.5,1.5v12c0,.83-.67,1.5-1.5,1.5Z"/></g><g id="Group_197"><g id="Group_132"><g id="_0-75"><path class="cls-2" d="m69.55,538.62c0-4.26,1.86-6.66,5.12-6.66s5.14,2.4,5.14,6.66-1.86,6.62-5.14,6.62-5.12-2.4-5.12-6.62Zm5.12,4.36c1.58,0,2.4-1.5,2.4-4.36s-.82-4.4-2.4-4.4-2.38,1.52-2.38,4.4.82,4.36,2.38,4.36Z"/><path class="cls-2" d="m81.39,537.64h6.8v2.26h-6.8v-2.26Z"/><path class="cls-2" d="m93.85,534.64v-.12h-5.86v-2.32h9.36v1.66c-2.4,2.44-4.44,6.16-4.8,11.14h-2.76c.44-5.18,2.14-8.16,4.06-10.36Z"/><path class="cls-2" d="m98.81,541.28h2.66c.1.92.92,1.7,2.12,1.7s2.14-.8,2.14-2.08-.86-2.18-2.18-2.18c-.82,0-1.66.38-2.06,1.16l-2.4-.56.74-7.12h7.98v2.32h-5.78l-.28,2.82h.12c.58-.52,1.4-.74,2.28-.74,2.56,0,4.3,1.86,4.3,4.24,0,2.58-2.02,4.4-4.9,4.4s-4.64-1.8-4.74-3.96h0Z"/></g><g id="_dB_"><path class="cls-2" d="m74.65,562.78c0,3.42,1,6.38,2.6,8.7l-1.58,1.04c-1.8-2.14-3.3-5.5-3.3-9.74s1.5-7.58,3.3-9.72l1.58,1.04c-1.58,2.3-2.6,5.26-2.6,8.68Z"/><path class="cls-2" d="m85.51,569l-.22-1.48h-.12c-.58,1.08-1.8,1.72-3.18,1.72-2.58,0-4.58-2.18-4.58-5.28s2-5.28,4.58-5.28c1.38,0,2.36.64,2.9,1.32h.12v-5.4h2.66v14.4h-2.16Zm-2.9-2.08c1.42,0,2.4-1.12,2.4-2.96s-.98-2.94-2.4-2.94-2.44,1.14-2.44,2.94,1.02,2.96,2.44,2.96Z"/><path class="cls-2" d="m90.23,555h5.28c2.7,0,4.48,1.56,4.48,3.74,0,1.52-.9,2.36-1.74,2.82v.12c1.04.48,2.06,1.7,2.06,3.4,0,2.3-1.86,3.92-4.6,3.92h-5.48v-14Zm5.02,5.76c1.18,0,1.98-.68,1.98-1.76s-.8-1.76-1.98-1.76h-2.26v3.52h2.26Zm.18,6c1.22,0,2.04-.78,2.04-1.88s-.82-1.88-2.04-1.88h-2.44v3.76h2.44Z"/><path class="cls-2" d="m103.35,562.8c0-3.42-1-6.38-2.6-8.7l1.58-1.04c1.8,2.14,3.3,5.5,3.3,9.74s-1.5,7.58-3.3,9.72l-1.58-1.04c1.58-2.3,2.6-5.26,2.6-8.68Z"/></g></g><g id="Group_183"><g id="Path_7"><path class="cls-1" d="m88.55,502c26.92,0,48.75,21.82,48.75,48.75s-21.82,48.75-48.75,48.75-48.75-21.82-48.75-48.75h0c0-26.92,21.82-48.75,48.75-48.75Z"/><path class="cls-3" d="m88.55,505c-6.18,0-12.17,1.21-17.81,3.59-5.45,2.3-10.34,5.6-14.54,9.8s-7.5,9.09-9.8,14.54c-2.38,5.64-3.59,11.63-3.59,17.81s1.21,12.17,3.59,17.81c2.3,5.45,5.6,10.34,9.8,14.54s9.09,7.5,14.54,9.8c5.64,2.38,11.63,3.59,17.81,3.59s12.17-1.21,17.81-3.59c5.45-2.3,10.34-5.6,14.54-9.8,4.2-4.2,7.5-9.09,9.8-14.54,2.38-5.64,3.59-11.63,3.59-17.81s-1.21-12.17-3.59-17.81c-2.3-5.45-5.6-10.34-9.8-14.54s-9.09-7.5-14.54-9.8c-5.64-2.38-11.63-3.59-17.81-3.59m0-3c26.92,0,48.75,21.82,48.75,48.75s-21.82,48.75-48.75,48.75-48.75-21.82-48.75-48.75,21.82-48.75,48.75-48.75h0Z"/></g><g id="Ellipse_46"><circle class="cls-3" cx="89" cy="317" r="85"/></g><g id="Group_181"><g id="Group_34"><g id="Group_182"><g id="Air_Conditioner"><path class="cls-2" d="m48.44,296.6h1.31l2.96,8.4h-1.02l-.8-2.31h-3.59l-.8,2.31h-1.03s2.97-8.4,2.97-8.4Zm2.14,5.21l-1.45-4.13h-.07l-1.44,4.13h2.96Z"/><path class="cls-2" d="m54.5,296.64c.36,0,.65.26.65.64s-.29.65-.65.65-.65-.28-.65-.65.29-.64.65-.64Zm-.47,2.4h.94v5.96h-.94v-5.96Z"/><path class="cls-2" d="m56.84,299.04h.79l.07.86h.07c.23-.43.73-.93,1.76-.93.13,0,.22.01.32.04v.95c-.16-.02-.24-.02-.35-.02-1.01,0-1.74.67-1.74,2.09v2.99h-.94v-5.96l.02-.02Z"/><path class="cls-2" d="m64.14,300.81c0-2.54,1.73-4.33,4.04-4.33,1.87,0,3.29,1.15,3.59,2.69h-1c-.31-1.02-1.16-1.79-2.59-1.79-1.77,0-3.05,1.38-3.05,3.42s1.27,3.42,3.05,3.42c1.45,0,2.28-.72,2.6-1.79h.98c-.28,1.59-1.7,2.69-3.59,2.69-2.31,0-4.04-1.79-4.04-4.31h0Z"/><path class="cls-2" d="m72.98,302.01c0-1.76,1.31-3.09,3.02-3.09s3.02,1.33,3.02,3.09-1.31,3.11-3.02,3.11-3.02-1.33-3.02-3.11Zm3.02,2.23c1.2,0,2.05-.97,2.05-2.23s-.85-2.22-2.05-2.22-2.05.97-2.05,2.22.85,2.23,2.05,2.23Z"/><path class="cls-2" d="m83.13,299.79c-.8,0-1.57.54-1.57,1.79v3.42h-.94v-5.96h.79l.07.78h.07c.26-.42.83-.9,1.71-.9,1.27,0,2.24.83,2.24,2.42v3.66h-.94v-3.59c0-1.15-.64-1.62-1.45-1.62h.02Z"/><path class="cls-2" d="m92.09,305l-.08-.98h-.07c-.4.71-1.2,1.1-2.03,1.1-1.62,0-2.78-1.34-2.78-3.11s1.16-3.09,2.78-3.09c.83,0,1.51.38,1.93.94h.07v-3.49h.92v8.63h-.74Zm-2.06-.76c1.1,0,1.88-.88,1.88-2.23s-.78-2.22-1.88-2.22-1.93.9-1.93,2.22.82,2.23,1.93,2.23Z"/><path class="cls-2" d="m95.19,296.64c.36,0,.65.26.65.64s-.29.65-.65.65-.65-.28-.65-.65.29-.64.65-.64Zm-.47,2.4h.94v5.96h-.94v-5.96Z"/><path class="cls-2" d="m98.1,303.66v-3.78h-1.17v-.84h.26c.7,0,.97-.36,1-1.08l.02-.67h.83v1.75h1.39v.84h-1.39v3.6c0,.5.25.8.74.8.17,0,.37-.02.54-.08v.8c-.19.07-.43.12-.68.12-.9,0-1.54-.55-1.54-1.46Z"/><path class="cls-2" d="m102.31,296.64c.36,0,.65.26.65.64s-.29.65-.65.65-.65-.28-.65-.65.29-.64.65-.64Zm-.47,2.4h.94v5.96h-.94v-5.96Z"/><path class="cls-2" d="m104.38,302.01c0-1.76,1.31-3.09,3.02-3.09s3.02,1.33,3.02,3.09-1.31,3.11-3.02,3.11-3.02-1.33-3.02-3.11Zm3.02,2.23c1.2,0,2.05-.97,2.05-2.23s-.85-2.22-2.05-2.22-2.05.97-2.05,2.22.85,2.23,2.05,2.23Z"/><path class="cls-2" d="m114.53,299.79c-.8,0-1.57.54-1.57,1.79v3.42h-.94v-5.96h.79l.07.78h.07c.26-.42.83-.9,1.71-.9,1.27,0,2.24.83,2.24,2.42v3.66h-.93v-3.59c0-1.15-.64-1.62-1.45-1.62h.01Z"/><path class="cls-2" d="m118.53,302.01c0-1.78,1.27-3.09,2.93-3.09s2.72,1.2,2.72,2.87c0,.13,0,.26-.04.44h-4.63c.08,1.19.9,2.01,2.01,2.01.73,0,1.4-.36,1.59-.95h.97c-.24,1.14-1.31,1.82-2.57,1.82-1.74,0-3-1.32-3-3.11h.02Zm4.65-.55c-.06-1.01-.77-1.67-1.71-1.67s-1.73.66-1.92,1.67h3.63Z"/><path class="cls-2" d="m125.77,299.04h.79l.07.86h.07c.23-.43.73-.93,1.76-.93.13,0,.22.01.32.04v.95c-.16-.02-.24-.02-.35-.02-1.01,0-1.74.67-1.74,2.09v2.99h-.94v-5.96l.02-.02Z"/></g><g id="Ellipse_14"><circle class="cls-2" cx="39.5" cy="301.5" r="1.5"/></g></g><g id="Group_28"><g id="Washing_Machine"><path class="cls-2" d="m45.47,277.6h.92l1.79,7.04h.07l1.75-6.28h1.13l1.74,6.28h.07l1.79-7.04h.91l-2.11,8.4h-1.15l-1.77-6.36h-.07l-1.79,6.36h-1.15l-2.12-8.4h0Z"/><path class="cls-2" d="m56.19,284.42c0-1.21,1.04-1.92,3.12-2.06l.61-.05v-.23c0-.8-.48-1.31-1.27-1.31s-1.25.41-1.36,1.02h-.96c.08-1.08,1.04-1.87,2.33-1.87s2.18.84,2.18,2.17v2.76c0,.37.2.49.53.49.05,0,.06,0,.2-.02v.71c-.13.05-.32.06-.46.06-.47,0-1.02-.25-1.1-.94h-.07c-.37.58-1.02.97-1.88.97-1.1,0-1.87-.66-1.87-1.7Zm1.98.85c1.06,0,1.75-.84,1.75-2v-.24l-.54.05c-1.52.13-2.22.56-2.22,1.32,0,.56.42.88,1.01.88h0Z"/><path class="cls-2" d="m62.43,284.18h.97c.07.65.61,1.1,1.39,1.1.7,0,1.19-.29,1.19-.83,0-.48-.25-.74-.94-.95l-.84-.24c-1.04-.3-1.58-.84-1.58-1.67,0-.98.89-1.68,2.09-1.68s2.03.68,2.1,1.67h-.97c-.07-.46-.49-.85-1.16-.85-.6,0-1.08.35-1.08.86,0,.43.28.66,1,.86l.84.23c1.07.31,1.52.9,1.52,1.7,0,1.1-.97,1.73-2.17,1.73-1.32,0-2.3-.78-2.35-1.94h0Z"/><path class="cls-2" d="m71.06,280.79c-.8,0-1.57.54-1.57,1.79v3.42h-.94v-8.63h.94v3.39h.07c.17-.25.68-.84,1.64-.84,1.27,0,2.24.83,2.24,2.42v3.66h-.94v-3.59c0-1.15-.64-1.62-1.45-1.62h.01Z"/><path class="cls-2" d="m75.8,277.64c.36,0,.65.26.65.64s-.29.65-.65.65-.65-.28-.65-.65.29-.64.65-.64Zm-.47,2.4h.94v5.96h-.94v-5.96Z"/><path class="cls-2" d="m80.65,280.79c-.8,0-1.57.54-1.57,1.79v3.42h-.94v-5.96h.79l.07.78h.07c.26-.42.83-.9,1.71-.9,1.27,0,2.24.83,2.24,2.42v3.66h-.94v-3.59c0-1.15-.64-1.62-1.45-1.62h.02Z"/><path class="cls-2" d="m84.49,286.76l1.07-1.14c-.58-.23-.92-.74-.92-1.24,0-.58.4-1.01.82-1.24-.31-.34-.5-.78-.5-1.26,0-1.1.97-1.97,2.25-1.97.42,0,.8.1,1.13.25l.89-1.17.71.65-.98.97c.32.34.52.78.52,1.27,0,1.1-.97,1.97-2.25,1.97-.43,0-.82-.1-1.15-.26-.28.13-.47.37-.47.67,0,.4.32.66.8.66h1.34c1.25,0,2.03.73,2.03,1.71,0,1.15-1.04,1.88-2.48,1.88-1.69,0-2.58-1.08-2.78-1.76h-.03Zm2.78.94c.8,0,1.51-.32,1.51-1.02,0-.61-.5-.94-1.15-.94h-1.12l-1.03,1.06c.3.44.86.9,1.79.9Zm-.07-4.65c.74,0,1.3-.48,1.3-1.15s-.55-1.15-1.3-1.15-1.28.48-1.28,1.15.55,1.15,1.28,1.15Z"/><path class="cls-2" d="m94.38,277.6h1.2l2.85,6.01h.07l2.84-6.01h1.2v8.4h-.95v-6.57h-.07l-2.57,5.34h-1l-2.57-5.34h-.07v6.57h-.95v-8.4h.02Z"/><path class="cls-2" d="m104.18,284.42c0-1.21,1.04-1.92,3.12-2.06l.61-.05v-.23c0-.8-.48-1.31-1.27-1.31s-1.25.41-1.36,1.02h-.96c.08-1.08,1.04-1.87,2.33-1.87s2.18.84,2.18,2.17v2.76c0,.37.2.49.53.49.05,0,.06,0,.2-.02v.71c-.13.05-.32.06-.46.06-.47,0-1.02-.25-1.1-.94h-.07c-.37.58-1.02.97-1.88.97-1.1,0-1.87-.66-1.87-1.7Zm1.98.85c1.06,0,1.75-.84,1.75-2v-.24l-.54.05c-1.52.13-2.22.56-2.22,1.32,0,.56.42.88,1.01.88h0Z"/><path class="cls-2" d="m110.42,283.01c0-1.78,1.25-3.09,3-3.09,1.42,0,2.46.83,2.67,2.06h-.98c-.18-.71-.8-1.19-1.69-1.19-1.21,0-2.03.95-2.03,2.22s.82,2.23,2.03,2.23c.89,0,1.51-.48,1.69-1.2h.98c-.22,1.25-1.26,2.08-2.67,2.08-1.75,0-3-1.32-3-3.11Z"/><path class="cls-2" d="m120.07,280.79c-.8,0-1.57.54-1.57,1.79v3.42h-.94v-8.63h.94v3.39h.07c.17-.25.68-.84,1.64-.84,1.27,0,2.24.83,2.24,2.42v3.66h-.94v-3.59c0-1.15-.64-1.62-1.45-1.62h.01Z"/><path class="cls-2" d="m124.81,277.64c.36,0,.65.26.65.64s-.29.65-.65.65-.65-.28-.65-.65.29-.64.65-.64Zm-.47,2.4h.94v5.96h-.94v-5.96Z"/><path class="cls-2" d="m129.66,280.79c-.8,0-1.57.54-1.57,1.79v3.42h-.94v-5.96h.79l.07.78h.07c.26-.42.83-.9,1.71-.9,1.27,0,2.24.83,2.24,2.42v3.66h-.94v-3.59c0-1.15-.64-1.62-1.45-1.62h.02Z"/><path class="cls-2" d="m133.66,283.01c0-1.78,1.27-3.09,2.93-3.09s2.72,1.2,2.72,2.87c0,.13,0,.26-.04.44h-4.63c.08,1.19.9,2.01,2.02,2.01.73,0,1.4-.36,1.59-.95h.97c-.24,1.14-1.31,1.82-2.57,1.82-1.74,0-3-1.32-3-3.11h.01Zm4.65-.55c-.06-1.01-.77-1.67-1.71-1.67s-1.73.66-1.92,1.67h3.63Z"/></g><g id="Ellipse_14-2"><circle class="cls-2" cx="39.5" cy="282.5" r="1.5"/></g></g><g id="Group_27"><g id="Normal_breathing"><path class="cls-2" d="m46.18,258.6h1.01l4.56,6.7h.07v-6.7h.96v8.4h-1.01l-4.57-6.7h-.07v6.7h-.95v-8.4Z"/><path class="cls-2" d="m54.43,264.01c0-1.76,1.31-3.09,3.02-3.09s3.02,1.33,3.02,3.09-1.31,3.11-3.02,3.11-3.02-1.33-3.02-3.11Zm3.02,2.23c1.2,0,2.05-.97,2.05-2.23s-.85-2.22-2.05-2.22-2.05.97-2.05,2.22.85,2.23,2.05,2.23Z"/><path class="cls-2" d="m62.07,261.04h.79l.07.86h.07c.23-.43.73-.93,1.76-.93.13,0,.22.01.32.04v.95c-.16-.02-.24-.02-.35-.02-1.01,0-1.74.67-1.74,2.09v2.99h-.94v-5.96l.02-.02Z"/><path class="cls-2" d="m68.71,261.79c-.72,0-1.42.53-1.42,1.76v3.44h-.94v-5.96h.8l.06.78h.07c.24-.5.83-.9,1.58-.9.84,0,1.45.38,1.75,1.08h.07c.3-.65.88-1.08,1.77-1.08,1.14,0,2.07.74,2.07,2.33v3.75h-.94v-3.63c0-1.15-.59-1.57-1.32-1.57s-1.38.53-1.38,1.76v3.44h-.94v-3.62c0-1.14-.55-1.58-1.27-1.58h.04Z"/><path class="cls-2" d="m76.1,265.42c0-1.21,1.04-1.92,3.12-2.06l.61-.05v-.23c0-.8-.48-1.31-1.27-1.31s-1.25.41-1.36,1.02h-.96c.08-1.08,1.04-1.87,2.33-1.87s2.18.84,2.18,2.17v2.76c0,.37.2.49.53.49.05,0,.06,0,.2-.02v.71c-.13.05-.32.06-.46.06-.47,0-1.02-.25-1.1-.94h-.07c-.37.58-1.02.97-1.88.97-1.1,0-1.87-.66-1.87-1.7Zm1.98.85c1.06,0,1.75-.84,1.75-2v-.24l-.54.05c-1.52.13-2.22.56-2.22,1.32,0,.56.42.88,1.01.88h0Z"/><path class="cls-2" d="m82.65,258.37h.94v8.63h-.94v-8.63Z"/><path class="cls-2" d="m88.57,258.37h.94v3.49h.07c.41-.55,1.09-.94,1.93-.94,1.61,0,2.77,1.33,2.77,3.09s-1.16,3.11-2.77,3.11c-.84,0-1.63-.4-2.04-1.1h-.07l-.07.98h-.76v-8.63h0Zm2.82,7.88c1.1,0,1.93-.9,1.93-2.23s-.83-2.22-1.93-2.22-1.88.88-1.88,2.22.77,2.23,1.88,2.23Z"/><path class="cls-2" d="m95.9,261.04h.79l.07.86h.07c.23-.43.73-.93,1.76-.93.13,0,.22.01.32.04v.95c-.16-.02-.24-.02-.35-.02-1.01,0-1.74.67-1.74,2.09v2.99h-.94v-5.96l.02-.02Z"/><path class="cls-2" d="m99.68,264.01c0-1.78,1.27-3.09,2.93-3.09s2.72,1.2,2.72,2.87c0,.13,0,.26-.04.44h-4.63c.08,1.19.9,2.01,2.01,2.01.73,0,1.4-.36,1.6-.95h.97c-.24,1.14-1.31,1.82-2.57,1.82-1.74,0-3-1.32-3-3.11h0Zm4.65-.55c-.06-1.01-.77-1.67-1.71-1.67s-1.73.66-1.92,1.67h3.63Z"/><path class="cls-2" d="m106.57,265.42c0-1.21,1.04-1.92,3.12-2.06l.61-.05v-.23c0-.8-.48-1.31-1.27-1.31s-1.25.41-1.36,1.02h-.96c.08-1.08,1.04-1.87,2.33-1.87s2.18.84,2.18,2.17v2.76c0,.37.2.49.53.49.05,0,.06,0,.2-.02v.71c-.13.05-.32.06-.46.06-.47,0-1.02-.25-1.1-.94h-.07c-.37.58-1.02.97-1.88.97-1.1,0-1.87-.66-1.87-1.7Zm1.98.85c1.06,0,1.75-.84,1.75-2v-.24l-.54.05c-1.52.13-2.22.56-2.22,1.32,0,.56.42.88,1.01.88h0Z"/><path class="cls-2" d="m113.48,265.66v-3.78h-1.17v-.84h.26c.7,0,.97-.36.99-1.08l.02-.67h.83v1.75h1.39v.84h-1.39v3.6c0,.5.25.8.74.8.17,0,.37-.02.54-.08v.8c-.19.07-.43.12-.68.12-.9,0-1.54-.55-1.54-1.46h.01Z"/><path class="cls-2" d="m119.73,261.79c-.8,0-1.57.54-1.57,1.79v3.42h-.94v-8.63h.94v3.39h.07c.17-.25.68-.84,1.64-.84,1.27,0,2.24.83,2.24,2.42v3.66h-.93v-3.59c0-1.15-.64-1.62-1.45-1.62h0Z"/><path class="cls-2" d="m124.47,258.64c.36,0,.65.26.65.64s-.29.65-.65.65-.65-.28-.65-.65.29-.64.65-.64Zm-.47,2.4h.94v5.96h-.94v-5.96Z"/><path class="cls-2" d="m129.32,261.79c-.8,0-1.57.54-1.57,1.79v3.42h-.94v-5.96h.79l.07.78h.07c.26-.42.83-.9,1.71-.9,1.27,0,2.24.83,2.24,2.42v3.66h-.94v-3.59c0-1.15-.64-1.62-1.45-1.62h.02Z"/><path class="cls-2" d="m133.16,267.76l1.07-1.14c-.58-.23-.92-.74-.92-1.24,0-.58.4-1.01.82-1.24-.31-.34-.5-.78-.5-1.26,0-1.1.97-1.97,2.25-1.97.42,0,.8.1,1.13.25l.89-1.17.71.65-.98.97c.32.34.52.78.52,1.27,0,1.1-.97,1.97-2.25,1.97-.43,0-.82-.1-1.15-.26-.28.13-.47.37-.47.67,0,.4.32.66.8.66h1.34c1.25,0,2.03.73,2.03,1.71,0,1.15-1.04,1.88-2.48,1.88-1.69,0-2.58-1.08-2.78-1.76h-.03Zm2.78.94c.8,0,1.51-.32,1.51-1.02,0-.61-.5-.94-1.15-.94h-1.12l-1.03,1.06c.3.44.86.9,1.79.9Zm-.07-4.65c.74,0,1.3-.48,1.3-1.15s-.55-1.15-1.3-1.15-1.28.48-1.28,1.15.55,1.15,1.28,1.15Z"/></g><g id="Ellipse_14-3"><circle class="cls-2" cx="39.5" cy="263.5" r="1.5"/></g></g></g></g><g id="Group_107"><g id="Ellipse_18"><circle class="cls-4" cx="89" cy="89" r="89"/></g><g id="Recommended_Duration:_Safe_for_any_time_period"><path class="cls-2" d="m28.14,62.5h3.99c2.13,0,3.57,1.35,3.57,3.23,0,1.39-.79,2.37-1.92,2.82l2.17,4.46h-2.25l-1.98-4.05h-1.51v4.05h-2.07v-10.5h0Zm3.78,4.71c1,0,1.65-.6,1.65-1.48s-.65-1.47-1.64-1.47h-1.72v2.96h1.71,0Z"/><path class="cls-2" d="m36.62,69.24c0-2.34,1.74-3.97,3.87-3.97s3.67,1.51,3.67,3.73c0,.21,0,.43-.04.72h-5.43c.12,1.11.87,1.83,1.88,1.83.69,0,1.29-.34,1.46-.93h2.07c-.27,1.56-1.75,2.56-3.52,2.56-2.22,0-3.94-1.62-3.94-3.94h-.02Zm5.44-.88c-.09-.95-.75-1.47-1.54-1.47-.84,0-1.58.56-1.79,1.47h3.33Z"/><path class="cls-2" d="m45.46,69.22c0-2.29,1.65-3.96,3.91-3.96,1.98,0,3.44,1.2,3.6,2.92h-2.08c-.13-.63-.66-1.12-1.52-1.12-1.09,0-1.84.92-1.84,2.16s.75,2.18,1.84,2.18c.85,0,1.38-.5,1.52-1.12h2.08c-.17,1.72-1.62,2.91-3.6,2.91-2.26,0-3.91-1.65-3.91-3.96h0Z"/><path class="cls-2" d="m54.12,69.22c0-2.34,1.83-3.96,4-3.96s4,1.62,4,3.96-1.83,3.96-4,3.96-4-1.6-4-3.96Zm4,2.16c1.09,0,1.92-.87,1.92-2.16s-.83-2.16-1.92-2.16-1.94.88-1.94,2.16.85,2.16,1.94,2.16Z"/><path class="cls-2" d="m66.96,67.08c-.69,0-1.3.51-1.3,1.62v4.3h-1.98v-7.54h1.68l.17.99h.09c.31-.72,1.05-1.18,2.04-1.18s1.75.49,2.1,1.35h.09c.38-.86,1.16-1.35,2.23-1.35,1.5,0,2.61,1,2.61,2.97v4.77h-1.99v-4.46c0-1.04-.54-1.47-1.25-1.47s-1.27.51-1.27,1.62v4.3h-2v-4.46c0-1.04-.52-1.47-1.21-1.47h0Z"/><path class="cls-2" d="m79.8,67.08c-.69,0-1.3.51-1.3,1.62v4.3h-1.98v-7.54h1.68l.17.99h.09c.31-.72,1.05-1.18,2.04-1.18s1.75.49,2.1,1.35h.09c.38-.86,1.16-1.35,2.23-1.35,1.5,0,2.61,1,2.61,2.97v4.77h-1.99v-4.46c0-1.04-.54-1.47-1.25-1.47s-1.27.51-1.27,1.62v4.3h-2v-4.46c0-1.04-.52-1.47-1.21-1.47h0Z"/><path class="cls-2" d="m89.09,69.24c0-2.34,1.74-3.97,3.87-3.97s3.67,1.51,3.67,3.73c0,.21,0,.43-.04.72h-5.43c.12,1.11.87,1.83,1.88,1.83.69,0,1.29-.34,1.46-.93h2.07c-.27,1.56-1.75,2.56-3.52,2.56-2.22,0-3.94-1.62-3.94-3.94h-.02Zm5.44-.88c-.09-.95-.75-1.47-1.54-1.47-.84,0-1.58.56-1.79,1.47h3.33Z"/><path class="cls-2" d="m101.73,67.04c-.84,0-1.56.56-1.56,1.79v4.17h-1.99v-7.54h1.66l.18.99h.09c.33-.55,1.03-1.18,2.2-1.18,1.68,0,2.88,1.12,2.88,3.13v4.6h-2v-4.27c0-1.14-.63-1.68-1.47-1.68h.01Z"/><path class="cls-2" d="m112.83,73l-.17-1.11h-.09c-.43.81-1.35,1.29-2.39,1.29-1.93,0-3.43-1.63-3.43-3.96s1.5-3.96,3.43-3.96c1.04,0,1.77.48,2.18.99h.09v-4.05h2v10.8h-1.62Zm-2.17-1.56c1.07,0,1.8-.84,1.8-2.22s-.73-2.2-1.8-2.2-1.83.85-1.83,2.2.76,2.22,1.83,2.22Z"/><path class="cls-2" d="m116,69.24c0-2.34,1.74-3.97,3.87-3.97s3.67,1.51,3.67,3.73c0,.21,0,.43-.04.72h-5.43c.12,1.11.87,1.83,1.88,1.83.69,0,1.29-.34,1.46-.93h2.07c-.27,1.56-1.75,2.56-3.52,2.56-2.22,0-3.94-1.62-3.94-3.94h-.02Zm5.44-.88c-.09-.95-.75-1.47-1.54-1.47-.84,0-1.58.56-1.79,1.47h3.33Z"/><path class="cls-2" d="m130.89,73l-.17-1.11h-.09c-.43.81-1.35,1.29-2.38,1.29-1.93,0-3.43-1.63-3.43-3.96s1.5-3.96,3.43-3.96c1.04,0,1.77.48,2.18.99h.09v-4.05h1.99v10.8h-1.62Zm-2.18-1.56c1.07,0,1.8-.84,1.8-2.22s-.74-2.2-1.8-2.2-1.83.85-1.83,2.2.77,2.22,1.83,2.22Z"/><path class="cls-2" d="m28.14,83.5h3.52c3.42,0,5.43,2.07,5.43,5.25s-2.01,5.25-5.43,5.25h-3.52v-10.5Zm3.46,8.7c2.16,0,3.36-1.32,3.36-3.45s-1.2-3.45-3.36-3.45h-1.4v6.9s1.4,0,1.4,0Z"/><path class="cls-2" d="m38.71,91.04v-4.59h1.99v4.26c0,1.14.6,1.68,1.4,1.68s1.48-.56,1.48-1.77v-4.17h2v7.54h-1.67l-.18-.99h-.09c-.31.54-1.02,1.17-2.14,1.17-1.62,0-2.79-1.11-2.79-3.13Z"/><path class="cls-2" d="m47.42,86.46h1.67l.18,1.14h.09c.28-.66.96-1.25,2.14-1.25.23,0,.42.01.56.04v1.98c-.21-.03-.36-.04-.54-.04-1.3,0-2.1.84-2.1,2.4v3.27h-1.99v-7.54h0Z"/><path class="cls-2" d="m52.75,91.97c0-1.5,1.29-2.38,3.82-2.62l.72-.06v-.21c0-.71-.45-1.17-1.14-1.17-.65,0-1.11.34-1.2.97h-2.04c.07-1.51,1.44-2.62,3.28-2.62s3.09,1.17,3.09,3.01v2.76c0,.36.15.54.58.54h.18v1.46c-.21.08-.52.1-.73.1-.66,0-1.43-.29-1.68-1.15h-.09c-.5.73-1.29,1.2-2.35,1.2-1.46,0-2.44-.87-2.44-2.21Zm2.95.56c.96,0,1.59-.79,1.59-1.8v-.14l-.56.05c-1.27.12-1.89.51-1.89,1.15,0,.46.35.74.85.74h.01Z"/><path class="cls-2" d="m61.75,91.75v-3.6h-1.46v-1.7h.23c.92,0,1.42-.55,1.47-1.56l.03-.65h1.72v2.21h1.8v1.7h-1.8v3.31c0,.65.36.98.93.98.21,0,.42-.03.63-.09v1.68c-.31.09-.69.15-1.05.15-1.52,0-2.5-.96-2.5-2.43Z"/><path class="cls-2" d="m67.92,83.05c.67,0,1.23.54,1.23,1.23s-.55,1.23-1.23,1.23-1.23-.54-1.23-1.23.56-1.23,1.23-1.23Zm-.99,3.4h2v7.54h-2v-7.54Z"/><path class="cls-2" d="m70.46,90.22c0-2.34,1.83-3.96,4-3.96s4,1.62,4,3.96-1.83,3.96-4,3.96-4-1.6-4-3.96Zm4,2.16c1.09,0,1.92-.87,1.92-2.16s-.83-2.16-1.92-2.16-1.93.88-1.93,2.16.85,2.16,1.93,2.16Z"/><path class="cls-2" d="m83.58,88.04c-.84,0-1.56.56-1.56,1.79v4.17h-1.99v-7.54h1.67l.18.99h.09c.33-.55,1.03-1.18,2.2-1.18,1.68,0,2.88,1.12,2.88,3.13v4.6h-1.99v-4.27c0-1.14-.63-1.68-1.47-1.68h0Z"/><path class="cls-2" d="m89.6,86.35c.68,0,1.2.52,1.2,1.15s-.52,1.17-1.2,1.17-1.2-.52-1.2-1.17.51-1.15,1.2-1.15Zm-1.2,6.58c0-.63.51-1.15,1.2-1.15s1.2.52,1.2,1.15-.52,1.17-1.2,1.17-1.2-.53-1.2-1.17Z"/><path class="cls-2" d="m96.23,91.06h1.29c.17,1.2.99,1.96,2.48,1.96,1.05,0,2.13-.58,2.13-1.74,0-1.02-.66-1.56-2.1-2.04l-1-.33c-1.59-.52-2.41-1.41-2.41-2.79,0-1.6,1.44-2.77,3.13-2.77,1.92,0,3.33,1.26,3.43,2.77h-1.28c-.13-.92-.97-1.65-2.16-1.65-1,0-1.89.69-1.89,1.65,0,.89.62,1.33,1.91,1.75l.95.3c1.71.57,2.65,1.51,2.65,3.1,0,1.77-1.56,2.87-3.36,2.87-2.19,0-3.62-1.23-3.76-3.09h0Z"/><path class="cls-2" d="m105.03,92.02c0-1.52,1.3-2.4,3.9-2.58l.77-.06v-.29c0-1-.6-1.63-1.59-1.63s-1.56.51-1.7,1.28h-1.2c.11-1.35,1.3-2.34,2.91-2.34s2.73,1.05,2.73,2.71v3.45c0,.46.25.61.66.61.06,0,.08,0,.25-.03v.88c-.17.06-.4.08-.57.08-.58,0-1.28-.32-1.38-1.17h-.09c-.46.73-1.27,1.22-2.35,1.22-1.38,0-2.34-.83-2.34-2.13h0Zm2.47,1.06c1.32,0,2.19-1.05,2.19-2.5v-.3l-.68.06c-1.9.17-2.77.71-2.77,1.65,0,.71.53,1.09,1.26,1.09Z"/><path class="cls-2" d="m113.7,87.6h-1.47v-1.05h1.47v-1.36c0-1.4.96-2.13,2.04-2.13.51,0,.99.18,1.23.34l-.39.93c-.23-.12-.46-.18-.74-.18-.58,0-.97.39-.97,1.04v1.36h1.74v1.05h-1.74v6.4h-1.17s0-6.4,0-6.4Z"/><path class="cls-2" d="m117.55,90.27c0-2.22,1.59-3.87,3.66-3.87s3.4,1.5,3.4,3.58c0,.17,0,.33-.04.55h-5.79c.11,1.49,1.12,2.52,2.52,2.52.92,0,1.75-.45,2-1.18h1.21c-.3,1.42-1.63,2.28-3.21,2.28-2.17,0-3.75-1.65-3.75-3.88Zm5.82-.69c-.08-1.26-.96-2.08-2.14-2.08s-2.16.83-2.4,2.08h4.54Z"/><path class="cls-2" d="m131.21,87.6h-1.47v-1.05h1.47v-1.36c0-1.4.96-2.13,2.04-2.13.51,0,.99.18,1.23.34l-.39.93c-.22-.12-.46-.18-.73-.18-.58,0-.98.39-.98,1.04v1.36h1.74v1.05h-1.74v6.4h-1.17v-6.4Z"/><path class="cls-2" d="m135.08,90.27c0-2.21,1.63-3.87,3.78-3.87s3.78,1.67,3.78,3.87-1.63,3.88-3.78,3.88-3.78-1.67-3.78-3.88Zm3.78,2.79c1.5,0,2.56-1.21,2.56-2.79s-1.06-2.78-2.56-2.78-2.57,1.21-2.57,2.78,1.07,2.79,2.57,2.79Z"/><path class="cls-2" d="m144.63,86.54h.99l.09,1.08h.09c.29-.54.92-1.17,2.21-1.17.17,0,.27.02.41.04v1.19c-.2-.03-.3-.03-.44-.03-1.26,0-2.17.84-2.17,2.61v3.73h-1.17v-7.46h-.01Z"/><path class="cls-2" d="m27.84,113.02c0-1.52,1.31-2.4,3.9-2.58l.77-.06v-.29c0-1-.6-1.63-1.59-1.63s-1.56.51-1.7,1.28h-1.2c.1-1.35,1.3-2.34,2.91-2.34s2.73,1.05,2.73,2.71v3.45c0,.46.25.61.66.61.06,0,.07,0,.25-.03v.88c-.17.06-.4.08-.57.08-.58,0-1.27-.32-1.38-1.17h-.09c-.46.73-1.27,1.22-2.35,1.22-1.38,0-2.34-.83-2.34-2.13Zm2.48,1.06c1.32,0,2.19-1.05,2.19-2.5v-.3l-.68.06c-1.9.17-2.77.71-2.77,1.65,0,.71.53,1.09,1.26,1.09Z"/><path class="cls-2" d="m39.14,108.49c-1,0-1.96.67-1.96,2.24v4.27h-1.17v-7.46h.99l.09.98h.09c.33-.53,1.04-1.12,2.15-1.12,1.59,0,2.8,1.04,2.8,3.03v4.58h-1.17v-4.48c0-1.44-.79-2.03-1.81-2.03h-.01Z"/><path class="cls-2" d="m44.87,117.1c.52,0,1.08-.25,1.35-1.02l.41-1.11-3.17-7.42h1.26l2.37,5.85h.09l2.08-5.85h1.26l-3.19,8.73c-.53,1.44-1.49,1.87-2.4,1.87-.33,0-.66-.06-.93-.15v-1.04c.2.06.51.13.87.13h0Z"/><path class="cls-2" d="m56.75,113.32v-4.72h-1.47v-1.05h.33c.87,0,1.21-.45,1.25-1.35l.03-.84h1.04v2.19h1.74v1.05h-1.74v4.5c0,.63.31,1,.93,1,.21,0,.47-.03.68-.1v1c-.24.09-.54.15-.85.15-1.12,0-1.92-.69-1.92-1.83h-.02Z"/><path class="cls-2" d="m62.02,104.55c.45,0,.81.33.81.79s-.36.81-.81.81-.81-.34-.81-.81.36-.79.81-.79Zm-.58,3h1.17v7.46h-1.17v-7.46Z"/><path class="cls-2" d="m67.89,108.49c-.9,0-1.77.66-1.77,2.21v4.3h-1.17v-7.46h1l.08.98h.09c.3-.63,1.04-1.12,1.98-1.12,1.05,0,1.81.48,2.19,1.35h.09c.38-.81,1.1-1.35,2.22-1.35,1.42,0,2.59.93,2.59,2.91v4.69h-1.17v-4.54c0-1.44-.73-1.96-1.65-1.96s-1.73.66-1.73,2.21v4.3h-1.17v-4.53c0-1.42-.69-1.98-1.59-1.98h0Z"/><path class="cls-2" d="m77.19,111.27c0-2.22,1.59-3.87,3.66-3.87s3.4,1.5,3.4,3.58c0,.17,0,.33-.04.55h-5.79c.11,1.49,1.12,2.52,2.52,2.52.92,0,1.75-.45,2-1.18h1.21c-.3,1.42-1.63,2.28-3.21,2.28-2.17,0-3.75-1.65-3.75-3.88Zm5.82-.69c-.07-1.26-.96-2.08-2.14-2.08s-2.16.83-2.4,2.08h4.54Z"/><path class="cls-2" d="m90.15,107.54h.94l.09,1.23h.09c.51-.88,1.5-1.38,2.55-1.38,2.01,0,3.46,1.67,3.46,3.87s-1.46,3.88-3.46,3.88c-1.05,0-1.9-.48-2.41-1.17h-.09v4.02h-1.17v-10.46h0Zm3.52,6.51c1.38,0,2.42-1.12,2.42-2.79s-1.04-2.78-2.42-2.78-2.35,1.09-2.35,2.78.96,2.79,2.35,2.79Z"/><path class="cls-2" d="m99,111.27c0-2.22,1.59-3.87,3.66-3.87s3.4,1.5,3.4,3.58c0,.17,0,.33-.04.55h-5.79c.11,1.49,1.12,2.52,2.52,2.52.92,0,1.75-.45,2-1.18h1.21c-.3,1.42-1.63,2.28-3.21,2.28-2.17,0-3.75-1.65-3.75-3.88Zm5.82-.69c-.07-1.26-.96-2.08-2.14-2.08s-2.16.83-2.4,2.08h4.54Z"/><path class="cls-2" d="m108.06,107.54h.99l.09,1.08h.09c.29-.54.92-1.17,2.21-1.17.17,0,.27.02.41.04v1.19c-.2-.03-.3-.03-.44-.03-1.26,0-2.17.84-2.17,2.61v3.73h-1.17v-7.46h0Z"/><path class="cls-2" d="m114.01,104.55c.45,0,.81.33.81.79s-.36.81-.81.81-.81-.34-.81-.81.36-.79.81-.79Zm-.58,3h1.17v7.46h-1.17v-7.46Z"/><path class="cls-2" d="m116.6,111.27c0-2.21,1.63-3.87,3.78-3.87s3.78,1.67,3.78,3.87-1.63,3.88-3.78,3.88-3.78-1.67-3.78-3.88Zm3.78,2.79c1.5,0,2.56-1.21,2.56-2.79s-1.06-2.78-2.56-2.78-2.56,1.21-2.56,2.78,1.06,2.79,2.56,2.79Z"/><path class="cls-2" d="m132.05,115l-.11-1.23h-.09c-.49.88-1.5,1.38-2.54,1.38-2.02,0-3.48-1.68-3.48-3.88s1.45-3.87,3.48-3.87c1.04,0,1.89.48,2.42,1.17h.09v-4.37h1.15v10.8h-.93,0Zm-2.58-.95c1.38,0,2.36-1.09,2.36-2.79s-.97-2.78-2.36-2.78-2.41,1.12-2.41,2.78,1.02,2.79,2.41,2.79Z"/></g></g><g id="Group_175"><g id="EXAMPLE"><path class="cls-2" d="m56.41,324.5h6.64v1.33h-5.16v3.18h4.44v1.32h-4.44v3.33h5.16v1.33h-6.64v-10.5h0Z"/><path class="cls-2" d="m67.76,329.58l-3.1-5.08h1.68l2.34,3.86h.09l2.35-3.86h1.68l-3.1,5.08,3.3,5.42h-1.72l-2.5-4.16h-.09l-2.49,4.16h-1.73l3.3-5.42h-.01Z"/><path class="cls-2" d="m77.8,324.5h1.99l3.66,10.5h-1.56l-.93-2.73h-4.33l-.93,2.73h-1.56s3.66-10.5,3.66-10.5Zm2.7,6.44l-1.67-4.82h-.09l-1.65,4.82h3.41Z"/><path class="cls-2" d="m85.43,324.5h1.8l3.38,7.23h.09l3.38-7.23h1.81v10.5h-1.44v-7.74h-.09l-2.99,6.24h-1.44l-2.98-6.24h-.09v7.74h-1.42v-10.5h0Z"/><path class="cls-2" d="m98.69,324.5h3.75c2.07,0,3.5,1.26,3.5,3.2s-1.43,3.21-3.5,3.21h-2.26v4.09h-1.49v-10.5Zm3.75,5.07c1.2,0,1.98-.74,1.98-1.88s-.78-1.86-1.98-1.86h-2.26v3.74h2.26Z"/><path class="cls-2" d="m108.14,324.5h1.48v9.17h5.14v1.33h-6.63v-10.5h0Z"/><path class="cls-2" d="m116.89,324.5h6.64v1.33h-5.16v3.18h4.44v1.32h-4.44v3.33h5.16v1.33h-6.64v-10.5h0Z"/></g></g></g></g></g><path class="cls-2" d="m89.8,392.89c-7.97,0-15.56-3.84-20.3-10.27l1.45-1.07c4.4,5.97,11.44,9.53,18.85,9.53,12.9,0,23.4-10.5,23.4-23.4s-10.5-23.4-23.4-23.4-23.4,10.5-23.4,23.4c0,2.86.58,5.78,1.74,8.67l-1.67.67c-1.24-3.1-1.86-6.24-1.86-9.33,0-13.89,11.3-25.2,25.2-25.2s25.2,11.3,25.2,25.2-11.3,25.2-25.2,25.2h0Z"/><path class="cls-2" d="m82.77,378.37c-.19,0-.37-.05-.54-.15-.33-.2-.53-.56-.53-.97v-19.12c0-.41.2-.77.53-.97s.74-.19,1.1,0l17.41,9.57c.37.2.59.56.59.95s-.22.75-.59.95l-17.41,9.57c-.18.1-.37.15-.56.15v.02h0Zm.73-19.05v16.75l15.23-8.38-15.23-8.38h0Zm16.37,7.75h0Z"/><circle class="cls-2" cx="70" cy="382.09" r="3.6"/></g></svg>