<?xml version="1.0" encoding="utf-8"?>
<!-- Generator: Adobe Illustrator 27.5.0, SVG Export Plug-In . SVG Version: 6.00 Build 0)  -->
<svg version="1.1" id="Working_File" xmlns="http://www.w3.org/2000/svg" xmlns:xlink="http://www.w3.org/1999/xlink" x="0px"
	 y="0px" viewBox="0 0 178 599.5" style="enable-background:new 0 0 178 599.5;" xml:space="preserve">
<style type="text/css">
	.st0{enable-background:new    ;}
	.st1{fill:none;}
	.st2{fill:#102C49;}
	.st3{fill:#EFEFEF;}
	.st4{fill:#FFFFFF;}
	.st5{fill:#231F20;}
	.st6{fill:#00A451;}
</style>
<g id="Group_198">
	<g id="Line_161">
		<path d="M89,447.5c-0.8,0-1.5-0.7-1.5-1.5v-12c0-0.8,0.7-1.5,1.5-1.5s1.5,0.7,1.5,1.5v12C90.5,446.8,89.8,447.5,89,447.5z"/>
	</g>
	<g id="Line_173">
		<path d="M89,425.5c-0.8,0-1.5-0.7-1.5-1.5v-12c0-0.8,0.7-1.5,1.5-1.5s1.5,0.7,1.5,1.5v12C90.5,424.8,89.8,425.5,89,425.5z"/>
	</g>
	<g id="Line_157">
		<path d="M89,201.5c-0.8,0-1.5-0.7-1.5-1.5v-12c0-0.8,0.7-1.5,1.5-1.5s1.5,0.7,1.5,1.5v12C90.5,200.8,89.8,201.5,89,201.5z"/>
	</g>
	<g id="Line_162">
		<path d="M89,469.5c-0.8,0-1.5-0.7-1.5-1.5v-12c0-0.8,0.7-1.5,1.5-1.5s1.5,0.7,1.5,1.5v12C90.5,468.8,89.8,469.5,89,469.5z"/>
	</g>
	<g id="Line_163">
		<path d="M89,491.5c-0.8,0-1.5-0.7-1.5-1.5v-12c0-0.8,0.7-1.5,1.5-1.5s1.5,0.7,1.5,1.5v12C90.5,490.8,89.8,491.5,89,491.5z"/>
	</g>
	<g id="Line_158">
		<path d="M89,223.5c-0.8,0-1.5-0.7-1.5-1.5v-12c0-0.8,0.7-1.5,1.5-1.5s1.5,0.7,1.5,1.5v12C90.5,222.8,89.8,223.5,89,223.5z"/>
	</g>
	<g id="Group_197">
		<g id="Group_132">
			<g id="_0-75">
				<g class="st0">
					<path d="M69.5,538.6c0-4.3,1.9-6.7,5.1-6.7c3.3,0,5.1,2.4,5.1,6.7c0,4.2-1.9,6.6-5.1,6.6C71.4,545.2,69.5,542.8,69.5,538.6z
						 M74.7,543c1.6,0,2.4-1.5,2.4-4.4c0-2.9-0.8-4.4-2.4-4.4c-1.6,0-2.4,1.5-2.4,4.4C72.3,541.5,73.1,543,74.7,543z"/>
				</g>
				<g class="st0">
					<path d="M81.4,537.6h6.8v2.3h-6.8V537.6z"/>
				</g>
				<g class="st0">
					<path d="M93.9,534.6v-0.1H88v-2.3h9.4v1.7c-2.4,2.4-4.4,6.2-4.8,11.1h-2.8C90.2,539.8,91.9,536.8,93.9,534.6z"/>
				</g>
				<g class="st0">
					<path d="M98.8,541.3h2.7c0.1,0.9,0.9,1.7,2.1,1.7c1.2,0,2.1-0.8,2.1-2.1c0-1.3-0.9-2.2-2.2-2.2c-0.8,0-1.7,0.4-2.1,1.2
						l-2.4-0.6l0.7-7.1h8v2.3H102l-0.3,2.8h0.1c0.6-0.5,1.4-0.7,2.3-0.7c2.6,0,4.3,1.9,4.3,4.2c0,2.6-2,4.4-4.9,4.4
						C100.7,545.2,98.9,543.4,98.8,541.3z"/>
				</g>
			</g>
			<g id="_dB_">
				<g class="st0">
					<path d="M74.7,562.8c0,3.4,1,6.4,2.6,8.7l-1.6,1c-1.8-2.1-3.3-5.5-3.3-9.7c0-4.2,1.5-7.6,3.3-9.7l1.6,1
						C75.7,556.4,74.7,559.4,74.7,562.8z"/>
				</g>
				<g class="st0">
					<path d="M85.5,569l-0.2-1.5h-0.1c-0.6,1.1-1.8,1.7-3.2,1.7c-2.6,0-4.6-2.2-4.6-5.3c0-3.1,2-5.3,4.6-5.3c1.4,0,2.4,0.6,2.9,1.3
						H85v-5.4h2.7V569H85.5z M82.6,566.9c1.4,0,2.4-1.1,2.4-3c0-1.8-1-2.9-2.4-2.9c-1.4,0-2.4,1.1-2.4,2.9S81.2,566.9,82.6,566.9z"
						/>
				</g>
				<g class="st0">
					<path d="M90.2,555h5.3c2.7,0,4.5,1.6,4.5,3.7c0,1.5-0.9,2.4-1.7,2.8v0.1c1,0.5,2.1,1.7,2.1,3.4c0,2.3-1.9,3.9-4.6,3.9h-5.5V555
						z M95.3,560.8c1.2,0,2-0.7,2-1.8s-0.8-1.8-2-1.8H93v3.5H95.3z M95.4,566.8c1.2,0,2-0.8,2-1.9c0-1.1-0.8-1.9-2-1.9H93v3.8H95.4z
						"/>
				</g>
				<g class="st0">
					<path d="M103.4,562.8c0-3.4-1-6.4-2.6-8.7l1.6-1c1.8,2.1,3.3,5.5,3.3,9.7s-1.5,7.6-3.3,9.7l-1.6-1
						C102.3,569.2,103.4,566.2,103.4,562.8z"/>
				</g>
			</g>
		</g>
		<g id="Group_183">
			<g id="Path_7">
				<g>
					<path class="st1" d="M88.6,502c26.9,0,48.8,21.8,48.8,48.8s-21.8,48.8-48.8,48.8s-48.8-21.8-48.8-48.8l0,0
						C39.8,523.8,61.6,502,88.6,502z"/>
				</g>
				<g>
					<path class="st2" d="M88.6,505c-6.2,0-12.2,1.2-17.8,3.6c-5.4,2.3-10.3,5.6-14.5,9.8s-7.5,9.1-9.8,14.5
						c-2.4,5.6-3.6,11.6-3.6,17.8s1.2,12.2,3.6,17.8c2.3,5.5,5.6,10.3,9.8,14.5s9.1,7.5,14.5,9.8c5.6,2.4,11.6,3.6,17.8,3.6
						s12.2-1.2,17.8-3.6c5.4-2.3,10.3-5.6,14.5-9.8c4.2-4.2,7.5-9.1,9.8-14.5c2.4-5.6,3.6-11.6,3.6-17.8s-1.2-12.2-3.6-17.8
						c-2.3-5.5-5.6-10.3-9.8-14.5s-9.1-7.5-14.5-9.8C100.7,506.2,94.7,505,88.6,505 M88.5,502c26.9,0,48.7,21.8,48.7,48.7
						s-21.8,48.8-48.8,48.8s-48.8-21.8-48.8-48.8S61.6,502,88.5,502L88.5,502z"/>
				</g>
			</g>
			<g id="Ellipse_46">
				<circle class="st3" cx="89" cy="317" r="85"/>
			</g>
			<g id="Group_181">
				<g id="Group_34">
					<g id="Group_182">
						<g id="Air_Conditioner">
							<g class="st0">
								<path d="M48.4,296.6h1.3l3,8.4h-1l-0.8-2.3h-3.6l-0.8,2.3h-1L48.4,296.6z M50.6,301.8l-1.5-4.1h-0.1l-1.4,4.1H50.6z"/>
							</g>
							<g class="st0">
								<path d="M54.5,296.6c0.4,0,0.6,0.3,0.6,0.6s-0.3,0.6-0.6,0.6s-0.6-0.3-0.6-0.6S54.1,296.6,54.5,296.6z M54,299H55v6H54V299z
									"/>
								<path d="M56.8,299h0.8l0.1,0.9h0.1c0.2-0.4,0.7-0.9,1.8-0.9c0.1,0,0.2,0,0.3,0v0.9c-0.2,0-0.2,0-0.3,0c-1,0-1.7,0.7-1.7,2.1
									v3h-0.9V299z"/>
							</g>
							<g class="st0">
								<path d="M64.1,300.8c0-2.5,1.7-4.3,4-4.3c1.9,0,3.3,1.2,3.6,2.7h-1c-0.3-1-1.2-1.8-2.6-1.8c-1.8,0-3,1.4-3,3.4
									c0,2,1.3,3.4,3,3.4c1.5,0,2.3-0.7,2.6-1.8h1c-0.3,1.6-1.7,2.7-3.6,2.7C65.9,305.1,64.1,303.3,64.1,300.8z"/>
							</g>
							<g class="st0">
								<path d="M73,302c0-1.8,1.3-3.1,3-3.1c1.7,0,3,1.3,3,3.1c0,1.8-1.3,3.1-3,3.1C74.3,305.1,73,303.8,73,302z M76,304.2
									c1.2,0,2.1-1,2.1-2.2c0-1.2-0.9-2.2-2.1-2.2c-1.2,0-2.1,1-2.1,2.2C74,303.3,74.8,304.2,76,304.2z"/>
								<path d="M83.1,299.8c-0.8,0-1.6,0.5-1.6,1.8v3.4h-0.9v-6h0.8l0.1,0.8h0.1c0.3-0.4,0.8-0.9,1.7-0.9c1.3,0,2.2,0.8,2.2,2.4
									v3.7h-0.9v-3.6C84.6,300.3,83.9,299.8,83.1,299.8z"/>
								<path d="M92.1,305l-0.1-1h-0.1c-0.4,0.7-1.2,1.1-2,1.1c-1.6,0-2.8-1.3-2.8-3.1s1.2-3.1,2.8-3.1c0.8,0,1.5,0.4,1.9,0.9h0.1
									v-3.5h0.9v8.6H92.1z M90,304.2c1.1,0,1.9-0.9,1.9-2.2c0-1.3-0.8-2.2-1.9-2.2c-1.1,0-1.9,0.9-1.9,2.2
									C88.1,303.3,88.9,304.2,90,304.2z"/>
								<path d="M95.2,296.6c0.4,0,0.6,0.3,0.6,0.6s-0.3,0.6-0.6,0.6c-0.4,0-0.6-0.3-0.6-0.6S94.8,296.6,95.2,296.6z M94.7,299h0.9
									v6h-0.9V299z"/>
							</g>
							<g class="st0">
								<path d="M98.1,303.7v-3.8h-1.2V299h0.3c0.7,0,1-0.4,1-1.1l0-0.7H99v1.8h1.4v0.8H99v3.6c0,0.5,0.3,0.8,0.7,0.8
									c0.2,0,0.4,0,0.5-0.1v0.8c-0.2,0.1-0.4,0.1-0.7,0.1C98.7,305.1,98.1,304.6,98.1,303.7z"/>
							</g>
							<g class="st0">
								<path d="M102.3,296.6c0.4,0,0.6,0.3,0.6,0.6s-0.3,0.6-0.6,0.6c-0.4,0-0.6-0.3-0.6-0.6S102,296.6,102.3,296.6z M101.8,299
									h0.9v6h-0.9V299z"/>
								<path d="M104.4,302c0-1.8,1.3-3.1,3-3.1c1.7,0,3,1.3,3,3.1c0,1.8-1.3,3.1-3,3.1C105.7,305.1,104.4,303.8,104.4,302z
									 M107.4,304.2c1.2,0,2.1-1,2.1-2.2c0-1.2-0.9-2.2-2.1-2.2c-1.2,0-2.1,1-2.1,2.2C105.3,303.3,106.2,304.2,107.4,304.2z"/>
								<path d="M114.5,299.8c-0.8,0-1.6,0.5-1.6,1.8v3.4H112v-6h0.8l0.1,0.8h0.1c0.3-0.4,0.8-0.9,1.7-0.9c1.3,0,2.2,0.8,2.2,2.4
									v3.7H116v-3.6C116,300.3,115.3,299.8,114.5,299.8z"/>
								<path d="M118.5,302c0-1.8,1.3-3.1,2.9-3.1c1.6,0,2.7,1.2,2.7,2.9c0,0.1,0,0.3,0,0.4h-4.6c0.1,1.2,0.9,2,2,2
									c0.7,0,1.4-0.4,1.6-0.9h1c-0.2,1.1-1.3,1.8-2.6,1.8C119.8,305.1,118.5,303.8,118.5,302z M123.2,301.5
									c-0.1-1-0.8-1.7-1.7-1.7c-0.9,0-1.7,0.7-1.9,1.7H123.2z"/>
								<path d="M125.8,299h0.8l0.1,0.9h0.1c0.2-0.4,0.7-0.9,1.8-0.9c0.1,0,0.2,0,0.3,0v0.9c-0.2,0-0.2,0-0.3,0
									c-1,0-1.7,0.7-1.7,2.1v3h-0.9V299z"/>
							</g>
						</g>
						<g id="Ellipse_14">
							<circle cx="39.5" cy="301.5" r="1.5"/>
						</g>
					</g>
					<g id="Group_28">
						<g id="Washing_Machine">
							<g class="st0">
								<path d="M45.5,277.6h0.9l1.8,7h0.1l1.8-6.3h1.1l1.7,6.3h0.1l1.8-7h0.9l-2.1,8.4h-1.2l-1.8-6.4h-0.1l-1.8,6.4h-1.2
									L45.5,277.6z"/>
							</g>
							<g class="st0">
								<path d="M56.2,284.4c0-1.2,1-1.9,3.1-2.1l0.6,0v-0.2c0-0.8-0.5-1.3-1.3-1.3c-0.8,0-1.2,0.4-1.4,1h-1c0.1-1.1,1-1.9,2.3-1.9
									c1.3,0,2.2,0.8,2.2,2.2v2.8c0,0.4,0.2,0.5,0.5,0.5c0,0,0.1,0,0.2,0v0.7c-0.1,0-0.3,0.1-0.5,0.1c-0.5,0-1-0.3-1.1-0.9v0h-0.1
									c-0.4,0.6-1,1-1.9,1C57,286.1,56.2,285.5,56.2,284.4z M58.2,285.3c1.1,0,1.8-0.8,1.8-2V283l-0.5,0c-1.5,0.1-2.2,0.6-2.2,1.3
									C57.2,285,57.6,285.3,58.2,285.3z"/>
								<path d="M62.4,284.2h1c0.1,0.6,0.6,1.1,1.4,1.1c0.7,0,1.2-0.3,1.2-0.8c0-0.5-0.3-0.7-0.9-0.9l-0.8-0.2
									c-1-0.3-1.6-0.8-1.6-1.7c0-1,0.9-1.7,2.1-1.7c1.1,0,2,0.7,2.1,1.7h-1c-0.1-0.5-0.5-0.9-1.2-0.9c-0.6,0-1.1,0.3-1.1,0.9
									c0,0.4,0.3,0.7,1,0.9l0.8,0.2c1.1,0.3,1.5,0.9,1.5,1.7c0,1.1-1,1.7-2.2,1.7C63.5,286.1,62.5,285.3,62.4,284.2z"/>
								<path d="M71.1,280.8c-0.8,0-1.6,0.5-1.6,1.8v3.4h-0.9v-8.6h0.9v3.4h0.1c0.2-0.3,0.7-0.8,1.6-0.8c1.3,0,2.2,0.8,2.2,2.4v3.7
									h-0.9v-3.6C72.5,281.3,71.9,280.8,71.1,280.8z"/>
								<path d="M75.8,277.6c0.4,0,0.6,0.3,0.6,0.6s-0.3,0.6-0.6,0.6s-0.6-0.3-0.6-0.6S75.4,277.6,75.8,277.6z M75.3,280h0.9v6h-0.9
									V280z"/>
							</g>
							<g class="st0">
								<path d="M80.7,280.8c-0.8,0-1.6,0.5-1.6,1.8v3.4h-0.9v-6h0.8l0.1,0.8h0.1c0.3-0.4,0.8-0.9,1.7-0.9c1.3,0,2.2,0.8,2.2,2.4
									v3.7h-0.9v-3.6C82.1,281.3,81.5,280.8,80.7,280.8z"/>
							</g>
							<g class="st0">
								<path d="M84.5,286.8l1.1-1.1c-0.6-0.2-0.9-0.7-0.9-1.2c0-0.6,0.4-1,0.8-1.2c-0.3-0.3-0.5-0.8-0.5-1.3c0-1.1,1-2,2.3-2
									c0.4,0,0.8,0.1,1.1,0.3l0.9-1.2l0.7,0.6l-1,1c0.3,0.3,0.5,0.8,0.5,1.3c0,1.1-1,2-2.3,2c-0.4,0-0.8-0.1-1.2-0.3
									c-0.3,0.1-0.5,0.4-0.5,0.7c0,0.4,0.3,0.7,0.8,0.7h1.3c1.2,0,2,0.7,2,1.7c0,1.2-1,1.9-2.5,1.9
									C85.6,288.5,84.7,287.4,84.5,286.8z M87.3,287.7c0.8,0,1.5-0.3,1.5-1c0-0.6-0.5-0.9-1.2-0.9h-1.1l-1,1.1
									C85.8,287.2,86.4,287.7,87.3,287.7z M87.2,283c0.7,0,1.3-0.5,1.3-1.2c0-0.7-0.6-1.2-1.3-1.2c-0.7,0-1.3,0.5-1.3,1.2
									C85.9,282.6,86.5,283,87.2,283z"/>
							</g>
							<g class="st0">
								<path d="M94.4,277.6h1.2l2.9,6h0.1l2.8-6h1.2v8.4h-0.9v-6.6h-0.1l-2.6,5.3h-1l-2.6-5.3h-0.1v6.6h-0.9V277.6z"/>
							</g>
							<g class="st0">
								<path d="M104.2,284.4c0-1.2,1-1.9,3.1-2.1l0.6,0v-0.2c0-0.8-0.5-1.3-1.3-1.3c-0.8,0-1.2,0.4-1.4,1h-1c0.1-1.1,1-1.9,2.3-1.9
									c1.3,0,2.2,0.8,2.2,2.2v2.8c0,0.4,0.2,0.5,0.5,0.5c0,0,0.1,0,0.2,0v0.7c-0.1,0-0.3,0.1-0.5,0.1c-0.5,0-1-0.3-1.1-0.9v0h-0.1
									c-0.4,0.6-1,1-1.9,1C104.9,286.1,104.2,285.5,104.2,284.4z M106.2,285.3c1.1,0,1.8-0.8,1.8-2V283l-0.5,0
									c-1.5,0.1-2.2,0.6-2.2,1.3C105.2,285,105.6,285.3,106.2,285.3z"/>
							</g>
							<g class="st0">
								<path d="M110.4,283c0-1.8,1.2-3.1,3-3.1c1.4,0,2.5,0.8,2.7,2.1h-1c-0.2-0.7-0.8-1.2-1.7-1.2c-1.2,0-2,0.9-2,2.2
									c0,1.3,0.8,2.2,2,2.2c0.9,0,1.5-0.5,1.7-1.2h1c-0.2,1.2-1.3,2.1-2.7,2.1C111.7,286.1,110.4,284.8,110.4,283z"/>
							</g>
							<g class="st0">
								<path d="M120.1,280.8c-0.8,0-1.6,0.5-1.6,1.8v3.4h-0.9v-8.6h0.9v3.4h0.1c0.2-0.3,0.7-0.8,1.6-0.8c1.3,0,2.2,0.8,2.2,2.4v3.7
									h-0.9v-3.6C121.5,281.3,120.9,280.8,120.1,280.8z"/>
								<path d="M124.8,277.6c0.4,0,0.6,0.3,0.6,0.6s-0.3,0.6-0.6,0.6c-0.4,0-0.6-0.3-0.6-0.6S124.5,277.6,124.8,277.6z M124.3,280
									h0.9v6h-0.9V280z"/>
								<path d="M129.7,280.8c-0.8,0-1.6,0.5-1.6,1.8v3.4h-0.9v-6h0.8l0.1,0.8h0.1c0.3-0.4,0.8-0.9,1.7-0.9c1.3,0,2.2,0.8,2.2,2.4
									v3.7h-0.9v-3.6C131.1,281.3,130.5,280.8,129.7,280.8z"/>
								<path d="M133.7,283c0-1.8,1.3-3.1,2.9-3.1c1.6,0,2.7,1.2,2.7,2.9c0,0.1,0,0.3,0,0.4h-4.6c0.1,1.2,0.9,2,2,2
									c0.7,0,1.4-0.4,1.6-0.9h1c-0.2,1.1-1.3,1.8-2.6,1.8C134.9,286.1,133.7,284.8,133.7,283z M138.3,282.5
									c-0.1-1-0.8-1.7-1.7-1.7s-1.7,0.7-1.9,1.7H138.3z"/>
							</g>
						</g>
						<g id="Ellipse_14-2">
							<circle cx="39.5" cy="282.5" r="1.5"/>
						</g>
					</g>
					<g id="Group_27">
						<g id="Normal_breathing">
							<g class="st0">
								<path d="M46.2,258.6h1l4.6,6.7h0.1v-6.7h1v8.4h-1l-4.6-6.7h-0.1v6.7h-0.9V258.6z"/>
							</g>
							<g class="st0">
								<path d="M54.4,264c0-1.8,1.3-3.1,3-3.1c1.7,0,3,1.3,3,3.1c0,1.8-1.3,3.1-3,3.1C55.7,267.1,54.4,265.8,54.4,264z M57.5,266.2
									c1.2,0,2.1-1,2.1-2.2c0-1.2-0.9-2.2-2.1-2.2c-1.2,0-2.1,1-2.1,2.2C55.4,265.3,56.3,266.2,57.5,266.2z"/>
								<path d="M62.1,261h0.8l0.1,0.9H63c0.2-0.4,0.7-0.9,1.8-0.9c0.1,0,0.2,0,0.3,0v0.9c-0.2,0-0.2,0-0.3,0c-1,0-1.7,0.7-1.7,2.1
									v3h-0.9V261z"/>
							</g>
							<g class="st0">
								<path d="M68.7,261.8c-0.7,0-1.4,0.5-1.4,1.8v3.4h-0.9v-6h0.8l0.1,0.8h0.1c0.2-0.5,0.8-0.9,1.6-0.9c0.8,0,1.5,0.4,1.8,1.1
									h0.1c0.3-0.6,0.9-1.1,1.8-1.1c1.1,0,2.1,0.7,2.1,2.3v3.8h-0.9v-3.6c0-1.2-0.6-1.6-1.3-1.6c-0.8,0-1.4,0.5-1.4,1.8v3.4H70
									v-3.6C70,262.2,69.4,261.8,68.7,261.8z"/>
							</g>
							<g class="st0">
								<path d="M76.1,265.4c0-1.2,1-1.9,3.1-2.1l0.6,0v-0.2c0-0.8-0.5-1.3-1.3-1.3c-0.8,0-1.2,0.4-1.4,1h-1c0.1-1.1,1-1.9,2.3-1.9
									c1.3,0,2.2,0.8,2.2,2.2v2.8c0,0.4,0.2,0.5,0.5,0.5c0,0,0.1,0,0.2,0v0.7c-0.1,0-0.3,0.1-0.5,0.1c-0.5,0-1-0.3-1.1-0.9v0h-0.1
									c-0.4,0.6-1,1-1.9,1C76.9,267.1,76.1,266.5,76.1,265.4z M78.1,266.3c1.1,0,1.8-0.8,1.8-2V264l-0.5,0
									c-1.5,0.1-2.2,0.6-2.2,1.3C77.1,266,77.5,266.3,78.1,266.3z"/>
							</g>
							<g class="st0">
								<path d="M82.6,258.4h0.9v8.6h-0.9V258.4z"/>
								<path d="M88.6,258.4h0.9v3.5h0.1c0.4-0.6,1.1-0.9,1.9-0.9c1.6,0,2.8,1.3,2.8,3.1s-1.2,3.1-2.8,3.1c-0.8,0-1.6-0.4-2-1.1
									h-0.1l-0.1,1h-0.8V258.4z M91.4,266.2c1.1,0,1.9-0.9,1.9-2.2c0-1.3-0.8-2.2-1.9-2.2c-1.1,0-1.9,0.9-1.9,2.2
									C89.5,265.4,90.3,266.2,91.4,266.2z"/>
							</g>
							<g class="st0">
								<path d="M95.9,261h0.8l0.1,0.9h0.1c0.2-0.4,0.7-0.9,1.8-0.9c0.1,0,0.2,0,0.3,0v0.9c-0.2,0-0.2,0-0.3,0c-1,0-1.7,0.7-1.7,2.1
									v3h-0.9V261z"/>
							</g>
							<g class="st0">
								<path d="M99.7,264c0-1.8,1.3-3.1,2.9-3.1c1.6,0,2.7,1.2,2.7,2.9c0,0.1,0,0.3,0,0.4h-4.6c0.1,1.2,0.9,2,2,2
									c0.7,0,1.4-0.4,1.6-0.9h1c-0.2,1.1-1.3,1.8-2.6,1.8C100.9,267.1,99.7,265.8,99.7,264z M104.3,263.5c-0.1-1-0.8-1.7-1.7-1.7
									c-0.9,0-1.7,0.7-1.9,1.7H104.3z"/>
							</g>
							<g class="st0">
								<path d="M106.6,265.4c0-1.2,1-1.9,3.1-2.1l0.6,0v-0.2c0-0.8-0.5-1.3-1.3-1.3c-0.8,0-1.2,0.4-1.4,1h-1c0.1-1.1,1-1.9,2.3-1.9
									c1.3,0,2.2,0.8,2.2,2.2v2.8c0,0.4,0.2,0.5,0.5,0.5c0,0,0.1,0,0.2,0v0.7c-0.1,0-0.3,0.1-0.5,0.1c-0.5,0-1-0.3-1.1-0.9v0h-0.1
									c-0.4,0.6-1,1-1.9,1C107.3,267.1,106.6,266.5,106.6,265.4z M108.6,266.3c1.1,0,1.8-0.8,1.8-2V264l-0.5,0
									c-1.5,0.1-2.2,0.6-2.2,1.3C107.5,266,108,266.3,108.6,266.3z"/>
							</g>
							<g class="st0">
								<path d="M113.5,265.7v-3.8h-1.2V261h0.3c0.7,0,1-0.4,1-1.1l0-0.7h0.8v1.8h1.4v0.8h-1.4v3.6c0,0.5,0.3,0.8,0.7,0.8
									c0.2,0,0.4,0,0.5-0.1v0.8c-0.2,0.1-0.4,0.1-0.7,0.1C114.1,267.1,113.5,266.6,113.5,265.7z"/>
							</g>
							<g class="st0">
								<path d="M119.7,261.8c-0.8,0-1.6,0.5-1.6,1.8v3.4h-0.9v-8.6h0.9v3.4h0.1c0.2-0.3,0.7-0.8,1.6-0.8c1.3,0,2.2,0.8,2.2,2.4v3.7
									h-0.9v-3.6C121.2,262.3,120.5,261.8,119.7,261.8z"/>
								<path d="M124.5,258.6c0.4,0,0.6,0.3,0.6,0.6s-0.3,0.6-0.6,0.6c-0.4,0-0.6-0.3-0.6-0.6S124.1,258.6,124.5,258.6z M124,261
									h0.9v6H124V261z"/>
							</g>
							<g class="st0">
								<path d="M129.3,261.8c-0.8,0-1.6,0.5-1.6,1.8v3.4h-0.9v-6h0.8l0.1,0.8h0.1c0.3-0.4,0.8-0.9,1.7-0.9c1.3,0,2.2,0.8,2.2,2.4
									v3.7h-0.9v-3.6C130.8,262.3,130.1,261.8,129.3,261.8z"/>
							</g>
							<g class="st0">
								<path d="M133.2,267.8l1.1-1.1c-0.6-0.2-0.9-0.7-0.9-1.2c0-0.6,0.4-1,0.8-1.2c-0.3-0.3-0.5-0.8-0.5-1.3c0-1.1,1-2,2.3-2
									c0.4,0,0.8,0.1,1.1,0.3l0.9-1.2l0.7,0.6l-1,1c0.3,0.3,0.5,0.8,0.5,1.3c0,1.1-1,2-2.3,2c-0.4,0-0.8-0.1-1.2-0.3
									c-0.3,0.1-0.5,0.4-0.5,0.7c0,0.4,0.3,0.7,0.8,0.7h1.3c1.2,0,2,0.7,2,1.7c0,1.2-1,1.9-2.5,1.9
									C134.3,269.5,133.4,268.4,133.2,267.8z M135.9,268.7c0.8,0,1.5-0.3,1.5-1c0-0.6-0.5-0.9-1.2-0.9h-1.1l-1,1.1
									C134.5,268.2,135,268.7,135.9,268.7z M135.9,264c0.7,0,1.3-0.5,1.3-1.2c0-0.7-0.6-1.2-1.3-1.2c-0.7,0-1.3,0.5-1.3,1.2
									C134.6,263.6,135.1,264,135.9,264z"/>
							</g>
						</g>
						<g id="Ellipse_14-3">
							<circle cx="39.5" cy="263.5" r="1.5"/>
						</g>
					</g>
				</g>
			</g>
			<g id="Group_107">
				<g id="Ellipse_18">
					<circle class="st2" cx="89" cy="89" r="89"/>
				</g>
				<g id="Recommended_Duration:_Safe_for_any_time_period">
					<g class="st0">
						<path class="st4" d="M28.1,62.5h4c2.1,0,3.6,1.4,3.6,3.2c0,1.4-0.8,2.4-1.9,2.8L36,73h-2.2l-2-4h-1.5v4h-2.1V62.5z M31.9,67.2
							c1,0,1.6-0.6,1.6-1.5c0-0.9-0.6-1.5-1.6-1.5h-1.7v3H31.9z"/>
					</g>
					<g class="st0">
						<path class="st4" d="M36.6,69.2c0-2.3,1.7-4,3.9-4c2.1,0,3.7,1.5,3.7,3.7c0,0.2,0,0.4,0,0.7h-5.4c0.1,1.1,0.9,1.8,1.9,1.8
							c0.7,0,1.3-0.3,1.5-0.9h2.1c-0.3,1.6-1.8,2.6-3.5,2.6C38.4,73.2,36.6,71.6,36.6,69.2z M42.1,68.4c-0.1-0.9-0.8-1.5-1.5-1.5
							c-0.8,0-1.6,0.6-1.8,1.5H42.1z"/>
					</g>
					<g class="st0">
						<path class="st4" d="M45.5,69.2c0-2.3,1.6-4,3.9-4c2,0,3.4,1.2,3.6,2.9h-2.1c-0.1-0.6-0.7-1.1-1.5-1.1c-1.1,0-1.8,0.9-1.8,2.2
							c0,1.3,0.8,2.2,1.8,2.2c0.9,0,1.4-0.5,1.5-1.1H53c-0.2,1.7-1.6,2.9-3.6,2.9C47.1,73.2,45.5,71.5,45.5,69.2z"/>
					</g>
					<g class="st0">
						<path class="st4" d="M54.1,69.2c0-2.3,1.8-4,4-4s4,1.6,4,4c0,2.4-1.8,4-4,4S54.1,71.6,54.1,69.2z M58.1,71.4
							c1.1,0,1.9-0.9,1.9-2.2c0-1.3-0.8-2.2-1.9-2.2c-1.1,0-1.9,0.9-1.9,2.2C56.2,70.5,57,71.4,58.1,71.4z"/>
						<path class="st4" d="M67,67.1c-0.7,0-1.3,0.5-1.3,1.6V73h-2v-7.5h1.7l0.2,1h0.1c0.3-0.7,1-1.2,2-1.2c1,0,1.8,0.5,2.1,1.3h0.1
							c0.4-0.9,1.2-1.3,2.2-1.3c1.5,0,2.6,1,2.6,3V73h-2v-4.5c0-1-0.5-1.5-1.2-1.5c-0.7,0-1.3,0.5-1.3,1.6V73h-2v-4.5
							C68.2,67.5,67.7,67.1,67,67.1z"/>
						<path class="st4" d="M79.8,67.1c-0.7,0-1.3,0.5-1.3,1.6V73h-2v-7.5h1.7l0.2,1h0.1c0.3-0.7,1-1.2,2-1.2c1,0,1.8,0.5,2.1,1.3
							h0.1c0.4-0.9,1.2-1.3,2.2-1.3c1.5,0,2.6,1,2.6,3V73h-2v-4.5c0-1-0.5-1.5-1.2-1.5c-0.7,0-1.3,0.5-1.3,1.6V73h-2v-4.5
							C81,67.5,80.5,67.1,79.8,67.1z"/>
						<path class="st4" d="M89.1,69.2c0-2.3,1.7-4,3.9-4c2.1,0,3.7,1.5,3.7,3.7c0,0.2,0,0.4,0,0.7h-5.4c0.1,1.1,0.9,1.8,1.9,1.8
							c0.7,0,1.3-0.3,1.5-0.9h2.1c-0.3,1.6-1.8,2.6-3.5,2.6C90.8,73.2,89.1,71.6,89.1,69.2z M94.5,68.4c-0.1-0.9-0.8-1.5-1.5-1.5
							c-0.8,0-1.6,0.6-1.8,1.5H94.5z"/>
						<path class="st4" d="M101.7,67c-0.8,0-1.6,0.6-1.6,1.8V73h-2v-7.5h1.7l0.2,1h0.1c0.3-0.6,1-1.2,2.2-1.2c1.7,0,2.9,1.1,2.9,3.1
							V73h-2v-4.3C103.2,67.6,102.6,67,101.7,67z"/>
						<path class="st4" d="M112.8,73l-0.2-1.1h-0.1c-0.4,0.8-1.4,1.3-2.4,1.3c-1.9,0-3.4-1.6-3.4-4c0-2.3,1.5-4,3.4-4
							c1,0,1.8,0.5,2.2,1h0.1v-4h2V73H112.8z M110.7,71.4c1.1,0,1.8-0.8,1.8-2.2c0-1.4-0.7-2.2-1.8-2.2s-1.8,0.9-1.8,2.2
							C108.8,70.6,109.6,71.4,110.7,71.4z"/>
						<path class="st4" d="M116,69.2c0-2.3,1.7-4,3.9-4c2.1,0,3.7,1.5,3.7,3.7c0,0.2,0,0.4,0,0.7h-5.4c0.1,1.1,0.9,1.8,1.9,1.8
							c0.7,0,1.3-0.3,1.5-0.9h2.1c-0.3,1.6-1.8,2.6-3.5,2.6C117.7,73.2,116,71.6,116,69.2z M121.4,68.4c-0.1-0.9-0.8-1.5-1.5-1.5
							c-0.8,0-1.6,0.6-1.8,1.5H121.4z"/>
						<path class="st4" d="M130.9,73l-0.2-1.1h-0.1c-0.4,0.8-1.3,1.3-2.4,1.3c-1.9,0-3.4-1.6-3.4-4c0-2.3,1.5-4,3.4-4
							c1,0,1.8,0.5,2.2,1h0.1v-4h2V73H130.9z M128.7,71.4c1.1,0,1.8-0.8,1.8-2.2c0-1.4-0.7-2.2-1.8-2.2c-1.1,0-1.8,0.9-1.8,2.2
							C126.9,70.6,127.7,71.4,128.7,71.4z"/>
					</g>
					<g class="st0">
						<path class="st4" d="M28.1,83.5h3.5c3.4,0,5.4,2.1,5.4,5.2s-2,5.2-5.4,5.2h-3.5V83.5z M31.6,92.2c2.2,0,3.4-1.3,3.4-3.5
							s-1.2-3.4-3.4-3.4h-1.4v6.9H31.6z"/>
					</g>
					<g class="st0">
						<path class="st4" d="M38.7,91v-4.6h2v4.3c0,1.1,0.6,1.7,1.4,1.7s1.5-0.6,1.5-1.8v-4.2h2V94h-1.7l-0.2-1h-0.1
							c-0.3,0.5-1,1.2-2.1,1.2C39.9,94.2,38.7,93.1,38.7,91z"/>
					</g>
					<g class="st0">
						<path class="st4" d="M47.4,86.5h1.7l0.2,1.1h0.1c0.3-0.7,1-1.2,2.1-1.2c0.2,0,0.4,0,0.6,0v2c-0.2,0-0.4,0-0.5,0
							c-1.3,0-2.1,0.8-2.1,2.4V94h-2V86.5z"/>
					</g>
					<g class="st0">
						<path class="st4" d="M52.8,92c0-1.5,1.3-2.4,3.8-2.6l0.7-0.1v-0.2c0-0.7-0.5-1.2-1.1-1.2c-0.6,0-1.1,0.3-1.2,1h-2
							c0.1-1.5,1.4-2.6,3.3-2.6c1.9,0,3.1,1.2,3.1,3V92c0,0.4,0.1,0.5,0.6,0.5l0.2,0V94c-0.2,0.1-0.5,0.1-0.7,0.1
							c-0.7,0-1.4-0.3-1.7-1.2h-0.1c-0.5,0.7-1.3,1.2-2.4,1.2C53.7,94.2,52.8,93.3,52.8,92z M55.7,92.5c1,0,1.6-0.8,1.6-1.8v-0.1
							l-0.6,0c-1.3,0.1-1.9,0.5-1.9,1.2C54.8,92.3,55.2,92.5,55.7,92.5z"/>
					</g>
					<g class="st0">
						<path class="st4" d="M61.8,91.8v-3.6h-1.5v-1.7h0.2c0.9,0,1.4-0.6,1.5-1.6l0-0.6h1.7v2.2h1.8v1.7h-1.8v3.3c0,0.6,0.4,1,0.9,1
							c0.2,0,0.4,0,0.6-0.1V94c-0.3,0.1-0.7,0.1-1,0.1C62.7,94.2,61.8,93.2,61.8,91.8z"/>
					</g>
					<g class="st0">
						<path class="st4" d="M67.9,83.1c0.7,0,1.2,0.5,1.2,1.2c0,0.7-0.6,1.2-1.2,1.2s-1.2-0.5-1.2-1.2C66.7,83.6,67.2,83.1,67.9,83.1
							z M66.9,86.5h2V94h-2V86.5z"/>
						<path class="st4" d="M70.5,90.2c0-2.3,1.8-4,4-4s4,1.6,4,4c0,2.4-1.8,4-4,4S70.5,92.6,70.5,90.2z M74.5,92.4
							c1.1,0,1.9-0.9,1.9-2.2c0-1.3-0.8-2.2-1.9-2.2c-1.1,0-1.9,0.9-1.9,2.2C72.5,91.5,73.4,92.4,74.5,92.4z"/>
					</g>
					<g class="st0">
						<path class="st4" d="M83.6,88c-0.8,0-1.6,0.6-1.6,1.8V94h-2v-7.5h1.7l0.2,1H82c0.3-0.6,1-1.2,2.2-1.2c1.7,0,2.9,1.1,2.9,3.1
							V94h-2v-4.3C85,88.6,84.4,88,83.6,88z"/>
					</g>
					<g class="st0">
						<path class="st4" d="M89.6,86.4c0.7,0,1.2,0.5,1.2,1.2c0,0.6-0.5,1.2-1.2,1.2c-0.7,0-1.2-0.5-1.2-1.2
							C88.4,86.9,88.9,86.4,89.6,86.4z M88.4,92.9c0-0.6,0.5-1.2,1.2-1.2c0.7,0,1.2,0.5,1.2,1.2c0,0.6-0.5,1.2-1.2,1.2
							C88.9,94.1,88.4,93.6,88.4,92.9z"/>
					</g>
					<g class="st0">
						<path class="st4" d="M96.2,91.1h1.3c0.2,1.2,1,2,2.5,2c1,0,2.1-0.6,2.1-1.7c0-1-0.7-1.6-2.1-2l-1-0.3
							c-1.6-0.5-2.4-1.4-2.4-2.8c0-1.6,1.4-2.8,3.1-2.8c1.9,0,3.3,1.3,3.4,2.8h-1.3c-0.1-0.9-1-1.6-2.2-1.6c-1,0-1.9,0.7-1.9,1.6
							c0,0.9,0.6,1.3,1.9,1.8l0.9,0.3c1.7,0.6,2.7,1.5,2.7,3.1c0,1.8-1.6,2.9-3.4,2.9C97.8,94.2,96.4,92.9,96.2,91.1z"/>
					</g>
					<g class="st0">
						<path class="st4" d="M105,92c0-1.5,1.3-2.4,3.9-2.6l0.8-0.1v-0.3c0-1-0.6-1.6-1.6-1.6c-0.9,0-1.6,0.5-1.7,1.3h-1.2
							c0.1-1.3,1.3-2.3,2.9-2.3c1.7,0,2.7,1,2.7,2.7v3.5c0,0.5,0.3,0.6,0.7,0.6c0.1,0,0.1,0,0.3,0V94c-0.2,0.1-0.4,0.1-0.6,0.1
							c-0.6,0-1.3-0.3-1.4-1.2v0h-0.1c-0.5,0.7-1.3,1.2-2.4,1.2C106,94.2,105,93.3,105,92z M107.5,93.1c1.3,0,2.2-1,2.2-2.5v-0.3
							l-0.7,0.1c-1.9,0.2-2.8,0.7-2.8,1.7C106.2,92.7,106.8,93.1,107.5,93.1z"/>
					</g>
					<g class="st0">
						<path class="st4" d="M113.7,87.6h-1.5v-1.1h1.5v-1.4c0-1.4,1-2.1,2-2.1c0.5,0,1,0.2,1.2,0.3l-0.4,0.9
							c-0.2-0.1-0.5-0.2-0.7-0.2c-0.6,0-1,0.4-1,1v1.4h1.7v1.1h-1.7V94h-1.2V87.6z"/>
					</g>
					<g class="st0">
						<path class="st4" d="M117.6,90.3c0-2.2,1.6-3.9,3.7-3.9c2,0,3.4,1.5,3.4,3.6c0,0.2,0,0.3,0,0.6h-5.8c0.1,1.5,1.1,2.5,2.5,2.5
							c0.9,0,1.8-0.4,2-1.2h1.2c-0.3,1.4-1.6,2.3-3.2,2.3C119.1,94.2,117.6,92.5,117.6,90.3z M123.4,89.6c-0.1-1.3-1-2.1-2.1-2.1
							c-1.2,0-2.2,0.8-2.4,2.1H123.4z"/>
					</g>
					<g class="st0">
						<path class="st4" d="M131.2,87.6h-1.5v-1.1h1.5v-1.4c0-1.4,1-2.1,2-2.1c0.5,0,1,0.2,1.2,0.3l-0.4,0.9
							c-0.2-0.1-0.5-0.2-0.7-0.2c-0.6,0-1,0.4-1,1v1.4h1.7v1.1h-1.7V94h-1.2V87.6z"/>
					</g>
					<g class="st0">
						<path class="st4" d="M135.1,90.3c0-2.2,1.6-3.9,3.8-3.9c2.1,0,3.8,1.7,3.8,3.9c0,2.2-1.6,3.9-3.8,3.9
							C136.7,94.2,135.1,92.5,135.1,90.3z M138.9,93.1c1.5,0,2.6-1.2,2.6-2.8c0-1.6-1.1-2.8-2.6-2.8s-2.6,1.2-2.6,2.8
							C136.3,91.8,137.4,93.1,138.9,93.1z"/>
						<path class="st4" d="M144.6,86.5h1l0.1,1.1h0.1c0.3-0.5,0.9-1.2,2.2-1.2c0.2,0,0.3,0,0.4,0v1.2c-0.2,0-0.3,0-0.4,0
							c-1.3,0-2.2,0.8-2.2,2.6V94h-1.2V86.5z"/>
					</g>
					<g class="st0">
						<path class="st4" d="M27.8,113c0-1.5,1.3-2.4,3.9-2.6l0.8-0.1v-0.3c0-1-0.6-1.6-1.6-1.6c-0.9,0-1.6,0.5-1.7,1.3H28
							c0.1-1.3,1.3-2.3,2.9-2.3c1.7,0,2.7,1,2.7,2.7v3.5c0,0.5,0.3,0.6,0.7,0.6c0.1,0,0.1,0,0.3,0v0.9c-0.2,0.1-0.4,0.1-0.6,0.1
							c-0.6,0-1.3-0.3-1.4-1.2v0h-0.1c-0.5,0.7-1.3,1.2-2.4,1.2C28.8,115.2,27.8,114.3,27.8,113z M30.3,114.1c1.3,0,2.2-1,2.2-2.5
							v-0.3l-0.7,0.1c-1.9,0.2-2.8,0.7-2.8,1.7C29.1,113.7,29.6,114.1,30.3,114.1z"/>
					</g>
					<g class="st0">
						<path class="st4" d="M39.1,108.5c-1,0-2,0.7-2,2.2v4.3H36v-7.5h1l0.1,1h0.1c0.3-0.5,1-1.1,2.1-1.1c1.6,0,2.8,1,2.8,3v4.6H41
							v-4.5C41,109.1,40.2,108.5,39.1,108.5z"/>
					</g>
					<g class="st0">
						<path class="st4" d="M44.9,117.1c0.5,0,1.1-0.3,1.3-1l0.4-1.1l-3.2-7.4h1.3l2.4,5.9h0.1l2.1-5.9h1.3l-3.2,8.7
							c-0.5,1.4-1.5,1.9-2.4,1.9c-0.3,0-0.7-0.1-0.9-0.1v-1C44.2,117,44.5,117.1,44.9,117.1z"/>
					</g>
					<g class="st0">
						<path class="st4" d="M56.8,113.3v-4.7h-1.5v-1.1h0.3c0.9,0,1.2-0.4,1.2-1.3l0-0.8h1v2.2h1.7v1.1h-1.7v4.5c0,0.6,0.3,1,0.9,1
							c0.2,0,0.5,0,0.7-0.1v1c-0.2,0.1-0.5,0.2-0.9,0.2C57.5,115.2,56.8,114.5,56.8,113.3z"/>
					</g>
					<g class="st0">
						<path class="st4" d="M62,104.5c0.5,0,0.8,0.3,0.8,0.8c0,0.5-0.4,0.8-0.8,0.8c-0.4,0-0.8-0.3-0.8-0.8
							C61.2,104.9,61.6,104.5,62,104.5z M61.4,107.5h1.2v7.5h-1.2V107.5z"/>
						<path class="st4" d="M67.9,108.5c-0.9,0-1.8,0.7-1.8,2.2v4.3h-1.2v-7.5h1l0.1,1h0.1c0.3-0.6,1-1.1,2-1.1c1,0,1.8,0.5,2.2,1.3
							h0.1c0.4-0.8,1.1-1.3,2.2-1.3c1.4,0,2.6,0.9,2.6,2.9v4.7H74v-4.5c0-1.4-0.7-2-1.6-2c-0.9,0-1.7,0.7-1.7,2.2v4.3h-1.2v-4.5
							C69.5,109,68.8,108.5,67.9,108.5z"/>
						<path class="st4" d="M77.2,111.3c0-2.2,1.6-3.9,3.7-3.9c2,0,3.4,1.5,3.4,3.6c0,0.2,0,0.3,0,0.6h-5.8c0.1,1.5,1.1,2.5,2.5,2.5
							c0.9,0,1.8-0.4,2-1.2h1.2c-0.3,1.4-1.6,2.3-3.2,2.3C78.8,115.2,77.2,113.5,77.2,111.3z M83,110.6c-0.1-1.3-1-2.1-2.1-2.1
							c-1.2,0-2.2,0.8-2.4,2.1H83z"/>
					</g>
					<g class="st0">
						<path class="st4" d="M90.2,107.5h0.9l0.1,1.2h0.1c0.5-0.9,1.5-1.4,2.5-1.4c2,0,3.5,1.7,3.5,3.9c0,2.2-1.5,3.9-3.5,3.9
							c-1,0-1.9-0.5-2.4-1.2h-0.1v4h-1.2V107.5z M93.7,114.1c1.4,0,2.4-1.1,2.4-2.8c0-1.7-1-2.8-2.4-2.8c-1.4,0-2.4,1.1-2.4,2.8
							C91.3,113,92.3,114.1,93.7,114.1z"/>
					</g>
					<g class="st0">
						<path class="st4" d="M99,111.3c0-2.2,1.6-3.9,3.7-3.9c2,0,3.4,1.5,3.4,3.6c0,0.2,0,0.3,0,0.6h-5.8c0.1,1.5,1.1,2.5,2.5,2.5
							c0.9,0,1.8-0.4,2-1.2h1.2c-0.3,1.4-1.6,2.3-3.2,2.3C100.6,115.2,99,113.5,99,111.3z M104.8,110.6c-0.1-1.3-1-2.1-2.1-2.1
							s-2.2,0.8-2.4,2.1H104.8z"/>
					</g>
					<g class="st0">
						<path class="st4" d="M108.1,107.5h1l0.1,1.1h0.1c0.3-0.5,0.9-1.2,2.2-1.2c0.2,0,0.3,0,0.4,0v1.2c-0.2,0-0.3,0-0.4,0
							c-1.3,0-2.2,0.8-2.2,2.6v3.7h-1.2V107.5z"/>
					</g>
					<g class="st0">
						<path class="st4" d="M114,104.5c0.5,0,0.8,0.3,0.8,0.8c0,0.5-0.4,0.8-0.8,0.8c-0.4,0-0.8-0.3-0.8-0.8
							C113.2,104.9,113.6,104.5,114,104.5z M113.4,107.5h1.2v7.5h-1.2V107.5z"/>
					</g>
					<g class="st0">
						<path class="st4" d="M116.6,111.3c0-2.2,1.6-3.9,3.8-3.9s3.8,1.7,3.8,3.9c0,2.2-1.6,3.9-3.8,3.9S116.6,113.5,116.6,111.3z
							 M120.4,114.1c1.5,0,2.6-1.2,2.6-2.8c0-1.6-1.1-2.8-2.6-2.8s-2.6,1.2-2.6,2.8C117.8,112.8,118.9,114.1,120.4,114.1z"/>
					</g>
					<g class="st0">
						<path class="st4" d="M132.1,115l-0.1-1.2h-0.1c-0.5,0.9-1.5,1.4-2.5,1.4c-2,0-3.5-1.7-3.5-3.9c0-2.2,1.5-3.9,3.5-3.9
							c1,0,1.9,0.5,2.4,1.2h0.1v-4.4h1.2V115H132.1z M129.5,114.1c1.4,0,2.4-1.1,2.4-2.8c0-1.7-1-2.8-2.4-2.8
							c-1.4,0-2.4,1.1-2.4,2.8C127.1,112.9,128.1,114.1,129.5,114.1z"/>
					</g>
				</g>
			</g>
			<g id="Group_175">
				<g id="EXAMPLE">
					<g class="st0">
						<path d="M56.4,324.5h6.6v1.3h-5.2v3.2h4.4v1.3h-4.4v3.3h5.2v1.3h-6.6V324.5z"/>
						<path d="M67.8,329.6l-3.1-5.1h1.7l2.3,3.9h0.1l2.4-3.9h1.7l-3.1,5.1L73,335h-1.7l-2.5-4.2h-0.1l-2.5,4.2h-1.7L67.8,329.6z"/>
						<path d="M77.8,324.5h2l3.7,10.5h-1.6l-0.9-2.7h-4.3l-0.9,2.7h-1.6L77.8,324.5z M80.5,330.9l-1.7-4.8h-0.1l-1.6,4.8H80.5z"/>
						<path d="M85.4,324.5h1.8l3.4,7.2h0.1l3.4-7.2h1.8V335h-1.4v-7.7h-0.1l-3,6.2h-1.4l-3-6.2h-0.1v7.7h-1.4V324.5z"/>
						<path d="M98.7,324.5h3.7c2.1,0,3.5,1.3,3.5,3.2s-1.4,3.2-3.5,3.2h-2.3v4.1h-1.5V324.5z M102.4,329.6c1.2,0,2-0.7,2-1.9
							c0-1.1-0.8-1.9-2-1.9h-2.3v3.7H102.4z"/>
						<path d="M108.1,324.5h1.5v9.2h5.1v1.3h-6.6V324.5z"/>
						<path d="M116.9,324.5h6.6v1.3h-5.2v3.2h4.4v1.3h-4.4v3.3h5.2v1.3h-6.6V324.5z"/>
					</g>
				</g>
			</g>
		</g>
	</g>
</g>
<g>
	<path class="st5" d="M89.8,392.9c-8,0-15.6-3.8-20.3-10.3l1.4-1.1c4.4,6,11.4,9.5,18.8,9.5c12.9,0,23.4-10.5,23.4-23.4
		s-10.5-23.4-23.4-23.4s-23.4,10.5-23.4,23.4c0,2.9,0.6,5.8,1.7,8.7l-1.7,0.7c-1.2-3.1-1.9-6.2-1.9-9.3c0-13.9,11.3-25.2,25.2-25.2
		s25.2,11.3,25.2,25.2S103.7,392.9,89.8,392.9L89.8,392.9z"/>
</g>
<g>
	<path class="st5" d="M82.8,378.4c-0.2,0-0.4,0-0.5-0.1c-0.3-0.2-0.5-0.6-0.5-1v-19.1c0-0.4,0.2-0.8,0.5-1s0.7-0.2,1.1,0l17.4,9.6
		c0.4,0.2,0.6,0.6,0.6,1s-0.2,0.8-0.6,1l-17.4,9.6C83.1,378.3,83,378.4,82.8,378.4L82.8,378.4z M83.5,359.3v16.8l15.2-8.4
		L83.5,359.3L83.5,359.3z M99.9,367.1L99.9,367.1L99.9,367.1z"/>
</g>
<g>
	<circle class="st6" cx="70" cy="382.1" r="3.6"/>
</g>
</svg>
