<?xml version="1.0" encoding="UTF-8"?><svg id="Working_File" xmlns="http://www.w3.org/2000/svg" viewBox="0 0 178 599.49"><defs><style>.cls-1,.cls-2{fill:none;}.cls-3{letter-spacing:.01em;}.cls-4{letter-spacing:.01em;}.cls-5{letter-spacing:.01em;}.cls-6{letter-spacing:-.02em;}.cls-7{letter-spacing:-.02em;}.cls-8{letter-spacing:0em;}.cls-9{letter-spacing:0em;}.cls-10{letter-spacing:0em;}.cls-11{letter-spacing:0em;}.cls-12,.cls-13,.cls-14,.cls-15,.cls-16,.cls-17{isolation:isolate;}.cls-12,.cls-13,.cls-16{font-size:15px;}.cls-12,.cls-14{font-family:ULModerat-Bold, 'UL Moderat';font-weight:700;}.cls-12,.cls-16{fill:#fff;}.cls-18{fill:#efefef;}.cls-19{fill:#00a451;}.cls-20{fill:#102c49;}.cls-21{fill:#231f20;}.cls-22{letter-spacing:-.01em;}.cls-23{letter-spacing:-.02em;}.cls-24{letter-spacing:-.02em;}.cls-25{letter-spacing:-.01em;}.cls-26{letter-spacing:-.01em;}.cls-27{letter-spacing:0em;}.cls-13{font-family:ULModerat-Medium, 'UL Moderat';font-weight:500;}.cls-28{letter-spacing:0em;}.cls-29{letter-spacing:-.1em;}.cls-14{font-size:20px;}.cls-30{letter-spacing:-.04em;}.cls-31{letter-spacing:0em;}.cls-32{letter-spacing:0em;}.cls-33{letter-spacing:-.02em;}.cls-34{letter-spacing:-.01em;}.cls-35{letter-spacing:0em;}.cls-36{letter-spacing:0em;}.cls-37{letter-spacing:-.05em;}.cls-38{letter-spacing:0em;}.cls-39{letter-spacing:0em;}.cls-40{letter-spacing:-.05em;}.cls-41{letter-spacing:-.02em;}.cls-42{letter-spacing:0em;}.cls-2{stroke:#000;stroke-linecap:round;stroke-width:3px;}.cls-16,.cls-17{font-family:ULModerat-Regular, 'UL Moderat';}.cls-17{font-size:12px;}.cls-43{letter-spacing:-.07em;}.cls-44{letter-spacing:0em;}.cls-45{letter-spacing:0em;}.cls-46{letter-spacing:-.02em;}</style></defs><g id="Group_198"><line id="Line_161" class="cls-2" x1="89" y1="434" x2="89" y2="446"/><line id="Line_173" class="cls-2" x1="89" y1="412" x2="89" y2="424"/><line id="Line_157" class="cls-2" x1="89" y1="188" x2="89" y2="200"/><line id="Line_162" class="cls-2" x1="89" y1="456" x2="89" y2="468"/><line id="Line_163" class="cls-2" x1="89" y1="478" x2="89" y2="490"/><line id="Line_158" class="cls-2" x1="89" y1="210" x2="89" y2="222"/><g id="Group_197"><g id="Group_132"><g id="_0-75" class="cls-15"><text class="cls-14" transform="translate(68.49 545)"><tspan class="cls-26" x="0" y="0">0</tspan><tspan class="cls-29" x="12.14" y="0">-</tspan><tspan class="cls-23" x="18.44" y="0">7</tspan><tspan x="29.26" y="0">5</tspan></text></g><g id="_dB_" class="cls-15"><text class="cls-14" transform="translate(71.31 569)"><tspan class="cls-43" x="0" y="0">(</tspan><tspan class="cls-35" x="5.24" y="0">d</tspan><tspan class="cls-40" x="17.4" y="0">B</tspan><tspan class="cls-9" x="28.82" y="0">)</tspan></text></g></g><g id="Group_183"><g id="Path_7"><path class="cls-1" d="m88.55,502c26.92,0,48.75,21.82,48.75,48.75s-21.82,48.75-48.75,48.75-48.75-21.82-48.75-48.75h0c0-26.92,21.82-48.75,48.75-48.75Z"/><path class="cls-20" d="m88.55,505c-6.18,0-12.17,1.21-17.81,3.59-5.45,2.3-10.34,5.6-14.54,9.8-4.2,4.2-7.5,9.09-9.8,14.54-2.38,5.64-3.59,11.63-3.59,17.81s1.21,12.17,3.59,17.81c2.3,5.45,5.6,10.34,9.8,14.54s9.09,7.5,14.54,9.8c5.64,2.38,11.63,3.59,17.81,3.59s12.17-1.21,17.81-3.59c5.45-2.3,10.34-5.6,14.54-9.8,4.2-4.2,7.5-9.09,9.8-14.54,2.38-5.64,3.59-11.63,3.59-17.81s-1.21-12.17-3.59-17.81c-2.3-5.45-5.6-10.34-9.8-14.54s-9.09-7.5-14.54-9.8c-5.64-2.38-11.63-3.59-17.81-3.59m0-3c26.92,0,48.75,21.82,48.75,48.75s-21.82,48.75-48.75,48.75-48.75-21.82-48.75-48.75,21.82-48.75,48.75-48.75Z"/></g><circle id="Ellipse_46" class="cls-18" cx="89" cy="317" r="85"/><g id="Group_181"><g id="Group_34"><g id="Group_182"><g id="Air_Conditioner" class="cls-15"><text class="cls-17" transform="translate(45 305)"><tspan class="cls-36" x="0" y="0">A</tspan><tspan x="8.1" y="0">ir </tspan><tspan class="cls-33" x="18.31" y="0">C</tspan><tspan x="27.32" y="0">ondi</tspan><tspan class="cls-3" x="51.6" y="0">t</tspan><tspan x="55.91" y="0">ioner</tspan></text></g><circle id="Ellipse_14" cx="39.5" cy="301.5" r="1.5"/></g><g id="Group_28"><g id="Washing_Machine" class="cls-15"><text class="cls-17" transform="translate(45 286)"><tspan class="cls-37" x="0" y="0">W</tspan><tspan x="10.52" y="0">ashi</tspan><tspan class="cls-22" x="32.21" y="0">n</tspan><tspan x="38.81" y="0">g </tspan><tspan class="cls-24" x="48.2" y="0">M</tspan><tspan x="58.51" y="0">a</tspan><tspan class="cls-28" x="64.76" y="0">c</tspan><tspan x="71.63" y="0">hine</tspan></text></g><circle id="Ellipse_14-2" cx="39.5" cy="282.5" r="1.5"/></g><g id="Group_27"><g id="Normal_breathing" class="cls-15"><text class="cls-17" transform="translate(45 267)"><tspan class="cls-22" x="0" y="0">N</tspan><tspan class="cls-31" x="8.77" y="0">or</tspan><tspan class="cls-44" x="20.42" y="0">m</tspan><tspan class="cls-8" x="30.43" y="0">a</tspan><tspan x="36.71" y="0">l b</tspan><tspan class="cls-24" x="49.96" y="0">r</tspan><tspan class="cls-36" x="54.02" y="0">e</tspan><tspan class="cls-34" x="60.9" y="0">a</tspan><tspan class="cls-4" x="66.98" y="0">t</tspan><tspan class="cls-27" x="71.29" y="0">hi</tspan><tspan class="cls-22" x="80.88" y="0">n</tspan><tspan x="87.48" y="0">g</tspan></text></g><circle id="Ellipse_14-3" cx="39.5" cy="263.5" r="1.5"/></g></g></g><g id="Group_107"><circle id="Ellipse_18" class="cls-20" cx="89" cy="89" r="89"/><g id="Recommended_Duration:_Safe_for_any_time_period" class="cls-15"><text class="cls-12" transform="translate(27 73)"><tspan class="cls-30" x="0" y="0">R</tspan><tspan class="cls-42" x="8.98" y="0">e</tspan><tspan class="cls-45" x="17.81" y="0">c</tspan><tspan x="26.48" y="0">ommended</tspan></text><text class="cls-12" transform="translate(27 94)"><tspan class="cls-28" x="0" y="0">D</tspan><tspan class="cls-42" x="10.8" y="0">u</tspan><tspan class="cls-34" x="19.5" y="0">r</tspan><tspan class="cls-25" x="25.15" y="0">a</tspan><tspan class="cls-32" x="32.98" y="0">t</tspan><tspan x="39.01" y="0">io</tspan><tspan class="cls-46" x="52.11" y="0">n</tspan><tspan x="60.7" y="0">: </tspan></text><text class="cls-16" transform="translate(95.4 94)"><tspan x="0" y="0">S</tspan><tspan class="cls-26" x="8.79" y="0">a</tspan><tspan class="cls-6" x="16.42" y="0">f</tspan><tspan x="21.33" y="0">e </tspan><tspan class="cls-7" x="33.94" y="0">f</tspan><tspan x="38.85" y="0">or </tspan></text><text class="cls-16" transform="translate(27 115)"><tspan class="cls-11" x="0" y="0">a</tspan><tspan class="cls-41" x="7.84" y="0">n</tspan><tspan class="cls-42" x="15.99" y="0">y </tspan><tspan class="cls-5" x="27.88" y="0">t</tspan><tspan x="33.27" y="0">ime </tspan><tspan class="cls-38" x="61.98" y="0">p</tspan><tspan class="cls-42" x="71.17" y="0">e</tspan><tspan class="cls-10" x="79.89" y="0">r</tspan><tspan x="85.26" y="0">i</tspan><tspan class="cls-39" x="88.77" y="0">o</tspan><tspan x="98.02" y="0">d</tspan></text></g></g><g id="Group_175"><g id="EXAMPLE" class="cls-15"><text class="cls-13" transform="translate(55 335)"><tspan x="0" y="0">EXAMPLE</tspan></text></g></g></g></g></g><path class="cls-21" d="m89.8,392.89c-7.97,0-15.56-3.84-20.3-10.27l1.45-1.07c4.4,5.97,11.44,9.53,18.85,9.53,12.9,0,23.4-10.5,23.4-23.4s-10.5-23.4-23.4-23.4-23.4,10.5-23.4,23.4c0,2.86.58,5.78,1.74,8.67l-1.67.67c-1.24-3.1-1.86-6.24-1.86-9.33,0-13.89,11.3-25.2,25.2-25.2s25.2,11.3,25.2,25.2-11.3,25.2-25.2,25.2Z"/><path class="cls-21" d="m82.77,378.37c-.19,0-.37-.05-.54-.15-.33-.2-.53-.56-.53-.97v-19.12c0-.41.2-.77.53-.97.33-.2.74-.19,1.1,0l17.41,9.57c.37.2.59.56.59.95s-.22.75-.59.95l-17.41,9.57c-.18.1-.37.15-.56.15Zm.73-19.05v16.75l15.23-8.38-15.23-8.38Zm16.37,7.75s0,0,0,0h0Z"/><circle class="cls-19" cx="70" cy="382.09" r="3.6"/></svg>