<?xml version="1.0" encoding="UTF-8"?><svg id="Working_File" xmlns="http://www.w3.org/2000/svg" viewBox="0 0 178 636"><defs><style>.cls-1,.cls-2,.cls-3{fill:none;}.cls-4{letter-spacing:-.01em;}.cls-5{letter-spacing:.01em;}.cls-6{letter-spacing:-.02em;}.cls-7{letter-spacing:-.02em;}.cls-8{font-size:12px;}.cls-8,.cls-9,.cls-10,.cls-11,.cls-12{fill:#fff;}.cls-8,.cls-9,.cls-11,.cls-13,.cls-14,.cls-12{isolation:isolate;}.cls-8,.cls-12{font-family:ULModerat-Regular, 'UL Moderat';}.cls-15{letter-spacing:-.02em;}.cls-16{letter-spacing:0em;}.cls-17{letter-spacing:0em;}.cls-18{letter-spacing:0em;}.cls-9,.cls-11,.cls-12{font-size:15px;}.cls-9,.cls-13{font-family:ULModerat-Bold, 'UL Moderat';font-weight:700;}.cls-19{fill:#00a451;}.cls-20{fill:#122c49;}.cls-21{letter-spacing:-.02em;}.cls-22{letter-spacing:-.02em;}.cls-11{font-family:ULModerat-Medium, 'UL Moderat';font-weight:500;}.cls-23{letter-spacing:-.01em;}.cls-24{letter-spacing:-.01em;}.cls-25{letter-spacing:0em;}.cls-26{letter-spacing:0em;}.cls-27{letter-spacing:0em;}.cls-13{font-size:20px;}.cls-28{letter-spacing:-.04em;}.cls-29{letter-spacing:-.04em;}.cls-30{letter-spacing:-.04em;}.cls-31{letter-spacing:0em;}.cls-32{letter-spacing:-.01em;}.cls-33{letter-spacing:0em;}.cls-34{letter-spacing:-.03em;}.cls-35{letter-spacing:0em;}.cls-36{letter-spacing:-.05em;}.cls-37{letter-spacing:-.01em;}.cls-38{letter-spacing:0em;}.cls-2{stroke:#000;stroke-linecap:round;}.cls-2,.cls-3{stroke-width:3px;}.cls-3{stroke:#122c49;}.cls-39{letter-spacing:-.07em;}.cls-40{letter-spacing:0em;}.cls-41{letter-spacing:-.02em;}</style></defs><g id="Group_199"><line id="Line_54" class="cls-2" x1="89" y1="146" x2="89" y2="158"/><line id="Line_107" class="cls-2" x1="89" y1="414" x2="89" y2="426"/><line id="Line_55" class="cls-2" x1="89" y1="168" x2="89" y2="180"/><line id="Line_167" class="cls-2" x1="89" y1="190" x2="89" y2="202"/><line id="Line_168" class="cls-2" x1="89" y1="212" x2="89" y2="224"/><line id="Line_140" class="cls-2" x1="89" y1="124" x2="89" y2="136"/><line id="Line_108" class="cls-2" x1="89" y1="436" x2="89" y2="448"/><g id="Group_184"><g id="Ellipse_13"><circle class="cls-1" cx="89" cy="58.49" r="58.49"/><circle class="cls-3" cx="89" cy="58.49" r="56.99"/></g><circle id="Ellipse_51" class="cls-19" cx="89" cy="319" r="85"/><g id="Group_47"><g id="Group_31"><g id="Group_27"><g id="Gas-powered_Lawn_mower" class="cls-14"><text class="cls-8" transform="translate(56 357)"><tspan class="cls-7" x="0" y="0">G</tspan><tspan x="9.41" y="0">a</tspan><tspan class="cls-30" x="15.66" y="0">s</tspan><tspan class="cls-15" x="21.06" y="0">-</tspan><tspan class="cls-27" x="25.96" y="0">p</tspan><tspan class="cls-37" x="33.31" y="0">ow</tspan><tspan x="49.14" y="0">e</tspan><tspan class="cls-22" x="56.11" y="0">r</tspan><tspan class="cls-16" x="60.18" y="0">e</tspan><tspan x="67.18" y="0">d</tspan></text><text class="cls-8" transform="translate(56 375)"><tspan class="cls-34" x="0" y="0">L</tspan><tspan class="cls-4" x="6.62" y="0">a</tspan><tspan class="cls-25" x="12.76" y="0">wn m</tspan><tspan class="cls-37" x="41.45" y="0">ow</tspan><tspan x="57.28" y="0">er</tspan></text></g><circle id="Ellipse_14" class="cls-10" cx="50.5" cy="353.5" r="1.5"/></g></g></g><g id="Group_46"><circle id="Ellipse_18" class="cls-20" cx="89" cy="547" r="89"/><g id="Recommended_Duration:_Max_volume_for_4hr_time_period" class="cls-14"><text class="cls-9" transform="translate(34 520)"><tspan class="cls-29" x="0" y="0">R</tspan><tspan class="cls-38" x="8.98" y="0">e</tspan><tspan class="cls-40" x="17.81" y="0">c</tspan><tspan x="26.48" y="0">ommended</tspan></text><text class="cls-9" transform="translate(34 541)"><tspan class="cls-26" x="0" y="0">D</tspan><tspan class="cls-38" x="10.8" y="0">u</tspan><tspan class="cls-32" x="19.5" y="0">r</tspan><tspan class="cls-23" x="25.15" y="0">a</tspan><tspan class="cls-31" x="32.98" y="0">t</tspan><tspan x="39.01" y="0">io</tspan><tspan class="cls-41" x="52.11" y="0">n</tspan><tspan x="60.7" y="0">: </tspan></text><text class="cls-12" transform="translate(102.4 541)"><tspan class="cls-21" x="0" y="0">M</tspan><tspan x="12.89" y="0">ax </tspan></text><text class="cls-12" transform="translate(34 562)"><tspan class="cls-21" x="0" y="0">v</tspan><tspan x="7.74" y="0">olume </tspan><tspan class="cls-6" x="53.98" y="0">f</tspan><tspan x="58.89" y="0">or </tspan><tspan class="cls-32" x="77.35" y="0">4</tspan><tspan x="86.01" y="0">hr </tspan></text><text class="cls-12" transform="translate(34 583)"><tspan class="cls-5" x="0" y="0">t</tspan><tspan x="5.38" y="0">ime </tspan><tspan class="cls-35" x="34.09" y="0">p</tspan><tspan x="43.29" y="0">e</tspan><tspan class="cls-18" x="52" y="0">r</tspan><tspan x="57.37" y="0">i</tspan><tspan class="cls-35" x="60.88" y="0">o</tspan><tspan x="70.14" y="0">d</tspan></text></g></g><g id="Group_133"><g id="_dB_" class="cls-14"><text class="cls-13" transform="translate(71.31 77)"><tspan class="cls-39" x="0" y="0">(</tspan><tspan class="cls-33" x="5.24" y="0">d</tspan><tspan class="cls-36" x="17.4" y="0">B</tspan><tspan class="cls-17" x="28.82" y="0">)</tspan></text></g><g id="_80-85" class="cls-14"><text class="cls-13" transform="translate(61.07 53)"><tspan x="0" y="0">8</tspan><tspan class="cls-24" x="12.18" y="0">0</tspan><tspan class="cls-28" x="24.32" y="0">-</tspan><tspan class="cls-17" x="31.92" y="0">85</tspan></text></g></g><g id="Group_176"><g id="Group_170"><path id="Path_22" class="cls-1" d="m174,319c0-46.94-38.06-85-85-85S4,272.06,4,319h170Z"/></g><g id="EXAMPLE" class="cls-14"><text class="cls-11" transform="translate(55 328)"><tspan x="0" y="0">EXAMPLE</tspan></text></g></g></g></g><path class="cls-10" d="m89.3,307.5c-7.97,0-15.56-3.84-20.3-10.27l1.45-1.07c4.4,5.97,11.44,9.53,18.85,9.53,12.9,0,23.4-10.5,23.4-23.4s-10.5-23.4-23.4-23.4-23.4,10.5-23.4,23.4c0,2.86.58,5.78,1.74,8.67l-1.67.67c-1.24-3.1-1.86-6.24-1.86-9.33,0-13.89,11.3-25.2,25.2-25.2s25.2,11.3,25.2,25.2-11.3,25.2-25.2,25.2Z"/><path class="cls-10" d="m82.27,292.97c-.19,0-.37-.05-.54-.15-.33-.2-.53-.56-.53-.97v-19.12c0-.41.2-.77.53-.97.33-.2.74-.19,1.1,0l17.41,9.57c.37.2.59.56.59.95s-.22.75-.59.95l-17.41,9.57c-.18.1-.37.15-.56.15Zm.73-19.05v16.75l15.23-8.38-15.23-8.38Zm16.37,7.75s0,0,0,0h0Z"/><circle class="cls-10" cx="69.5" cy="296.7" r="3.6"/></svg>