<?xml version="1.0" encoding="utf-8"?>
<!-- Generator: Adobe Illustrator 27.6.1, SVG Export Plug-In . SVG Version: 6.00 Build 0)  -->
<svg version="1.1" xmlns="http://www.w3.org/2000/svg" xmlns:xlink="http://www.w3.org/1999/xlink" x="0px" y="0px"
	 viewBox="0 0 178 636" style="enable-background:new 0 0 178 636;" xml:space="preserve">
<style type="text/css">
	.st0{fill:#00A451;}
	.st1{fill:none;}
	.st2{enable-background:new    ;}
	.st3{fill:#FFFFFF;}
	.st4{fill:#123A28;}
</style>
<g id="Layer_2">
	<circle class="st0" cx="89" cy="58.5" r="55.5"/>
</g>
<g id="Working_File">
	<g id="Group_199">
		<g id="Line_54">
			<path d="M89,159.5c-0.8,0-1.5-0.7-1.5-1.5v-12c0-0.8,0.7-1.5,1.5-1.5s1.5,0.7,1.5,1.5v12C90.5,158.8,89.8,159.5,89,159.5z"/>
		</g>
		<g id="Line_107">
			<path d="M89,427.5c-0.8,0-1.5-0.7-1.5-1.5v-12c0-0.8,0.7-1.5,1.5-1.5s1.5,0.7,1.5,1.5v12C90.5,426.8,89.8,427.5,89,427.5z"/>
		</g>
		<g id="Line_55">
			<path d="M89,181.5c-0.8,0-1.5-0.7-1.5-1.5v-12c0-0.8,0.7-1.5,1.5-1.5s1.5,0.7,1.5,1.5v12C90.5,180.8,89.8,181.5,89,181.5z"/>
		</g>
		<g id="Line_167">
			<path d="M89,203.5c-0.8,0-1.5-0.7-1.5-1.5v-12c0-0.8,0.7-1.5,1.5-1.5s1.5,0.7,1.5,1.5v12C90.5,202.8,89.8,203.5,89,203.5z"/>
		</g>
		<g id="Line_168">
			<path d="M89,225.5c-0.8,0-1.5-0.7-1.5-1.5v-12c0-0.8,0.7-1.5,1.5-1.5s1.5,0.7,1.5,1.5v12C90.5,224.8,89.8,225.5,89,225.5z"/>
		</g>
		<g id="Line_140">
			<path d="M89,137.5c-0.8,0-1.5-0.7-1.5-1.5v-12c0-0.8,0.7-1.5,1.5-1.5s1.5,0.7,1.5,1.5v12C90.5,136.8,89.8,137.5,89,137.5z"/>
		</g>
		<g id="Line_108">
			<path d="M89,449.5c-0.8,0-1.5-0.7-1.5-1.5v-12c0-0.8,0.7-1.5,1.5-1.5s1.5,0.7,1.5,1.5v12C90.5,448.8,89.8,449.5,89,449.5z"/>
		</g>
		<g id="Group_184">
			<g id="Ellipse_13">
				<g>
					<circle class="st1" cx="89" cy="58.5" r="58.5"/>
				</g>
				<g>
					<path class="st0" d="M89,117c-32.3,0-58.5-26.2-58.5-58.5S56.7,0,89,0s58.5,26.2,58.5,58.5S121.3,117,89,117z M89,3
						C58.4,3,33.5,27.9,33.5,58.5S58.4,114,89,114s55.5-24.9,55.5-55.5S119.6,3,89,3z"/>
				</g>
			</g>
			<g id="Ellipse_51">
				<circle class="st0" cx="89" cy="319" r="85"/>
			</g>
			<g id="Group_47">
				<g id="Group_31">
					<g id="Group_27">
						<g id="Gas-powered_Lawn_mower">
							<g class="st2">
								<path class="st3" d="M56.8,352.8c0-2.6,1.7-4.3,4.1-4.3c1.9,0,3.3,1.1,3.5,2.7h-1c-0.2-1-1.2-1.8-2.5-1.8
									c-1.9,0-3.2,1.4-3.2,3.4c0,2.1,1.2,3.4,3,3.4c1.6,0,2.7-1,2.7-2.6H61v-0.9h3.3v4.3h-0.8l-0.1-1.5h-0.1
									c-0.5,1-1.6,1.6-2.9,1.6C58.5,357.1,56.8,355.4,56.8,352.8z"/>
							</g>
							<g class="st2">
								<path class="st3" d="M66.1,355.4c0-1.2,1-1.9,3.1-2.1h0.6v-0.2c0-0.8-0.5-1.3-1.3-1.3s-1.2,0.4-1.4,1h-1
									c0.1-1.1,1-1.9,2.3-1.9s2.2,0.8,2.2,2.2v2.8c0,0.4,0.2,0.5,0.5,0.5c0,0,0.1,0,0.2,0v0.7c-0.1,0-0.3,0.1-0.5,0.1
									c-0.5,0-1-0.3-1.1-0.9l0,0h-0.1c-0.4,0.6-1,1-1.9,1C66.8,357.1,66.1,356.5,66.1,355.4z M68.1,356.3c1.1,0,1.8-0.8,1.8-2V354
									h-0.5c-1.5,0.1-2.2,0.6-2.2,1.3C67.1,356,67.5,356.3,68.1,356.3z"/>
							</g>
							<g class="st2">
								<path class="st3" d="M72.3,355.2h1c0.1,0.6,0.6,1.1,1.4,1.1c0.7,0,1.2-0.3,1.2-0.8s-0.3-0.7-0.9-0.9l-0.8-0.2
									c-1-0.3-1.6-0.8-1.6-1.7c0-1,0.9-1.7,2.1-1.7c1.1,0,2,0.7,2.1,1.7h-1c-0.1-0.5-0.5-0.9-1.2-0.9c-0.6,0-1.1,0.3-1.1,0.9
									c0,0.4,0.3,0.7,1,0.9l0.8,0.2c1.1,0.3,1.5,0.9,1.5,1.7c0,1.1-1,1.7-2.2,1.7C73.4,357.1,72.4,356.3,72.3,355.2z"/>
							</g>
							<g class="st2">
								<path class="st3" d="M77.6,352.9h4v0.8h-4V352.9z"/>
							</g>
							<g class="st2">
								<path class="st3" d="M82.9,351h0.8l0.1,1h0.1c0.4-0.7,1.2-1.1,2-1.1c1.6,0,2.8,1.3,2.8,3.1s-1.2,3.1-2.8,3.1
									c-0.8,0-1.5-0.4-1.9-0.9h-0.1v3.2H83L82.9,351L82.9,351z M85.7,356.2c1.1,0,1.9-0.9,1.9-2.2c0-1.3-0.8-2.2-1.9-2.2
									s-1.9,0.9-1.9,2.2C83.8,355.4,84.6,356.2,85.7,356.2z"/>
							</g>
							<g class="st2">
								<path class="st3" d="M90,354c0-1.8,1.3-3.1,3-3.1s3,1.3,3,3.1c0,1.8-1.3,3.1-3,3.1S90,355.8,90,354z M93,356.2
									c1.2,0,2.1-1,2.1-2.2s-0.9-2.2-2.1-2.2s-2.1,1-2.1,2.2C90.9,355.3,91.8,356.2,93,356.2z"/>
								<path class="st3" d="M96.8,351h0.9l1.2,4.7H99l1.3-4h1l1.2,4h0.1l1.3-4.7h0.9l-1.6,6h-1l-1.3-4.1h-0.1l-1.3,4.1h-1L96.8,351
									z"/>
							</g>
							<g class="st2">
								<path class="st3" d="M105.8,354c0-1.8,1.3-3.1,2.9-3.1s2.7,1.2,2.7,2.9c0,0.1,0,0.3,0,0.4h-4.6c0.1,1.2,0.9,2,2,2
									c0.7,0,1.4-0.4,1.6-0.9h1c-0.2,1.1-1.3,1.8-2.6,1.8C107.1,357.1,105.8,355.8,105.8,354z M110.5,353.5
									c-0.1-1-0.8-1.7-1.7-1.7c-0.9,0-1.7,0.7-1.9,1.7H110.5z"/>
							</g>
							<g class="st2">
								<path class="st3" d="M113,351h0.8l0.1,0.9h0.1c0.2-0.4,0.7-0.9,1.8-0.9c0.1,0,0.2,0,0.3,0v0.9c-0.2,0-0.2,0-0.3,0
									c-1,0-1.7,0.7-1.7,2.1v3H113V351z"/>
							</g>
							<g class="st2">
								<path class="st3" d="M116.8,354c0-1.8,1.3-3.1,2.9-3.1s2.7,1.2,2.7,2.9c0,0.1,0,0.3,0,0.4h-4.6c0.1,1.2,0.9,2,2,2
									c0.7,0,1.4-0.4,1.6-0.9h1c-0.2,1.1-1.3,1.8-2.6,1.8C118.1,357.1,116.8,355.8,116.8,354z M121.5,353.5
									c-0.1-1-0.8-1.7-1.7-1.7c-0.9,0-1.7,0.7-1.9,1.7H121.5z"/>
							</g>
							<g class="st2">
								<path class="st3" d="M128.8,357l-0.1-1h-0.1c-0.4,0.7-1.2,1.1-2,1.1c-1.6,0-2.8-1.3-2.8-3.1s1.2-3.1,2.8-3.1
									c0.8,0,1.5,0.4,1.9,0.9h0.1v-3.5h0.9v8.6h-0.7V357z M126.7,356.2c1.1,0,1.9-0.9,1.9-2.2c0-1.3-0.8-2.2-1.9-2.2
									s-1.9,0.9-1.9,2.2C124.8,355.3,125.6,356.2,126.7,356.2z"/>
							</g>
							<g class="st2">
								<path class="st3" d="M57.2,366.6h1v7.5h4.2v0.9h-5.2V366.6z"/>
							</g>
							<g class="st2">
								<path class="st3" d="M63.3,373.4c0-1.2,1-1.9,3.1-2.1H67v-0.2c0-0.8-0.5-1.3-1.3-1.3s-1.2,0.4-1.4,1h-1
									c0.1-1.1,1-1.9,2.3-1.9s2.2,0.8,2.2,2.2v2.8c0,0.4,0.2,0.5,0.5,0.5c0,0,0.1,0,0.2,0v0.7c-0.1,0-0.3,0.1-0.5,0.1
									c-0.5,0-1-0.3-1.1-0.9l0,0H67c-0.4,0.6-1,1-1.9,1C64.1,375.1,63.3,374.5,63.3,373.4z M65.3,374.3c1.1,0,1.8-0.8,1.8-2V372
									h-0.5c-1.5,0.1-2.2,0.6-2.2,1.3C64.3,374,64.7,374.3,65.3,374.3z"/>
							</g>
							<g class="st2">
								<path class="st3" d="M69.1,369H70l1.2,4.7h0.1l1.3-4h1l1.2,4h0.1l1.3-4.7h0.9l-1.6,6h-1l-1.3-4.1h-0.1l-1.3,4.1h-1L69.1,369
									z"/>
								<path class="st3" d="M80.9,369.8c-0.8,0-1.6,0.5-1.6,1.8v3.4h-0.9v-6h0.8l0.1,0.8h0.1c0.3-0.4,0.8-0.9,1.7-0.9
									c1.3,0,2.2,0.8,2.2,2.4v3.7h-0.9v-3.6C82.4,370.3,81.7,369.8,80.9,369.8z"/>
								<path class="st3" d="M90.7,369.8c-0.7,0-1.4,0.5-1.4,1.8v3.4h-0.9v-6h0.8l0.1,0.8h0.1c0.2-0.5,0.8-0.9,1.6-0.9
									c0.8,0,1.5,0.4,1.8,1.1h0.1c0.3-0.6,0.9-1.1,1.8-1.1c1.1,0,2.1,0.7,2.1,2.3v3.8h-0.9v-3.6c0-1.2-0.6-1.6-1.3-1.6
									c-0.8,0-1.4,0.5-1.4,1.8v3.4h-0.9v-3.6C91.9,370.2,91.4,369.8,90.7,369.8z"/>
							</g>
							<g class="st2">
								<path class="st3" d="M98.1,372c0-1.8,1.3-3.1,3-3.1s3,1.3,3,3.1c0,1.8-1.3,3.1-3,3.1S98.1,373.8,98.1,372z M101.1,374.2
									c1.2,0,2.1-1,2.1-2.2s-0.9-2.2-2.1-2.2s-2.1,1-2.1,2.2C99.1,373.3,99.9,374.2,101.1,374.2z"/>
								<path class="st3" d="M104.9,369h0.9l1.2,4.7h0.1l1.3-4h1l1.2,4h0.1l1.3-4.7h0.9l-1.6,6h-1l-1.3-4.1h-0.1l-1.3,4.1h-1
									L104.9,369z"/>
							</g>
							<g class="st2">
								<path class="st3" d="M113.9,372c0-1.8,1.3-3.1,2.9-3.1s2.7,1.2,2.7,2.9c0,0.1,0,0.3,0,0.4h-4.6c0.1,1.2,0.9,2,2,2
									c0.7,0,1.4-0.4,1.6-0.9h1c-0.2,1.1-1.3,1.8-2.6,1.8C115.2,375.1,113.9,373.8,113.9,372z M118.6,371.5
									c-0.1-1-0.8-1.7-1.7-1.7s-1.7,0.7-1.9,1.7H118.6z"/>
								<path class="st3" d="M121.2,369h0.8l0.1,0.9h0.1c0.2-0.4,0.7-0.9,1.8-0.9c0.1,0,0.2,0,0.3,0v0.9c-0.2,0-0.2,0-0.3,0
									c-1,0-1.7,0.7-1.7,2.1v3h-0.9v-6H121.2z"/>
							</g>
						</g>
						<g id="Ellipse_14">
							<circle class="st3" cx="50.5" cy="353.5" r="1.5"/>
						</g>
					</g>
				</g>
			</g>
			<g id="Group_46">
				<g id="Ellipse_18">
					<circle class="st4" cx="89" cy="547" r="89"/>
				</g>
				<g id="Recommended_Duration:_Max_volume_for_4hr_time_period">
					<g class="st2">
						<path class="st3" d="M35.1,509.5h4c2.1,0,3.6,1.4,3.6,3.2c0,1.4-0.8,2.4-1.9,2.8L43,520h-2.2l-2-4h-1.5v4h-2.1v-10.5H35.1z
							 M38.9,514.2c1,0,1.6-0.6,1.6-1.5c0-0.9-0.6-1.5-1.6-1.5h-1.7v3H38.9z"/>
					</g>
					<g class="st2">
						<path class="st3" d="M43.6,516.2c0-2.3,1.7-4,3.9-4c2.1,0,3.7,1.5,3.7,3.7c0,0.2,0,0.4,0,0.7h-5.4c0.1,1.1,0.9,1.8,1.9,1.8
							c0.7,0,1.3-0.3,1.5-0.9h2.1c-0.3,1.6-1.8,2.6-3.5,2.6C45.4,520.2,43.6,518.6,43.6,516.2z M49.1,515.4
							c-0.1-0.9-0.8-1.5-1.5-1.5c-0.8,0-1.6,0.6-1.8,1.5H49.1z"/>
					</g>
					<g class="st2">
						<path class="st3" d="M52.5,516.2c0-2.3,1.6-4,3.9-4c2,0,3.4,1.2,3.6,2.9h-2.1c-0.1-0.6-0.7-1.1-1.5-1.1
							c-1.1,0-1.8,0.9-1.8,2.2s0.8,2.2,1.8,2.2c0.9,0,1.4-0.5,1.5-1.1H60c-0.2,1.7-1.6,2.9-3.6,2.9
							C54.1,520.2,52.5,518.5,52.5,516.2z"/>
					</g>
					<g class="st2">
						<path class="st3" d="M61.1,516.2c0-2.3,1.8-4,4-4c2.2,0,4,1.6,4,4s-1.8,4-4,4S61.1,518.6,61.1,516.2z M65.1,518.4
							c1.1,0,1.9-0.9,1.9-2.2s-0.8-2.2-1.9-2.2s-1.9,0.9-1.9,2.2C63.2,517.5,64,518.4,65.1,518.4z"/>
						<path class="st3" d="M74,514.1c-0.7,0-1.3,0.5-1.3,1.6v4.3h-2v-7.5h1.7l0.2,1h0.1c0.3-0.7,1-1.2,2-1.2s1.8,0.5,2.1,1.3h0.1
							c0.4-0.9,1.2-1.3,2.2-1.3c1.5,0,2.6,1,2.6,3v4.8h-2v-4.5c0-1-0.5-1.5-1.2-1.5s-1.3,0.5-1.3,1.6v4.3h-2v-4.5
							C75.2,514.5,74.7,514.1,74,514.1z"/>
						<path class="st3" d="M86.8,514.1c-0.7,0-1.3,0.5-1.3,1.6v4.3h-2v-7.5h1.7l0.2,1h0.1c0.3-0.7,1-1.2,2-1.2s1.8,0.5,2.1,1.3h0.1
							c0.4-0.9,1.2-1.3,2.2-1.3c1.5,0,2.6,1,2.6,3v4.8h-2v-4.5c0-1-0.5-1.5-1.2-1.5s-1.3,0.5-1.3,1.6v4.3h-2v-4.5
							C88,514.5,87.5,514.1,86.8,514.1z"/>
						<path class="st3" d="M96.1,516.2c0-2.3,1.7-4,3.9-4c2.1,0,3.7,1.5,3.7,3.7c0,0.2,0,0.4,0,0.7h-5.4c0.1,1.1,0.9,1.8,1.9,1.8
							c0.7,0,1.3-0.3,1.5-0.9h2.1c-0.3,1.6-1.8,2.6-3.5,2.6C97.8,520.2,96.1,518.6,96.1,516.2z M101.5,515.4
							c-0.1-0.9-0.8-1.5-1.5-1.5c-0.8,0-1.6,0.6-1.8,1.5H101.5z"/>
						<path class="st3" d="M108.7,514c-0.8,0-1.6,0.6-1.6,1.8v4.2h-2v-7.5h1.7l0.2,1h0.1c0.3-0.6,1-1.2,2.2-1.2
							c1.7,0,2.9,1.1,2.9,3.1v4.6h-2v-4.3C110.2,514.6,109.6,514,108.7,514z"/>
						<path class="st3" d="M119.8,520l-0.2-1.1h-0.1c-0.4,0.8-1.4,1.3-2.4,1.3c-1.9,0-3.4-1.6-3.4-4c0-2.3,1.5-4,3.4-4
							c1,0,1.8,0.5,2.2,1h0.1v-4h2V520H119.8z M117.7,518.4c1.1,0,1.8-0.8,1.8-2.2s-0.7-2.2-1.8-2.2s-1.8,0.9-1.8,2.2
							C115.8,517.6,116.6,518.4,117.7,518.4z"/>
						<path class="st3" d="M123,516.2c0-2.3,1.7-4,3.9-4c2.1,0,3.7,1.5,3.7,3.7c0,0.2,0,0.4,0,0.7h-5.4c0.1,1.1,0.9,1.8,1.9,1.8
							c0.7,0,1.3-0.3,1.5-0.9h2.1c-0.3,1.6-1.8,2.6-3.5,2.6C124.7,520.2,123,518.6,123,516.2z M128.4,515.4
							c-0.1-0.9-0.8-1.5-1.5-1.5c-0.8,0-1.6,0.6-1.8,1.5H128.4z"/>
						<path class="st3" d="M137.9,520l-0.2-1.1h-0.1c-0.4,0.8-1.3,1.3-2.4,1.3c-1.9,0-3.4-1.6-3.4-4c0-2.3,1.5-4,3.4-4
							c1,0,1.8,0.5,2.2,1h0.1v-4h2V520H137.9z M135.7,518.4c1.1,0,1.8-0.8,1.8-2.2s-0.7-2.2-1.8-2.2s-1.8,0.9-1.8,2.2
							C133.9,517.6,134.7,518.4,135.7,518.4z"/>
					</g>
					<g class="st2">
						<path class="st3" d="M35.1,530.5h3.5c3.4,0,5.4,2.1,5.4,5.2s-2,5.2-5.4,5.2h-3.5V530.5z M38.6,539.2c2.2,0,3.4-1.3,3.4-3.5
							s-1.2-3.4-3.4-3.4h-1.4v6.9H38.6z"/>
					</g>
					<g class="st2">
						<path class="st3" d="M45.7,538v-4.6h2v4.3c0,1.1,0.6,1.7,1.4,1.7s1.5-0.6,1.5-1.8v-4.2h2v7.5h-1.7l-0.2-1h-0.1
							c-0.3,0.5-1,1.2-2.1,1.2C46.9,541.2,45.7,540.1,45.7,538z"/>
					</g>
					<g class="st2">
						<path class="st3" d="M54.4,533.5h1.7l0.2,1.1h0.1c0.3-0.7,1-1.2,2.1-1.2c0.2,0,0.4,0,0.6,0v2c-0.2,0-0.4,0-0.5,0
							c-1.3,0-2.1,0.8-2.1,2.4v3.3h-2L54.4,533.5L54.4,533.5z"/>
					</g>
					<g class="st2">
						<path class="st3" d="M59.8,539c0-1.5,1.3-2.4,3.8-2.6l0.7-0.1v-0.2c0-0.7-0.5-1.2-1.1-1.2s-1.1,0.3-1.2,1h-2
							c0.1-1.5,1.4-2.6,3.3-2.6c1.9,0,3.1,1.2,3.1,3v2.8c0,0.4,0.1,0.5,0.6,0.5h0.2v1.5c-0.2,0.1-0.5,0.1-0.7,0.1
							c-0.7,0-1.4-0.3-1.7-1.2h-0.1c-0.5,0.7-1.3,1.2-2.4,1.2C60.7,541.2,59.8,540.3,59.8,539z M62.7,539.5c1,0,1.6-0.8,1.6-1.8
							v-0.1h-0.6c-1.3,0.1-1.9,0.5-1.9,1.2C61.8,539.3,62.2,539.5,62.7,539.5z"/>
					</g>
					<g class="st2">
						<path class="st3" d="M68.8,538.8v-3.6h-1.5v-1.7h0.2c0.9,0,1.4-0.6,1.5-1.6v-0.6h1.7v2.2h1.8v1.7h-1.8v3.3c0,0.6,0.4,1,0.9,1
							c0.2,0,0.4,0,0.6-0.1v1.7c-0.3,0.1-0.7,0.1-1,0.1C69.7,541.2,68.8,540.2,68.8,538.8z"/>
					</g>
					<g class="st2">
						<path class="st3" d="M74.9,530.1c0.7,0,1.2,0.5,1.2,1.2s-0.6,1.2-1.2,1.2s-1.2-0.5-1.2-1.2C73.7,530.6,74.2,530.1,74.9,530.1z
							 M73.9,533.5h2v7.5h-2V533.5z"/>
						<path class="st3" d="M77.5,537.2c0-2.3,1.8-4,4-4s4,1.6,4,4s-1.8,4-4,4S77.5,539.6,77.5,537.2z M81.5,539.4
							c1.1,0,1.9-0.9,1.9-2.2s-0.8-2.2-1.9-2.2s-1.9,0.9-1.9,2.2C79.5,538.5,80.4,539.4,81.5,539.4z"/>
					</g>
					<g class="st2">
						<path class="st3" d="M90.6,535c-0.8,0-1.6,0.6-1.6,1.8v4.2h-2v-7.5h1.7l0.2,1H89c0.3-0.6,1-1.2,2.2-1.2c1.7,0,2.9,1.1,2.9,3.1
							v4.6h-2v-4.3C92,535.6,91.4,535,90.6,535z"/>
					</g>
					<g class="st2">
						<path class="st3" d="M96.6,533.4c0.7,0,1.2,0.5,1.2,1.2c0,0.6-0.5,1.2-1.2,1.2s-1.2-0.5-1.2-1.2S95.9,533.4,96.6,533.4z
							 M95.4,539.9c0-0.6,0.5-1.2,1.2-1.2s1.2,0.5,1.2,1.2c0,0.6-0.5,1.2-1.2,1.2C95.9,541.1,95.4,540.6,95.4,539.9z"/>
					</g>
					<g class="st2">
						<path class="st3" d="M103.9,530.5h1.5l3.6,7.5h0.1l3.6-7.5h1.5V541H113v-8.2h-0.1l-3.2,6.7h-1.2l-3.2-6.7h-0.1v8.2H104v-10.5
							H103.9z"/>
					</g>
					<g class="st2">
						<path class="st3" d="M116.1,539c0-1.5,1.3-2.4,3.9-2.6l0.8-0.1V536c0-1-0.6-1.6-1.6-1.6c-0.9,0-1.6,0.5-1.7,1.3h-1.2
							c0.1-1.3,1.3-2.3,2.9-2.3c1.7,0,2.7,1,2.7,2.7v3.5c0,0.5,0.3,0.6,0.7,0.6c0.1,0,0.1,0,0.3,0v0.9c-0.2,0.1-0.4,0.1-0.6,0.1
							c-0.6,0-1.3-0.3-1.4-1.2l0,0h-0.1c-0.5,0.7-1.3,1.2-2.4,1.2C117.1,541.2,116.1,540.3,116.1,539z M118.6,540.1
							c1.3,0,2.2-1,2.2-2.5v-0.3l-0.7,0.1c-1.9,0.2-2.8,0.7-2.8,1.7C117.3,539.7,117.9,540.1,118.6,540.1z"/>
						<path class="st3" d="M126.1,537.1l-2.3-3.6h1.4l1.7,2.6h0.1l1.7-2.6h1.4l-2.3,3.6l2.5,3.9h-1.4l-1.9-2.9h-0.1L125,541h-1.4
							L126.1,537.1z"/>
					</g>
					<g class="st2">
						<path class="st3" d="M34.5,554.5h1.3l2.2,6.2l0,0l2.2-6.2h1.3l-2.8,7.5h-1.5L34.5,554.5z"/>
					</g>
					<g class="st2">
						<path class="st3" d="M42.6,558.3c0-2.2,1.6-3.9,3.8-3.9s3.8,1.7,3.8,3.9s-1.6,3.9-3.8,3.9S42.6,560.5,42.6,558.3z M46.3,561.1
							c1.5,0,2.6-1.2,2.6-2.8s-1.1-2.8-2.6-2.8s-2.6,1.2-2.6,2.8C43.8,559.8,44.8,561.1,46.3,561.1z"/>
						<path class="st3" d="M52.1,551.2h1.2V562h-1.2V551.2z"/>
						<path class="st3" d="M55.6,559.1v-4.6h1.2v4.5c0,1.4,0.8,2,1.7,2c1,0,1.9-0.7,1.9-2.2v-4.3h1.2v7.5h-1l-0.1-1h-0.1
							c-0.3,0.5-1,1.1-2.1,1.1C56.8,562.2,55.6,561.1,55.6,559.1z"/>
						<path class="st3" d="M66.9,555.5c-0.9,0-1.8,0.7-1.8,2.2v4.3H64v-7.5h1l0.1,1h0.1c0.3-0.6,1-1.1,2-1.1s1.8,0.5,2.2,1.3h0.1
							c0.4-0.8,1.1-1.3,2.2-1.3c1.4,0,2.6,0.9,2.6,2.9v4.7H73v-4.5c0-1.4-0.7-2-1.6-2s-1.7,0.7-1.7,2.2v4.3h-1.2v-4.5
							C68.5,556,67.8,555.5,66.9,555.5z"/>
						<path class="st3" d="M76.2,558.3c0-2.2,1.6-3.9,3.7-3.9c2,0,3.4,1.5,3.4,3.6c0,0.2,0,0.3,0,0.6h-5.8c0.1,1.5,1.1,2.5,2.5,2.5
							c0.9,0,1.8-0.4,2-1.2h1.2c-0.3,1.4-1.6,2.3-3.2,2.3C77.8,562.2,76.2,560.5,76.2,558.3z M82,557.6c-0.1-1.3-1-2.1-2.1-2.1
							s-2.2,0.8-2.4,2.1H82z"/>
					</g>
					<g class="st2">
						<path class="st3" d="M89.9,555.6h-1.5v-1.1h1.5v-1.4c0-1.4,1-2.1,2-2.1c0.5,0,1,0.2,1.2,0.3l-0.4,0.9
							c-0.2-0.1-0.5-0.2-0.7-0.2c-0.6,0-1,0.4-1,1v1.4h1.7v1.1H91v6.4h-1.2L89.9,555.6L89.9,555.6z"/>
					</g>
					<g class="st2">
						<path class="st3" d="M93.7,558.3c0-2.2,1.6-3.9,3.8-3.9c2.1,0,3.8,1.7,3.8,3.9s-1.6,3.9-3.8,3.9
							C95.3,562.2,93.7,560.5,93.7,558.3z M97.5,561.1c1.5,0,2.6-1.2,2.6-2.8s-1.1-2.8-2.6-2.8s-2.6,1.2-2.6,2.8
							C94.9,559.8,96,561.1,97.5,561.1z"/>
						<path class="st3" d="M103.3,554.5h1l0.1,1.1h0.1c0.3-0.5,0.9-1.2,2.2-1.2c0.2,0,0.3,0,0.4,0v1.2c-0.2,0-0.3,0-0.4,0
							c-1.3,0-2.2,0.8-2.2,2.6v3.7h-1.2V554.5z"/>
					</g>
					<g class="st2">
						<path class="st3" d="M116.6,559.7h-4.5V559l4.3-6.6h1.4v6.3h1.7v1h-1.7v2.3h-1.2C116.6,562,116.6,559.7,116.6,559.7z
							 M116.6,558.7v-4.5h-0.1l-2.9,4.5H116.6z"/>
					</g>
					<g class="st2">
						<path class="st3" d="M124.3,555.5c-1,0-2,0.7-2,2.2v4.3h-1.2v-10.8h1.2v4.2h0.1c0.2-0.3,0.9-1,2.1-1c1.6,0,2.8,1,2.8,3v4.6
							h-1.2v-4.5C126.1,556.1,125.3,555.5,124.3,555.5z"/>
						<path class="st3" d="M129.7,554.5h1l0.1,1.1h0.1c0.3-0.5,0.9-1.2,2.2-1.2c0.2,0,0.3,0,0.4,0v1.2c-0.2,0-0.3,0-0.4,0
							c-1.3,0-2.2,0.8-2.2,2.6v3.7h-1.2L129.7,554.5L129.7,554.5z"/>
					</g>
					<g class="st2">
						<path class="st3" d="M35.9,581.3v-4.7h-1.5v-1.1h0.3c0.9,0,1.2-0.4,1.2-1.3v-0.8h1v2.2h1.7v1.1H37v4.5c0,0.6,0.3,1,0.9,1
							c0.2,0,0.5,0,0.7-0.1v1c-0.2,0.1-0.5,0.2-0.9,0.2C36.7,583.2,35.9,582.5,35.9,581.3z"/>
					</g>
					<g class="st2">
						<path class="st3" d="M41.1,572.5c0.5,0,0.8,0.3,0.8,0.8s-0.4,0.8-0.8,0.8c-0.4,0-0.8-0.3-0.8-0.8
							C40.3,572.9,40.7,572.5,41.1,572.5z M40.5,575.5h1.2v7.5h-1.2V575.5z"/>
						<path class="st3" d="M47,576.5c-0.9,0-1.8,0.7-1.8,2.2v4.3H44v-7.5h1l0.1,1h0.1c0.3-0.6,1-1.1,2-1.1s1.8,0.5,2.2,1.3h0.1
							c0.4-0.8,1.1-1.3,2.2-1.3c1.4,0,2.6,0.9,2.6,2.9v4.7h-1.2v-4.5c0-1.4-0.7-2-1.6-2c-0.9,0-1.7,0.7-1.7,2.2v4.3h-1.2v-4.5
							C48.6,577,47.9,576.5,47,576.5z"/>
						<path class="st3" d="M56.3,579.3c0-2.2,1.6-3.9,3.7-3.9c2,0,3.4,1.5,3.4,3.6c0,0.2,0,0.3,0,0.6h-5.8c0.1,1.5,1.1,2.5,2.5,2.5
							c0.9,0,1.8-0.4,2-1.2h1.2c-0.3,1.4-1.6,2.3-3.2,2.3C57.9,583.2,56.3,581.5,56.3,579.3z M62.1,578.6c-0.1-1.3-1-2.1-2.1-2.1
							c-1.2,0-2.2,0.8-2.4,2.1H62.1z"/>
					</g>
					<g class="st2">
						<path class="st3" d="M69.3,575.5h0.9l0.1,1.2h0.1c0.5-0.9,1.5-1.4,2.5-1.4c2,0,3.5,1.7,3.5,3.9s-1.5,3.9-3.5,3.9
							c-1,0-1.9-0.5-2.4-1.2h-0.1v4h-1.2L69.3,575.5L69.3,575.5z M72.8,582.1c1.4,0,2.4-1.1,2.4-2.8s-1-2.8-2.4-2.8
							s-2.4,1.1-2.4,2.8S71.4,582.1,72.8,582.1z"/>
					</g>
					<g class="st2">
						<path class="st3" d="M78.1,579.3c0-2.2,1.6-3.9,3.7-3.9c2,0,3.4,1.5,3.4,3.6c0,0.2,0,0.3,0,0.6h-5.8c0.1,1.5,1.1,2.5,2.5,2.5
							c0.9,0,1.8-0.4,2-1.2h1.2c-0.3,1.4-1.6,2.3-3.2,2.3C79.7,583.2,78.1,581.5,78.1,579.3z M83.9,578.6c-0.1-1.3-1-2.1-2.1-2.1
							c-1.2,0-2.2,0.8-2.4,2.1H83.9z"/>
					</g>
					<g class="st2">
						<path class="st3" d="M87.2,575.5h1l0.1,1.1h0.1c0.3-0.5,0.9-1.2,2.2-1.2c0.2,0,0.3,0,0.4,0v1.2c-0.2,0-0.3,0-0.4,0
							c-1.3,0-2.2,0.8-2.2,2.6v3.7h-1.2V575.5z"/>
					</g>
					<g class="st2">
						<path class="st3" d="M93.1,572.5c0.5,0,0.8,0.3,0.8,0.8s-0.4,0.8-0.8,0.8s-0.8-0.3-0.8-0.8C92.3,572.9,92.7,572.5,93.1,572.5z
							 M92.5,575.5h1.2v7.5h-1.2V575.5z"/>
					</g>
					<g class="st2">
						<path class="st3" d="M95.7,579.3c0-2.2,1.6-3.9,3.8-3.9c2.1,0,3.8,1.7,3.8,3.9s-1.6,3.9-3.8,3.9
							C97.3,583.2,95.7,581.5,95.7,579.3z M99.5,582.1c1.5,0,2.6-1.2,2.6-2.8s-1.1-2.8-2.6-2.8s-2.6,1.2-2.6,2.8
							C96.9,580.8,98,582.1,99.5,582.1z"/>
					</g>
					<g class="st2">
						<path class="st3" d="M111.2,583l-0.1-1.2H111c-0.5,0.9-1.5,1.4-2.5,1.4c-2,0-3.5-1.7-3.5-3.9s1.5-3.9,3.5-3.9
							c1,0,1.9,0.5,2.4,1.2h0.1v-4.4h1.2V583H111.2z M108.6,582.1c1.4,0,2.4-1.1,2.4-2.8s-1-2.8-2.4-2.8s-2.4,1.1-2.4,2.8
							C106.2,580.9,107.2,582.1,108.6,582.1z"/>
					</g>
				</g>
			</g>
			<g id="Group_133">
				<g id="_dB_">
					<g class="st2">
						<path class="st3" d="M74.7,70.8c0,3.4,1,6.4,2.6,8.7l-1.6,1c-1.8-2.1-3.3-5.5-3.3-9.7s1.5-7.6,3.3-9.7l1.6,1
							C75.7,64.4,74.7,67.4,74.7,70.8z"/>
					</g>
					<g class="st2">
						<path class="st3" d="M85.5,77l-0.2-1.5h-0.1c-0.6,1.1-1.8,1.7-3.2,1.7c-2.6,0-4.6-2.2-4.6-5.3c0-3.1,2-5.3,4.6-5.3
							c1.4,0,2.4,0.6,2.9,1.3H85v-5.4h2.7V77H85.5z M82.6,74.9c1.4,0,2.4-1.1,2.4-3c0-1.8-1-2.9-2.4-2.9s-2.4,1.1-2.4,2.9
							S81.2,74.9,82.6,74.9z"/>
					</g>
					<g class="st2">
						<path class="st3" d="M90.2,63h5.3c2.7,0,4.5,1.6,4.5,3.7c0,1.5-0.9,2.4-1.7,2.8v0.1c1,0.5,2.1,1.7,2.1,3.4
							c0,2.3-1.9,3.9-4.6,3.9h-5.5V63H90.2z M95.3,68.8c1.2,0,2-0.7,2-1.8s-0.8-1.8-2-1.8H93v3.5h2.3V68.8z M95.4,74.8
							c1.2,0,2-0.8,2-1.9s-0.8-1.9-2-1.9H93v3.8H95.4z"/>
					</g>
					<g class="st2">
						<path class="st3" d="M103.4,70.8c0-3.4-1-6.4-2.6-8.7l1.6-1c1.8,2.1,3.3,5.5,3.3,9.7s-1.5,7.6-3.3,9.7l-1.6-1
							C102.3,77.2,103.4,74.2,103.4,70.8z"/>
					</g>
				</g>
				<g id="_80-85">
					<g class="st2">
						<path class="st3" d="M62.1,49.5c0-1.3,0.9-2.5,2.4-3.1v-0.1c-1.2-0.5-2-1.6-2-2.8c0-2.1,1.9-3.5,4.7-3.5
							c2.8,0,4.6,1.4,4.6,3.5c0,1.2-0.8,2.3-2,2.8v0.1c1.5,0.6,2.4,1.8,2.4,3.1c0,2.3-2,3.8-5,3.8C64.2,53.2,62.1,51.7,62.1,49.5z
							 M67.2,51.1c1.4,0,2.3-0.7,2.3-1.8s-0.9-1.8-2.3-1.8s-2.3,0.7-2.3,1.8C64.9,50.4,65.8,51.1,67.2,51.1z M67.2,45.3
							c1.1,0,1.9-0.6,1.9-1.7c0-0.9-0.8-1.5-1.9-1.5s-1.9,0.6-1.9,1.5C65.2,44.6,66,45.3,67.2,45.3z"/>
					</g>
					<g class="st2">
						<path class="st3" d="M74.3,46.6c0-4.3,1.9-6.7,5.1-6.7c3.3,0,5.1,2.4,5.1,6.7c0,4.2-1.9,6.6-5.1,6.6
							C76.2,53.2,74.3,50.8,74.3,46.6z M79.4,51c1.6,0,2.4-1.5,2.4-4.4s-0.8-4.4-2.4-4.4S77,43.7,77,46.6C77.1,49.5,77.9,51,79.4,51
							z"/>
					</g>
					<g class="st2">
						<path class="st3" d="M86.2,45.6H93v2.3h-6.8V45.6z"/>
					</g>
					<g class="st2">
						<path class="st3" d="M94,49.5c0-1.3,0.9-2.5,2.4-3.1v-0.1c-1.2-0.5-2-1.6-2-2.8c0-2.1,1.9-3.5,4.7-3.5c2.8,0,4.6,1.4,4.6,3.5
							c0,1.2-0.8,2.3-2,2.8v0.1c1.5,0.6,2.4,1.8,2.4,3.1c0,2.3-2,3.8-5,3.8C96.1,53.2,94,51.7,94,49.5z M99.1,51.1
							c1.4,0,2.3-0.7,2.3-1.8s-0.9-1.8-2.3-1.8s-2.3,0.7-2.3,1.8C96.8,50.4,97.7,51.1,99.1,51.1z M99.1,45.3c1.1,0,1.9-0.6,1.9-1.7
							c0-0.9-0.8-1.5-1.9-1.5s-1.9,0.6-1.9,1.5C97.2,44.6,98,45.3,99.1,45.3z"/>
						<path class="st3" d="M106.2,49.3h2.7c0.1,0.9,0.9,1.7,2.1,1.7s2.1-0.8,2.1-2.1s-0.9-2.2-2.2-2.2c-0.8,0-1.7,0.4-2.1,1.2
							l-2.4-0.6l0.7-7.1h8v2.3h-5.8l-0.3,2.8h0.1c0.6-0.5,1.4-0.7,2.3-0.7c2.6,0,4.3,1.9,4.3,4.2c0,2.6-2,4.4-4.9,4.4
							C108.2,53.2,106.3,51.4,106.2,49.3z"/>
					</g>
				</g>
			</g>
			<g id="Group_176">
				<g id="Group_170">
					<g id="Path_22">
						<path class="st1" d="M174,319c0-46.9-38.1-85-85-85S4,272.1,4,319H174z"/>
					</g>
				</g>
				<g id="EXAMPLE">
					<g class="st2">
						<path class="st3" d="M56.4,317.5H63v1.3h-5.2v3.2h4.4v1.3h-4.4v3.3H63v1.3h-6.6V317.5z"/>
						<path class="st3" d="M67.8,322.6l-3.1-5.1h1.7l2.3,3.9h0.1l2.4-3.9h1.7l-3.1,5.1L73,328h-1.7l-2.5-4.2h-0.1l-2.5,4.2h-1.7
							L67.8,322.6z"/>
						<path class="st3" d="M77.8,317.5h2l3.7,10.5h-1.6l-0.9-2.7h-4.3l-0.9,2.7h-1.6L77.8,317.5z M80.5,323.9l-1.7-4.8h-0.1
							l-1.6,4.8H80.5z"/>
						<path class="st3" d="M85.4,317.5h1.8l3.4,7.2h0.1l3.4-7.2h1.8V328h-1.4v-7.7h-0.1l-3,6.2H90l-3-6.2h-0.1v7.7h-1.4v-10.5H85.4z
							"/>
						<path class="st3" d="M98.7,317.5h3.7c2.1,0,3.5,1.3,3.5,3.2s-1.4,3.2-3.5,3.2h-2.3v4.1h-1.5v-10.5H98.7z M102.4,322.6
							c1.2,0,2-0.7,2-1.9c0-1.1-0.8-1.9-2-1.9h-2.3v3.7L102.4,322.6L102.4,322.6z"/>
						<path class="st3" d="M108.1,317.5h1.5v9.2h5.1v1.3h-6.6V317.5z"/>
						<path class="st3" d="M116.9,317.5h6.6v1.3h-5.2v3.2h4.4v1.3h-4.4v3.3h5.2v1.3h-6.6V317.5z"/>
					</g>
				</g>
			</g>
		</g>
	</g>
	<g>
		<path class="st3" d="M89.3,307.5c-8,0-15.6-3.8-20.3-10.3l1.4-1.1c4.4,6,11.4,9.5,18.8,9.5c12.9,0,23.4-10.5,23.4-23.4
			s-10.5-23.4-23.4-23.4s-23.4,10.5-23.4,23.4c0,2.9,0.6,5.8,1.7,8.7l-1.7,0.7c-1.2-3.1-1.9-6.2-1.9-9.3c0-13.9,11.3-25.2,25.2-25.2
			s25.2,11.3,25.2,25.2S103.2,307.5,89.3,307.5L89.3,307.5z"/>
	</g>
	<g>
		<path class="st3" d="M82.3,293c-0.2,0-0.4,0-0.5-0.1c-0.3-0.2-0.5-0.6-0.5-1v-19.1c0-0.4,0.2-0.8,0.5-1s0.7-0.2,1.1,0l17.4,9.6
			c0.4,0.2,0.6,0.6,0.6,1s-0.2,0.8-0.6,1L82.9,293C82.6,292.9,82.5,293,82.3,293L82.3,293z M83,273.9v16.8l15.2-8.4L83,273.9
			L83,273.9z M99.4,281.7L99.4,281.7L99.4,281.7z"/>
	</g>
	<g>
		<circle class="st3" cx="69.5" cy="296.7" r="3.6"/>
	</g>
</g>
</svg>
