<?xml version="1.0" encoding="UTF-8"?><svg id="Working_File" xmlns="http://www.w3.org/2000/svg" viewBox="0 0 178 618.49"><defs><style>.cls-1,.cls-2{fill:none;}.cls-3{letter-spacing:.01em;}.cls-4{letter-spacing:-.02em;}.cls-5{letter-spacing:-.02em;}.cls-6{letter-spacing:0em;}.cls-7{letter-spacing:0em;}.cls-8,.cls-9,.cls-10,.cls-11,.cls-12,.cls-13{isolation:isolate;}.cls-8,.cls-9,.cls-12{font-size:15px;}.cls-8,.cls-10{font-family:ULModerat-Bold, 'UL Moderat';font-weight:700;}.cls-8,.cls-12{fill:#fff;}.cls-14{fill:#efefef;}.cls-15{fill:#00a451;}.cls-16{fill:#122c49;}.cls-17{letter-spacing:-.02em;}.cls-18{letter-spacing:-.09em;}.cls-19{letter-spacing:-.01em;}.cls-20{letter-spacing:-.01em;}.cls-9{font-family:ULModerat-Medium, 'UL Moderat';font-weight:500;}.cls-21{letter-spacing:0em;}.cls-10{font-size:20px;}.cls-22{letter-spacing:-.04em;}.cls-23{letter-spacing:0em;}.cls-24{letter-spacing:-.01em;}.cls-25{letter-spacing:0em;}.cls-26{letter-spacing:0em;}.cls-27{letter-spacing:0em;}.cls-28{letter-spacing:0em;}.cls-29{letter-spacing:0em;}.cls-30{letter-spacing:-.05em;}.cls-31{letter-spacing:0em;}.cls-2{stroke:#000;stroke-linecap:round;stroke-width:3px;}.cls-32{letter-spacing:-.02em;}.cls-12,.cls-13{font-family:ULModerat-Regular, 'UL Moderat';}.cls-13{font-size:12px;}.cls-33{letter-spacing:-.07em;}.cls-34{letter-spacing:0em;}.cls-35{letter-spacing:0em;}.cls-36{letter-spacing:-.02em;}</style></defs><line id="Line_164" class="cls-2" x1="89" y1="437" x2="89" y2="449"/><line id="Line_142" class="cls-2" x1="89" y1="188" x2="89" y2="200"/><line id="Line_145" class="cls-2" x1="89" y1="415" x2="89" y2="427"/><line id="Line_165" class="cls-2" x1="89" y1="459" x2="89" y2="471"/><line id="Line_143" class="cls-2" x1="89" y1="210" x2="89" y2="222"/><g id="Group_185"><g id="Path_8"><path class="cls-1" d="m89,482c37.69,0,68.24,30.55,68.24,68.24s-30.55,68.24-68.24,68.24-68.24-30.55-68.24-68.24h0c0-37.69,30.55-68.24,68.24-68.24Z"/><path class="cls-16" d="m89,485c-8.81,0-17.35,1.72-25.39,5.13-3.87,1.63-7.59,3.66-11.08,6.01-3.46,2.33-6.7,5.02-9.66,7.97s-5.63,6.2-7.97,9.66c-2.36,3.49-4.38,7.22-6.01,11.08-3.4,8.04-5.13,16.59-5.13,25.39s1.72,17.35,5.13,25.39c1.63,3.87,3.66,7.59,6.01,11.08,2.33,3.46,5.02,6.7,7.97,9.66s6.2,5.63,9.66,7.97c3.49,2.36,7.22,4.38,11.08,6.01,8.04,3.4,16.59,5.13,25.39,5.13s17.35-1.72,25.39-5.13c3.87-1.63,7.59-3.66,11.08-6.01,3.46-2.33,6.7-5.02,9.66-7.97s5.63-6.2,7.97-9.66c2.36-3.49,4.38-7.22,6.01-11.08,3.4-8.04,5.13-16.59,5.13-25.39s-1.72-17.35-5.13-25.39c-1.63-3.87-3.66-7.59-6.01-11.08-2.33-3.46-5.02-6.7-7.97-9.66s-6.2-5.63-9.66-7.97c-3.49-2.36-7.22-4.38-11.08-6.01-8.04-3.4-16.59-5.13-25.39-5.13m0-3c37.69,0,68.24,30.55,68.24,68.24s-30.55,68.24-68.24,68.24-68.24-30.55-68.24-68.24,30.55-68.24,68.24-68.24Z"/></g><circle id="Ellipse_47" class="cls-14" cx="89" cy="317" r="85"/><g id="Group_95"><circle id="Ellipse_18" class="cls-16" cx="89" cy="89" r="89"/><g id="Recommended_Duration:_Max_volume_for_2hr_time_period" class="cls-11"><text class="cls-8" transform="translate(35 62)"><tspan class="cls-22" x="0" y="0">R</tspan><tspan class="cls-31" x="8.98" y="0">e</tspan><tspan class="cls-34" x="17.81" y="0">c</tspan><tspan x="26.48" y="0">ommended</tspan></text><text class="cls-8" transform="translate(35 83)"><tspan class="cls-21" x="0" y="0">D</tspan><tspan class="cls-31" x="10.8" y="0">u</tspan><tspan class="cls-24" x="19.5" y="0">r</tspan><tspan class="cls-19" x="25.15" y="0">a</tspan><tspan class="cls-23" x="32.98" y="0">t</tspan><tspan x="39.01" y="0">io</tspan><tspan class="cls-36" x="52.11" y="0">n</tspan><tspan x="60.7" y="0">: </tspan></text><text class="cls-12" transform="translate(103.4 83)"><tspan class="cls-17" x="0" y="0">M</tspan><tspan x="12.89" y="0">ax </tspan></text><text class="cls-12" transform="translate(35 104)"><tspan class="cls-17" x="0" y="0">v</tspan><tspan x="7.74" y="0">olume </tspan><tspan class="cls-4" x="53.98" y="0">f</tspan><tspan x="58.89" y="0">or </tspan><tspan class="cls-26" x="77.35" y="0">2</tspan><tspan class="cls-31" x="85.57" y="0">hr </tspan></text><text class="cls-12" transform="translate(35 125)"><tspan class="cls-3" x="0" y="0">t</tspan><tspan x="5.38" y="0">ime </tspan><tspan class="cls-29" x="34.09" y="0">p</tspan><tspan x="43.29" y="0">e</tspan><tspan class="cls-7" x="52" y="0">r</tspan><tspan x="57.37" y="0">i</tspan><tspan class="cls-29" x="60.88" y="0">o</tspan><tspan x="70.14" y="0">d</tspan></text></g></g><g id="Group_134"><g id="_dB_" class="cls-11"><text class="cls-10" transform="translate(71.31 569)"><tspan class="cls-33" x="0" y="0">(</tspan><tspan class="cls-25" x="5.24" y="0">d</tspan><tspan class="cls-30" x="17.4" y="0">B</tspan><tspan class="cls-6" x="28.82" y="0">)</tspan></text></g><g id="_88" class="cls-11"><text class="cls-10" transform="translate(76.77 545)"><tspan class="cls-35" x="0" y="0">8</tspan><tspan x="12.28" y="0">8</tspan></text></g></g><g id="Group_97"><g id="Group_31"><g id="Group_27"><g id="Heavy_Traffic" class="cls-11"><text class="cls-13" transform="translate(57 279.54)"><tspan class="cls-32" x="0" y="0">H</tspan><tspan class="cls-27" x="8.36" y="0">e</tspan><tspan class="cls-5" x="15.24" y="0">a</tspan><tspan class="cls-28" x="21.22" y="0">v</tspan><tspan x="27.7" y="0">y </tspan><tspan class="cls-18" x="37.21" y="0">T</tspan><tspan class="cls-5" x="43.15" y="0">r</tspan><tspan class="cls-20" x="47.16" y="0">a</tspan><tspan x="53.27" y="0">ffic</tspan></text></g><circle id="Ellipse_14" cx="51.5" cy="276.04" r="1.5"/></g></g></g><g id="Group_174"><g id="EXAMPLE" class="cls-11"><text class="cls-9" transform="translate(55 310.54)"><tspan x="0" y="0">EXAMPLE</tspan></text></g></g></g><path d="m89,369.14c-7.97,0-15.56-3.84-20.3-10.27l1.45-1.07c4.4,5.97,11.44,9.53,18.85,9.53,12.9,0,23.4-10.5,23.4-23.4s-10.5-23.4-23.4-23.4-23.4,10.5-23.4,23.4c0,2.86.58,5.78,1.74,8.67l-1.67.67c-1.24-3.1-1.86-6.24-1.86-9.33,0-13.89,11.3-25.2,25.2-25.2s25.2,11.3,25.2,25.2-11.3,25.2-25.2,25.2Z"/><path d="m81.97,354.61c-.19,0-.37-.05-.54-.15-.33-.2-.53-.56-.53-.97v-19.12c0-.41.2-.77.53-.97.33-.2.74-.19,1.1,0l17.41,9.57c.37.2.59.56.59.95s-.22.75-.59.95l-17.41,9.57c-.18.1-.37.15-.56.15Zm.73-19.05v16.75l15.23-8.38-15.23-8.38Zm16.37,7.75s0,0,0,0h0Z"/><circle class="cls-15" cx="69.2" cy="358.34" r="3.6"/></svg>