<?xml version="1.0" encoding="utf-8"?>
<!-- Generator: Adobe Illustrator 27.5.0, SVG Export Plug-In . SVG Version: 6.00 Build 0)  -->
<svg version="1.1" id="Working_File" xmlns="http://www.w3.org/2000/svg" xmlns:xlink="http://www.w3.org/1999/xlink" x="0px"
	 y="0px" viewBox="0 0 178 618.5" style="enable-background:new 0 0 178 618.5;" xml:space="preserve">
<style type="text/css">
	.st0{fill:none;}
	.st1{fill:#122C49;}
	.st2{fill:#00A451;}
	.st3{enable-background:new    ;}
	.st4{fill:#FFFFFF;}
</style>
<g id="Line_164">
	<path d="M89,450.5c-0.8,0-1.5-0.7-1.5-1.5v-12c0-0.8,0.7-1.5,1.5-1.5s1.5,0.7,1.5,1.5v12C90.5,449.8,89.8,450.5,89,450.5z"/>
</g>
<g id="Line_142">
	<path d="M89,201.5c-0.8,0-1.5-0.7-1.5-1.5v-12c0-0.8,0.7-1.5,1.5-1.5s1.5,0.7,1.5,1.5v12C90.5,200.8,89.8,201.5,89,201.5z"/>
</g>
<g id="Line_145">
	<path d="M89,428.5c-0.8,0-1.5-0.7-1.5-1.5v-12c0-0.8,0.7-1.5,1.5-1.5s1.5,0.7,1.5,1.5v12C90.5,427.8,89.8,428.5,89,428.5z"/>
</g>
<g id="Line_165">
	<path d="M89,472.5c-0.8,0-1.5-0.7-1.5-1.5v-12c0-0.8,0.7-1.5,1.5-1.5s1.5,0.7,1.5,1.5v12C90.5,471.8,89.8,472.5,89,472.5z"/>
</g>
<g id="Line_143">
	<path d="M89,223.5c-0.8,0-1.5-0.7-1.5-1.5v-12c0-0.8,0.7-1.5,1.5-1.5s1.5,0.7,1.5,1.5v12C90.5,222.8,89.8,223.5,89,223.5z"/>
</g>
<g id="Group_185">
	<g id="Path_8">
		<g>
			<path class="st0" d="M89,482c37.7,0,68.2,30.5,68.2,68.2s-30.6,68.2-68.2,68.2s-68.2-30.5-68.2-68.2l0,0
				C20.8,512.5,51.3,482,89,482z"/>
		</g>
		<g>
			<path class="st1" d="M89,485c-8.8,0-17.3,1.7-25.4,5.1c-3.9,1.6-7.6,3.7-11.1,6c-3.5,2.3-6.7,5-9.7,8s-5.6,6.2-8,9.7
				c-2.4,3.5-4.4,7.2-6,11.1c-3.4,8-5.1,16.6-5.1,25.4s1.7,17.3,5.1,25.4c1.6,3.9,3.7,7.6,6,11.1c2.3,3.5,5,6.7,8,9.7s6.2,5.6,9.7,8
				c3.5,2.4,7.2,4.4,11.1,6c8,3.4,16.6,5.1,25.4,5.1s17.3-1.7,25.4-5.1c3.9-1.6,7.6-3.7,11.1-6c3.5-2.3,6.7-5,9.7-8s5.6-6.2,8-9.7
				c2.4-3.5,4.4-7.2,6-11.1c3.4-8,5.1-16.6,5.1-25.4s-1.7-17.3-5.1-25.4c-1.6-3.9-3.7-7.6-6-11.1c-2.3-3.5-5-6.7-8-9.7
				s-6.2-5.6-9.7-8c-3.5-2.4-7.2-4.4-11.1-6C106.3,486.7,97.8,485,89,485 M89,482c37.7,0,68.2,30.5,68.2,68.2s-30.6,68.2-68.2,68.2
				s-68.2-30.5-68.2-68.2S51.3,482,89,482z"/>
		</g>
	</g>
	<g id="Ellipse_47">
		<circle class="st2" cx="89" cy="317" r="85"/>
	</g>
	<g id="Group_95">
		<g id="Ellipse_18">
			<circle class="st1" cx="89" cy="89" r="89"/>
		</g>
		<g id="Recommended_Duration:_Max_volume_for_2hr_time_period">
			<g class="st3">
				<path class="st4" d="M36.1,51.5h4c2.1,0,3.6,1.4,3.6,3.2c0,1.4-0.8,2.4-1.9,2.8L44,62h-2.2l-2-4h-1.5v4h-2.1V51.5z M39.9,56.2
					c1,0,1.6-0.6,1.6-1.5c0-0.9-0.6-1.5-1.6-1.5h-1.7v3H39.9z"/>
			</g>
			<g class="st3">
				<path class="st4" d="M44.6,58.2c0-2.3,1.7-4,3.9-4c2.1,0,3.7,1.5,3.7,3.7c0,0.2,0,0.4,0,0.7h-5.4c0.1,1.1,0.9,1.8,1.9,1.8
					c0.7,0,1.3-0.3,1.5-0.9h2.1c-0.3,1.6-1.8,2.6-3.5,2.6C46.4,62.2,44.6,60.6,44.6,58.2z M50.1,57.4c-0.1-0.9-0.8-1.5-1.5-1.5
					c-0.8,0-1.6,0.6-1.8,1.5H50.1z"/>
			</g>
			<g class="st3">
				<path class="st4" d="M53.5,58.2c0-2.3,1.6-4,3.9-4c2,0,3.4,1.2,3.6,2.9h-2.1c-0.1-0.6-0.7-1.1-1.5-1.1c-1.1,0-1.8,0.9-1.8,2.2
					c0,1.3,0.8,2.2,1.8,2.2c0.9,0,1.4-0.5,1.5-1.1H61c-0.2,1.7-1.6,2.9-3.6,2.9C55.1,62.2,53.5,60.5,53.5,58.2z"/>
			</g>
			<g class="st3">
				<path class="st4" d="M62.1,58.2c0-2.3,1.8-4,4-4s4,1.6,4,4c0,2.4-1.8,4-4,4S62.1,60.6,62.1,58.2z M66.1,60.4
					c1.1,0,1.9-0.9,1.9-2.2c0-1.3-0.8-2.2-1.9-2.2c-1.1,0-1.9,0.9-1.9,2.2C64.2,59.5,65,60.4,66.1,60.4z"/>
				<path class="st4" d="M75,56.1c-0.7,0-1.3,0.5-1.3,1.6V62h-2v-7.5h1.7l0.2,1h0.1c0.3-0.7,1-1.2,2-1.2c1,0,1.8,0.5,2.1,1.3h0.1
					c0.4-0.9,1.2-1.3,2.2-1.3c1.5,0,2.6,1,2.6,3V62h-2v-4.5c0-1-0.5-1.5-1.2-1.5c-0.7,0-1.3,0.5-1.3,1.6V62h-2v-4.5
					C76.2,56.5,75.7,56.1,75,56.1z"/>
				<path class="st4" d="M87.8,56.1c-0.7,0-1.3,0.5-1.3,1.6V62h-2v-7.5h1.7l0.2,1h0.1c0.3-0.7,1-1.2,2-1.2c1,0,1.8,0.5,2.1,1.3h0.1
					c0.4-0.9,1.2-1.3,2.2-1.3c1.5,0,2.6,1,2.6,3V62h-2v-4.5c0-1-0.5-1.5-1.2-1.5c-0.7,0-1.3,0.5-1.3,1.6V62h-2v-4.5
					C89,56.5,88.5,56.1,87.8,56.1z"/>
				<path class="st4" d="M97.1,58.2c0-2.3,1.7-4,3.9-4c2.1,0,3.7,1.5,3.7,3.7c0,0.2,0,0.4,0,0.7h-5.4c0.1,1.1,0.9,1.8,1.9,1.8
					c0.7,0,1.3-0.3,1.5-0.9h2.1c-0.3,1.6-1.8,2.6-3.5,2.6C98.8,62.2,97.1,60.6,97.1,58.2z M102.5,57.4c-0.1-0.9-0.8-1.5-1.5-1.5
					c-0.8,0-1.6,0.6-1.8,1.5H102.5z"/>
				<path class="st4" d="M109.7,56c-0.8,0-1.6,0.6-1.6,1.8V62h-2v-7.5h1.7l0.2,1h0.1c0.3-0.6,1-1.2,2.2-1.2c1.7,0,2.9,1.1,2.9,3.1
					V62h-2v-4.3C111.2,56.6,110.6,56,109.7,56z"/>
				<path class="st4" d="M120.8,62l-0.2-1.1h-0.1c-0.4,0.8-1.4,1.3-2.4,1.3c-1.9,0-3.4-1.6-3.4-4c0-2.3,1.5-4,3.4-4
					c1,0,1.8,0.5,2.2,1h0.1v-4h2V62H120.8z M118.7,60.4c1.1,0,1.8-0.8,1.8-2.2c0-1.4-0.7-2.2-1.8-2.2s-1.8,0.9-1.8,2.2
					C116.8,59.6,117.6,60.4,118.7,60.4z"/>
				<path class="st4" d="M124,58.2c0-2.3,1.7-4,3.9-4c2.1,0,3.7,1.5,3.7,3.7c0,0.2,0,0.4,0,0.7h-5.4c0.1,1.1,0.9,1.8,1.9,1.8
					c0.7,0,1.3-0.3,1.5-0.9h2.1c-0.3,1.6-1.8,2.6-3.5,2.6C125.7,62.2,124,60.6,124,58.2z M129.4,57.4c-0.1-0.9-0.8-1.5-1.5-1.5
					c-0.8,0-1.6,0.6-1.8,1.5H129.4z"/>
				<path class="st4" d="M138.9,62l-0.2-1.1h-0.1c-0.4,0.8-1.3,1.3-2.4,1.3c-1.9,0-3.4-1.6-3.4-4c0-2.3,1.5-4,3.4-4
					c1,0,1.8,0.5,2.2,1h0.1v-4h2V62H138.9z M136.7,60.4c1.1,0,1.8-0.8,1.8-2.2c0-1.4-0.7-2.2-1.8-2.2c-1.1,0-1.8,0.9-1.8,2.2
					C134.9,59.6,135.7,60.4,136.7,60.4z"/>
			</g>
			<g class="st3">
				<path class="st4" d="M36.1,72.5h3.5c3.4,0,5.4,2.1,5.4,5.2s-2,5.2-5.4,5.2h-3.5V72.5z M39.6,81.2c2.2,0,3.4-1.3,3.4-3.5
					s-1.2-3.4-3.4-3.4h-1.4v6.9H39.6z"/>
			</g>
			<g class="st3">
				<path class="st4" d="M46.7,80v-4.6h2v4.3c0,1.1,0.6,1.7,1.4,1.7s1.5-0.6,1.5-1.8v-4.2h2V83h-1.7l-0.2-1h-0.1
					c-0.3,0.5-1,1.2-2.1,1.2C47.9,83.2,46.7,82.1,46.7,80z"/>
			</g>
			<g class="st3">
				<path class="st4" d="M55.4,75.5h1.7l0.2,1.1h0.1c0.3-0.7,1-1.2,2.1-1.2c0.2,0,0.4,0,0.6,0v2c-0.2,0-0.4,0-0.5,0
					c-1.3,0-2.1,0.8-2.1,2.4V83h-2V75.5z"/>
			</g>
			<g class="st3">
				<path class="st4" d="M60.8,81c0-1.5,1.3-2.4,3.8-2.6l0.7-0.1v-0.2c0-0.7-0.5-1.2-1.1-1.2c-0.6,0-1.1,0.3-1.2,1h-2
					c0.1-1.5,1.4-2.6,3.3-2.6c1.9,0,3.1,1.2,3.1,3V81c0,0.4,0.1,0.5,0.6,0.5l0.2,0V83c-0.2,0.1-0.5,0.1-0.7,0.1
					c-0.7,0-1.4-0.3-1.7-1.2h-0.1c-0.5,0.7-1.3,1.2-2.4,1.2C61.7,83.2,60.8,82.3,60.8,81z M63.7,81.5c1,0,1.6-0.8,1.6-1.8v-0.1
					l-0.6,0c-1.3,0.1-1.9,0.5-1.9,1.2C62.8,81.3,63.2,81.5,63.7,81.5z"/>
			</g>
			<g class="st3">
				<path class="st4" d="M69.8,80.8v-3.6h-1.5v-1.7h0.2c0.9,0,1.4-0.6,1.5-1.6l0-0.6h1.7v2.2h1.8v1.7h-1.8v3.3c0,0.6,0.4,1,0.9,1
					c0.2,0,0.4,0,0.6-0.1V83c-0.3,0.1-0.7,0.1-1,0.1C70.7,83.2,69.8,82.2,69.8,80.8z"/>
			</g>
			<g class="st3">
				<path class="st4" d="M75.9,72.1c0.7,0,1.2,0.5,1.2,1.2c0,0.7-0.6,1.2-1.2,1.2s-1.2-0.5-1.2-1.2C74.7,72.6,75.2,72.1,75.9,72.1z
					 M74.9,75.5h2V83h-2V75.5z"/>
				<path class="st4" d="M78.5,79.2c0-2.3,1.8-4,4-4s4,1.6,4,4c0,2.4-1.8,4-4,4S78.5,81.6,78.5,79.2z M82.5,81.4
					c1.1,0,1.9-0.9,1.9-2.2c0-1.3-0.8-2.2-1.9-2.2c-1.1,0-1.9,0.9-1.9,2.2C80.5,80.5,81.4,81.4,82.5,81.4z"/>
			</g>
			<g class="st3">
				<path class="st4" d="M91.6,77c-0.8,0-1.6,0.6-1.6,1.8V83h-2v-7.5h1.7l0.2,1H90c0.3-0.6,1-1.2,2.2-1.2c1.7,0,2.9,1.1,2.9,3.1V83
					h-2v-4.3C93,77.6,92.4,77,91.6,77z"/>
			</g>
			<g class="st3">
				<path class="st4" d="M97.6,75.4c0.7,0,1.2,0.5,1.2,1.2c0,0.6-0.5,1.2-1.2,1.2c-0.7,0-1.2-0.5-1.2-1.2
					C96.4,75.9,96.9,75.4,97.6,75.4z M96.4,81.9c0-0.6,0.5-1.2,1.2-1.2c0.7,0,1.2,0.5,1.2,1.2c0,0.6-0.5,1.2-1.2,1.2
					C96.9,83.1,96.4,82.6,96.4,81.9z"/>
			</g>
			<g class="st3">
				<path class="st4" d="M104.9,72.5h1.5l3.6,7.5h0.1l3.6-7.5h1.5V83h-1.2v-8.2h-0.1l-3.2,6.7h-1.2l-3.2-6.7h-0.1V83h-1.2V72.5z"/>
			</g>
			<g class="st3">
				<path class="st4" d="M117.1,81c0-1.5,1.3-2.4,3.9-2.6l0.8-0.1v-0.3c0-1-0.6-1.6-1.6-1.6c-0.9,0-1.6,0.5-1.7,1.3h-1.2
					c0.1-1.3,1.3-2.3,2.9-2.3c1.7,0,2.7,1,2.7,2.7v3.5c0,0.5,0.3,0.6,0.7,0.6c0.1,0,0.1,0,0.3,0V83c-0.2,0.1-0.4,0.1-0.6,0.1
					c-0.6,0-1.3-0.3-1.4-1.2v0h-0.1c-0.5,0.7-1.3,1.2-2.4,1.2C118.1,83.2,117.1,82.3,117.1,81z M119.6,82.1c1.3,0,2.2-1,2.2-2.5
					v-0.3l-0.7,0.1c-1.9,0.2-2.8,0.7-2.8,1.7C118.3,81.7,118.9,82.1,119.6,82.1z"/>
				<path class="st4" d="M127.1,79.1l-2.3-3.6h1.4l1.7,2.6h0.1l1.7-2.6h1.4l-2.3,3.6l2.5,3.9h-1.4l-1.9-2.9h-0.1l-1.9,2.9h-1.4
					L127.1,79.1z"/>
			</g>
			<g class="st3">
				<path class="st4" d="M35.5,96.5h1.3l2.2,6.2H39l2.2-6.2h1.3l-2.8,7.5h-1.5L35.5,96.5z"/>
			</g>
			<g class="st3">
				<path class="st4" d="M43.6,100.3c0-2.2,1.6-3.9,3.8-3.9s3.8,1.7,3.8,3.9c0,2.2-1.6,3.9-3.8,3.9S43.6,102.5,43.6,100.3z
					 M47.3,103.1c1.5,0,2.6-1.2,2.6-2.8c0-1.6-1.1-2.8-2.6-2.8s-2.6,1.2-2.6,2.8C44.8,101.8,45.8,103.1,47.3,103.1z"/>
				<path class="st4" d="M53.1,93.2h1.2V104h-1.2V93.2z"/>
				<path class="st4" d="M56.6,101.1v-4.6h1.2v4.5c0,1.4,0.8,2,1.7,2c1,0,1.9-0.7,1.9-2.2v-4.3h1.2v7.5h-1l-0.1-1h-0.1
					c-0.3,0.5-1,1.1-2.1,1.1C57.8,104.2,56.6,103.1,56.6,101.1z"/>
				<path class="st4" d="M67.9,97.5c-0.9,0-1.8,0.7-1.8,2.2v4.3H65v-7.5h1l0.1,1h0.1c0.3-0.6,1-1.1,2-1.1c1,0,1.8,0.5,2.2,1.3h0.1
					c0.4-0.8,1.1-1.3,2.2-1.3c1.4,0,2.6,0.9,2.6,2.9v4.7H74v-4.5c0-1.4-0.7-2-1.6-2c-0.9,0-1.7,0.7-1.7,2.2v4.3h-1.2v-4.5
					C69.5,98,68.8,97.5,67.9,97.5z"/>
				<path class="st4" d="M77.2,100.3c0-2.2,1.6-3.9,3.7-3.9c2,0,3.4,1.5,3.4,3.6c0,0.2,0,0.3,0,0.6h-5.8c0.1,1.5,1.1,2.5,2.5,2.5
					c0.9,0,1.8-0.4,2-1.2h1.2c-0.3,1.4-1.6,2.3-3.2,2.3C78.8,104.2,77.2,102.5,77.2,100.3z M83,99.6c-0.1-1.3-1-2.1-2.1-2.1
					s-2.2,0.8-2.4,2.1H83z"/>
			</g>
			<g class="st3">
				<path class="st4" d="M90.9,97.6h-1.5v-1.1h1.5v-1.4c0-1.4,1-2.1,2-2.1c0.5,0,1,0.2,1.2,0.3l-0.4,0.9c-0.2-0.1-0.5-0.2-0.7-0.2
					c-0.6,0-1,0.4-1,1v1.4h1.7v1.1H92v6.4h-1.2V97.6z"/>
			</g>
			<g class="st3">
				<path class="st4" d="M94.7,100.3c0-2.2,1.6-3.9,3.8-3.9c2.1,0,3.8,1.7,3.8,3.9c0,2.2-1.6,3.9-3.8,3.9
					C96.3,104.2,94.7,102.5,94.7,100.3z M98.5,103.1c1.5,0,2.6-1.2,2.6-2.8c0-1.6-1.1-2.8-2.6-2.8s-2.6,1.2-2.6,2.8
					C95.9,101.8,97,103.1,98.5,103.1z"/>
				<path class="st4" d="M104.3,96.5h1l0.1,1.1h0.1c0.3-0.5,0.9-1.2,2.2-1.2c0.2,0,0.3,0,0.4,0v1.2c-0.2,0-0.3,0-0.4,0
					c-1.3,0-2.2,0.8-2.2,2.6v3.7h-1.2V96.5z"/>
			</g>
			<g class="st3">
				<path class="st4" d="M115.5,99.8l1.5-1c0.9-0.6,1.5-1.1,1.5-1.9c0-1-0.8-1.6-1.8-1.6c-1.2,0-1.9,0.7-2,1.7h-1.2
					c0-1.6,1.3-2.8,3.2-2.8c1.8,0,3,1.1,3,2.7c0,1.3-0.9,2.1-1.7,2.6l-1.7,1.1c-0.9,0.6-1.5,1.4-1.6,2.2h5v1.1h-6.3v-0.5
					C113.4,102,114.2,100.6,115.5,99.8z"/>
			</g>
			<g class="st3">
				<path class="st4" d="M124.9,97.5c-1,0-2,0.7-2,2.2v4.3h-1.2V93.2h1.2v4.2h0.1c0.2-0.3,0.9-1,2.1-1c1.6,0,2.8,1,2.8,3v4.6h-1.2
					v-4.5C126.7,98.1,125.9,97.5,124.9,97.5z"/>
				<path class="st4" d="M130.2,96.5h1l0.1,1.1h0.1c0.3-0.5,0.9-1.2,2.2-1.2c0.2,0,0.3,0,0.4,0v1.2c-0.2,0-0.3,0-0.4,0
					c-1.3,0-2.2,0.8-2.2,2.6v3.7h-1.2V96.5z"/>
			</g>
			<g class="st3">
				<path class="st4" d="M36.9,123.3v-4.7h-1.5v-1.1h0.3c0.9,0,1.2-0.4,1.2-1.3l0-0.8h1v2.2h1.7v1.1H38v4.5c0,0.6,0.3,1,0.9,1
					c0.2,0,0.5,0,0.7-0.1v1c-0.2,0.1-0.5,0.2-0.9,0.2C37.7,125.2,36.9,124.5,36.9,123.3z"/>
			</g>
			<g class="st3">
				<path class="st4" d="M42.1,114.5c0.5,0,0.8,0.3,0.8,0.8c0,0.5-0.4,0.8-0.8,0.8c-0.4,0-0.8-0.3-0.8-0.8
					C41.3,114.9,41.7,114.5,42.1,114.5z M41.5,117.5h1.2v7.5h-1.2V117.5z"/>
				<path class="st4" d="M48,118.5c-0.9,0-1.8,0.7-1.8,2.2v4.3h-1.2v-7.5h1l0.1,1h0.1c0.3-0.6,1-1.1,2-1.1c1,0,1.8,0.5,2.2,1.3h0.1
					c0.4-0.8,1.1-1.3,2.2-1.3c1.4,0,2.6,0.9,2.6,2.9v4.7h-1.2v-4.5c0-1.4-0.7-2-1.6-2c-0.9,0-1.7,0.7-1.7,2.2v4.3h-1.2v-4.5
					C49.6,119,48.9,118.5,48,118.5z"/>
				<path class="st4" d="M57.3,121.3c0-2.2,1.6-3.9,3.7-3.9c2,0,3.4,1.5,3.4,3.6c0,0.2,0,0.3,0,0.6h-5.8c0.1,1.5,1.1,2.5,2.5,2.5
					c0.9,0,1.8-0.4,2-1.2h1.2c-0.3,1.4-1.6,2.3-3.2,2.3C58.9,125.2,57.3,123.5,57.3,121.3z M63.1,120.6c-0.1-1.3-1-2.1-2.1-2.1
					c-1.2,0-2.2,0.8-2.4,2.1H63.1z"/>
			</g>
			<g class="st3">
				<path class="st4" d="M70.3,117.5h0.9l0.1,1.2h0.1c0.5-0.9,1.5-1.4,2.5-1.4c2,0,3.5,1.7,3.5,3.9c0,2.2-1.5,3.9-3.5,3.9
					c-1,0-1.9-0.5-2.4-1.2h-0.1v4h-1.2V117.5z M73.8,124.1c1.4,0,2.4-1.1,2.4-2.8c0-1.7-1-2.8-2.4-2.8c-1.4,0-2.4,1.1-2.4,2.8
					C71.4,123,72.4,124.1,73.8,124.1z"/>
			</g>
			<g class="st3">
				<path class="st4" d="M79.1,121.3c0-2.2,1.6-3.9,3.7-3.9c2,0,3.4,1.5,3.4,3.6c0,0.2,0,0.3,0,0.6h-5.8c0.1,1.5,1.1,2.5,2.5,2.5
					c0.9,0,1.8-0.4,2-1.2h1.2c-0.3,1.4-1.6,2.3-3.2,2.3C80.7,125.2,79.1,123.5,79.1,121.3z M84.9,120.6c-0.1-1.3-1-2.1-2.1-2.1
					c-1.2,0-2.2,0.8-2.4,2.1H84.9z"/>
			</g>
			<g class="st3">
				<path class="st4" d="M88.2,117.5h1l0.1,1.1h0.1c0.3-0.5,0.9-1.2,2.2-1.2c0.2,0,0.3,0,0.4,0v1.2c-0.2,0-0.3,0-0.4,0
					c-1.3,0-2.2,0.8-2.2,2.6v3.7h-1.2V117.5z"/>
			</g>
			<g class="st3">
				<path class="st4" d="M94.1,114.5c0.5,0,0.8,0.3,0.8,0.8c0,0.5-0.4,0.8-0.8,0.8s-0.8-0.3-0.8-0.8
					C93.3,114.9,93.7,114.5,94.1,114.5z M93.5,117.5h1.2v7.5h-1.2V117.5z"/>
			</g>
			<g class="st3">
				<path class="st4" d="M96.7,121.3c0-2.2,1.6-3.9,3.8-3.9c2.1,0,3.8,1.7,3.8,3.9c0,2.2-1.6,3.9-3.8,3.9
					C98.3,125.2,96.7,123.5,96.7,121.3z M100.5,124.1c1.5,0,2.6-1.2,2.6-2.8c0-1.6-1.1-2.8-2.6-2.8s-2.6,1.2-2.6,2.8
					C97.9,122.8,99,124.1,100.5,124.1z"/>
			</g>
			<g class="st3">
				<path class="st4" d="M112.2,125l-0.1-1.2H112c-0.5,0.9-1.5,1.4-2.5,1.4c-2,0-3.5-1.7-3.5-3.9c0-2.2,1.5-3.9,3.5-3.9
					c1,0,1.9,0.5,2.4,1.2h0.1v-4.4h1.2V125H112.2z M109.6,124.1c1.4,0,2.4-1.1,2.4-2.8c0-1.7-1-2.8-2.4-2.8c-1.4,0-2.4,1.1-2.4,2.8
					C107.2,122.9,108.2,124.1,109.6,124.1z"/>
			</g>
		</g>
	</g>
	<g id="Group_134">
		<g id="_dB_">
			<g class="st3">
				<path d="M74.7,562.8c0,3.4,1,6.4,2.6,8.7l-1.6,1c-1.8-2.1-3.3-5.5-3.3-9.7c0-4.2,1.5-7.6,3.3-9.7l1.6,1
					C75.7,556.4,74.7,559.4,74.7,562.8z"/>
			</g>
			<g class="st3">
				<path d="M85.5,569l-0.2-1.5h-0.1c-0.6,1.1-1.8,1.7-3.2,1.7c-2.6,0-4.6-2.2-4.6-5.3c0-3.1,2-5.3,4.6-5.3c1.4,0,2.4,0.6,2.9,1.3
					H85v-5.4h2.7V569H85.5z M82.6,566.9c1.4,0,2.4-1.1,2.4-3c0-1.8-1-2.9-2.4-2.9c-1.4,0-2.4,1.1-2.4,2.9S81.2,566.9,82.6,566.9z"/>
			</g>
			<g class="st3">
				<path d="M90.2,555h5.3c2.7,0,4.5,1.6,4.5,3.7c0,1.5-0.9,2.4-1.7,2.8v0.1c1,0.5,2.1,1.7,2.1,3.4c0,2.3-1.9,3.9-4.6,3.9h-5.5V555z
					 M95.3,560.8c1.2,0,2-0.7,2-1.8s-0.8-1.8-2-1.8H93v3.5H95.3z M95.4,566.8c1.2,0,2-0.8,2-1.9c0-1.1-0.8-1.9-2-1.9H93v3.8H95.4z"
					/>
			</g>
			<g class="st3">
				<path d="M103.4,562.8c0-3.4-1-6.4-2.6-8.7l1.6-1c1.8,2.1,3.3,5.5,3.3,9.7s-1.5,7.6-3.3,9.7l-1.6-1
					C102.3,569.2,103.4,566.2,103.4,562.8z"/>
			</g>
		</g>
		<g id="_88">
			<g class="st3">
				<path d="M77.8,541.5c0-1.3,0.9-2.5,2.4-3.1v-0.1c-1.2-0.5-2-1.6-2-2.8c0-2.1,1.9-3.5,4.7-3.5c2.8,0,4.6,1.4,4.6,3.5
					c0,1.2-0.8,2.3-2,2.8v0.1c1.5,0.6,2.4,1.8,2.4,3.1c0,2.3-2,3.8-5,3.8C79.9,545.2,77.8,543.7,77.8,541.5z M82.9,543.1
					c1.4,0,2.3-0.7,2.3-1.8c0-1.1-0.9-1.8-2.3-1.8c-1.4,0-2.3,0.7-2.3,1.8C80.6,542.4,81.5,543.1,82.9,543.1z M82.9,537.3
					c1.1,0,1.9-0.6,1.9-1.7c0-0.9-0.8-1.5-1.9-1.5c-1.1,0-1.9,0.6-1.9,1.5C80.9,536.6,81.7,537.3,82.9,537.3z"/>
			</g>
			<g class="st3">
				<path d="M90.1,541.5c0-1.3,0.9-2.5,2.4-3.1v-0.1c-1.2-0.5-2-1.6-2-2.8c0-2.1,1.9-3.5,4.7-3.5c2.8,0,4.6,1.4,4.6,3.5
					c0,1.2-0.8,2.3-2,2.8v0.1c1.5,0.6,2.4,1.8,2.4,3.1c0,2.3-2,3.8-5,3.8C92.1,545.2,90.1,543.7,90.1,541.5z M95.2,543.1
					c1.4,0,2.3-0.7,2.3-1.8c0-1.1-0.9-1.8-2.3-1.8s-2.3,0.7-2.3,1.8C92.9,542.4,93.8,543.1,95.2,543.1z M95.2,537.3
					c1.1,0,1.9-0.6,1.9-1.7c0-0.9-0.8-1.5-1.9-1.5s-1.9,0.6-1.9,1.5C93.2,536.6,94,537.3,95.2,537.3z"/>
			</g>
		</g>
	</g>
	<g id="Group_97">
		<g id="Group_31">
			<g id="Group_27">
				<g id="Heavy_Traffic">
					<g class="st3">
						<path class="st4" d="M63.4,275.7h-4.2v3.8h-1v-8.4h1v3.7h4.2v-3.7h1v8.4h-1V275.7z"/>
					</g>
					<g class="st3">
						<path class="st4" d="M66,276.6c0-1.8,1.3-3.1,2.9-3.1c1.6,0,2.7,1.2,2.7,2.9c0,0.1,0,0.3,0,0.4H67c0.1,1.2,0.9,2,2,2
							c0.7,0,1.4-0.4,1.6-0.9h1c-0.2,1.1-1.3,1.8-2.6,1.8C67.3,279.7,66,278.3,66,276.6z M70.7,276c-0.1-1-0.8-1.7-1.7-1.7
							c-0.9,0-1.7,0.7-1.9,1.7H70.7z"/>
					</g>
					<g class="st3">
						<path class="st4" d="M72.9,278c0-1.2,1-1.9,3.1-2.1l0.6,0v-0.2c0-0.8-0.5-1.3-1.3-1.3c-0.8,0-1.2,0.4-1.4,1h-1
							c0.1-1.1,1-1.9,2.3-1.9c1.3,0,2.2,0.8,2.2,2.2v2.8c0,0.4,0.2,0.5,0.5,0.5c0,0,0.1,0,0.2,0v0.7c-0.1,0-0.3,0.1-0.5,0.1
							c-0.5,0-1-0.3-1.1-0.9v0h-0.1c-0.4,0.6-1,1-1.9,1C73.7,279.7,72.9,279,72.9,278z M74.9,278.8c1.1,0,1.8-0.8,1.8-2v-0.2l-0.5,0
							c-1.5,0.1-2.2,0.6-2.2,1.3C73.9,278.5,74.3,278.8,74.9,278.8z"/>
					</g>
					<g class="st3">
						<path class="st4" d="M78.6,273.6h1l1.8,5h0.1l1.8-5h1l-2.2,6h-1.2L78.6,273.6z"/>
					</g>
					<g class="st3">
						<path class="st4" d="M86.2,281.2c0.4,0,0.9-0.2,1.1-0.8l0.3-0.9l-2.5-5.9h1l1.9,4.7H88l1.7-4.7h1l-2.6,7
							c-0.4,1.2-1.2,1.5-1.9,1.5c-0.3,0-0.5,0-0.7-0.1v-0.8C85.7,281.2,85.9,281.2,86.2,281.2z"/>
					</g>
					<g class="st3">
						<path class="st4" d="M97.3,272h-2.5v-0.9h5.9v0.9h-2.5v7.5h-1V272z"/>
					</g>
					<g class="st3">
						<path class="st4" d="M101.1,273.6h0.8l0.1,0.9h0.1c0.2-0.4,0.7-0.9,1.8-0.9c0.1,0,0.2,0,0.3,0v0.9c-0.2,0-0.2,0-0.3,0
							c-1,0-1.7,0.7-1.7,2.1v3h-0.9V273.6z"/>
					</g>
					<g class="st3">
						<path class="st4" d="M104.8,278c0-1.2,1-1.9,3.1-2.1l0.6,0v-0.2c0-0.8-0.5-1.3-1.3-1.3c-0.8,0-1.2,0.4-1.4,1h-1
							c0.1-1.1,1-1.9,2.3-1.9c1.3,0,2.2,0.8,2.2,2.2v2.8c0,0.4,0.2,0.5,0.5,0.5c0,0,0.1,0,0.2,0v0.7c-0.1,0-0.3,0.1-0.5,0.1
							c-0.5,0-1-0.3-1.1-0.9v0h-0.1c-0.4,0.6-1,1-1.9,1C105.6,279.7,104.8,279,104.8,278z M106.8,278.8c1.1,0,1.8-0.8,1.8-2v-0.2
							l-0.5,0c-1.5,0.1-2.2,0.6-2.2,1.3C105.8,278.5,106.2,278.8,106.8,278.8z"/>
					</g>
					<g class="st3">
						<path class="st4" d="M111.8,274.4h-1.2v-0.8h1.2v-1.1c0-1.1,0.8-1.7,1.6-1.7c0.4,0,0.8,0.1,1,0.3l-0.3,0.7
							c-0.2-0.1-0.4-0.1-0.6-0.1c-0.5,0-0.8,0.3-0.8,0.8v1.1h2.1v-1.1c0-1.1,0.8-1.7,1.6-1.7c0.3,0,0.6,0.1,0.8,0.2l-0.3,0.8
							c-0.1-0.1-0.3-0.1-0.5-0.1c-0.5,0-0.7,0.3-0.7,0.8v1.1h3.1v6h-0.9v-5.1h-2.1v5.1h-0.9v-5.1h-2.1v5.1h-0.9V274.4z M118.3,271.2
							c0.4,0,0.6,0.3,0.6,0.6s-0.3,0.6-0.6,0.6c-0.4,0-0.6-0.3-0.6-0.6S117.9,271.2,118.3,271.2z"/>
						<path class="st4" d="M120.4,276.6c0-1.8,1.2-3.1,3-3.1c1.4,0,2.5,0.8,2.7,2.1h-1c-0.2-0.7-0.8-1.2-1.7-1.2c-1.2,0-2,0.9-2,2.2
							c0,1.3,0.8,2.2,2,2.2c0.9,0,1.5-0.5,1.7-1.2h1c-0.2,1.2-1.3,2.1-2.7,2.1C121.6,279.7,120.4,278.3,120.4,276.6z"/>
					</g>
				</g>
				<g id="Ellipse_14">
					<circle class="st4" cx="51.5" cy="276" r="1.5"/>
				</g>
			</g>
		</g>
	</g>
	<g id="Group_174">
		<g id="EXAMPLE">
			<g class="st3">
				<path class="st4" d="M56.4,300h6.6v1.3h-5.2v3.2h4.4v1.3h-4.4v3.3h5.2v1.3h-6.6V300z"/>
				<path class="st4" d="M67.8,305.1l-3.1-5.1h1.7l2.3,3.9h0.1l2.4-3.9h1.7l-3.1,5.1l3.3,5.4h-1.7l-2.5-4.2h-0.1l-2.5,4.2h-1.7
					L67.8,305.1z"/>
				<path class="st4" d="M77.8,300h2l3.7,10.5h-1.6l-0.9-2.7h-4.3l-0.9,2.7h-1.6L77.8,300z M80.5,306.5l-1.7-4.8h-0.1l-1.6,4.8H80.5
					z"/>
				<path class="st4" d="M85.4,300h1.8l3.4,7.2h0.1l3.4-7.2h1.8v10.5h-1.4v-7.7h-0.1l-3,6.2h-1.4l-3-6.2h-0.1v7.7h-1.4V300z"/>
				<path class="st4" d="M98.7,300h3.7c2.1,0,3.5,1.3,3.5,3.2s-1.4,3.2-3.5,3.2h-2.3v4.1h-1.5V300z M102.4,305.1c1.2,0,2-0.7,2-1.9
					c0-1.1-0.8-1.9-2-1.9h-2.3v3.7H102.4z"/>
				<path class="st4" d="M108.1,300h1.5v9.2h5.1v1.3h-6.6V300z"/>
				<path class="st4" d="M116.9,300h6.6v1.3h-5.2v3.2h4.4v1.3h-4.4v3.3h5.2v1.3h-6.6V300z"/>
			</g>
		</g>
	</g>
</g>
<g>
	<path class="st4" d="M89,369.1c-8,0-15.6-3.8-20.3-10.3l1.4-1.1c4.4,6,11.4,9.5,18.8,9.5c12.9,0,23.4-10.5,23.4-23.4
		s-10.5-23.4-23.4-23.4S65.6,331,65.6,343.9c0,2.9,0.6,5.8,1.7,8.7l-1.7,0.7c-1.2-3.1-1.9-6.2-1.9-9.3c0-13.9,11.3-25.2,25.2-25.2
		s25.2,11.3,25.2,25.2S102.9,369.1,89,369.1L89,369.1z"/>
</g>
<g>
	<path class="st4" d="M82,354.6c-0.2,0-0.4,0-0.5-0.1c-0.3-0.2-0.5-0.6-0.5-1v-19.1c0-0.4,0.2-0.8,0.5-1s0.7-0.2,1.1,0l17.4,9.6
		c0.4,0.2,0.6,0.6,0.6,1s-0.2,0.8-0.6,1l-17.4,9.6C82.3,354.5,82.2,354.6,82,354.6L82,354.6z M82.7,335.6v16.8l15.2-8.4L82.7,335.6
		L82.7,335.6z M99.1,343.3L99.1,343.3L99.1,343.3z"/>
</g>
<g>
	<circle class="st4" cx="69.2" cy="358.3" r="3.6"/>
</g>
</svg>
