<svg xmlns="http://www.w3.org/2000/svg" xmlns:xlink="http://www.w3.org/1999/xlink" width="178" height="618.487" viewBox="0 0 178 618.487">
    <defs>
        <clipPath id="clip-path">
            <rect id="Rectangle_33" data-name="Rectangle 33" width="53" height="54" fill="#fff"/>
        </clipPath>
        <clipPath id="clip-path-2">
            <rect id="Rectangle_33-2" data-name="Rectangle 33" width="53" height="54" fill="none"/>
        </clipPath>
    </defs>
    <line id="Line_164" data-name="Line 164" x2="12" transform="translate(89 437) rotate(90)" fill="none" stroke="#000" stroke-linecap="round" stroke-width="3"/>
    <line id="Line_142" data-name="Line 142" x2="12" transform="translate(89 188) rotate(90)" fill="none" stroke="#000" stroke-linecap="round" stroke-width="3"/>
    <line id="Line_145" data-name="Line 145" x2="12" transform="translate(89 415) rotate(90)" fill="none" stroke="#000" stroke-linecap="round" stroke-width="3"/>
    <line id="Line_165" data-name="Line 165" x2="12" transform="translate(89 459) rotate(90)" fill="none" stroke="#000" stroke-linecap="round" stroke-width="3"/>
    <line id="Line_143" data-name="Line 143" x2="12" transform="translate(89 210) rotate(90)" fill="none" stroke="#000" stroke-linecap="round" stroke-width="3"/>
    <g id="Group_185" data-name="Group 185" transform="translate(-525 -50)">
        <g id="Path_8" data-name="Path 8" transform="translate(545.756 532)" fill="none">
            <path d="M68.244,0A68.244,68.244,0,1,1,0,68.244,68.244,68.244,0,0,1,68.244,0Z" stroke="none"/>
            <path d="M 68.24373626708984 3 C 59.43455505371094 3 50.89049530029297 4.724609375 42.84885406494141 8.125930786132812 C 38.98353576660156 9.760833740234375 35.25519561767578 11.78453826904297 31.76743316650391 14.14081573486328 C 28.31201934814453 16.47525787353516 25.06259918212891 19.15627288818359 22.10943603515625 22.10943603515625 C 19.15627288818359 25.06259918212891 16.47525787353516 28.31201934814453 14.14081573486328 31.76743316650391 C 11.78453826904297 35.25519561767578 9.760833740234375 38.98353576660156 8.125930786132812 42.84885406494141 C 4.724609375 50.89049530029297 3 59.43455505371094 3 68.24373626708984 C 3 77.05291748046875 4.724609375 85.59697723388672 8.125930786132812 93.63861083984375 C 9.760833740234375 97.50393676757812 11.78453826904297 101.2322769165039 14.14081573486328 104.7200317382812 C 16.47525787353516 108.1754608154297 19.15627288818359 111.4248809814453 22.10943603515625 114.3780364990234 C 25.06259918212891 117.3311920166016 28.31201934814453 120.0122146606445 31.76743316650391 122.3466567993164 C 35.25519561767578 124.7029342651367 38.98353576660156 126.7266387939453 42.84885406494141 128.3615417480469 C 50.89049530029297 131.7628631591797 59.43455505371094 133.4874725341797 68.24373626708984 133.4874725341797 C 77.05291748046875 133.4874725341797 85.59697723388672 131.7628631591797 93.63861083984375 128.3615417480469 C 97.50393676757812 126.7266387939453 101.2322769165039 124.7029342651367 104.7200317382812 122.3466567993164 C 108.1754608154297 120.0122146606445 111.4248809814453 117.3311920166016 114.3780364990234 114.3780364990234 C 117.3311920166016 111.4248809814453 120.0122146606445 108.1754608154297 122.3466567993164 104.7200317382812 C 124.7029342651367 101.2322769165039 126.7266387939453 97.50393676757812 128.3615417480469 93.63861083984375 C 131.7628631591797 85.59697723388672 133.4874725341797 77.05291748046875 133.4874725341797 68.24373626708984 C 133.4874725341797 59.43455505371094 131.7628631591797 50.89049530029297 128.3615417480469 42.84885406494141 C 126.7266387939453 38.98353576660156 124.7029342651367 35.25519561767578 122.3466567993164 31.76743316650391 C 120.0122146606445 28.31201934814453 117.3311920166016 25.06259918212891 114.3780364990234 22.10943603515625 C 111.4248809814453 19.15627288818359 108.1754608154297 16.47525787353516 104.7200317382812 14.14081573486328 C 101.2322769165039 11.78453826904297 97.50393676757812 9.760833740234375 93.63861083984375 8.125930786132812 C 85.59697723388672 4.724609375 77.05291748046875 3 68.24373626708984 3 M 68.24373626708984 0 C 105.9337158203125 0 136.4874725341797 30.55375671386719 136.4874725341797 68.24373626708984 C 136.4874725341797 105.9337158203125 105.9337158203125 136.4874725341797 68.24373626708984 136.4874725341797 C 30.55375671386719 136.4874725341797 0 105.9337158203125 0 68.24373626708984 C 0 30.55375671386719 30.55375671386719 0 68.24373626708984 0 Z" stroke="none" fill="#122c49"/>
        </g>
        <circle id="Ellipse_47" data-name="Ellipse 47" cx="85" cy="85" r="85" transform="translate(529 282)" fill="#efefef"/>
        <g id="Group_95" data-name="Group 95" transform="translate(-48 -411)">
            <circle id="Ellipse_18" data-name="Ellipse 18" cx="89" cy="89" r="89" transform="translate(573 461)" fill="#122c49"/>
            <text id="Recommended_Duration:_Max_volume_for_2hr_time_period" data-name="Recommended
Duration: Max volume for 2hr time period" transform="translate(608 511)" fill="#fff" font-size="15" font-family="SegoeUI-Bold, Segoe UI" font-weight="700"><tspan x="0" y="16">Recommended</tspan><tspan x="0" y="37">Duration: </tspan><tspan y="37" font-family="SegoeUI, Segoe UI" font-weight="400">Max </tspan><tspan x="0" y="58" font-family="SegoeUI, Segoe UI" font-weight="400">volume for 2hr </tspan><tspan x="0" y="79" font-family="SegoeUI, Segoe UI" font-weight="400">time period</tspan></text>
        </g>
        <g id="Group_134" data-name="Group 134" transform="translate(128 -197)">
            <text id="_dB_" data-name="(dB)" transform="translate(486 816)" fill="#123a28" font-size="20" font-family="SegoeUI-Bold, Segoe UI" font-weight="700"><tspan x="-19.985" y="0">(dB)</tspan></text>
            <text id="_88" data-name="88" transform="translate(486 792)" fill="#123a28" font-size="20" font-family="SegoeUI-Bold, Segoe UI" font-weight="700"><tspan x="-11.504" y="0">88</tspan></text>
        </g>
        <g id="Group_97" data-name="Group 97" transform="translate(-48 -216)">
            <g id="Group_31" data-name="Group 31" transform="translate(218 6)">
                <g id="Group_27" data-name="Group 27">
                    <text id="Heavy_Traffic" data-name="Heavy Traffic" transform="translate(412 564)" font-size="12" font-family="SegoeUI, Segoe UI"><tspan x="0" y="0">Heavy Traffic</tspan></text>
                    <circle id="Ellipse_14" data-name="Ellipse 14" cx="1.5" cy="1.5" r="1.5" transform="translate(405 559)"/>
                </g>
            </g>
        </g>
    </g>
    <g id="Group_194" data-name="Group 194" transform="translate(-1476 -50)">
        <g id="Group_170" data-name="Group 170" transform="translate(1269)">
            <path id="Path_22" data-name="Path 22" d="M170,85A85,85,0,0,1,0,85Z" transform="translate(211 282)" fill="#efefef"/>
            <g id="Group_145" data-name="Group 145" transform="translate(322 445) rotate(180)">
                <g id="Group_144" data-name="Group 144" clip-path="url(#clip-path)">
                    <path id="Path_19" data-name="Path 19" d="M24.6,0A24.708,24.708,0,0,1,44.409,10.02l-1.414,1.042a24.23,24.23,0,1,0,2.746,5.075l1.632-.651A24.554,24.554,0,1,1,24.6,0" transform="translate(1.55 1.914)" fill="#fff"/>
                    <path id="Path_20" data-name="Path 20" d="M18.114,0a1.027,1.027,0,0,1,.525.143,1.075,1.075,0,0,1,.516.942V19.751a1.052,1.052,0,0,1-1.59.94L.574,11.347a1.038,1.038,0,0,1,0-1.857L17.565.145A1.139,1.139,0,0,1,18.114,0M17.4,18.6V2.241L2.532,10.418ZM1.421,11.029h0Z" transform="translate(14.896 16.092)" fill="#fff"/>
                    <path id="Path_21" data-name="Path 21" d="M7.027,3.514A3.514,3.514,0,1,1,3.514,0,3.514,3.514,0,0,1,7.027,3.514" transform="translate(41.957 8.942)" fill="#fff"/>
                </g>
            </g>
            <g id="Group_161" data-name="Group 161" transform="translate(322 445) rotate(180)">
                <g id="Group_144-2" data-name="Group 144" clip-path="url(#clip-path-2)">
                    <path id="Path_19-2" data-name="Path 19" d="M24.6,0A24.708,24.708,0,0,1,44.409,10.02l-1.414,1.042a24.23,24.23,0,1,0,2.746,5.075l1.632-.651A24.554,24.554,0,1,1,24.6,0" transform="translate(1.55 1.914)" fill="#1a1818"/>
                    <path id="Path_20-2" data-name="Path 20" d="M18.114,0a1.027,1.027,0,0,1,.525.143,1.075,1.075,0,0,1,.516.942V19.751a1.052,1.052,0,0,1-1.59.94L.574,11.347a1.038,1.038,0,0,1,0-1.857L17.565.145A1.139,1.139,0,0,1,18.114,0M17.4,18.6V2.241L2.532,10.418ZM1.421,11.029h0Z" transform="translate(14.896 16.092)" fill="#1a1818"/>
                    <path id="Path_21-2" data-name="Path 21" d="M7.027,3.514A3.514,3.514,0,1,1,3.514,0,3.514,3.514,0,0,1,7.027,3.514" transform="translate(41.957 8.942)" fill="#2da340"/>
                </g>
            </g>
        </g>
        <text id="EXAMPLE" transform="translate(1531 385)" font-size="15" font-family="SegoeUI, Segoe UI"><tspan x="0" y="0">EXAMPLE</tspan></text>
    </g>
</svg>
