<?xml version="1.0" encoding="UTF-8"?><svg id="Working_File" xmlns="http://www.w3.org/2000/svg" viewBox="0 0 178 655"><defs><style>.cls-1,.cls-2{fill:none;}.cls-3{letter-spacing:-.01em;}.cls-4{letter-spacing:.01em;}.cls-5{letter-spacing:-.02em;}.cls-6{letter-spacing:-.02em;}.cls-7{font-size:12px;}.cls-7,.cls-8,.cls-9,.cls-10,.cls-11{fill:#fff;}.cls-7,.cls-8,.cls-10,.cls-12,.cls-13,.cls-11{isolation:isolate;}.cls-7,.cls-11{font-family:ULModerat-Regular, 'UL Moderat';}.cls-14{letter-spacing:0em;}.cls-15{letter-spacing:0em;}.cls-16{letter-spacing:0em;}.cls-17{letter-spacing:0em;}.cls-8,.cls-10,.cls-11{font-size:15px;}.cls-8,.cls-12{font-family:ULModerat-Bold, 'UL Moderat';font-weight:700;}.cls-18{fill:#00a451;}.cls-19{fill:#122c49;}.cls-20{letter-spacing:0em;}.cls-21{letter-spacing:-.02em;}.cls-22{letter-spacing:-.02em;}.cls-10{font-family:ULModerat-Medium, 'UL Moderat';font-weight:500;}.cls-23{letter-spacing:-.01em;}.cls-24{letter-spacing:-.01em;}.cls-25{letter-spacing:0em;}.cls-26{letter-spacing:-.02em;}.cls-12{font-size:20px;}.cls-27{letter-spacing:-.04em;}.cls-28{letter-spacing:0em;}.cls-29{letter-spacing:0em;}.cls-30{letter-spacing:0em;}.cls-31{letter-spacing:-.02em;}.cls-32{letter-spacing:-.01em;}.cls-33{letter-spacing:0em;}.cls-34{letter-spacing:0em;}.cls-35{letter-spacing:0em;}.cls-36{letter-spacing:-.05em;}.cls-37{letter-spacing:0em;}.cls-2{stroke:#000;stroke-linecap:round;stroke-width:3px;}.cls-38{letter-spacing:-.02em;}.cls-39{letter-spacing:-.07em;}.cls-40{letter-spacing:0em;}.cls-41{letter-spacing:-.02em;}.cls-42{letter-spacing:-.02em;}</style></defs><line id="Line_113" class="cls-2" x1="89" y1="433" x2="89" y2="445"/><line id="Line_114" class="cls-2" x1="89" y1="209" x2="89" y2="221"/><line id="Line_169" class="cls-2" x1="89" y1="231" x2="89" y2="243"/><line id="Line_136" class="cls-2" x1="89" y1="187" x2="89" y2="199"/><line id="Line_137" class="cls-2" x1="89" y1="165" x2="89" y2="177"/><line id="Line_115" class="cls-2" x1="89" y1="455" x2="89" y2="467"/><g id="Group_186"><g id="Path_9"><path class="cls-1" d="m89.01,0C132.08,0,167,34.92,167,77.99s-34.92,77.99-77.99,77.99S11.01,121.07,11.01,77.99C11.01,34.92,45.93,0,89.01,0h0Z"/><path class="cls-19" d="m89.01,3c-10.13,0-19.95,1.98-29.19,5.89-4.44,1.88-8.73,4.21-12.74,6.91-3.97,2.68-7.71,5.76-11.1,9.16-3.39,3.39-6.48,7.13-9.16,11.1-2.71,4.01-5.03,8.29-6.91,12.74-3.91,9.24-5.89,19.06-5.89,29.19s1.98,19.95,5.89,29.19c1.88,4.44,4.21,8.73,6.91,12.74,2.68,3.97,5.76,7.71,9.16,11.1,3.39,3.39,7.13,6.48,11.1,9.16,4.01,2.71,8.29,5.03,12.74,6.91,9.24,3.91,19.06,5.89,29.19,5.89s19.95-1.98,29.19-5.89c4.44-1.88,8.73-4.21,12.74-6.91,3.97-2.68,7.71-5.76,11.1-9.16,3.39-3.39,6.48-7.13,9.16-11.1,2.71-4.01,5.03-8.29,6.91-12.74,3.91-9.24,5.89-19.06,5.89-29.19s-1.98-19.95-5.89-29.19c-1.88-4.44-4.21-8.73-6.91-12.74-2.68-3.97-5.76-7.71-9.16-11.1-3.39-3.39-7.13-6.48-11.1-9.16-4.01-2.71-8.29-5.03-12.74-6.91-9.24-3.91-19.06-5.89-29.19-5.89M89.01,0C132.08,0,167,34.92,167,77.99s-34.92,77.99-77.99,77.99S11.01,121.07,11.01,77.99,45.93,0,89.01,0Z"/></g><circle id="Ellipse_52" class="cls-18" cx="89" cy="338" r="85"/><g id="Group_83"><g id="Group_33"><g id="Group_30"><g id="Kitchen_Blender" class="cls-13"><text class="cls-7" transform="translate(49 396)"><tspan class="cls-20" x="0" y="0">K</tspan><tspan class="cls-28" x="7.45" y="0">i</tspan><tspan class="cls-3" x="10.26" y="0">t</tspan><tspan class="cls-14" x="14.3" y="0">c</tspan><tspan x="21.17" y="0">hen </tspan><tspan class="cls-15" x="44.82" y="0">B</tspan><tspan class="cls-28" x="52.15" y="0">lender</tspan></text></g><circle id="Ellipse_14" class="cls-9" cx="43.5" cy="392.5" r="1.5"/></g><g id="Group_28"><g id="Hair_Dyer" class="cls-13"><text class="cls-7" transform="translate(49 377)"><tspan class="cls-22" x="0" y="0">H</tspan><tspan class="cls-15" x="8.33" y="0">a</tspan><tspan x="14.6" y="0">ir </tspan><tspan class="cls-34" x="24.82" y="0">D</tspan><tspan class="cls-22" x="33.48" y="0">y</tspan><tspan x="39.66" y="0">er</tspan></text></g><circle id="Ellipse_14-2" class="cls-9" cx="43.5" cy="373.5" r="1.5"/></g><g id="Group_27"><g id="Motorcycle" class="cls-13"><text class="cls-7" transform="translate(49 358)"><tspan class="cls-38" x="0" y="0">Mo</tspan><tspan class="cls-3" x="17.53" y="0">t</tspan><tspan x="21.58" y="0">o</tspan><tspan class="cls-26" x="28.94" y="0">r</tspan><tspan class="cls-42" x="33.01" y="0">c</tspan><tspan class="cls-22" x="39.74" y="0">y</tspan><tspan class="cls-25" x="45.92" y="0">c</tspan><tspan x="52.79" y="0">le</tspan></text></g><circle id="Ellipse_14-3" class="cls-9" cx="43.5" cy="354.5" r="1.5"/></g></g></g><g id="Group_84"><circle id="Ellipse_18" class="cls-19" cx="89" cy="566" r="89"/><g id="Recommended_Duration:_Max_volume_for_50min_time_period" class="cls-13"><text class="cls-8" transform="translate(29 539)"><tspan class="cls-27" x="0" y="0">R</tspan><tspan class="cls-37" x="8.98" y="0">e</tspan><tspan class="cls-40" x="17.81" y="0">c</tspan><tspan x="26.48" y="0">ommended</tspan></text><text class="cls-8" transform="translate(29 560)"><tspan class="cls-25" x="0" y="0">D</tspan><tspan class="cls-37" x="10.8" y="0">u</tspan><tspan class="cls-32" x="19.5" y="0">r</tspan><tspan class="cls-23" x="25.15" y="0">a</tspan><tspan class="cls-29" x="32.98" y="0">t</tspan><tspan x="39.01" y="0">io</tspan><tspan class="cls-41" x="52.11" y="0">n</tspan><tspan x="60.7" y="0">: </tspan></text><text class="cls-11" transform="translate(97.4 560)"><tspan class="cls-21" x="0" y="0">M</tspan><tspan x="12.89" y="0">ax </tspan></text><text class="cls-11" transform="translate(29 581)"><tspan class="cls-21" x="0" y="0">v</tspan><tspan x="7.74" y="0">olume </tspan><tspan class="cls-5" x="53.98" y="0">f</tspan><tspan x="58.89" y="0">or 50min </tspan></text><text class="cls-11" transform="translate(29 602)"><tspan class="cls-4" x="0" y="0">t</tspan><tspan x="5.38" y="0">ime </tspan><tspan class="cls-35" x="34.09" y="0">p</tspan><tspan x="43.29" y="0">e</tspan><tspan class="cls-17" x="52" y="0">r</tspan><tspan x="57.37" y="0">i</tspan><tspan class="cls-35" x="60.88" y="0">o</tspan><tspan x="70.14" y="0">d</tspan></text></g></g><g id="Group_135"><g id="_dB_" class="cls-13"><text class="cls-12" transform="translate(71.31 96)"><tspan class="cls-39" x="0" y="0">(</tspan><tspan class="cls-33" x="5.24" y="0">d</tspan><tspan class="cls-36" x="17.4" y="0">B</tspan><tspan class="cls-16" x="28.82" y="0">)</tspan></text></g><g id="_90-97" class="cls-13"><text class="cls-12" transform="translate(61.99 72)"><tspan class="cls-30" x="0" y="0">9</tspan><tspan class="cls-24" x="11.68" y="0">0</tspan><tspan class="cls-6" x="23.82" y="0">-</tspan><tspan class="cls-31" x="31.68" y="0">9</tspan><tspan x="42.84" y="0">7</tspan></text></g></g><g id="Group_177"><g id="Group_170"><path id="Path_22" class="cls-1" d="m174,338c0-46.94-38.06-85-85-85S4,291.06,4,338h170Z"/></g><g id="EXAMPLE" class="cls-13"><text class="cls-10" transform="translate(55 329)"><tspan x="0" y="0">EXAMPLE</tspan></text></g></g></g><path class="cls-9" d="m89,309.77c-7.97,0-15.56-3.84-20.3-10.27l1.45-1.07c4.4,5.97,11.44,9.53,18.85,9.53,12.9,0,23.4-10.5,23.4-23.4s-10.5-23.4-23.4-23.4-23.4,10.5-23.4,23.4c0,2.86.58,5.78,1.74,8.67l-1.67.67c-1.24-3.1-1.86-6.24-1.86-9.33,0-13.89,11.3-25.2,25.2-25.2s25.2,11.3,25.2,25.2-11.3,25.2-25.2,25.2Z"/><path class="cls-9" d="m81.97,295.24c-.19,0-.37-.05-.54-.15-.33-.2-.53-.56-.53-.97v-19.12c0-.41.2-.77.53-.97.33-.2.74-.19,1.1,0l17.41,9.57c.37.2.59.56.59.95s-.22.75-.59.95l-17.41,9.57c-.18.1-.37.15-.56.15Zm.73-19.05v16.75l15.23-8.38-15.23-8.38Zm16.37,7.75s0,0,0,0h0Z"/><circle class="cls-9" cx="69.2" cy="298.97" r="3.6"/></svg>