<?xml version="1.0" encoding="utf-8"?>
<!-- Generator: Adobe Illustrator 27.5.0, SVG Export Plug-In . SVG Version: 6.00 Build 0)  -->
<svg version="1.1" id="Working_File" xmlns="http://www.w3.org/2000/svg" xmlns:xlink="http://www.w3.org/1999/xlink" x="0px"
	 y="0px" viewBox="0 0 178 655" style="enable-background:new 0 0 178 655;" xml:space="preserve">
<style type="text/css">
	.st0{fill:none;}
	.st1{fill:#122C49;}
	.st2{fill:#EFEFEF;}
	.st3{enable-background:new    ;}
	.st4{fill:#FFFFFF;}
	.st5{fill:#00A451;}
</style>
<g id="Line_113">
	<path d="M89,446.5c-0.8,0-1.5-0.7-1.5-1.5v-12c0-0.8,0.7-1.5,1.5-1.5s1.5,0.7,1.5,1.5v12C90.5,445.8,89.8,446.5,89,446.5z"/>
</g>
<g id="Line_114">
	<path d="M89,222.5c-0.8,0-1.5-0.7-1.5-1.5v-12c0-0.8,0.7-1.5,1.5-1.5s1.5,0.7,1.5,1.5v12C90.5,221.8,89.8,222.5,89,222.5z"/>
</g>
<g id="Line_169">
	<path d="M89,244.5c-0.8,0-1.5-0.7-1.5-1.5v-12c0-0.8,0.7-1.5,1.5-1.5s1.5,0.7,1.5,1.5v12C90.5,243.8,89.8,244.5,89,244.5z"/>
</g>
<g id="Line_136">
	<path d="M89,200.5c-0.8,0-1.5-0.7-1.5-1.5v-12c0-0.8,0.7-1.5,1.5-1.5s1.5,0.7,1.5,1.5v12C90.5,199.8,89.8,200.5,89,200.5z"/>
</g>
<g id="Line_137">
	<path d="M89,178.5c-0.8,0-1.5-0.7-1.5-1.5v-12c0-0.8,0.7-1.5,1.5-1.5s1.5,0.7,1.5,1.5v12C90.5,177.8,89.8,178.5,89,178.5z"/>
</g>
<g id="Line_115">
	<path d="M89,468.5c-0.8,0-1.5-0.7-1.5-1.5v-12c0-0.8,0.7-1.5,1.5-1.5s1.5,0.7,1.5,1.5v12C90.5,467.8,89.8,468.5,89,468.5z"/>
</g>
<g id="Group_186">
	<g id="Path_9">
		<g>
			<path class="st0" d="M89,0c43.1,0,78,34.9,78,78s-34.9,78-78,78s-78-34.9-78-78C11,34.9,45.9,0,89,0L89,0z"/>
		</g>
		<g>
			<path class="st1" d="M89,3c-10.1,0-20,2-29.2,5.9c-4.4,1.9-8.7,4.2-12.7,6.9c-4,2.7-7.7,5.8-11.1,9.2c-3.4,3.4-6.5,7.1-9.2,11.1
				c-2.7,4-5,8.3-6.9,12.7C16,58,14,67.9,14,78s2,20,5.9,29.2c1.9,4.4,4.2,8.7,6.9,12.7c2.7,4,5.8,7.7,9.2,11.1
				c3.4,3.4,7.1,6.5,11.1,9.2c4,2.7,8.3,5,12.7,6.9C69.1,151,78.9,153,89,153s20-2,29.2-5.9c4.4-1.9,8.7-4.2,12.7-6.9
				c4-2.7,7.7-5.8,11.1-9.2c3.4-3.4,6.5-7.1,9.2-11.1c2.7-4,5-8.3,6.9-12.7C162,97.9,164,88.1,164,78s-2-20-5.9-29.2
				c-1.9-4.4-4.2-8.7-6.9-12.7c-2.7-4-5.8-7.7-9.2-11.1c-3.4-3.4-7.1-6.5-11.1-9.2c-4-2.7-8.3-5-12.7-6.9C109,5,99.1,3,89,3 M89,0
				c43.1,0,78,34.9,78,78s-34.9,78-78,78s-78-34.9-78-78S45.9,0,89,0z"/>
		</g>
	</g>
	<g id="Ellipse_52">
		<circle class="st2" cx="89" cy="338" r="85"/>
	</g>
	<g id="Group_83">
		<g id="Group_33">
			<g id="Group_30">
				<g id="Kitchen_Blender">
					<g class="st3">
						<path d="M50.2,387.6h1v3.6h0.7l2.9-3.6h1.2l-3.2,4v0.1l3.4,4.3h-1.2l-3.1-3.9h-0.7v3.9h-1V387.6z"/>
					</g>
					<g class="st3">
						<path d="M57.9,387.6c0.4,0,0.6,0.3,0.6,0.6s-0.3,0.6-0.6,0.6s-0.6-0.3-0.6-0.6S57.5,387.6,57.9,387.6z M57.4,390h0.9v6h-0.9
							V390z"/>
					</g>
					<g class="st3">
						<path d="M60.8,394.7v-3.8h-1.2V390h0.3c0.7,0,1-0.4,1-1.1l0-0.7h0.8v1.8h1.4v0.8h-1.4v3.6c0,0.5,0.3,0.8,0.7,0.8
							c0.2,0,0.4,0,0.5-0.1v0.8c-0.2,0.1-0.4,0.1-0.7,0.1C61.4,396.1,60.8,395.6,60.8,394.7z"/>
					</g>
					<g class="st3">
						<path d="M64,393c0-1.8,1.2-3.1,3-3.1c1.4,0,2.5,0.8,2.7,2.1h-1c-0.2-0.7-0.8-1.2-1.7-1.2c-1.2,0-2,0.9-2,2.2
							c0,1.3,0.8,2.2,2,2.2c0.9,0,1.5-0.5,1.7-1.2h1c-0.2,1.2-1.3,2.1-2.7,2.1C65.2,396.1,64,394.8,64,393z"/>
					</g>
					<g class="st3">
						<path d="M73.6,390.8c-0.8,0-1.6,0.5-1.6,1.8v3.4h-0.9v-8.6H72v3.4h0.1c0.2-0.3,0.7-0.8,1.6-0.8c1.3,0,2.2,0.8,2.2,2.4v3.7
							h-0.9v-3.6C75.1,391.3,74.4,390.8,73.6,390.8z"/>
						<path d="M77.6,393c0-1.8,1.3-3.1,2.9-3.1c1.6,0,2.7,1.2,2.7,2.9c0,0.1,0,0.3,0,0.4h-4.6c0.1,1.2,0.9,2,2,2
							c0.7,0,1.4-0.4,1.6-0.9h1c-0.2,1.1-1.3,1.8-2.6,1.8C78.9,396.1,77.6,394.8,77.6,393z M82.3,392.5c-0.1-1-0.8-1.7-1.7-1.7
							c-0.9,0-1.7,0.7-1.9,1.7H82.3z"/>
						<path d="M87.4,390.8c-0.8,0-1.6,0.5-1.6,1.8v3.4h-0.9v-6h0.8l0.1,0.8h0.1c0.3-0.4,0.8-0.9,1.7-0.9c1.3,0,2.2,0.8,2.2,2.4v3.7
							h-0.9v-3.6C88.8,391.3,88.2,390.8,87.4,390.8z"/>
					</g>
					<g class="st3">
						<path d="M95,387.6h2.8c1.5,0,2.5,0.9,2.5,2.2c0,1-0.6,1.5-1.1,1.8v0.1c0.6,0.3,1.2,1,1.2,2c0,1.3-1.1,2.3-2.6,2.3H95V387.6z
							 M97.8,391.3c0.9,0,1.5-0.5,1.5-1.4s-0.6-1.4-1.5-1.4H96v2.8H97.8z M97.9,395.1c0.9,0,1.6-0.6,1.6-1.5c0-0.9-0.6-1.5-1.6-1.5
							H96v3H97.9z"/>
					</g>
					<g class="st3">
						<path d="M102.1,387.4h0.9v8.6h-0.9V387.4z"/>
						<path d="M104.6,393c0-1.8,1.3-3.1,2.9-3.1c1.6,0,2.7,1.2,2.7,2.9c0,0.1,0,0.3,0,0.4h-4.6c0.1,1.2,0.9,2,2,2
							c0.7,0,1.4-0.4,1.6-0.9h1c-0.2,1.1-1.3,1.8-2.6,1.8C105.9,396.1,104.6,394.8,104.6,393z M109.3,392.5c-0.1-1-0.8-1.7-1.7-1.7
							c-0.9,0-1.7,0.7-1.9,1.7H109.3z"/>
						<path d="M114.4,390.8c-0.8,0-1.6,0.5-1.6,1.8v3.4h-0.9v-6h0.8l0.1,0.8h0.1c0.3-0.4,0.8-0.9,1.7-0.9c1.3,0,2.2,0.8,2.2,2.4v3.7
							h-0.9v-3.6C115.8,391.3,115.2,390.8,114.4,390.8z"/>
						<path d="M123.3,396l-0.1-1h-0.1c-0.4,0.7-1.2,1.1-2,1.1c-1.6,0-2.8-1.3-2.8-3.1s1.2-3.1,2.8-3.1c0.8,0,1.5,0.4,1.9,0.9h0.1
							v-3.5h0.9v8.6H123.3z M121.3,395.2c1.1,0,1.9-0.9,1.9-2.2c0-1.3-0.8-2.2-1.9-2.2c-1.1,0-1.9,0.9-1.9,2.2
							C119.3,394.3,120.2,395.2,121.3,395.2z"/>
						<path d="M125.7,393c0-1.8,1.3-3.1,2.9-3.1c1.6,0,2.7,1.2,2.7,2.9c0,0.1,0,0.3,0,0.4h-4.6c0.1,1.2,0.9,2,2,2
							c0.7,0,1.4-0.4,1.6-0.9h1c-0.2,1.1-1.3,1.8-2.6,1.8C126.9,396.1,125.7,394.8,125.7,393z M130.3,392.5c-0.1-1-0.8-1.7-1.7-1.7
							c-0.9,0-1.7,0.7-1.9,1.7H130.3z"/>
						<path d="M132.9,390h0.8l0.1,0.9h0.1c0.2-0.4,0.7-0.9,1.8-0.9c0.1,0,0.2,0,0.3,0v0.9c-0.2,0-0.2,0-0.3,0c-1,0-1.7,0.7-1.7,2.1
							v3h-0.9V390z"/>
					</g>
				</g>
				<g id="Ellipse_14">
					<circle cx="43.5" cy="392.5" r="1.5"/>
				</g>
			</g>
			<g id="Group_28">
				<g id="Hair_Dyer">
					<g class="st3">
						<path d="M55.4,373.2h-4.2v3.8h-1v-8.4h1v3.7h4.2v-3.7h1v8.4h-1V373.2z"/>
					</g>
					<g class="st3">
						<path d="M58,375.4c0-1.2,1-1.9,3.1-2.1l0.6,0v-0.2c0-0.8-0.5-1.3-1.3-1.3c-0.8,0-1.2,0.4-1.4,1h-1c0.1-1.1,1-1.9,2.3-1.9
							c1.3,0,2.2,0.8,2.2,2.2v2.8c0,0.4,0.2,0.5,0.5,0.5c0,0,0.1,0,0.2,0v0.7c-0.1,0-0.3,0.1-0.5,0.1c-0.5,0-1-0.3-1.1-0.9v0h-0.1
							c-0.4,0.6-1,1-1.9,1C58.8,377.1,58,376.5,58,375.4z M60,376.3c1.1,0,1.8-0.8,1.8-2V374l-0.5,0c-1.5,0.1-2.2,0.6-2.2,1.3
							C59,376,59.4,376.3,60,376.3z"/>
					</g>
					<g class="st3">
						<path d="M65,368.6c0.4,0,0.6,0.3,0.6,0.6s-0.3,0.6-0.6,0.6s-0.6-0.3-0.6-0.6S64.6,368.6,65,368.6z M64.5,371h0.9v6h-0.9V371z"
							/>
						<path d="M67.3,371h0.8l0.1,0.9h0.1c0.2-0.4,0.7-0.9,1.8-0.9c0.1,0,0.2,0,0.3,0v0.9c-0.2,0-0.2,0-0.3,0c-1,0-1.7,0.7-1.7,2.1v3
							h-0.9V371z"/>
					</g>
					<g class="st3">
						<path d="M75,368.6h2.5c2.7,0,4.3,1.5,4.3,4.2c0,2.7-1.6,4.2-4.3,4.2H75V368.6z M77.5,376.1c2.1,0,3.3-1.2,3.3-3.3
							c0-2.1-1.2-3.3-3.3-3.3H76v6.6H77.5z"/>
					</g>
					<g class="st3">
						<path d="M84,378.7c0.4,0,0.9-0.2,1.1-0.8l0.3-0.9l-2.5-5.9h1l1.9,4.7h0.1l1.7-4.7h1l-2.6,7c-0.4,1.2-1.2,1.5-1.9,1.5
							c-0.3,0-0.5,0-0.7-0.1v-0.8C83.4,378.6,83.7,378.7,84,378.7z"/>
					</g>
					<g class="st3">
						<path d="M89.3,374c0-1.8,1.3-3.1,2.9-3.1c1.6,0,2.7,1.2,2.7,2.9c0,0.1,0,0.3,0,0.4h-4.6c0.1,1.2,0.9,2,2,2
							c0.7,0,1.4-0.4,1.6-0.9h1c-0.2,1.1-1.3,1.8-2.6,1.8C90.6,377.1,89.3,375.8,89.3,374z M94,373.5c-0.1-1-0.8-1.7-1.7-1.7
							s-1.7,0.7-1.9,1.7H94z"/>
						<path d="M96.6,371h0.8l0.1,0.9h0.1c0.2-0.4,0.7-0.9,1.8-0.9c0.1,0,0.2,0,0.3,0v0.9c-0.2,0-0.2,0-0.3,0c-1,0-1.7,0.7-1.7,2.1v3
							h-0.9V371z"/>
					</g>
				</g>
				<g id="Ellipse_14-2">
					<circle cx="43.5" cy="373.5" r="1.5"/>
				</g>
			</g>
			<g id="Group_27">
				<g id="Motorcycle">
					<g class="st3">
						<path d="M50.2,349.6h1.2l2.9,6h0.1l2.8-6h1.2v8.4h-0.9v-6.6h-0.1l-2.6,5.3h-1l-2.6-5.3h-0.1v6.6h-0.9V349.6z"/>
						<path d="M59.8,355c0-1.8,1.3-3.1,3-3.1c1.7,0,3,1.3,3,3.1c0,1.8-1.3,3.1-3,3.1C61.1,358.1,59.8,356.8,59.8,355z M62.8,357.2
							c1.2,0,2.1-1,2.1-2.2c0-1.2-0.9-2.2-2.1-2.2c-1.2,0-2.1,1-2.1,2.2C60.7,356.3,61.6,357.2,62.8,357.2z"/>
					</g>
					<g class="st3">
						<path d="M68,356.7v-3.8h-1.2V352h0.3c0.7,0,1-0.4,1-1.1l0-0.7H69v1.8h1.4v0.8H69v3.6c0,0.5,0.3,0.8,0.7,0.8
							c0.2,0,0.4,0,0.5-0.1v0.8c-0.2,0.1-0.4,0.1-0.7,0.1C68.7,358.1,68,357.6,68,356.7z"/>
					</g>
					<g class="st3">
						<path d="M71.2,355c0-1.8,1.3-3.1,3-3.1c1.7,0,3,1.3,3,3.1c0,1.8-1.3,3.1-3,3.1C72.5,358.1,71.2,356.8,71.2,355z M74.3,357.2
							c1.2,0,2.1-1,2.1-2.2c0-1.2-0.9-2.2-2.1-2.2c-1.2,0-2.1,1-2.1,2.2C72.2,356.3,73.1,357.2,74.3,357.2z"/>
					</g>
					<g class="st3">
						<path d="M78.9,352h0.8l0.1,0.9h0.1c0.2-0.4,0.7-0.9,1.8-0.9c0.1,0,0.2,0,0.3,0v0.9c-0.2,0-0.2,0-0.3,0c-1,0-1.7,0.7-1.7,2.1v3
							h-0.9V352z"/>
					</g>
					<g class="st3">
						<path d="M82.7,355c0-1.8,1.2-3.1,3-3.1c1.4,0,2.5,0.8,2.7,2.1h-1c-0.2-0.7-0.8-1.2-1.7-1.2c-1.2,0-2,0.9-2,2.2
							c0,1.3,0.8,2.2,2,2.2c0.9,0,1.5-0.5,1.7-1.2h1c-0.2,1.2-1.3,2.1-2.7,2.1C83.9,358.1,82.7,356.8,82.7,355z"/>
					</g>
					<g class="st3">
						<path d="M90.2,359.7c0.4,0,0.9-0.2,1.1-0.8l0.3-0.9l-2.5-5.9h1l1.9,4.7h0.1l1.7-4.7h1l-2.6,7c-0.4,1.2-1.2,1.5-1.9,1.5
							c-0.3,0-0.5,0-0.7-0.1v-0.8C89.7,359.6,90,359.7,90.2,359.7z"/>
					</g>
					<g class="st3">
						<path d="M95.6,355c0-1.8,1.2-3.1,3-3.1c1.4,0,2.5,0.8,2.7,2.1h-1c-0.2-0.7-0.8-1.2-1.7-1.2c-1.2,0-2,0.9-2,2.2
							c0,1.3,0.8,2.2,2,2.2c0.9,0,1.5-0.5,1.7-1.2h1c-0.2,1.2-1.3,2.1-2.7,2.1C96.8,358.1,95.6,356.8,95.6,355z"/>
					</g>
					<g class="st3">
						<path d="M102.7,349.4h0.9v8.6h-0.9V349.4z"/>
						<path d="M105.3,355c0-1.8,1.3-3.1,2.9-3.1c1.6,0,2.7,1.2,2.7,2.9c0,0.1,0,0.3,0,0.4h-4.6c0.1,1.2,0.9,2,2,2
							c0.7,0,1.4-0.4,1.6-0.9h1c-0.2,1.1-1.3,1.8-2.6,1.8C106.5,358.1,105.3,356.8,105.3,355z M109.9,354.5c-0.1-1-0.8-1.7-1.7-1.7
							c-0.9,0-1.7,0.7-1.9,1.7H109.9z"/>
					</g>
				</g>
				<g id="Ellipse_14-3">
					<circle cx="43.5" cy="354.5" r="1.5"/>
				</g>
			</g>
		</g>
	</g>
	<g id="Group_84">
		<g id="Ellipse_18">
			<circle class="st1" cx="89" cy="566" r="89"/>
		</g>
		<g id="Recommended_Duration:_Max_volume_for_50min_time_period">
			<g class="st3">
				<path class="st4" d="M30.1,528.5h4c2.1,0,3.6,1.4,3.6,3.2c0,1.4-0.8,2.4-1.9,2.8L38,539h-2.2l-2-4h-1.5v4h-2.1V528.5z
					 M33.9,533.2c1,0,1.6-0.6,1.6-1.5c0-0.9-0.6-1.5-1.6-1.5h-1.7v3H33.9z"/>
			</g>
			<g class="st3">
				<path class="st4" d="M38.6,535.2c0-2.3,1.7-4,3.9-4c2.1,0,3.7,1.5,3.7,3.7c0,0.2,0,0.4,0,0.7h-5.4c0.1,1.1,0.9,1.8,1.9,1.8
					c0.7,0,1.3-0.3,1.5-0.9h2.1c-0.3,1.6-1.8,2.6-3.5,2.6C40.4,539.2,38.6,537.6,38.6,535.2z M44.1,534.4c-0.1-0.9-0.8-1.5-1.5-1.5
					c-0.8,0-1.6,0.6-1.8,1.5H44.1z"/>
			</g>
			<g class="st3">
				<path class="st4" d="M47.5,535.2c0-2.3,1.6-4,3.9-4c2,0,3.4,1.2,3.6,2.9h-2.1c-0.1-0.6-0.7-1.1-1.5-1.1c-1.1,0-1.8,0.9-1.8,2.2
					c0,1.3,0.8,2.2,1.8,2.2c0.9,0,1.4-0.5,1.5-1.1H55c-0.2,1.7-1.6,2.9-3.6,2.9C49.1,539.2,47.5,537.5,47.5,535.2z"/>
			</g>
			<g class="st3">
				<path class="st4" d="M56.1,535.2c0-2.3,1.8-4,4-4s4,1.6,4,4c0,2.4-1.8,4-4,4S56.1,537.6,56.1,535.2z M60.1,537.4
					c1.1,0,1.9-0.9,1.9-2.2c0-1.3-0.8-2.2-1.9-2.2c-1.1,0-1.9,0.9-1.9,2.2C58.2,536.5,59,537.4,60.1,537.4z"/>
				<path class="st4" d="M69,533.1c-0.7,0-1.3,0.5-1.3,1.6v4.3h-2v-7.5h1.7l0.2,1h0.1c0.3-0.7,1-1.2,2-1.2c1,0,1.8,0.5,2.1,1.3h0.1
					c0.4-0.9,1.2-1.3,2.2-1.3c1.5,0,2.6,1,2.6,3v4.8h-2v-4.5c0-1-0.5-1.5-1.2-1.5c-0.7,0-1.3,0.5-1.3,1.6v4.3h-2v-4.5
					C70.2,533.5,69.7,533.1,69,533.1z"/>
				<path class="st4" d="M81.8,533.1c-0.7,0-1.3,0.5-1.3,1.6v4.3h-2v-7.5h1.7l0.2,1h0.1c0.3-0.7,1-1.2,2-1.2c1,0,1.8,0.5,2.1,1.3
					h0.1c0.4-0.9,1.2-1.3,2.2-1.3c1.5,0,2.6,1,2.6,3v4.8h-2v-4.5c0-1-0.5-1.5-1.2-1.5c-0.7,0-1.3,0.5-1.3,1.6v4.3h-2v-4.5
					C83,533.5,82.5,533.1,81.8,533.1z"/>
				<path class="st4" d="M91.1,535.2c0-2.3,1.7-4,3.9-4c2.1,0,3.7,1.5,3.7,3.7c0,0.2,0,0.4,0,0.7h-5.4c0.1,1.1,0.9,1.8,1.9,1.8
					c0.7,0,1.3-0.3,1.5-0.9h2.1c-0.3,1.6-1.8,2.6-3.5,2.6C92.8,539.2,91.1,537.6,91.1,535.2z M96.5,534.4c-0.1-0.9-0.8-1.5-1.5-1.5
					c-0.8,0-1.6,0.6-1.8,1.5H96.5z"/>
				<path class="st4" d="M103.7,533c-0.8,0-1.6,0.6-1.6,1.8v4.2h-2v-7.5h1.7l0.2,1h0.1c0.3-0.6,1-1.2,2.2-1.2c1.7,0,2.9,1.1,2.9,3.1
					v4.6h-2v-4.3C105.2,533.6,104.6,533,103.7,533z"/>
				<path class="st4" d="M114.8,539l-0.2-1.1h-0.1c-0.4,0.8-1.4,1.3-2.4,1.3c-1.9,0-3.4-1.6-3.4-4c0-2.3,1.5-4,3.4-4
					c1,0,1.8,0.5,2.2,1h0.1v-4h2V539H114.8z M112.7,537.4c1.1,0,1.8-0.8,1.8-2.2c0-1.4-0.7-2.2-1.8-2.2s-1.8,0.9-1.8,2.2
					C110.8,536.6,111.6,537.4,112.7,537.4z"/>
				<path class="st4" d="M118,535.2c0-2.3,1.7-4,3.9-4c2.1,0,3.7,1.5,3.7,3.7c0,0.2,0,0.4,0,0.7h-5.4c0.1,1.1,0.9,1.8,1.9,1.8
					c0.7,0,1.3-0.3,1.5-0.9h2.1c-0.3,1.6-1.8,2.6-3.5,2.6C119.7,539.2,118,537.6,118,535.2z M123.4,534.4c-0.1-0.9-0.8-1.5-1.5-1.5
					c-0.8,0-1.6,0.6-1.8,1.5H123.4z"/>
				<path class="st4" d="M132.9,539l-0.2-1.1h-0.1c-0.4,0.8-1.3,1.3-2.4,1.3c-1.9,0-3.4-1.6-3.4-4c0-2.3,1.5-4,3.4-4
					c1,0,1.8,0.5,2.2,1h0.1v-4h2V539H132.9z M130.7,537.4c1.1,0,1.8-0.8,1.8-2.2c0-1.4-0.7-2.2-1.8-2.2c-1.1,0-1.8,0.9-1.8,2.2
					C128.9,536.6,129.7,537.4,130.7,537.4z"/>
			</g>
			<g class="st3">
				<path class="st4" d="M30.1,549.5h3.5c3.4,0,5.4,2.1,5.4,5.2s-2,5.2-5.4,5.2h-3.5V549.5z M33.6,558.2c2.2,0,3.4-1.3,3.4-3.5
					s-1.2-3.4-3.4-3.4h-1.4v6.9H33.6z"/>
			</g>
			<g class="st3">
				<path class="st4" d="M40.7,557v-4.6h2v4.3c0,1.1,0.6,1.7,1.4,1.7s1.5-0.6,1.5-1.8v-4.2h2v7.5h-1.7l-0.2-1h-0.1
					c-0.3,0.5-1,1.2-2.1,1.2C41.9,560.2,40.7,559.1,40.7,557z"/>
			</g>
			<g class="st3">
				<path class="st4" d="M49.4,552.5h1.7l0.2,1.1h0.1c0.3-0.7,1-1.2,2.1-1.2c0.2,0,0.4,0,0.6,0v2c-0.2,0-0.4,0-0.5,0
					c-1.3,0-2.1,0.8-2.1,2.4v3.3h-2V552.5z"/>
			</g>
			<g class="st3">
				<path class="st4" d="M54.8,558c0-1.5,1.3-2.4,3.8-2.6l0.7-0.1v-0.2c0-0.7-0.5-1.2-1.1-1.2c-0.6,0-1.1,0.3-1.2,1h-2
					c0.1-1.5,1.4-2.6,3.3-2.6c1.9,0,3.1,1.2,3.1,3v2.8c0,0.4,0.1,0.5,0.6,0.5l0.2,0v1.5c-0.2,0.1-0.5,0.1-0.7,0.1
					c-0.7,0-1.4-0.3-1.7-1.2h-0.1c-0.5,0.7-1.3,1.2-2.4,1.2C55.7,560.2,54.8,559.3,54.8,558z M57.7,558.5c1,0,1.6-0.8,1.6-1.8v-0.1
					l-0.6,0c-1.3,0.1-1.9,0.5-1.9,1.2C56.8,558.3,57.2,558.5,57.7,558.5z"/>
			</g>
			<g class="st3">
				<path class="st4" d="M63.8,557.8v-3.6h-1.5v-1.7h0.2c0.9,0,1.4-0.6,1.5-1.6l0-0.6h1.7v2.2h1.8v1.7h-1.8v3.3c0,0.6,0.4,1,0.9,1
					c0.2,0,0.4,0,0.6-0.1v1.7c-0.3,0.1-0.7,0.1-1,0.1C64.7,560.2,63.8,559.2,63.8,557.8z"/>
			</g>
			<g class="st3">
				<path class="st4" d="M69.9,549.1c0.7,0,1.2,0.5,1.2,1.2c0,0.7-0.6,1.2-1.2,1.2s-1.2-0.5-1.2-1.2
					C68.7,549.6,69.2,549.1,69.9,549.1z M68.9,552.5h2v7.5h-2V552.5z"/>
				<path class="st4" d="M72.5,556.2c0-2.3,1.8-4,4-4s4,1.6,4,4c0,2.4-1.8,4-4,4S72.5,558.6,72.5,556.2z M76.5,558.4
					c1.1,0,1.9-0.9,1.9-2.2c0-1.3-0.8-2.2-1.9-2.2c-1.1,0-1.9,0.9-1.9,2.2C74.5,557.5,75.4,558.4,76.5,558.4z"/>
			</g>
			<g class="st3">
				<path class="st4" d="M85.6,554c-0.8,0-1.6,0.6-1.6,1.8v4.2h-2v-7.5h1.7l0.2,1H84c0.3-0.6,1-1.2,2.2-1.2c1.7,0,2.9,1.1,2.9,3.1
					v4.6h-2v-4.3C87,554.6,86.4,554,85.6,554z"/>
			</g>
			<g class="st3">
				<path class="st4" d="M91.6,552.4c0.7,0,1.2,0.5,1.2,1.2c0,0.6-0.5,1.2-1.2,1.2c-0.7,0-1.2-0.5-1.2-1.2
					C90.4,552.9,90.9,552.4,91.6,552.4z M90.4,558.9c0-0.6,0.5-1.2,1.2-1.2c0.7,0,1.2,0.5,1.2,1.2c0,0.6-0.5,1.2-1.2,1.2
					C90.9,560.1,90.4,559.6,90.4,558.9z"/>
			</g>
			<g class="st3">
				<path class="st4" d="M98.9,549.5h1.5l3.6,7.5h0.1l3.6-7.5h1.5V560h-1.2v-8.2h-0.1l-3.2,6.7h-1.2l-3.2-6.7h-0.1v8.2h-1.2V549.5z"
					/>
			</g>
			<g class="st3">
				<path class="st4" d="M111.1,558c0-1.5,1.3-2.4,3.9-2.6l0.8-0.1v-0.3c0-1-0.6-1.6-1.6-1.6c-0.9,0-1.6,0.5-1.7,1.3h-1.2
					c0.1-1.3,1.3-2.3,2.9-2.3c1.7,0,2.7,1,2.7,2.7v3.5c0,0.5,0.3,0.6,0.7,0.6c0.1,0,0.1,0,0.3,0v0.9c-0.2,0.1-0.4,0.1-0.6,0.1
					c-0.6,0-1.3-0.3-1.4-1.2v0h-0.1c-0.5,0.7-1.3,1.2-2.4,1.2C112.1,560.2,111.1,559.3,111.1,558z M113.6,559.1c1.3,0,2.2-1,2.2-2.5
					v-0.3l-0.7,0.1c-1.9,0.2-2.8,0.7-2.8,1.7C112.3,558.7,112.9,559.1,113.6,559.1z"/>
				<path class="st4" d="M121.1,556.1l-2.3-3.6h1.4l1.7,2.6h0.1l1.7-2.6h1.4l-2.3,3.6l2.5,3.9h-1.4l-1.9-2.9h-0.1l-1.9,2.9h-1.4
					L121.1,556.1z"/>
			</g>
			<g class="st3">
				<path class="st4" d="M29.5,573.5h1.3l2.2,6.2H33l2.2-6.2h1.3l-2.8,7.5h-1.5L29.5,573.5z"/>
			</g>
			<g class="st3">
				<path class="st4" d="M37.6,577.3c0-2.2,1.6-3.9,3.8-3.9s3.8,1.7,3.8,3.9c0,2.2-1.6,3.9-3.8,3.9S37.6,579.5,37.6,577.3z
					 M41.3,580.1c1.5,0,2.6-1.2,2.6-2.8c0-1.6-1.1-2.8-2.6-2.8s-2.6,1.2-2.6,2.8C38.8,578.8,39.8,580.1,41.3,580.1z"/>
				<path class="st4" d="M47.1,570.2h1.2V581h-1.2V570.2z"/>
				<path class="st4" d="M50.6,578.1v-4.6h1.2v4.5c0,1.4,0.8,2,1.7,2c1,0,1.9-0.7,1.9-2.2v-4.3h1.2v7.5h-1l-0.1-1h-0.1
					c-0.3,0.5-1,1.1-2.1,1.1C51.8,581.2,50.6,580.1,50.6,578.1z"/>
				<path class="st4" d="M61.9,574.5c-0.9,0-1.8,0.7-1.8,2.2v4.3H59v-7.5h1l0.1,1h0.1c0.3-0.6,1-1.1,2-1.1c1,0,1.8,0.5,2.2,1.3h0.1
					c0.4-0.8,1.1-1.3,2.2-1.3c1.4,0,2.6,0.9,2.6,2.9v4.7H68v-4.5c0-1.4-0.7-2-1.6-2c-0.9,0-1.7,0.7-1.7,2.2v4.3h-1.2v-4.5
					C63.5,575,62.8,574.5,61.9,574.5z"/>
				<path class="st4" d="M71.2,577.3c0-2.2,1.6-3.9,3.7-3.9c2,0,3.4,1.5,3.4,3.6c0,0.2,0,0.3,0,0.6h-5.8c0.1,1.5,1.1,2.5,2.5,2.5
					c0.9,0,1.8-0.4,2-1.2h1.2c-0.3,1.4-1.6,2.3-3.2,2.3C72.8,581.2,71.2,579.5,71.2,577.3z M77,576.6c-0.1-1.3-1-2.1-2.1-2.1
					s-2.2,0.8-2.4,2.1H77z"/>
			</g>
			<g class="st3">
				<path class="st4" d="M84.9,574.6h-1.5v-1.1h1.5v-1.4c0-1.4,1-2.1,2-2.1c0.5,0,1,0.2,1.2,0.3l-0.4,0.9c-0.2-0.1-0.5-0.2-0.7-0.2
					c-0.6,0-1,0.4-1,1v1.4h1.7v1.1H86v6.4h-1.2V574.6z"/>
			</g>
			<g class="st3">
				<path class="st4" d="M88.7,577.3c0-2.2,1.6-3.9,3.8-3.9c2.1,0,3.8,1.7,3.8,3.9c0,2.2-1.6,3.9-3.8,3.9
					C90.3,581.2,88.7,579.5,88.7,577.3z M92.5,580.1c1.5,0,2.6-1.2,2.6-2.8c0-1.6-1.1-2.8-2.6-2.8s-2.6,1.2-2.6,2.8
					C89.9,578.8,91,580.1,92.5,580.1z"/>
				<path class="st4" d="M98.3,573.5h1l0.1,1.1h0.1c0.3-0.5,0.9-1.2,2.2-1.2c0.2,0,0.3,0,0.4,0v1.2c-0.2,0-0.3,0-0.4,0
					c-1.3,0-2.2,0.8-2.2,2.6v3.7h-1.2V573.5z"/>
				<path class="st4" d="M107.4,578.3h1.2c0.1,1,0.9,1.7,2.1,1.7c1.2,0,2.1-0.8,2.1-2c0-1.3-0.9-2.2-2.1-2.2c-0.8,0-1.6,0.4-2,1.1
					l-1-0.3l0.5-5.3h5.4v1.1h-4.4l-0.3,3h0.1c0.4-0.4,1.1-0.7,1.9-0.7c1.9,0,3.1,1.4,3.1,3.2c0,1.9-1.4,3.2-3.3,3.2
					C108.7,581.2,107.5,579.8,107.4,578.3z"/>
				<path class="st4" d="M116,576.2c0-3.2,1.3-5,3.5-5c2.3,0,3.6,1.8,3.6,5c0,3.1-1.3,4.9-3.6,4.9C117.3,581.2,116,579.3,116,576.2z
					 M119.6,580.1c1.5,0,2.3-1.4,2.3-3.8c0-2.5-0.9-3.9-2.3-3.9c-1.5,0-2.3,1.4-2.3,3.9C117.3,578.7,118.1,580.1,119.6,580.1z"/>
				<path class="st4" d="M128.3,574.5c-0.9,0-1.8,0.7-1.8,2.2v4.3h-1.2v-7.5h1l0.1,1h0.1c0.3-0.6,1-1.1,2-1.1c1,0,1.8,0.5,2.2,1.3
					h0.1c0.4-0.8,1.1-1.3,2.2-1.3c1.4,0,2.6,0.9,2.6,2.9v4.7h-1.2v-4.5c0-1.4-0.7-2-1.6-2c-0.9,0-1.7,0.7-1.7,2.2v4.3h-1.2v-4.5
					C129.9,575,129.2,574.5,128.3,574.5z"/>
				<path class="st4" d="M138.5,570.5c0.5,0,0.8,0.3,0.8,0.8c0,0.5-0.4,0.8-0.8,0.8s-0.8-0.3-0.8-0.8
					C137.7,570.9,138.1,570.5,138.5,570.5z M137.9,573.5h1.2v7.5h-1.2V573.5z"/>
				<path class="st4" d="M144.6,574.5c-1,0-2,0.7-2,2.2v4.3h-1.2v-7.5h1l0.1,1h0.1c0.3-0.5,1-1.1,2.1-1.1c1.6,0,2.8,1,2.8,3v4.6
					h-1.2v-4.5C146.4,575.1,145.6,574.5,144.6,574.5z"/>
			</g>
			<g class="st3">
				<path class="st4" d="M30.9,600.3v-4.7h-1.5v-1.1h0.3c0.9,0,1.2-0.4,1.2-1.3l0-0.8h1v2.2h1.7v1.1H32v4.5c0,0.6,0.3,1,0.9,1
					c0.2,0,0.5,0,0.7-0.1v1c-0.2,0.1-0.5,0.2-0.9,0.2C31.7,602.2,30.9,601.5,30.9,600.3z"/>
			</g>
			<g class="st3">
				<path class="st4" d="M36.1,591.5c0.5,0,0.8,0.3,0.8,0.8c0,0.5-0.4,0.8-0.8,0.8c-0.4,0-0.8-0.3-0.8-0.8
					C35.3,591.9,35.7,591.5,36.1,591.5z M35.5,594.5h1.2v7.5h-1.2V594.5z"/>
				<path class="st4" d="M42,595.5c-0.9,0-1.8,0.7-1.8,2.2v4.3h-1.2v-7.5h1l0.1,1h0.1c0.3-0.6,1-1.1,2-1.1c1,0,1.8,0.5,2.2,1.3h0.1
					c0.4-0.8,1.1-1.3,2.2-1.3c1.4,0,2.6,0.9,2.6,2.9v4.7h-1.2v-4.5c0-1.4-0.7-2-1.6-2c-0.9,0-1.7,0.7-1.7,2.2v4.3h-1.2v-4.5
					C43.6,596,42.9,595.5,42,595.5z"/>
				<path class="st4" d="M51.3,598.3c0-2.2,1.6-3.9,3.7-3.9c2,0,3.4,1.5,3.4,3.6c0,0.2,0,0.3,0,0.6h-5.8c0.1,1.5,1.1,2.5,2.5,2.5
					c0.9,0,1.8-0.4,2-1.2h1.2c-0.3,1.4-1.6,2.3-3.2,2.3C52.9,602.2,51.3,600.5,51.3,598.3z M57.1,597.6c-0.1-1.3-1-2.1-2.1-2.1
					c-1.2,0-2.2,0.8-2.4,2.1H57.1z"/>
			</g>
			<g class="st3">
				<path class="st4" d="M64.3,594.5h0.9l0.1,1.2h0.1c0.5-0.9,1.5-1.4,2.5-1.4c2,0,3.5,1.7,3.5,3.9c0,2.2-1.5,3.9-3.5,3.9
					c-1,0-1.9-0.5-2.4-1.2h-0.1v4h-1.2V594.5z M67.8,601.1c1.4,0,2.4-1.1,2.4-2.8c0-1.7-1-2.8-2.4-2.8c-1.4,0-2.4,1.1-2.4,2.8
					C65.4,600,66.4,601.1,67.8,601.1z"/>
			</g>
			<g class="st3">
				<path class="st4" d="M73.1,598.3c0-2.2,1.6-3.9,3.7-3.9c2,0,3.4,1.5,3.4,3.6c0,0.2,0,0.3,0,0.6h-5.8c0.1,1.5,1.1,2.5,2.5,2.5
					c0.9,0,1.8-0.4,2-1.2h1.2c-0.3,1.4-1.6,2.3-3.2,2.3C74.7,602.2,73.1,600.5,73.1,598.3z M78.9,597.6c-0.1-1.3-1-2.1-2.1-2.1
					c-1.2,0-2.2,0.8-2.4,2.1H78.9z"/>
			</g>
			<g class="st3">
				<path class="st4" d="M82.2,594.5h1l0.1,1.1h0.1c0.3-0.5,0.9-1.2,2.2-1.2c0.2,0,0.3,0,0.4,0v1.2c-0.2,0-0.3,0-0.4,0
					c-1.3,0-2.2,0.8-2.2,2.6v3.7h-1.2V594.5z"/>
			</g>
			<g class="st3">
				<path class="st4" d="M88.1,591.5c0.5,0,0.8,0.3,0.8,0.8c0,0.5-0.4,0.8-0.8,0.8c-0.4,0-0.8-0.3-0.8-0.8
					C87.3,591.9,87.7,591.5,88.1,591.5z M87.5,594.5h1.2v7.5h-1.2V594.5z"/>
			</g>
			<g class="st3">
				<path class="st4" d="M90.7,598.3c0-2.2,1.6-3.9,3.8-3.9c2.1,0,3.8,1.7,3.8,3.9c0,2.2-1.6,3.9-3.8,3.9
					C92.3,602.2,90.7,600.5,90.7,598.3z M94.5,601.1c1.5,0,2.6-1.2,2.6-2.8c0-1.6-1.1-2.8-2.6-2.8s-2.6,1.2-2.6,2.8
					C91.9,599.8,93,601.1,94.5,601.1z"/>
			</g>
			<g class="st3">
				<path class="st4" d="M106.2,602l-0.1-1.2H106c-0.5,0.9-1.5,1.4-2.5,1.4c-2,0-3.5-1.7-3.5-3.9c0-2.2,1.5-3.9,3.5-3.9
					c1,0,1.9,0.5,2.4,1.2h0.1v-4.4h1.2V602H106.2z M103.6,601.1c1.4,0,2.4-1.1,2.4-2.8c0-1.7-1-2.8-2.4-2.8c-1.4,0-2.4,1.1-2.4,2.8
					C101.2,599.9,102.2,601.1,103.6,601.1z"/>
			</g>
		</g>
	</g>
	<g id="Group_135">
		<g id="_dB_">
			<g class="st3">
				<path d="M74.7,89.8c0,3.4,1,6.4,2.6,8.7l-1.6,1c-1.8-2.1-3.3-5.5-3.3-9.7c0-4.2,1.5-7.6,3.3-9.7l1.6,1
					C75.7,83.4,74.7,86.4,74.7,89.8z"/>
			</g>
			<g class="st3">
				<path d="M85.5,96l-0.2-1.5h-0.1c-0.6,1.1-1.8,1.7-3.2,1.7c-2.6,0-4.6-2.2-4.6-5.3c0-3.1,2-5.3,4.6-5.3c1.4,0,2.4,0.6,2.9,1.3H85
					v-5.4h2.7V96H85.5z M82.6,93.9c1.4,0,2.4-1.1,2.4-3c0-1.8-1-2.9-2.4-2.9c-1.4,0-2.4,1.1-2.4,2.9S81.2,93.9,82.6,93.9z"/>
			</g>
			<g class="st3">
				<path d="M90.2,82h5.3c2.7,0,4.5,1.6,4.5,3.7c0,1.5-0.9,2.4-1.7,2.8v0.1c1,0.5,2.1,1.7,2.1,3.4c0,2.3-1.9,3.9-4.6,3.9h-5.5V82z
					 M95.3,87.8c1.2,0,2-0.7,2-1.8s-0.8-1.8-2-1.8H93v3.5H95.3z M95.4,93.8c1.2,0,2-0.8,2-1.9c0-1.1-0.8-1.9-2-1.9H93v3.8H95.4z"/>
			</g>
			<g class="st3">
				<path d="M103.4,89.8c0-3.4-1-6.4-2.6-8.7l1.6-1c1.8,2.1,3.3,5.5,3.3,9.7s-1.5,7.6-3.3,9.7l-1.6-1
					C102.3,96.2,103.4,93.2,103.4,89.8z"/>
			</g>
		</g>
		<g id="_90-97">
			<g class="st3">
				<path d="M72.6,63.6c0,1.5-0.6,2.8-2.1,4.8L67.9,72h-3.1l3.6-4.8c-0.4,0.1-0.8,0.1-1.3,0.1c-2.6,0-4.4-1.6-4.4-4.1
					c0-2.5,1.9-4.4,4.9-4.4C70.8,59,72.6,60.9,72.6,63.6z M67.7,65.3c1.3,0,2.2-0.8,2.2-2c0-1.2-0.9-2-2.2-2s-2.2,0.8-2.2,2
					C65.6,64.5,66.4,65.3,67.7,65.3z"/>
			</g>
			<g class="st3">
				<path d="M74.7,65.6c0-4.3,1.9-6.7,5.1-6.7c3.3,0,5.1,2.4,5.1,6.7c0,4.2-1.9,6.6-5.1,6.6C76.6,72.2,74.7,69.8,74.7,65.6z
					 M79.9,70c1.6,0,2.4-1.5,2.4-4.4c0-2.9-0.8-4.4-2.4-4.4c-1.6,0-2.4,1.5-2.4,4.4C77.5,68.5,78.3,70,79.9,70z"/>
			</g>
			<g class="st3">
				<path d="M86.6,64.6h6.8v2.3h-6.8V64.6z"/>
			</g>
			<g class="st3">
				<path d="M104.3,63.6c0,1.5-0.6,2.8-2.1,4.8L99.6,72h-3.1l3.6-4.8c-0.4,0.1-0.8,0.1-1.3,0.1c-2.6,0-4.4-1.6-4.4-4.1
					c0-2.5,1.9-4.4,4.9-4.4C102.4,59,104.3,60.9,104.3,63.6z M99.4,65.3c1.3,0,2.2-0.8,2.2-2c0-1.2-0.9-2-2.2-2s-2.2,0.8-2.2,2
					C97.2,64.5,98.1,65.3,99.4,65.3z"/>
			</g>
			<g class="st3">
				<path d="M111.8,61.6v-0.1h-5.9v-2.3h9.4v1.7c-2.4,2.4-4.4,6.2-4.8,11.1h-2.8C108.1,66.8,109.8,63.8,111.8,61.6z"/>
			</g>
		</g>
	</g>
	<g id="Group_177">
		<g id="Group_170">
			<g id="Path_22">
				<path class="st0" d="M174,338c0-46.9-38.1-85-85-85S4,291.1,4,338H174z"/>
			</g>
		</g>
		<g id="EXAMPLE">
			<g class="st3">
				<path d="M56.4,318.5h6.6v1.3h-5.2v3.2h4.4v1.3h-4.4v3.3h5.2v1.3h-6.6V318.5z"/>
				<path d="M67.8,323.6l-3.1-5.1h1.7l2.3,3.9h0.1l2.4-3.9h1.7l-3.1,5.1L73,329h-1.7l-2.5-4.2h-0.1l-2.5,4.2h-1.7L67.8,323.6z"/>
				<path d="M77.8,318.5h2l3.7,10.5h-1.6l-0.9-2.7h-4.3l-0.9,2.7h-1.6L77.8,318.5z M80.5,324.9l-1.7-4.8h-0.1l-1.6,4.8H80.5z"/>
				<path d="M85.4,318.5h1.8l3.4,7.2h0.1l3.4-7.2h1.8V329h-1.4v-7.7h-0.1l-3,6.2h-1.4l-3-6.2h-0.1v7.7h-1.4V318.5z"/>
				<path d="M98.7,318.5h3.7c2.1,0,3.5,1.3,3.5,3.2s-1.4,3.2-3.5,3.2h-2.3v4.1h-1.5V318.5z M102.4,323.6c1.2,0,2-0.7,2-1.9
					c0-1.1-0.8-1.9-2-1.9h-2.3v3.7H102.4z"/>
				<path d="M108.1,318.5h1.5v9.2h5.1v1.3h-6.6V318.5z"/>
				<path d="M116.9,318.5h6.6v1.3h-5.2v3.2h4.4v1.3h-4.4v3.3h5.2v1.3h-6.6V318.5z"/>
			</g>
		</g>
	</g>
</g>
<g>
	<path d="M89,309.8c-8,0-15.6-3.8-20.3-10.3l1.4-1.1c4.4,6,11.4,9.5,18.8,9.5c12.9,0,23.4-10.5,23.4-23.4s-10.5-23.4-23.4-23.4
		s-23.4,10.5-23.4,23.4c0,2.9,0.6,5.8,1.7,8.7l-1.7,0.7c-1.2-3.1-1.9-6.2-1.9-9.3c0-13.9,11.3-25.2,25.2-25.2s25.2,11.3,25.2,25.2
		S102.9,309.8,89,309.8L89,309.8z"/>
</g>
<g>
	<path d="M82,295.2c-0.2,0-0.4,0-0.5-0.1c-0.3-0.2-0.5-0.6-0.5-1V275c0-0.4,0.2-0.8,0.5-1s0.7-0.2,1.1,0l17.4,9.6
		c0.4,0.2,0.6,0.6,0.6,1s-0.2,0.8-0.6,1l-17.4,9.6C82.3,295.2,82.2,295.2,82,295.2L82,295.2z M82.7,276.2v16.8l15.2-8.4L82.7,276.2
		L82.7,276.2z M99.1,283.9L99.1,283.9L99.1,283.9z"/>
</g>
<g>
	<circle class="st5" cx="69.2" cy="299" r="3.6"/>
</g>
</svg>
