<svg id="Group_45" data-name="Group 45" xmlns="http://www.w3.org/2000/svg" xmlns:xlink="http://www.w3.org/1999/xlink" width="138" height="125" viewBox="0 0 138 125">
    <defs>
        <clipPath id="clip-path">
            <rect id="Rectangle_5" data-name="Rectangle 5" width="138" height="125" fill="none"/>
        </clipPath>
    </defs>
    <rect id="Rectangle_2" data-name="Rectangle 2" width="4.459" height="19.956" transform="matrix(0.587, -0.81, 0.81, 0.587, 114.622, 59.769)" fill="#1a1818"/>
    <rect id="Rectangle_3" data-name="Rectangle 3" width="19.956" height="4.458" transform="translate(114.622 29.404) rotate(-35.906)" fill="#1a1818"/>
    <rect id="Rectangle_4" data-name="Rectangle 4" width="18" height="5" transform="translate(120 42)" fill="#1a1818"/>
    <g id="Group_2" data-name="Group 2">
        <g id="Group_1" data-name="Group 1" clip-path="url(#clip-path)">
            <path id="Path_1" data-name="Path 1" d="M57.523,84.585H19.065A3.069,3.069,0,0,1,16,81.52V43.062A3.069,3.069,0,0,1,19.065,40H57.523a3.069,3.069,0,0,1,3.065,3.065V81.52a3.069,3.069,0,0,1-3.065,3.065M20.459,80.126H56.129V44.456H20.459Z" transform="translate(-7.082 -17.705)" fill="#1a1818"/>
            <path id="Path_2" data-name="Path 2" d="M11.147,83.668H3.065A3.069,3.069,0,0,1,0,80.6V51.062A3.069,3.069,0,0,1,3.065,48h8.082v4.459H4.459V79.209h6.688Z" transform="translate(0 -21.246)" fill="#1a1818"/>
            <path id="Path_3" data-name="Path 3" d="M147.735,31.21h-4.459V6.446C121.882,27.4,110.957,31.21,92,31.21V26.751c17.164,0,27.105-2.419,50.258-25.571a3.389,3.389,0,0,1,3.667-.97,3.081,3.081,0,0,1,1.81,3.1Z" transform="translate(-40.724 0)" fill="#1a1818"/>
            <path id="Path_4" data-name="Path 4" d="M144.95,135.207a3.879,3.879,0,0,1-2.693-1.176C119.1,110.875,109.161,108.456,92,108.456V104c18.957,0,29.884,3.808,51.276,24.769V104h4.459v28.458a2.686,2.686,0,0,1-1.665,2.535,2.923,2.923,0,0,1-1.121.217" transform="translate(-40.724 -46.034)" fill="#1a1818"/>
            <path id="Path_5" data-name="Path 5" d="M49.589,176.037A13.538,13.538,0,0,1,36.13,163.681l-4.169-47.644,4.442-.389,4.169,47.644a9.077,9.077,0,0,0,9.832,8.251l4.505-.395a9.076,9.076,0,0,0,8.25-9.833L59.2,116.037l4.442-.389L67.6,160.927A13.55,13.55,0,0,1,55.3,175.59l-4.5.394c-.4.036-.8.053-1.2.053" transform="translate(-14.147 -51.191)" fill="#1a1818"/>
            <path id="Path_6" data-name="Path 6" d="M172,72.915a8.918,8.918,0,1,1,8.918,8.918A8.917,8.917,0,0,1,172,72.915" transform="translate(-76.135 -28.328)" fill="#2da340"/>
        </g>
    </g>
</svg>
